<svg width="1060" height="1040" viewBox="0 0 1060 1040" fill="none" xmlns="http://www.w3.org/2000/svg">
<path d="M1060 520C1060 807.182 822.69 1040 530.001 1040C237.31 1040 0 807.182 0 520C0 232.818 237.31 0 530.001 0C566.971 0 603.117 3.73012 637.991 10.821C397.089 59.7558 215.981 269.122 215.981 520C215.981 690.182 356.602 828.122 530.076 828.122C703.55 828.122 844.169 690.182 844.169 520C844.169 349.818 703.55 211.84 530.076 211.84L535.015 211.693C589.197 139.713 661.79 81.8779 745.982 44.983C931.056 126.085 1060 308.269 1060 520Z" fill="#F1F1F1"/>
</svg>
