<svg width="233" height="395" viewBox="0 0 233 395" fill="none" xmlns="http://www.w3.org/2000/svg">
<g filter="url(#filter0_d)">
<path d="M24 50.6766C29.6131 45.8344 35.6161 41.3045 42.0088 37.0871C48.5575 32.8697 55.574 29.199 63.0582 26.075C70.6983 22.9509 78.8841 20.5298 87.6157 18.8116C96.5032 16.9372 106.014 16 116.149 16C130.182 16 142.89 17.9525 154.272 21.8576C165.654 25.6064 175.399 31.0734 183.507 38.2586C191.615 45.2877 197.852 53.8006 202.217 63.7975C206.739 73.7943 209 84.9627 209 97.3025C209 109.174 207.285 119.483 203.855 128.23C200.58 136.821 196.37 144.319 191.225 150.723C186.236 157.127 180.7 162.673 174.619 167.359C168.539 172.045 162.769 176.418 157.312 180.479C151.855 184.541 147.099 188.602 143.046 192.663C139.147 196.568 136.731 200.942 135.795 205.784L129.948 239.289H85.7446L81.3009 201.332C80.2094 193.835 81.145 187.352 84.1075 181.885C87.0699 176.262 91.0459 171.185 96.0354 166.656C101.025 161.97 106.56 157.518 112.641 153.3C118.878 148.927 124.647 144.319 129.948 139.477C135.405 134.478 139.927 128.933 143.513 122.841C147.255 116.593 149.126 109.252 149.126 100.817C149.126 90.5078 145.54 82.3072 138.368 76.2154C131.351 70.1236 121.996 67.0777 110.302 67.0777C101.727 67.0777 94.4762 68.0149 88.5512 69.8893C82.7821 71.7637 77.7927 73.8724 73.5828 76.2154C69.3729 78.4022 65.7868 80.4328 62.8243 82.3072C59.8618 84.1816 57.0552 85.1189 54.4045 85.1189C48.4796 85.1189 44.0358 82.5415 41.0733 77.3869L24 50.6766ZM67.7358 325.746C67.7358 320.592 68.6713 315.749 70.5423 311.219C72.5693 306.533 75.2979 302.55 78.7282 299.27C82.1584 295.834 86.1344 293.178 90.6561 291.304C95.3337 289.273 100.401 288.258 105.858 288.258C111.16 288.258 116.149 289.273 120.827 291.304C125.504 293.178 129.558 295.834 132.989 299.27C136.419 302.55 139.07 306.533 140.941 311.219C142.968 315.749 143.981 320.592 143.981 325.746C143.981 331.057 142.968 335.977 140.941 340.507C139.07 345.037 136.419 349.02 132.989 352.456C129.558 355.737 125.504 358.314 120.827 360.188C116.149 362.063 111.16 363 105.858 363C100.401 363 95.3337 362.063 90.6561 360.188C86.1344 358.314 82.1584 355.737 78.7282 352.456C75.2979 349.02 72.5693 345.037 70.5423 340.507C68.6713 335.977 67.7358 331.057 67.7358 325.746Z" fill="white"/>
</g>
<defs>
<filter id="filter0_d" x="0" y="0" width="233" height="395" filterUnits="userSpaceOnUse" color-interpolation-filters="sRGB">
<feFlood flood-opacity="0" result="BackgroundImageFix"/>
<feColorMatrix in="SourceAlpha" type="matrix" values="0 0 0 0 0 0 0 0 0 0 0 0 0 0 0 0 0 0 127 0"/>
<feOffset dy="8"/>
<feGaussianBlur stdDeviation="12"/>
<feColorMatrix type="matrix" values="0 0 0 0 0 0 0 0 0 0 0 0 0 0 0 0 0 0 0.08 0"/>
<feBlend mode="normal" in2="BackgroundImageFix" result="effect1_dropShadow"/>
<feBlend mode="normal" in="SourceGraphic" in2="effect1_dropShadow" result="shape"/>
</filter>
</defs>
</svg>
