<svg width="85" height="85" viewBox="0 0 85 85" fill="none" xmlns="http://www.w3.org/2000/svg">
<rect width="85" height="85" rx="20" fill="white"/>
<path d="M61.191 34.3987H26.4735C25.2282 34.3987 24.2188 35.3504 24.2188 36.5245V69.2571C24.2188 70.4311 25.2282 71.3829 26.4735 71.3829H61.191C62.4363 71.3829 63.4458 70.4311 63.4458 69.2571V36.5245C63.4458 35.3504 62.4363 34.3987 61.191 34.3987Z" fill="#E51A37"/>
<path d="M37.9769 16.9092C33.3394 8.8166 25.5247 9.8795 20.1185 15.4114C14.7123 20.9433 13.6106 28.8668 23.0906 32.2729C29.7409 34.6343 36.9279 35.3252 43.9468 34.2779C43.2393 28.164 41.2074 22.2522 37.9769 16.9092V16.9092ZM30.2904 31.0892C24.8586 29.5674 26.8571 24.8568 29.6498 22.3928C32.0327 20.2911 34.1337 19.4698 36.7727 23.4315C38.5647 25.9805 39.8336 28.8238 40.5135 31.8139C37.1256 32.3451 33.6514 32.088 30.3929 31.0651L30.2904 31.0892Z" fill="url(#paint0_linear)"/>
<path d="M66.4153 20.2188C62.2133 15.3874 54.7061 12.9717 49.633 19.2042C46.1244 23.4715 44.0777 28.6452 43.7656 34.0365C49.7637 34.6851 55.8362 34.3253 61.7009 32.9736C70.2842 31.0169 70.6429 25.171 66.4153 20.2188ZM55.5773 29.8815C52.9971 31.1974 50.1067 31.8787 47.1733 31.8624C48.1582 30.0032 49.2797 28.2112 50.5298 26.4996C52.682 23.4317 54.9111 22.2963 56.5253 23.6732C57.0674 24.0644 57.4892 24.5846 57.7474 25.1804C58.0055 25.7762 58.0907 26.4261 57.9942 27.0632C57.8977 27.7004 57.6229 28.3018 57.1981 28.8056C56.7733 29.3094 56.2139 29.6975 55.5773 29.9299V29.8815Z" fill="url(#paint1_linear)"/>
<path d="M28.6266 41.2834L30.9326 42.0565C31.1556 42.1608 31.4011 42.215 31.65 42.215C31.8989 42.215 32.1444 42.1608 32.3674 42.0565L43.7691 34.8094C43.9171 34.7113 44.0379 34.5811 44.1213 34.4297C44.2048 34.2784 44.2483 34.1103 44.2483 33.9397C44.2483 33.7692 44.2048 33.6011 44.1213 33.4497C44.0379 33.2984 43.9171 33.1682 43.7691 33.0701V33.0701C43.5099 32.8404 43.1857 32.6862 42.8357 32.6262C42.4856 32.5662 42.1247 32.6029 41.7962 32.7319L28.0117 39.0368C27.0381 39.52 27.3968 40.8003 28.6266 41.2834Z" fill="url(#paint2_linear)"/>
<path d="M58.2445 41.7426L55.9129 42.3707C55.6841 42.4455 55.4401 42.4691 55.2 42.4398C54.9599 42.4104 54.7303 42.3289 54.5293 42.2016L44.05 34.4714C43.4863 34.0607 41.8721 32.7321 42.5639 32.2248H44.5368C45.946 32.0799 45.7666 32.2248 46.3047 32.4905L59.1156 39.7376C59.9355 40.1483 59.4743 41.2836 58.2445 41.7426Z" fill="url(#paint3_linear)"/>
<path d="M31.8516 42.9983H35.5667C37.9069 42.9983 39.0769 43.8599 39.0769 45.5831V50.9459C39.0769 52.6691 37.9069 53.5307 35.5667 53.5307H31.8516V42.9983ZM34.2088 44.496V51.9847H35.5411C36.3439 51.9847 36.7453 51.6465 36.7453 50.9701V45.5348C36.7453 44.8584 36.3354 44.5202 35.5411 44.5202L34.2088 44.496Z" fill="white"/>
<path d="M48.1504 53.5065H45.7676L45.3576 51.5981H42.488L42.078 53.5065H39.9258L42.3086 42.9983H45.7419L48.1504 53.5065ZM42.7954 50.1729H45.0501L43.9228 44.8584L42.7954 50.1729Z" fill="white"/>
<path d="M54.146 53.5065C53.9876 53.097 53.9179 52.6616 53.941 52.2262V50.5836C53.941 49.6978 53.4285 49.2549 52.4037 49.2549H51.5838V53.5307H49.2266V42.9983H52.7624C55.0854 42.9983 56.2469 43.8035 56.2469 45.414V46.2353C56.2859 46.7018 56.1548 47.1668 55.8752 47.5534C55.5957 47.94 55.1844 48.2249 54.7096 48.3611C55.2053 48.4998 55.6335 48.7984 55.9192 49.2047C56.2049 49.611 56.33 50.0991 56.2726 50.5836V52.2021C56.2418 52.6424 56.3299 53.0829 56.5288 53.4824L54.146 53.5065ZM51.5838 44.496V47.733H52.5062C53.4456 47.733 53.9154 47.3626 53.9154 46.6218V45.5831C53.9154 44.8584 53.5139 44.496 52.7111 44.496H51.5838Z" fill="white"/>
<path d="M34.5424 62.4691L31.5703 55.4395H34.1325L35.926 60.2708L37.7196 55.4395H39.9743L37.0021 62.4691V65.9477H34.5424V62.4691Z" fill="white"/>
<path d="M40.3068 57.9519C40.2907 57.5808 40.3655 57.2113 40.5255 56.8719C40.6855 56.5326 40.9263 56.2325 41.2292 55.9952C41.9791 55.5038 42.8791 55.2578 43.7914 55.2946C44.7037 55.2578 45.6037 55.5038 46.3536 55.9952C46.6565 56.2325 46.8973 56.5326 47.0573 56.8719C47.2173 57.2113 47.2921 57.5808 47.276 57.9519V63.4113C47.2921 63.7824 47.2173 64.152 47.0573 64.4913C46.8973 64.8307 46.6565 65.1307 46.3536 65.3681C45.6037 65.8594 44.7037 66.1055 43.7914 66.0686C42.8791 66.1055 41.9791 65.8594 41.2292 65.3681C40.9263 65.1307 40.6855 64.8307 40.5255 64.4913C40.3655 64.152 40.2907 63.7824 40.3068 63.4113V57.9519ZM42.664 63.508C42.664 64.2005 43.074 64.5467 43.8939 64.5467C44.7138 64.5467 45.1152 64.2005 45.0981 63.508V57.8553C45.0981 57.1628 44.6967 56.8165 43.8939 56.8165C43.0911 56.8165 42.6811 57.1628 42.664 57.8553V63.508Z" fill="white"/>
<path d="M51.273 55.4395V63.532C51.273 64.2084 51.6829 64.5466 52.5028 64.5466C53.3227 64.5466 53.7327 64.2084 53.7327 63.532V55.4395H55.9618V63.4354C55.9618 65.1908 54.7917 66.0685 52.4516 66.0685C50.1115 66.0685 48.9414 65.1908 48.9414 63.4354V55.4395H51.273Z" fill="white"/>
<defs>
<linearGradient id="paint0_linear" x1="20.964" y1="16.7642" x2="42.11" y2="35.9922" gradientUnits="userSpaceOnUse">
<stop stop-color="#FF776C"/>
<stop offset="0.12" stop-color="#FF8067"/>
<stop offset="0.33" stop-color="#FF9A59"/>
<stop offset="0.57" stop-color="#FEBF44"/>
<stop offset="0.99" stop-color="#FFBA46"/>
</linearGradient>
<linearGradient id="paint1_linear" x1="591.517" y1="106.299" x2="388.136" y2="215.789" gradientUnits="userSpaceOnUse">
<stop stop-color="#FF776C"/>
<stop offset="0.12" stop-color="#FF8067"/>
<stop offset="0.33" stop-color="#FF9A59"/>
<stop offset="0.57" stop-color="#FEBF44"/>
<stop offset="0.99" stop-color="#FFBA46"/>
</linearGradient>
<linearGradient id="paint2_linear" x1="29.2672" y1="40.8969" x2="43.418" y2="33.088" gradientUnits="userSpaceOnUse">
<stop stop-color="#FF776C"/>
<stop offset="0.19" stop-color="#FF945C"/>
<stop offset="0.43" stop-color="#FEB34B"/>
<stop offset="0.57" stop-color="#FEBF44"/>
<stop offset="0.99" stop-color="#FFBA46"/>
</linearGradient>
<linearGradient id="paint3_linear" x1="353.535" y1="164.427" x2="303.895" y2="105.485" gradientUnits="userSpaceOnUse">
<stop stop-color="#FF776C"/>
<stop offset="0.12" stop-color="#FF8067"/>
<stop offset="0.33" stop-color="#FF9A59"/>
<stop offset="0.57" stop-color="#FEBF44"/>
<stop offset="0.99" stop-color="#FFBA46"/>
</linearGradient>
</defs>
</svg>
