<svg width="180" height="151" viewBox="0 0 180 151" fill="none" xmlns="http://www.w3.org/2000/svg">
<path d="M34.9851 68.8228C33.2342 66.7273 30.8345 65.2755 28.1657 64.6971H28.0464C27.6622 64.6273 27.2659 64.7065 26.9382 64.9187L3.51357 78.4041C2.86636 78.8645 2.33528 79.4694 1.96243 80.1707C1.58957 80.872 1.38518 81.6505 1.36545 82.4446V100.294C1.34496 100.769 1.46986 101.239 1.72347 101.641C3.54607 103.778 5.99923 105.282 8.73041 105.937C8.764 105.965 8.8062 105.98 8.84975 105.98C8.8933 105.98 8.93549 105.965 8.96909 105.937L14.7315 95.4526L26.87 88.4457C27.5241 87.9801 28.0594 87.3671 28.4325 86.6563C28.8057 85.9455 29.0063 85.1568 29.0181 84.354V76.1707L33.2973 71.9257L34.9851 68.8228Z" fill="#3E5685"/>
<path d="M8.81383 106.704C8.73513 106.721 8.65384 106.721 8.57515 106.704C5.68894 105.991 3.10398 104.379 1.19314 102.101L1.00561 101.846C0.771713 101.375 0.654756 100.854 0.664641 100.328V82.4445C0.676151 81.5212 0.908035 80.6141 1.34099 79.7986C1.77394 78.9831 2.39543 78.2829 3.15372 77.7561L26.5102 64.2708C26.9067 64.0218 27.3733 63.9082 27.84 63.9468H28.0957H28.3173C31.1343 64.5589 33.6629 66.1024 35.4947 68.3283L35.7505 68.6693L33.7387 72.3177L29.6641 76.4604V84.3369C29.6526 85.2601 29.4207 86.1672 28.9878 86.9827C28.5548 87.7982 27.9334 88.4984 27.1751 89.0252L15.2411 95.9298L9.6151 106.159C9.54392 106.314 9.43165 106.447 9.29043 106.543C9.14921 106.639 8.98441 106.695 8.81383 106.704ZM2.38654 101.283C4.02291 103.213 6.21309 104.594 8.66039 105.238L14.2864 94.924H14.4569L26.5954 87.917C27.1413 87.5102 27.5865 86.9836 27.8968 86.3777C28.2072 85.7718 28.3744 85.1028 28.3855 84.4221V75.8978L32.7329 71.5846L34.1649 68.9762C32.499 67.1846 30.3396 65.9269 27.9593 65.3619H27.8229C27.6087 65.3353 27.392 65.3835 27.2092 65.4983L3.85271 78.9495C3.33369 79.3561 2.91149 79.8729 2.61665 80.4626C2.3218 81.0522 2.16168 81.7001 2.14786 82.3592V100.294C2.13148 100.627 2.20824 100.958 2.36949 101.249L2.38654 101.283Z" fill="#3E5685"/>
<path d="M14.7315 95.4527L22.0453 91.2247L1.75757 80.5864C1.51199 81.1759 1.379 81.8062 1.36545 82.4447V100.294C1.34496 100.769 1.46986 101.239 1.72347 101.641C3.54607 103.778 5.99923 105.282 8.73041 105.938C8.764 105.965 8.8062 105.98 8.84975 105.98C8.8933 105.98 8.93549 105.965 8.96909 105.938L14.7315 95.4527Z" fill="#3E5685"/>
<path d="M8.81383 106.704C8.73513 106.721 8.65384 106.721 8.57515 106.704C5.68894 105.991 3.10398 104.379 1.19314 102.101L1.00561 101.846C0.771713 101.374 0.654756 100.854 0.664641 100.328V82.4443C0.676999 81.7179 0.827427 81.0005 1.1079 80.3303L1.39773 79.6143L2.06262 79.9723C5.47232 81.6771 13.5874 86.0245 22.3503 90.5935L23.4585 91.1731L15.2411 95.9297L9.6151 106.159C9.54392 106.314 9.43165 106.447 9.29043 106.543C9.14921 106.639 8.98441 106.695 8.81383 106.704ZM2.38654 101.283C4.02291 103.213 6.21309 104.594 8.66039 105.238L14.2864 94.9238L20.6796 91.2413L2.16491 81.5748C2.09915 81.8601 2.06485 82.1516 2.06262 82.4443V100.294C2.04624 100.627 2.12299 100.957 2.28425 101.249L2.38654 101.283Z" fill="#3E5685"/>
<path d="M33.4147 92.3495L10.0583 105.835C8.86487 106.534 7.91016 105.835 7.91016 104.13V86.3825C7.92195 85.5798 8.12256 84.7911 8.49574 84.0803C8.86893 83.3694 9.40421 82.7564 10.0583 82.2909L33.4147 68.8055C34.5911 68.1236 35.5628 68.8055 35.5628 70.5104V88.2579C35.551 89.0606 35.3504 89.8493 34.9772 90.5601C34.6041 91.2709 34.0688 91.8839 33.4147 92.3495Z" fill="#193768"/>
<path d="M9.20806 106.79C8.89052 106.796 8.57757 106.713 8.30449 106.551C7.9352 106.291 7.64129 105.938 7.45264 105.528C7.26399 105.118 7.18732 104.665 7.23043 104.215V86.3827C7.24195 85.4595 7.47383 84.5524 7.90678 83.7369C8.33973 82.9214 8.96122 82.2211 9.71952 81.6944L33.076 68.1749C33.3898 67.9854 33.7494 67.8853 34.1159 67.8853C34.4825 67.8853 34.8421 67.9854 35.1559 68.1749C35.5283 68.4327 35.8256 68.7848 36.0173 69.1952C36.209 69.6056 36.2883 70.0595 36.247 70.5106V88.258C36.234 89.1834 36.0016 90.0924 35.5689 90.9104C35.1362 91.7284 34.5155 92.432 33.7579 92.9634L10.4015 106.432C10.042 106.654 9.63041 106.777 9.20806 106.79ZM34.2694 69.2831C34.0877 69.2983 33.9123 69.3567 33.7579 69.4536L10.4015 82.8878C9.88243 83.2943 9.46023 83.8111 9.16539 84.4008C8.87055 84.9905 8.71043 85.6383 8.69661 86.2975V104.215C8.69661 104.897 8.90119 105.255 9.08872 105.358C9.27626 105.46 9.63427 105.358 9.80476 105.238L33.076 91.753C33.6116 91.3559 34.0507 90.8431 34.3606 90.2527C34.6706 89.6623 34.8433 89.0097 34.8661 88.3433V70.4253C34.8661 69.7604 34.6615 69.4024 34.4739 69.2831H34.2694Z" fill="#3E5685"/>
<path d="M25.511 65.3286L24.8477 66.5398L31.5165 70.1924L32.1799 68.9812L25.511 65.3286Z" fill="#150035"/>
<path d="M1.86597 97.8563L1.20312 99.0715L7.89432 102.721L8.55717 101.506L1.86597 97.8563Z" fill="#3E5685"/>
<path d="M13.9802 28.4517C13.9802 28.4517 9.68396 42.0905 9.63281 52.5582C9.64545 53.6118 9.78861 54.6598 10.059 55.6781C11.2524 60.1789 13.6904 74.9941 13.6904 74.9941L24.5503 63.1624L19.2311 42.6019L13.9802 28.4517Z" fill="#193768"/>
<path d="M13.2455 76.4092L13.0068 74.9942C13.0068 74.8408 10.5518 60.2302 9.39253 55.8317C9.09512 54.7545 8.946 53.6418 8.94927 52.5243C8.94927 42.0565 13.2796 28.3495 13.3307 28.2131L13.9274 26.2866L19.8774 42.2611L25.3158 63.333L13.2455 76.4092ZM14.0638 30.6681C11.946 37.7946 10.6925 45.1498 10.3302 52.5754C10.3265 53.5662 10.4585 54.5528 10.7223 55.5078C11.7111 59.2243 13.5012 69.6239 14.132 73.4087L23.7815 63.0602L18.5476 42.7214L14.0638 30.6681Z" fill="#3E5685"/>
<path d="M28.5062 141.859C27.7332 143.725 27.3783 145.739 27.4663 147.757C27.4921 148.147 27.6366 148.519 27.8805 148.824C28.1244 149.129 28.4558 149.352 28.8301 149.462L31.4045 150.229C31.7933 150.34 32.2048 150.343 32.5951 150.238C32.9854 150.132 33.3399 149.923 33.6208 149.633L34.6607 148.576C35.2139 147.998 35.9361 147.61 36.7236 147.468C37.2903 147.369 37.8269 147.141 38.2921 146.803L43.202 143.188C43.3685 143.073 43.5104 142.925 43.6195 142.754C43.7286 142.583 43.8027 142.392 43.8376 142.193C43.8724 141.993 43.8674 141.788 43.8227 141.59C43.778 141.393 43.6945 141.206 43.5771 141.04C42.9979 140.369 42.2014 139.923 41.3267 139.779C38.7874 139.48 36.2157 139.619 33.7231 140.188L28.5062 141.859Z" fill="#81829F"/>
<path d="M32.0328 150.996C31.7501 150.997 31.4687 150.957 31.1975 150.877L28.6231 150.127C28.1148 149.972 27.6661 149.665 27.337 149.247C27.008 148.83 26.8143 148.322 26.7819 147.791C26.7087 145.656 27.1105 143.53 27.9582 141.569L28.0776 141.296L33.5843 139.455C36.2029 138.838 38.9106 138.693 41.58 139.028C42.6354 139.265 43.5722 139.869 44.2225 140.733C44.3911 140.961 44.5126 141.22 44.58 141.495C44.6473 141.77 44.6591 142.056 44.6146 142.336C44.5152 142.937 44.1848 143.475 43.694 143.836L38.784 147.416C38.235 147.824 37.5989 148.098 36.9258 148.217C36.2759 148.33 35.6787 148.646 35.2209 149.121L34.198 150.178C33.9127 150.456 33.5732 150.672 33.2007 150.813C32.8281 150.954 32.4306 151.016 32.0328 150.996ZM29.0153 142.472C28.3803 144.171 28.0905 145.979 28.1628 147.791C28.1748 148.037 28.2635 148.273 28.4164 148.465C28.5693 148.658 28.7787 148.798 29.0153 148.865L31.5896 149.632C31.8585 149.709 32.143 149.711 32.4131 149.639C32.6832 149.567 32.9288 149.423 33.1239 149.223L34.1639 148.166C34.8191 147.484 35.6718 147.025 36.6018 146.854C37.0632 146.769 37.4999 146.582 37.8805 146.308L42.7904 142.728C42.8912 142.66 42.9766 142.572 43.0412 142.469C43.1057 142.366 43.1481 142.251 43.1655 142.131C43.1822 142.033 43.1787 141.933 43.1552 141.836C43.1318 141.739 43.0889 141.648 43.0291 141.569C42.5663 140.978 41.907 140.572 41.1708 140.426C38.732 140.155 36.2648 140.3 33.8741 140.853L29.0153 142.472Z" fill="#81829F"/>
<path d="M13.5546 132.959C13.5546 132.959 12.3783 138.347 11.8498 140C11.6121 140.796 11.6727 141.65 12.0203 142.404C12.1192 142.618 12.266 142.806 12.4493 142.954C12.6326 143.102 12.8475 143.205 13.0773 143.257L16.146 143.956C16.5219 144.056 16.9199 144.036 17.2839 143.899C17.6479 143.761 17.9595 143.513 18.1748 143.189C19.0014 141.885 19.9991 140.698 21.1412 139.659L24.2611 137.034C24.6678 136.634 24.9513 136.126 25.0782 135.57C25.2051 135.014 25.1701 134.434 24.9771 133.897C24.6362 132.976 22.8972 132.567 21.2265 132.414C20.1443 132.31 19.057 132.27 17.9702 132.295L13.5546 132.959Z" fill="#81829F"/>
<path d="M16.57 144.774C16.3833 144.799 16.1941 144.799 16.0074 144.774L12.9387 144.075C12.6034 143.996 12.2907 143.841 12.0247 143.622C11.7587 143.404 11.5465 143.127 11.4043 142.813C10.9911 141.909 10.9185 140.886 11.1997 139.932C11.6941 138.329 12.9046 132.993 12.9046 132.942L13.0068 132.482L17.9339 131.68C19.0715 131.645 20.2101 131.679 21.3436 131.783C23.8838 132.038 25.2988 132.686 25.6739 133.726C25.9134 134.388 25.9572 135.105 25.8 135.792C25.6428 136.478 25.2912 137.104 24.7874 137.596L21.6334 140.256C20.5269 141.265 19.553 142.411 18.7351 143.666C18.4969 144.018 18.1734 144.304 17.7949 144.498C17.4164 144.691 16.995 144.786 16.57 144.774ZM14.132 133.624C13.8252 134.971 12.9557 138.875 12.5124 140.273C12.3181 140.901 12.3544 141.578 12.6147 142.182C12.6662 142.302 12.7457 142.408 12.8466 142.491C12.9474 142.574 13.0667 142.632 13.1944 142.66L16.2631 143.359C16.5023 143.416 16.7534 143.395 16.9802 143.3C17.2069 143.205 17.3976 143.041 17.5247 142.83C18.4111 141.466 19.4777 140.227 20.6957 139.148L23.8156 136.505C24.1146 136.198 24.3211 135.813 24.4116 135.394C24.502 134.975 24.4727 134.539 24.327 134.135C24.327 134.135 23.969 133.385 21.156 133.095C20.1266 132.973 19.0894 132.928 18.0532 132.959L14.132 133.624Z" fill="#81829F"/>
<path d="M42.4321 76.1536C40.0624 74.0055 34.2318 77.7562 30.2424 80.8249C29.1684 73.5623 14.3191 79.5633 14.3191 79.5633C14.3191 79.5633 15.9046 99.0498 15.325 104.233C14.7453 109.415 12.154 112.757 12.2903 124.094C12.4097 133.096 12.2903 136.591 12.2903 137.733C12.2884 137.858 12.3187 137.982 12.3784 138.093C12.4381 138.203 12.5252 138.296 12.6313 138.364C13.4925 138.969 14.5195 139.294 15.5722 139.294C16.6248 139.294 17.6518 138.969 18.5131 138.364C18.6697 138.235 18.773 138.053 18.8029 137.852C19.1268 135.431 21.6329 119.423 23.2184 115.689C24.2209 113.022 24.7572 110.202 24.8039 107.352C24.8537 105.923 25.0945 104.507 25.52 103.141C25.7852 101.567 26.1554 100.012 26.6281 98.4872C27.0107 99.362 27.1913 100.312 27.1566 101.266C27.3783 104.369 27.5829 107.046 27.7363 108.307C28.2648 112.518 26.6793 116.559 26.1678 121.946C25.7246 126.617 27.3442 140.137 27.7533 143.393C27.7755 143.637 27.8571 143.871 27.9908 144.076C28.1245 144.281 28.3064 144.451 28.5205 144.569C29.3689 145.09 30.3413 145.374 31.3366 145.392C32.332 145.41 33.314 145.161 34.1806 144.672C34.4286 144.529 34.6367 144.326 34.7857 144.082C34.9346 143.837 35.0197 143.559 35.0331 143.274C35.0331 139.864 35.2035 127.06 36.3287 122.952C37.1765 119.507 37.7016 115.992 37.8972 112.45C40.0287 102.972 41.5379 93.3643 42.4151 83.6891C42.5685 81.3875 43.3016 76.9549 42.4321 76.1536Z" fill="#81829F"/>
<path d="M31.4878 145.933C30.3184 145.921 29.1724 145.603 28.1633 145.012C27.8578 144.835 27.5982 144.588 27.4057 144.292C27.2132 143.996 27.0931 143.659 27.0552 143.308C26.5608 139.42 25.0264 126.378 25.4697 121.707C25.6679 119.801 25.9638 117.906 26.3562 116.03C26.9837 113.501 27.2137 110.89 27.0381 108.29C26.9017 107.216 26.7142 105.034 26.4926 101.794C26.408 102.289 26.2941 102.779 26.1516 103.261C25.7511 104.561 25.5219 105.908 25.4697 107.267C25.3992 110.186 24.8223 113.07 23.7648 115.791C22.3327 119.406 19.8607 134.937 19.4345 137.852C19.4107 138.041 19.3486 138.223 19.2518 138.388C19.1551 138.552 19.0258 138.694 18.8719 138.807C17.8904 139.471 16.7325 139.826 15.5474 139.826C14.3624 139.826 13.2045 139.471 12.223 138.807C12.0105 138.678 11.8366 138.495 11.7196 138.276C11.6026 138.057 11.5468 137.81 11.5581 137.562C11.5581 136.471 11.6604 132.976 11.5581 124.026C11.4148 118.974 12.0825 113.932 13.5357 109.091C14.0214 107.497 14.3806 105.866 14.6098 104.215C15.1724 99.1008 13.6039 79.8701 13.5868 79.6655V79.1711L14.0642 78.9665C14.4734 78.813 24.2933 74.9089 28.76 77.4662C29.6485 77.9565 30.3319 78.7488 30.6865 79.6996C36.7558 75.1817 40.9156 73.8349 42.9444 75.6932C43.7968 76.4774 43.6604 78.5744 43.3024 81.9329C43.3024 82.6149 43.166 83.2627 43.1319 83.7912C42.2284 93.4495 40.7022 103.039 38.5629 112.501C38.364 116.055 37.8331 119.582 36.9774 123.037C35.8863 127.009 35.7329 139.455 35.6988 143.171C35.6947 143.58 35.5821 143.98 35.3724 144.33C35.1626 144.681 34.8634 144.969 34.5054 145.166C33.5851 145.684 32.5438 145.949 31.4878 145.933ZM26.8676 97.4641L27.2086 98.0608C27.621 98.9408 27.8308 99.902 27.8223 100.874V101.13C28.061 104.659 28.2486 107.028 28.3849 108.136C28.5815 110.878 28.3456 113.634 27.686 116.303C27.362 118.008 27.0211 119.849 26.8335 121.861C26.3903 126.498 28.061 140.409 28.402 143.154C28.4155 143.291 28.4612 143.422 28.5352 143.538C28.6093 143.653 28.7097 143.75 28.8282 143.819C29.578 144.275 30.4348 144.524 31.312 144.542C32.1893 144.56 33.0556 144.346 33.8234 143.921C33.9673 143.838 34.087 143.719 34.1708 143.576C34.2545 143.432 34.2993 143.269 34.3008 143.103C34.3008 139.352 34.4883 126.753 35.6135 122.645C36.4495 119.244 36.9745 115.775 37.182 112.279C39.2934 102.843 40.8024 93.2825 41.6998 83.6548L41.9044 81.8136C42.18 80.1199 42.18 78.3927 41.9044 76.699C40.37 75.3352 36.2443 77.04 30.5842 81.4044L29.6636 82.1205L29.4931 80.9612C29.4453 80.4834 29.2823 80.0243 29.018 79.6234C28.7537 79.2225 28.3961 78.8918 27.9758 78.6596C24.5661 76.699 16.9113 79.3245 14.9337 80.0576C15.1894 83.2457 16.4339 99.5611 15.9054 104.352C15.6684 106.083 15.2979 107.793 14.7973 109.466C13.3934 114.21 12.7715 119.15 12.956 124.094C13.0754 133.078 12.956 136.59 12.956 137.733C13.7051 138.259 14.5981 138.541 15.5133 138.541C16.4286 138.541 17.3216 138.259 18.0706 137.733C18.3263 136.028 20.8836 119.286 22.5544 115.365C23.5339 112.776 24.0476 110.035 24.0717 107.267C24.1215 105.779 24.3739 104.305 24.8218 102.886C24.9752 102.408 25.1287 101.556 25.2821 100.737C25.6742 98.5552 25.8106 98.0779 26.2539 97.8221L26.8676 97.4641Z" fill="#81829F"/>
<path d="M50.5647 20.2344L47.8199 21.7688C47.7849 21.7884 47.7458 21.7994 47.7057 21.8011C47.6656 21.8028 47.6257 21.795 47.5892 21.7784C47.5527 21.7618 47.5206 21.7369 47.4955 21.7056C47.4704 21.6743 47.4531 21.6375 47.4448 21.5983L46.9333 18.5296L35.1358 12.9036L26.4922 44.8184L48.2972 51.2968L56.6851 23.0986L50.5647 20.2344Z" fill="white"/>
<path d="M48.774 52.1495L25.6562 45.3301L34.6749 11.915L47.5465 18.0525L48.0239 20.8655L50.53 19.4675L57.5029 22.7238L48.774 52.1495ZM27.3441 44.3072L47.8023 50.3935L55.8151 23.4398L50.5471 20.9848L48.1262 22.3487C47.9882 22.4164 47.8366 22.4517 47.6829 22.4517C47.5292 22.4517 47.3776 22.4164 47.2397 22.3487C47.1053 22.2808 46.989 22.182 46.9001 22.0606C46.8112 21.9391 46.7523 21.7983 46.7282 21.6497L46.2679 18.939L35.5444 13.8245L27.3441 44.3072Z" fill="#DCDCDC"/>
<path d="M20.6272 24.8204C20.1366 24.511 19.586 24.3091 19.0117 24.2278C18.4374 24.1465 17.8524 24.1878 17.2952 24.3488C16.7379 24.5098 16.2211 24.787 15.7787 25.1622C15.3364 25.5373 14.9784 26.0018 14.7284 26.5252C12.461 30.5146 13.2111 40.4538 14.1829 49.5236C15.0523 57.6387 12.12 73.8348 11.4892 77.1081C11.4581 77.2792 11.4848 77.4558 11.565 77.6102C11.6453 77.7645 11.7745 77.8877 11.9325 77.9605L16.4503 80.245C21.7085 82.7623 27.4646 84.0673 33.2942 84.0639C35.3501 84.0686 37.3797 83.6021 39.2271 82.7L39.6363 82.5125C41.8864 81.4305 43.6631 79.5628 44.6315 77.2616C44.6315 77.2616 38.9032 64.9525 38.9032 56.6329C38.9032 48.3132 41.6821 33.2423 36.4823 30.3441C34.939 29.4785 33.2319 28.9449 31.4704 28.7776C29.7089 28.6103 27.9319 28.8128 26.2532 29.3723L20.6272 24.8204Z" fill="#3E5685"/>
<path d="M33.2966 84.7971C27.398 84.7795 21.5762 83.4579 16.2481 80.9271L11.6109 78.6426C11.3048 78.4902 11.0591 78.239 10.9136 77.9295C10.7682 77.6201 10.7315 77.2706 10.8096 76.9377C11.4234 73.869 14.3216 57.6729 13.5033 49.6431C12.4633 39.8913 11.7984 30.3101 14.1341 26.2355C14.4403 25.6129 14.8728 25.061 15.4041 24.6148C15.9353 24.1687 16.5537 23.8381 17.2198 23.6441C18.5043 23.3668 19.8459 23.5732 20.9876 24.2237L26.3578 28.5541C28.0696 28.0496 29.8646 27.8908 31.6383 28.0869C33.4121 28.283 35.129 28.8301 36.6892 29.6963C41.0537 32.1001 40.4229 41.4427 39.8773 49.6942C39.6898 52.2515 39.5363 54.6383 39.5363 56.65C39.5363 64.7139 45.1282 76.8525 45.1964 76.9718L45.3158 77.2446L45.1964 77.5344C44.173 79.9969 42.2884 82.0028 39.8944 83.1775L39.4852 83.382C37.5532 84.308 35.439 84.7914 33.2966 84.7971ZM18.3109 24.8886C18.0583 24.8842 17.8061 24.9129 17.5608 24.9739C17.0762 25.1293 16.6282 25.3818 16.2443 25.7159C15.8603 26.0501 15.5484 26.4589 15.3275 26.9174C13.1964 30.6681 13.9124 40.4369 14.8842 49.4214C15.7537 57.6558 12.7872 74.0224 12.1735 77.2105L16.7766 79.6143C21.9398 82.0639 27.5817 83.339 33.2966 83.3479C35.249 83.3445 37.1764 82.9078 38.9396 82.0693L39.3318 81.8647C41.34 80.9007 42.9496 79.267 43.8837 77.2446C42.9972 75.3692 38.1895 64.4582 38.1895 56.7011C38.1895 54.6553 38.36 52.2174 38.5305 49.6601C39.0249 42.2099 39.6557 32.9355 36.0584 30.9067C34.6103 30.1124 33.0162 29.6198 31.3723 29.4586C29.7285 29.2974 28.0691 29.4711 26.4942 29.9691L26.1192 30.1225L20.2374 25.383C19.6408 25.075 18.9822 24.906 18.3109 24.8886Z" fill="#3E5685"/>
<path d="M22.2312 25.4171C22.0437 25.724 22.2312 25.7922 22.5381 26.0309C23.6292 27.0879 26.9536 29.4406 32.7672 27.7357L32.9547 23.5589C32.9526 23.53 32.9598 23.5013 32.9751 23.4768C32.9904 23.4522 33.0131 23.4332 33.0399 23.4225L36.0746 22.3484C36.0746 22.3484 38.6489 18.9387 37.984 11.5056L37.1657 8.50503L30.5679 8.06177L25.4534 13.432L24.5498 18.8705C24.1277 21.1615 23.3451 23.3712 22.2312 25.4171Z" fill="#DEC8BD"/>
<path d="M28.8804 29.0827C26.3652 29.1441 23.923 28.2344 22.061 26.5425L21.9416 26.4402C21.719 26.2968 21.5619 26.0714 21.5044 25.8128C21.447 25.5543 21.4938 25.2835 21.6348 25.0593C22.702 23.0792 23.4554 20.9455 23.8681 18.7343L24.7887 12.989L30.2954 7.22656L37.7115 7.73802L38.6151 11.3523C39.3141 19.0071 36.7056 22.6214 36.6033 22.7748L36.467 22.9453L33.5858 23.9682L33.3982 28.2815L32.9379 28.4179C31.6239 28.8314 30.2576 29.0553 28.8804 29.0827ZM22.9816 25.5537C24.0045 26.5255 26.9198 28.6054 32.0343 27.2586L32.1878 23.5761C32.1934 23.4085 32.2504 23.2466 32.351 23.1124C32.4516 22.9783 32.591 22.8783 32.7504 22.8259L35.5634 21.8201C37.1801 18.6701 37.7759 15.095 37.2682 11.591L36.6374 9.0678L30.858 8.67569L26.0844 13.6198L25.232 18.9389C24.8075 21.2415 24.0494 23.4699 22.9816 25.5537Z" fill="#DEC8BD"/>
<path d="M23.2887 25.6558C22.9713 25.2954 22.5477 25.0451 22.0789 24.941C21.6101 24.8368 21.1204 24.8841 20.6802 25.0762C20.3222 25.2637 19.896 25.2808 19.5209 25.707C17.8161 27.6164 23.8513 33.2595 31.4549 31.1113C32.6433 30.7897 33.8589 30.5785 35.0862 30.4806L36.3137 30.3953C35.845 29.2942 35.047 28.3652 34.0292 27.7357C33.7527 27.556 33.4299 27.4603 33.1001 27.4603C32.7702 27.4603 32.4475 27.556 32.1709 27.7357C30.7565 28.2476 29.2158 28.2954 27.7724 27.8721C26.0749 27.6462 24.4991 26.8673 23.2887 25.6558Z" fill="#3E5685"/>
<path d="M28.0779 32.3732C26.3541 32.4332 24.6402 32.0882 23.0739 31.3657C21.5076 30.6433 20.1326 29.5636 19.0592 28.2133C18.8008 27.9397 18.6187 27.603 18.5313 27.2369C18.444 26.8708 18.4543 26.4881 18.5614 26.1273C18.6684 25.7664 18.8684 25.4401 19.1413 25.1808C19.4142 24.9216 19.7504 24.7386 20.1162 24.6502L20.372 24.5479C20.9434 24.2862 21.5841 24.2162 22.1985 24.3483C22.813 24.4804 23.3683 24.8076 23.7817 25.281C24.9374 26.337 26.4014 26.9943 27.9585 27.1563C30.584 27.6166 31.5387 27.3268 31.8627 27.1563C32.2533 26.8939 32.7133 26.7538 33.1839 26.7538C33.6545 26.7538 34.1145 26.8939 34.5052 27.1563C35.645 27.8737 36.5329 28.9285 37.0454 30.1739L37.1477 30.4808L36.7726 31.0604H36.4146L35.1871 31.1627C33.9951 31.2545 32.814 31.4543 31.6581 31.7594C30.4992 32.1302 29.2941 32.3368 28.0779 32.3732ZM21.5654 25.5538C21.3634 25.5463 21.1632 25.5935 20.9857 25.6901C20.8475 25.7515 20.7051 25.8028 20.5595 25.8436C20.3594 25.8975 20.177 26.0034 20.031 26.1505C19.7241 26.4914 20.1162 27.1734 20.2356 27.3779C21.3778 29.2021 25.8104 31.981 31.3341 30.4296C32.5658 30.0908 33.8278 29.8738 35.1019 29.7818H35.3235C34.8793 29.184 34.3375 28.6653 33.7209 28.2474C33.5583 28.1425 33.3689 28.0866 33.1754 28.0866C32.9819 28.0866 32.7924 28.1425 32.6298 28.2474C31.0817 28.8914 29.3576 28.9758 27.754 28.4861C25.9041 28.2597 24.1795 27.4333 22.844 26.1334C22.6842 25.9516 22.4876 25.8058 22.2671 25.7059C22.0466 25.6059 21.8074 25.5541 21.5654 25.5538Z" fill="#3E5685"/>
<path d="M57.6239 22.843C57.3099 22.1974 56.7582 21.6984 56.0845 21.4505C55.4107 21.2026 54.6672 21.225 54.0096 21.5132L54.9473 22.0417L55.7997 24.1898L53.8392 26.4231L53.089 27.412L52.1855 27.2585C52.1855 27.2585 51.8274 25.673 50.8898 25.315C49.9521 24.957 49.7305 26.4572 49.7305 26.4572V27.5654C49.869 29.1939 50.2721 30.789 50.9239 32.2878L55.6804 33.7199C56.0524 32.1446 56.5601 30.6045 57.1977 29.1168C57.6798 28.1511 57.9658 27.0994 58.0389 26.0226C58.1121 24.9457 57.971 23.865 57.6239 22.843Z" fill="#DEC8BD"/>
<path d="M56.1394 34.5552L50.3941 32.8504L50.2577 32.5435C49.5756 30.9794 49.1496 29.3158 48.9961 27.6165V26.4231C49.027 26.0898 49.1262 25.7664 49.2875 25.473C49.4488 25.1797 49.6688 24.9228 49.9338 24.7182C50.1141 24.6295 50.3124 24.5833 50.5134 24.5833C50.7144 24.5833 50.9127 24.6295 51.0931 24.7182C51.4791 24.9254 51.8187 25.2092 52.0914 25.5522C52.364 25.8951 52.5638 26.2901 52.6786 26.7129L53.1559 26.0821L54.8608 24.1215L54.247 22.5872L52.5422 21.5813L53.5821 20.9846C54.2877 20.6042 55.1151 20.5184 55.8837 20.7459C56.3637 20.8849 56.8106 21.1197 57.1974 21.4362C57.5841 21.7526 57.9028 22.1442 58.1341 22.5872C58.523 23.6958 58.6827 24.8719 58.6036 26.0441C58.5245 27.2163 58.2082 28.3602 57.6738 29.4066C57.0762 30.85 56.5917 32.3377 56.2247 33.8562L56.1394 34.5552ZM51.3999 31.6911L55.1506 32.8163C55.4962 31.4307 55.964 30.0786 56.5486 28.7758C57.3878 27.024 57.528 25.0183 56.9407 23.1668C56.6605 22.6332 56.1836 22.2296 55.6109 22.0416L56.5145 24.3261L54.2982 26.8834L53.3094 28.1791L51.6045 27.804L51.5022 27.3778C51.3829 26.8834 51.0249 26.0821 50.6327 25.9287C50.5056 26.1051 50.4236 26.3099 50.3941 26.5254V27.5653C50.5332 28.9811 50.8718 30.3701 51.3999 31.6911Z" fill="#DEC8BD"/>
<path d="M34.1664 37.2661C35.5671 44.5558 38.5337 51.4545 42.8612 57.4856C44.204 59.2662 45.8008 60.84 47.6007 62.1569C47.7745 62.2865 47.9733 62.3786 48.1845 62.4275C48.3957 62.4763 48.6147 62.4809 48.8278 62.4408C49.0409 62.4008 49.2433 62.317 49.4224 62.1948C49.6014 62.0725 49.7532 61.9145 49.8681 61.7307L50.4137 61.2192C51.439 60.2228 52.2409 59.0199 52.7663 57.6902C53.1068 56.8169 53.3138 55.8973 53.3801 54.9624L55.7839 35.8681C55.8056 35.5005 55.7078 35.1358 55.5049 34.8285C55.3021 34.5212 55.0052 34.2878 54.6587 34.1632L51.5559 33.1233C51.4539 33.0865 51.3449 33.0734 51.2371 33.0849C51.1293 33.0964 51.0255 33.1322 50.9336 33.1897C50.8416 33.2471 50.764 33.3247 50.7064 33.4166C50.6488 33.5085 50.6128 33.6122 50.6012 33.72C50.3455 35.9022 49.6465 39.4142 48.7429 43.4035C48.1347 47.0827 47.8438 50.8073 47.8734 54.5362C47.8734 54.5362 43.8329 35.476 39.5197 32.0663C35.2064 28.6566 33.297 33.4983 34.1664 37.2661Z" fill="#3E5685"/>
<path d="M48.538 63.1629C48.0476 63.1653 47.5694 63.0099 47.1741 62.7196C45.3254 61.3798 43.6876 59.7707 42.3153 57.946C37.9135 51.853 34.8992 44.8701 33.4842 37.4878C32.9557 35.1181 33.4842 31.9811 35.2743 30.7878C36.1949 30.2081 37.7463 29.9012 39.9626 31.6572C42.9802 34.0611 45.7932 43.4377 47.3276 49.4218C47.4229 47.3891 47.668 45.3662 48.0606 43.3695C49.0324 39.1074 49.6802 35.783 49.9189 33.7542C49.9252 33.5298 49.9855 33.3102 50.0946 33.114C50.2037 32.9178 50.3584 32.7508 50.5457 32.6271C50.733 32.5033 50.9473 32.4265 51.1706 32.4031C51.3939 32.3797 51.6195 32.4104 51.8284 32.4926L54.9312 33.5155C55.4289 33.6842 55.8565 34.0136 56.1466 34.4518C56.4367 34.8901 56.5729 35.4123 56.5337 35.9364L54.0788 55.0478C53.9919 56.0416 53.7622 57.0177 53.3968 57.946C52.8427 59.3679 51.9878 60.6531 50.8907 61.7137L50.3963 62.1911C50.0471 62.6735 49.5303 63.0079 48.9472 63.1288L48.538 63.1629ZM36.8427 31.6231C36.5547 31.6196 36.2713 31.6963 36.0244 31.8448C34.8651 32.5778 34.3195 34.9305 34.831 37.1127C36.2182 44.2828 39.1248 51.0725 43.3553 57.0254C44.6513 58.7555 46.1968 60.2838 47.9413 61.5603C48.0383 61.6435 48.1521 61.7047 48.275 61.7398C48.3979 61.7749 48.5269 61.783 48.6532 61.7635C48.7795 61.7441 48.9001 61.6976 49.0067 61.6272C49.1134 61.5568 49.2036 61.4642 49.2711 61.3557L49.3904 61.2193L49.936 60.7079C50.8949 59.7836 51.6397 58.6605 52.1182 57.4175C52.4293 56.6021 52.6244 55.747 52.6978 54.8773L55.1017 35.783C55.1098 35.5755 55.0514 35.3709 54.9348 35.1991C54.8182 35.0272 54.6496 34.8973 54.4538 34.8282L51.3339 33.7883C51.0441 35.8853 50.3963 39.2609 49.4075 43.5741C48.8196 47.198 48.5401 50.8652 48.5721 54.5363V61.3557L47.1741 54.7579C46.066 49.5241 42.4517 35.3738 39.0761 32.5949C38.4493 32.049 37.6694 31.7096 36.8427 31.6231Z" fill="#3E5685"/>
<path d="M23.2361 5.19762C21.7259 6.54399 20.6118 8.27701 20.0139 10.2099C19.571 11.5279 19.4329 12.9292 19.6101 14.3083C19.7873 15.6874 20.2751 17.0083 21.0368 18.1715C21.8452 19.6783 23.1814 20.8335 24.7892 21.4156C26.397 21.9976 28.1631 21.9656 29.7486 21.3255C29.8112 21.2998 29.8636 21.254 29.8975 21.1954C29.9314 21.1369 29.945 21.0687 29.9362 21.0016C29.5655 18.8633 30.003 16.6637 31.1637 14.83C31.6462 14.2046 32.2744 13.7067 32.9936 13.3798C33.7127 13.053 34.5009 12.907 35.2894 12.9547C35.3303 12.9569 35.3711 12.9505 35.4093 12.9358C35.4475 12.9211 35.4822 12.8985 35.511 12.8694C36.1248 12.3068 39.2787 9.08467 37.1306 5.43629C35.7714 3.42779 33.7791 1.93204 31.471 1.18741C29.163 0.442785 26.6721 0.492138 24.3954 1.32761C24.3666 1.34157 24.3423 1.36336 24.3253 1.3905C24.3082 1.41764 24.2992 1.44901 24.2992 1.48104C24.2992 1.51307 24.3082 1.54445 24.3253 1.57158C24.3423 1.59872 24.3666 1.62052 24.3954 1.63448C24.9239 1.85611 25.674 2.40166 24.8387 3.50981C24.3574 4.1204 23.8209 4.68539 23.2361 5.19762Z" fill="#8C8DA7"/>
<path d="M27.1242 22.4508C25.7646 22.4305 24.4339 22.0548 23.2645 21.3609C22.0951 20.667 21.1276 19.6792 20.4583 18.4955C19.6496 17.2472 19.1304 15.8338 18.9387 14.3589C18.747 12.884 18.8875 11.3848 19.3501 9.97125C19.9832 7.946 21.1631 6.13484 22.7598 4.73736C23.3105 4.24667 23.8129 3.70432 24.2601 3.11775C24.4647 2.86203 24.5158 2.67449 24.4988 2.6063C24.4817 2.53811 24.3453 2.40172 24.1066 2.29943C23.9541 2.22821 23.825 2.11503 23.7344 1.97313C23.6439 1.83124 23.5956 1.66649 23.5952 1.49815C23.6014 1.33331 23.6544 1.17364 23.748 1.0378C23.8416 0.901956 23.9719 0.795536 24.1237 0.730964C26.5601 -0.180007 29.2328 -0.241269 31.7084 0.557113C34.184 1.35549 36.3174 2.9667 37.7625 5.12948C40.1834 9.20407 36.7566 12.7502 36.0577 13.4151C35.9616 13.5097 35.8467 13.5829 35.7203 13.63C35.594 13.677 35.4591 13.6967 35.3246 13.6878C34.6528 13.6317 33.9776 13.7424 33.359 14.0101C32.7404 14.2778 32.1974 14.6941 31.7785 15.2222C30.7517 16.9122 30.3646 18.9143 30.6874 20.8652C30.7193 21.0871 30.6763 21.3132 30.5651 21.5078C30.4539 21.7024 30.281 21.8542 30.0736 21.9393C29.13 22.2886 28.1304 22.4619 27.1242 22.4508ZM23.7145 5.70913C22.3017 6.9479 21.2477 8.5436 20.6629 10.3293C20.2506 11.5543 20.1224 12.8569 20.2878 14.1388C20.4532 15.4206 20.9079 16.6481 21.6176 17.7283C22.3114 19.0558 23.4597 20.0893 24.8526 20.6402C26.2454 21.1911 27.79 21.2226 29.2042 20.7289C28.8915 18.4893 29.4002 16.2122 30.6362 14.3186C31.1676 13.6365 31.8558 13.0927 32.6424 12.7335C33.4289 12.3744 34.2906 12.2105 35.1541 12.2558C35.9213 11.5227 38.3081 8.84605 36.535 5.79437C35.3592 4.06212 33.6753 2.73689 31.7152 2.0011C29.7551 1.2653 27.6152 1.15511 25.5899 1.68568C25.7068 1.85091 25.7934 2.03564 25.8456 2.23123C25.9104 2.53152 25.9024 2.84294 25.8223 3.13951C25.7422 3.43608 25.5924 3.7092 25.3853 3.93608C24.8657 4.55106 24.2954 5.12135 23.6804 5.64093L23.7145 5.70913Z" fill="#8C8DA7"/>
<path d="M46.7838 21.749L45.7891 24.7959L47.1018 25.2245L48.0965 22.1776L46.7838 21.749Z" fill="#DCDCDC"/>
<path d="M26.3928 100.073C25.3528 96.0664 24.2788 89.5879 24.2617 89.5197L25.6256 89.2981C25.6256 89.2981 26.6997 95.7765 27.7396 99.7318L26.3928 100.073Z" fill="#81829F"/>
<path d="M38.9559 94.0545C38.044 94.0716 37.1477 93.8163 36.3816 93.3214C33.6538 91.5143 33.4492 87.1328 33.4492 86.9453L34.779 86.9282C34.779 86.9282 34.9495 90.7982 37.0806 92.1962C37.7072 92.522 38.4031 92.692 39.1093 92.692C39.8156 92.692 40.5115 92.522 41.1381 92.1962L41.6325 93.4748C40.782 93.826 39.8755 94.0223 38.9559 94.0545Z" fill="#81829F"/>
<path d="M18.2781 111.989C17.272 111.705 16.3517 111.177 15.5992 110.451C14.8467 109.725 14.2852 108.825 13.9648 107.829L15.2946 107.386C15.5554 108.16 16.003 108.857 16.5978 109.416C17.1926 109.975 17.9162 110.379 18.7043 110.591L18.2781 111.989Z" fill="#81829F"/>
<path d="M32.3739 117.752C27.0036 117.275 26.8672 113.456 26.8672 113.405H28.2481C28.2481 113.524 28.4016 116.047 32.4932 116.405L32.3739 117.752Z" fill="#81829F"/>
<path d="M137.43 48.3642L96.3086 24.6156L137.498 1.02051L178.636 24.7691L137.447 48.3642H137.43Z" fill="white"/>
<path d="M137.48 49.1489L137.071 48.9614L95.6094 25.0935V24.3093L95.9333 24.0876L137.532 0.219727L137.907 0.458406L179.335 24.3263V25.1446L178.994 25.3492L137.48 49.1489ZM97.6722 24.6161L137.446 47.5805L177.289 24.7696L137.515 1.80524L97.6722 24.6161Z" fill="#DCDCDC"/>
<path d="M137.445 48.3815V100.703L178.634 77.1253V24.8035L137.445 48.3645V48.3815Z" fill="#DCDCDC"/>
<path d="M137.461 101.505L136.762 101.112V47.9552L137.069 47.7165L178.582 23.9509L179.281 24.3601V77.5514L178.906 77.739L137.461 101.505ZM138.126 48.7736V99.5269L177.985 76.699V25.9627L138.126 48.7736Z" fill="#DCDCDC"/>
<path d="M96.2891 24.6328V76.9546L137.427 100.703V48.3813L96.3061 24.6157L96.2891 24.6328Z" fill="#FFB000"/>
<path d="M137.444 101.504L137.069 101.317L95.5898 77.449V24.2236L96.34 23.8145L96.698 24.0531L138.126 47.921V101.095L137.444 101.504ZM96.9708 76.5625L136.745 99.5269V48.7564L96.9708 25.8091V76.5625Z" fill="#150035"/>
<path d="M92.556 126.583L137.496 100.703V48.3987L92.556 74.4829L85.4297 114.479L92.5389 126.566L92.556 126.583Z" fill="#DCDCDC"/>
<path d="M92.3497 127.521L91.9576 126.975L84.7461 114.768V114.478L91.9235 74.1076L92.1451 73.9201L137.494 47.5972L138.21 47.9722V101.061L137.903 101.283L92.3497 127.521ZM86.1441 114.359L92.7418 125.662L136.812 100.311V49.5748L93.151 74.9941L86.1441 114.359Z" fill="#DCDCDC"/>
<path d="M92.5212 126.583L51.332 102.715V92.4521L92.5383 116.201V126.549C92.5383 126.549 92.5383 126.583 92.5212 126.583Z" fill="#EFEFEF"/>
<path d="M92.5405 127.385L92.1825 127.18L50.6523 103.21V92.043L51.3343 91.6338L51.6923 91.8384L93.2225 115.809V126.975L92.5405 127.385ZM52.0333 102.408L91.8586 125.407V116.61L52.0333 93.6114V102.408Z" fill="#DCDCDC"/>
<path d="M92.5407 116.167L51.3516 92.2986L60.3191 87.1841L101.508 110.967L92.5578 116.081L92.5407 116.167Z" fill="white"/>
<path d="M92.522 116.985L92.1811 116.763L50.668 92.7928V92.0427L51.026 91.821L60.3515 86.3826L60.7095 86.6212L102.206 110.574V111.376L101.865 111.597L92.522 116.985ZM52.7138 92.3836L92.5391 115.382L100.16 110.984L60.3515 87.9851L52.7138 92.3836Z" fill="#DCDCDC"/>
<path d="M101.507 110.932L60.3516 87.1497V76.8013L101.524 100.567V110.915C101.524 110.915 101.524 110.932 101.507 110.932Z" fill="#EFEFEF"/>
<path d="M101.525 111.734L101.167 111.529L59.6367 87.5589V76.4092L60.3016 76L60.6596 76.1705L102.224 100.158V111.324L101.525 111.734ZM61.0176 86.7576L100.843 109.756V100.959L61.0176 77.9606V86.7576Z" fill="#DCDCDC"/>
<path d="M119.512 69.2151L78.3398 45.4324L87.2903 40.3179L128.548 64.0153L119.58 69.1298L119.512 69.2151Z" fill="white"/>
<path d="M119.493 70.0162L119.152 69.7945L77.6562 45.8414V45.0231L78.0313 44.8185L87.3568 39.4312L87.7319 39.6698L129.211 63.5377V64.3561L128.853 64.5606L119.493 70.0162ZM79.685 45.4322L119.527 68.4136L127.131 64.0321L87.3057 41.0337L79.685 45.4322Z" fill="#DCDCDC"/>
<path d="M128.545 63.9809L87.3047 40.1983V29.8328L128.545 53.5984V63.9468V63.9809Z" fill="#EFEFEF"/>
<path d="M128.543 64.7654L128.185 64.5608L86.6211 40.6077V29.4409L87.3201 29.0317L87.6781 29.2363L129.191 53.2065V64.3562L128.543 64.7654ZM87.985 39.8064L127.827 62.7878V54.0078L87.985 31.0094V39.8064Z" fill="#DCDCDC"/>
<path d="M128.544 53.5642L87.3203 29.7815L96.2878 24.667L137.46 48.5349L128.492 53.6494L128.544 53.5642Z" fill="white"/>
<path d="M128.546 54.3484L128.154 54.1609L86.6406 30.1907V29.3723L86.9986 29.1678L96.3071 23.8486L96.6822 24.0703L138.178 47.9552V48.7394L137.871 48.9611L128.546 54.3484ZM88.6864 29.7645L128.546 52.8311L136.167 48.4326L96.2901 25.383L88.6864 29.7645Z" fill="#DCDCDC"/>
<path d="M101.524 100.567L60.3516 76.699L69.3191 71.5845L110.508 95.4524L101.541 100.567H101.524Z" fill="white"/>
<path d="M101.558 101.3L101.268 101.113L59.6523 77.1424V76.3241L60.0104 76.1195L69.3359 70.7322L69.711 70.9709L111.19 94.8388V95.6059L110.866 95.8276L101.558 101.3ZM61.6982 76.6992L101.541 99.7146L109.144 95.3332L69.3188 72.3347L61.6982 76.6992Z" fill="#DCDCDC"/>
<path d="M110.509 95.2819L69.3203 71.5845V61.1338L110.527 84.8994V95.2478L110.509 95.2819Z" fill="#EFEFEF"/>
<path d="M110.474 96.0832L110.15 95.8786L68.6367 71.9084V60.7417L69.3187 60.3325L69.6767 60.5371L111.207 84.5073V95.6741L110.474 96.0832ZM70.0176 71.1072L109.792 94.1056V85.3086L70.0176 62.3101V71.1072Z" fill="#DCDCDC"/>
<path d="M110.525 84.8652L69.3359 61.0826L78.3034 55.968L119.476 79.8359L110.525 84.9505V84.8652Z" fill="white"/>
<path d="M110.506 85.6836L110.165 85.462L68.6523 61.4918V60.6735L69.0104 60.4689L78.3018 55.0986L78.6428 55.2691L120.19 79.2734V80.1088L119.832 80.3134L110.506 85.6836ZM70.6982 61.0827L110.523 84.064L118.144 79.6826L78.3018 56.6841L70.6982 61.0827Z" fill="#DCDCDC"/>
<path d="M119.492 79.6313L78.3203 55.8486V45.4832L119.509 69.2488V79.5972L119.492 79.6313Z" fill="#EFEFEF"/>
<path d="M119.509 80.4328L119.151 80.2283L77.6211 56.241V45.0913L78.3201 44.6821L78.6781 44.8867L120.208 68.8569V80.1089L119.509 80.4328ZM79.002 55.4568L118.827 78.4041V69.6582L79.002 46.6598V55.4568Z" fill="#DCDCDC"/>
<path d="M60.3359 96.3881L92.7281 114.801C92.7778 114.817 92.8318 114.817 92.8815 114.801L97.8085 111.953L65.4164 93.5581C65.3912 93.5412 65.3615 93.5322 65.3311 93.5322C65.3008 93.5322 65.2711 93.5412 65.2459 93.5581L60.3359 96.3881Z" fill="#DCDCDC"/>
<path d="M101.219 98.8568L106.366 95.7851L74.1611 76.7478C74.1395 76.7289 74.1121 76.7185 74.0839 76.7185C74.0557 76.7185 74.0283 76.7289 74.0067 76.7478L68.8594 79.8373L101.064 98.8568C101.087 98.8729 101.114 98.8816 101.142 98.8816C101.169 98.8816 101.196 98.8729 101.219 98.8568Z" fill="#DCDCDC"/>
<path d="M119.973 68.1696L125.12 65.0979L92.915 46.0605C92.8934 46.0416 92.866 46.0312 92.8378 46.0312C92.8096 46.0312 92.7822 46.0416 92.7606 46.0605L87.6133 49.1501L119.818 68.1696C119.841 68.1857 119.868 68.1943 119.895 68.1943C119.923 68.1943 119.95 68.1857 119.973 68.1696Z" fill="#DCDCDC"/>
<path d="M128.496 52.8258L133.643 49.7541L101.438 30.7168C101.417 30.6979 101.389 30.6875 101.361 30.6875C101.333 30.6875 101.306 30.6979 101.284 30.7168L96.1367 33.8063L128.342 52.8258C128.364 52.8419 128.391 52.8506 128.419 52.8506C128.446 52.8506 128.473 52.8419 128.496 52.8258Z" fill="#DCDCDC"/>
<path d="M111.013 83.5292L116.594 80.3211L83.1404 61.388C83.089 61.3707 83.0333 61.3707 82.9819 61.388L77.3828 64.5435L110.837 83.459C110.852 83.4904 110.879 83.515 110.911 83.528C110.944 83.541 110.98 83.5414 111.013 83.5292Z" fill="#DCDCDC"/>
</svg>
