<svg width="26" height="26" viewBox="0 0 26 26" fill="none" xmlns="http://www.w3.org/2000/svg">
<g clip-path="url(#clip0)">
<path d="M25.8347 11.4705C25.6142 11.2501 25.2559 11.2501 25.0354 11.4705L13.0006 23.5054L0.964582 11.4705C0.744142 11.2501 0.385769 11.2501 0.16533 11.4705C-0.0551099 11.6909 -0.0551099 12.0493 0.16533 12.2698L12.6004 24.7049C12.7112 24.8145 12.8559 24.8699 13.0006 24.8699C13.1453 24.8699 13.29 24.8145 13.3997 24.7049L25.8347 12.2698C26.0551 12.0493 26.0551 11.6909 25.8347 11.4705Z" fill="#9B9B9B"/>
<path d="M25.8347 1.29521C25.6142 1.07477 25.2559 1.07477 25.0354 1.29521L13.0006 13.3312L0.964582 1.29638C0.744142 1.07594 0.385769 1.07594 0.16533 1.29638C-0.0551099 1.51682 -0.0551099 1.87519 0.16533 2.09563L12.6004 14.5307C12.7112 14.6403 12.8559 14.6958 13.0006 14.6958C13.1453 14.6958 13.29 14.6404 13.3997 14.5296L25.8347 2.09446C26.0551 1.87403 26.0551 1.51565 25.8347 1.29521Z" fill="#9B9B9B"/>
</g>
<defs>
<clipPath id="clip0">
<rect width="26" height="26" fill="white"/>
</clipPath>
</defs>
</svg>
