<svg width="85" height="85" viewBox="0 0 85 85" fill="none" xmlns="http://www.w3.org/2000/svg">
<rect width="85" height="85" rx="20" fill="white"/>
<path fill-rule="evenodd" clip-rule="evenodd" d="M50.7029 19H23.6419H12L23.6419 24.4693V38.3779C26.7166 38.9584 29.1367 37.9328 32.4648 36.5223C34.3905 35.7061 36.6203 34.7611 39.4567 33.9238C45.1902 32.6158 50.9408 34.4578 51.156 37.0734C51.2164 37.8084 50.5543 38.407 49.8169 38.4049C49.3952 38.4037 48.8938 38.2068 48.65 37.9008C48.2077 39.0011 47.2863 39.9555 46.1405 39.9523C45.4645 39.9504 44.9736 39.4259 44.9754 38.7806C44.9762 38.5046 45.0641 38.2665 45.2555 38.1138C45.2544 38.5132 45.5773 38.838 45.9767 38.8391C46.3762 38.8402 46.7009 38.5173 46.702 38.1179C46.7032 37.7184 46.3803 37.3937 45.9808 37.3925C44.9668 37.3897 44.1425 38.2093 44.1396 39.2233C44.1367 40.2373 44.9008 41.0615 45.9148 41.0644C46.8578 41.0671 47.9203 40.6195 48.4776 39.8159C48.8138 39.9101 49.2794 39.9612 49.6456 39.9622C51.1819 39.9666 52.2154 39.205 52.7449 38.0627C53.3561 38.3426 54.8237 38.586 56.4544 38.5906C56.7552 38.2528 57.1386 37.9448 57.5887 37.6977C58.5655 37.1615 59.623 37.0546 60.391 37.3221C60.6368 37.3228 60.8368 37.0992 60.8375 36.8226C60.8383 36.5461 60.6395 36.377 60.3937 36.3763C60.0821 36.3754 59.5262 36.4889 58.8692 36.6231C57.7665 36.8483 56.3792 37.1316 55.3845 37.0297C53.5109 36.8379 51.7989 35.3088 50.8446 34.4564L50.8445 34.4563C50.6341 34.2684 50.4605 34.1133 50.3301 34.0127C48.9822 32.973 47.6339 32.9462 46.1047 32.9419L43.3229 32.934C42.2346 32.9309 41.0982 32.6495 40.8226 31.7586C41.8229 32.1509 42.4531 32.3752 46.6627 32.3871C48.8477 32.3933 50.8896 33.3185 52.2752 34.7954C53.3823 35.8666 54.8924 36.4163 56.5546 36.421C58.9014 36.4277 60.3123 35.7468 61.4538 35.1959C61.9713 34.9462 62.4335 34.7232 62.9024 34.603C62.9024 34.603 63.0695 34.5478 63.459 34.5489C64.9646 34.5532 66.1817 35.7772 66.1774 37.2829C66.174 38.4853 66.172 39.1865 64.7821 39.6713L64.7595 39.6792C64.3972 39.8051 63.5938 40.0842 62.8277 41.3349C62.7725 41.1864 62.6956 40.8115 62.8301 40.5003C61.7412 40.4292 61.223 40.7034 60.622 41.0214C60.2405 41.2233 59.8257 41.4428 59.2105 41.6028C58.9023 41.683 58.1926 41.7668 57.2616 41.8766L57.2616 41.8766C54.9973 42.1439 51.4242 42.5656 49.1349 43.4659L57.1457 43.8225C57.3135 43.5076 57.8941 42.812 58.874 42.5477C59.854 42.2834 61.2105 42.6656 61.7662 42.8897C61.6985 42.8947 61.6199 42.9 61.534 42.9058L61.5328 42.9059C61.0068 42.9414 60.2134 42.995 60.0408 43.1074C59.1742 43.6717 58.1005 43.9475 57.1448 44.193C56.3179 44.4055 55.5793 44.5952 55.1396 44.9295C56.4374 45.063 59.657 45.0536 62.1527 43.9479L63.9859 44.9546C64.2983 45.9569 64.0764 48.3153 60.6897 49.73L60.7057 49.6863C60.9343 49.0646 61.3468 47.9424 60.6958 47.5602C60.4275 47.4027 59.6884 47.893 58.6724 48.5671C57.1645 49.5676 55.0466 50.9727 52.9518 51.2659C53.528 50.8039 54.7374 49.435 54.6844 48.489C54.6314 47.543 52.7967 47.0927 50.5712 47.0864C47.0341 47.0764 43.7125 48.8305 41.2508 50.1305C39.8017 50.8957 38.6506 51.5036 37.9291 51.5015C37.038 51.499 36.3724 51.1077 36.4884 49.4389C31.96 50.8823 27.5844 52.9405 23.6419 55.5951V65.2281H50.7028C63.4684 65.2281 73.8169 54.8796 73.8169 42.114C73.8169 29.3485 63.4684 19 50.7029 19ZM23.6419 47.3513C30.0749 43.2809 36.1687 41.2236 38.2911 40.542C36.7378 39.4035 34.4988 38.9884 32.2883 39.4321C27.6464 40.5089 25.2015 41.3695 23.6419 41.9867V43.626C25.9352 42.9894 28.4925 42.0547 31.5608 40.356C33.1406 39.4813 34.8982 40.6436 34.8974 40.9218C30.789 42.1171 27.0328 43.7307 23.6419 45.7103V47.3513Z" fill="#FF495B"/>
</svg>
