<svg width="226" height="203" viewBox="0 0 226 203" fill="none" xmlns="http://www.w3.org/2000/svg">
<path d="M0.66257 193.509L16.5355 202.498C16.5466 202.504 16.559 202.508 16.5718 202.508C16.5845 202.508 16.5971 202.505 16.6084 202.499C16.6196 202.493 16.6292 202.485 16.6361 202.474C16.643 202.463 16.6471 202.451 16.6479 202.438V197.532C16.6476 197.518 16.6441 197.505 16.6375 197.493C16.631 197.482 16.6217 197.472 16.6104 197.464L0.729987 188.475C0.719561 188.468 0.707389 188.464 0.694842 188.464C0.682294 188.463 0.66987 188.467 0.658969 188.473C0.648067 188.479 0.639122 188.488 0.633141 188.499C0.62716 188.51 0.62438 188.523 0.625116 188.535V193.442C0.624659 193.455 0.627902 193.469 0.6345 193.481C0.641097 193.492 0.6508 193.502 0.66257 193.509Z" fill="#EFEFEF"/>
<path d="M16.5724 202.948C16.4889 202.947 16.4069 202.926 16.3327 202.888L0.25 193.749V193.449V188.311L0.489705 188.124C0.563055 188.083 0.645543 188.062 0.72941 188.062C0.813276 188.062 0.895765 188.083 0.969114 188.124L17.0593 197.262V197.562V202.701L16.8121 202.88C16.7398 202.924 16.6569 202.948 16.5724 202.948ZM1.03653 193.262L16.2353 201.899V197.757L1.03653 189.127V193.262Z" fill="#DCDCDC"/>
<path d="M4.60772 186.161L20.4807 195.15C20.4917 195.155 20.5009 195.164 20.5074 195.175C20.5138 195.185 20.5172 195.197 20.5172 195.21C20.5172 195.222 20.5138 195.234 20.5074 195.245C20.5009 195.255 20.4917 195.264 20.4807 195.27L16.6903 197.494C16.6809 197.502 16.669 197.507 16.6566 197.507C16.6443 197.507 16.6324 197.502 16.6229 197.494L0.742479 188.505C0.731639 188.499 0.722694 188.489 0.71649 188.478C0.710287 188.467 0.707031 188.454 0.707031 188.442C0.707031 188.429 0.710287 188.416 0.71649 188.405C0.722694 188.394 0.731639 188.385 0.742479 188.378L4.54779 186.183C4.55514 186.175 4.56446 186.168 4.57492 186.164C4.58538 186.161 4.59665 186.159 4.60772 186.161Z" fill="#EFEFEF"/>
<path d="M2.37109 189.314L16.6036 197.404C16.6254 197.412 16.6491 197.412 16.671 197.404L18.8358 196.153L4.60334 188.071C4.59226 188.064 4.57922 188.06 4.56589 188.06C4.55256 188.06 4.53952 188.064 4.52844 188.071L2.37109 189.314Z" fill="#DCDCDC"/>
<path d="M16.6917 197.974L16.4146 197.854L0.324401 188.723V188.423C0.322228 188.344 0.339551 188.266 0.374831 188.195C0.410112 188.125 0.46226 188.064 0.526651 188.019L4.52673 185.704L4.81137 185.816L20.8941 194.955L20.9315 195.255C20.9301 195.339 20.9074 195.422 20.8655 195.495C20.8236 195.568 20.7638 195.63 20.6918 195.674L16.6917 197.974ZM1.44802 188.416L16.6393 197.045L19.763 195.24L4.57167 186.618L1.44802 188.416Z" fill="#DCDCDC"/>
<path d="M4.7091 181.135L20.5895 190.124C20.5948 190.134 20.5976 190.146 20.5976 190.157C20.5976 190.169 20.5948 190.181 20.5895 190.191V195.097C20.5903 195.11 20.5875 195.122 20.5815 195.134C20.5755 195.145 20.5666 195.154 20.5557 195.16C20.5448 195.166 20.5324 195.169 20.5198 195.169C20.5073 195.168 20.4951 195.164 20.4847 195.157L4.61172 186.168C4.6076 186.159 4.60547 186.149 4.60547 186.138C4.60547 186.128 4.6076 186.118 4.61172 186.109V181.202C4.61042 181.19 4.6124 181.178 4.61744 181.167C4.62249 181.156 4.63041 181.146 4.64038 181.139C4.65035 181.133 4.66199 181.128 4.67408 181.128C4.68618 181.127 4.69828 181.129 4.7091 181.135Z" fill="#EFEFEF"/>
<path d="M20.52 195.599C20.4365 195.598 20.3545 195.577 20.2803 195.539L4.19761 186.4L4.16016 186.101V180.955L4.39986 180.775C4.47321 180.734 4.5557 180.713 4.63957 180.713C4.72343 180.713 4.80592 180.734 4.87927 180.775L20.9695 189.906V190.213V195.352L20.7297 195.532C20.6663 195.571 20.5943 195.594 20.52 195.599ZM4.98414 185.861L20.1829 194.535V190.408L4.98414 181.779V185.861Z" fill="#DCDCDC"/>
<path d="M8.81227 178.663L24.6852 187.652C24.6962 187.657 24.7055 187.666 24.7119 187.676C24.7183 187.687 24.7218 187.699 24.7218 187.711C24.7218 187.724 24.7183 187.736 24.7119 187.747C24.7055 187.757 24.6962 187.766 24.6852 187.771L20.6252 190.116C20.6158 190.124 20.6038 190.128 20.5915 190.128C20.5792 190.128 20.5672 190.124 20.5578 190.116L4.70732 181.135C4.69648 181.128 4.68754 181.119 4.68133 181.107C4.67513 181.096 4.67188 181.084 4.67188 181.071C4.67188 181.058 4.67513 181.046 4.68133 181.034C4.68754 181.023 4.69648 181.014 4.70732 181.007L8.77481 178.663C8.78687 178.658 8.80021 178.658 8.81227 178.663Z" fill="#EFEFEF"/>
<path d="M20.6237 190.146L22.8709 188.857L8.81074 180.872C8.8013 180.864 8.78936 180.86 8.77703 180.86C8.76471 180.86 8.75277 180.864 8.74333 180.872L6.49609 182.168L20.5563 190.146C20.5662 190.152 20.578 190.156 20.59 190.156C20.602 190.156 20.6138 190.152 20.6237 190.146Z" fill="#DCDCDC"/>
<path d="M20.626 190.625L20.3488 190.505L4.27362 181.374V181.075C4.27124 180.989 4.29235 180.905 4.33463 180.831C4.37691 180.757 4.43873 180.696 4.51332 180.655L8.78306 178.183L9.05273 178.303L25.1354 187.442L25.1729 187.741C25.1736 187.826 25.1518 187.91 25.1097 187.983C25.0676 188.057 25.0067 188.118 24.9332 188.161L20.626 190.625ZM5.39723 181.067L20.5885 189.696L23.9669 187.741L8.77557 179.119L5.39723 181.067Z" fill="#DCDCDC"/>
<path d="M8.88752 173.629L24.7605 182.618C24.7652 182.628 24.7677 182.64 24.7677 182.651C24.7677 182.663 24.7652 182.675 24.7605 182.685V187.584C24.7603 187.596 24.757 187.608 24.751 187.619C24.745 187.63 24.7365 187.639 24.7261 187.646C24.7157 187.653 24.7038 187.657 24.6916 187.658C24.6793 187.658 24.6669 187.656 24.6556 187.651L8.77516 178.663C8.76447 178.656 8.75545 178.648 8.74892 178.637C8.74239 178.627 8.73853 178.615 8.7377 178.603V173.696C8.73328 173.686 8.73083 173.676 8.73051 173.665C8.73018 173.654 8.73198 173.643 8.73581 173.633C8.73963 173.623 8.74541 173.614 8.7528 173.606C8.7602 173.598 8.76907 173.592 8.7789 173.588C8.78874 173.583 8.79935 173.581 8.81014 173.58C8.82092 173.58 8.83166 173.582 8.84174 173.586C8.85183 173.589 8.86106 173.595 8.86892 173.603C8.87677 173.61 8.88309 173.619 8.88752 173.629Z" fill="#EFEFEF"/>
<path d="M24.7247 188.101C24.6402 188.101 24.5573 188.077 24.485 188.033L8.40234 178.902V178.602V173.456L8.64205 173.277C8.71631 173.234 8.80018 173.212 8.8855 173.212C8.97082 173.212 9.05469 173.234 9.12895 173.277L25.2116 182.408V182.715V187.854L24.9719 188.033C24.8973 188.078 24.8118 188.101 24.7247 188.101ZM9.20386 178.4L24.4026 187.037V182.91L9.20386 174.28V178.4Z" fill="#DCDCDC"/>
<path d="M12.946 171.194L28.819 180.183C28.83 180.189 28.8392 180.197 28.8457 180.208C28.8521 180.219 28.8555 180.231 28.8555 180.243C28.8555 180.255 28.8521 180.268 28.8457 180.278C28.8392 180.289 28.83 180.297 28.819 180.303L24.8114 182.618C24.8003 182.625 24.7873 182.629 24.774 182.629C24.7606 182.629 24.7476 182.625 24.7365 182.618L8.86357 173.629C8.85273 173.622 8.84379 173.613 8.83758 173.601C8.83138 173.59 8.82812 173.578 8.82812 173.565C8.82813 173.552 8.83138 173.54 8.83758 173.529C8.84379 173.517 8.85273 173.508 8.86357 173.501L12.8711 171.187C12.883 171.18 12.8964 171.178 12.9097 171.179C12.9231 171.18 12.9357 171.186 12.946 171.194Z" fill="#EFEFEF"/>
<path d="M24.655 182.648L27.0296 181.277L12.7971 173.187C12.7753 173.179 12.7516 173.179 12.7297 173.187L10.3477 174.535L24.5801 182.618C24.5866 182.631 24.5979 182.642 24.6118 182.647C24.6256 182.653 24.6411 182.653 24.655 182.648Z" fill="#DCDCDC"/>
<path d="M24.8354 183.127L24.5583 183.007L8.45312 173.876V173.569C8.45463 173.484 8.47819 173.4 8.5215 173.327C8.56482 173.253 8.62642 173.192 8.70032 173.149L12.9101 170.715L13.1873 170.835L29.27 179.973V180.273C29.27 180.358 29.2479 180.441 29.2058 180.515C29.1638 180.588 29.1033 180.65 29.0303 180.693L24.8354 183.127ZM9.6067 173.569L24.798 182.198L28.1239 180.273L12.9476 171.651L9.6067 173.569Z" fill="#DCDCDC"/>
<path d="M13.0352 166.16L28.9157 175.149C28.9204 175.16 28.9229 175.171 28.9229 175.183C28.9229 175.195 28.9204 175.206 28.9157 175.217V180.116C28.9161 180.129 28.913 180.142 28.9066 180.154C28.9002 180.166 28.8908 180.176 28.8793 180.182C28.8679 180.189 28.8548 180.193 28.8414 180.193C28.828 180.193 28.8149 180.19 28.8033 180.183L12.9453 171.194C12.9346 171.188 12.9256 171.179 12.9191 171.169C12.9126 171.158 12.9087 171.146 12.9079 171.134V166.228C12.9045 166.212 12.9064 166.195 12.9133 166.18C12.9202 166.166 12.9317 166.154 12.9461 166.146C12.9605 166.138 12.977 166.136 12.9931 166.138C13.0092 166.141 13.024 166.149 13.0352 166.16Z" fill="#EFEFEF"/>
<path d="M28.8794 180.633C28.7948 180.632 28.712 180.609 28.6397 180.565L12.557 171.434L12.5195 171.134V165.988L12.7592 165.808C12.8326 165.768 12.9151 165.746 12.9989 165.746C13.0828 165.746 13.1653 165.768 13.2386 165.808L29.3288 174.94V175.247V180.385L29.0891 180.565C29.0256 180.604 28.9537 180.627 28.8794 180.633ZM13.3435 170.932L28.5423 179.569V175.441L13.3435 166.812V170.932Z" fill="#DCDCDC"/>
<path d="M225.229 20.6969V0.52427C225.229 0.512854 225.225 0.50173 225.22 0.491749C225.214 0.481768 225.206 0.473196 225.197 0.466688C225.188 0.460181 225.177 0.455911 225.166 0.454207C225.154 0.452502 225.143 0.453407 225.132 0.456853L192.09 10.8316L183.978 25.8131L142.539 48.3903V78.1137L133.954 83.1475V54.5028L120.373 62.2932C109.662 68.4956 100.328 92.3312 100.328 104.706V122.556C100.322 126.445 99.298 130.265 97.3584 133.636C95.4188 137.006 92.6308 139.811 89.2717 141.77L38.3344 171.396C38.3228 171.41 38.3164 171.427 38.3164 171.445C38.3164 171.463 38.3228 171.48 38.3344 171.494L46.2896 185.187C46.2959 185.193 46.3034 185.199 46.3118 185.202C46.3202 185.206 46.3292 185.208 46.3383 185.208C46.3474 185.208 46.3564 185.206 46.3648 185.202C46.3731 185.199 46.3807 185.193 46.387 185.187L97.3242 155.568C103.092 152.198 107.88 147.379 111.212 141.588C114.544 135.798 116.305 129.237 116.321 122.556V104.706C116.321 101.403 117.187 98.1577 118.834 95.2947C120.481 92.4316 122.851 90.0511 125.707 88.3911L208.03 40.3602C208.042 40.3528 208.055 40.3489 208.068 40.3489C208.081 40.3489 208.094 40.3528 208.105 40.3602L215.386 44.5625C215.405 44.5705 215.427 44.5711 215.446 44.5642C215.465 44.5573 215.482 44.5433 215.491 44.5251L225.229 20.6894C225.229 20.6894 225.229 20.7044 225.229 20.6969Z" fill="#DCDCDC"/>
<path d="M46.3122 185.636C46.2275 185.636 46.1442 185.614 46.0707 185.572C45.9971 185.53 45.9358 185.47 45.8927 185.397L37.8477 171.539V171.314C37.8835 171.192 37.9636 171.088 38.0724 171.022L89.0097 141.403C92.3047 139.477 95.0391 136.724 96.9417 133.415C98.8443 130.107 99.849 126.358 99.8563 122.542V104.714C99.8563 92.4437 108.935 68.4058 120.081 61.9412L183.528 25.5286L191.678 10.547L191.88 10.4646L225.207 0L225.439 0.134834C225.502 0.178521 225.553 0.236798 225.588 0.304651C225.624 0.372504 225.642 0.447901 225.641 0.524354V20.7869L225.596 20.8993L215.799 44.8697L215.574 44.9671C215.511 44.9946 215.444 45.0087 215.375 45.0087C215.307 45.0087 215.239 44.9946 215.177 44.9671L208.068 40.8622L125.917 88.8031C123.125 90.4247 120.807 92.7499 119.194 95.5469C117.581 98.3439 116.73 101.515 116.726 104.744V122.587C116.713 129.344 114.934 135.981 111.563 141.837C108.192 147.694 103.348 152.567 97.5117 155.973L46.5744 185.599C46.4925 185.637 46.4014 185.65 46.3122 185.636ZM38.8215 171.584L46.4321 184.685L97.0997 155.231C102.811 151.897 107.551 147.128 110.849 141.396C114.147 135.664 115.889 129.17 115.902 122.557V104.714C115.906 101.342 116.796 98.0299 118.481 95.1092C120.166 92.1884 122.588 89.7609 125.505 88.069L208.031 39.9109L208.308 40.0307L215.252 44.0383L224.817 20.6296V0.988782L192.345 11.1837L184.24 26.1128L184.113 26.1952L120.583 62.6528C109.819 68.9151 100.74 92.8856 100.74 104.714V122.557C100.735 126.515 99.6953 130.404 97.7245 133.837C95.7536 137.27 92.9199 140.129 89.504 142.13L38.8215 171.584Z" fill="#DCDCDC"/>
<path d="M178.964 105.155L170.597 120.362L147.376 129.545C138.387 134.736 135.255 137.223 124.836 137.276L95.1574 138.422C82.5954 138.474 30.3921 174.205 29.0063 175.127C28.9988 175.146 28.9988 175.167 29.0063 175.187V180.175C29.0111 180.186 29.0136 180.197 29.0136 180.209C29.0136 180.221 29.0111 180.232 29.0063 180.243L24.9239 182.595C24.9191 182.605 24.9167 182.617 24.9167 182.629C24.9167 182.64 24.9191 182.652 24.9239 182.662V187.644C24.9286 187.654 24.9311 187.666 24.9311 187.677C24.9311 187.689 24.9286 187.7 24.9239 187.711L20.789 190.093C20.7777 190.1 20.7684 190.11 20.7619 190.122C20.7553 190.134 20.7518 190.147 20.7515 190.161V195.142C20.7568 195.152 20.7595 195.164 20.7595 195.176C20.7595 195.187 20.7568 195.199 20.7515 195.209L16.8713 197.457C16.866 197.467 16.8633 197.479 16.8633 197.49C16.8633 197.502 16.866 197.514 16.8713 197.524V202.423C16.8715 202.435 16.8747 202.447 16.8807 202.458C16.8867 202.469 16.8953 202.478 16.9057 202.485C16.9161 202.491 16.9279 202.495 16.9402 202.496C16.9525 202.497 16.9649 202.495 16.9762 202.49L68.3928 172.333C76.9421 167.297 86.6738 164.619 96.5956 164.572L123.69 164.512C136.895 164.445 149.857 160.953 161.308 154.377L194.972 134.676C194.983 134.669 194.996 134.665 195.009 134.665C195.023 134.665 195.036 134.669 195.047 134.676L202.298 138.856C202.304 138.863 202.312 138.868 202.32 138.872C202.329 138.875 202.338 138.877 202.347 138.877C202.356 138.877 202.365 138.875 202.373 138.872C202.381 138.868 202.389 138.863 202.395 138.856L212.133 115.021V94.7955C212.133 94.7841 212.13 94.773 212.124 94.763C212.118 94.753 212.111 94.7444 212.101 94.7379C212.092 94.7314 212.081 94.7272 212.07 94.7254C212.058 94.7237 212.047 94.7246 212.036 94.7281L179.024 105.125C179.012 105.123 179 105.124 178.989 105.129C178.978 105.135 178.969 105.144 178.964 105.155Z" fill="#DCDCDC"/>
<path d="M16.7513 203L16.4741 202.88C16.4006 202.838 16.3397 202.777 16.2975 202.703C16.2554 202.629 16.2336 202.546 16.2344 202.461V197.322L16.4741 197.142L20.182 195V189.974L20.4217 189.794L24.3844 187.502V182.475L24.6316 182.296L28.5417 180.048V175.037L28.7515 174.857C30.9313 173.359 82.4828 138.152 95.1272 138.055L124.791 136.909C134.049 136.864 137.338 134.946 144.544 130.744C145.345 130.272 146.192 129.778 147.098 129.246L147.188 129.193L170.29 120.07L178.604 104.961L178.964 105.156L178.604 104.961L178.679 104.811L178.882 104.729L212.088 94.2415L212.32 94.3763C212.383 94.42 212.434 94.4783 212.47 94.5461C212.505 94.614 212.523 94.6894 212.523 94.7658V115.103L202.71 139.126L202.493 139.224C202.426 139.245 202.356 139.253 202.286 139.247C202.217 139.24 202.149 139.22 202.088 139.186L194.972 135.126L161.263 154.774C149.752 161.383 136.723 164.893 123.45 164.962L96.3482 165.022C86.5076 165.076 76.8568 167.735 68.3777 172.73L16.7513 203ZM17.0584 197.756V201.869L67.9957 172.018C76.6076 166.943 86.4122 164.244 96.4082 164.198L123.502 164.138C136.634 164.072 149.523 160.601 160.911 154.063L194.972 134.197L195.249 134.317L202.163 138.31L211.729 114.894V95.2527L179.241 105.478L170.896 120.676L170.739 120.766L147.518 129.935L144.933 131.433C137.81 135.591 134.237 137.673 124.783 137.718L95.1198 138.857C83.0371 138.916 32.4969 173.262 29.3283 175.419V180.468L29.0886 180.648L25.1784 182.895V187.921L24.9387 188.101L20.9686 190.393V195.419L20.7289 195.599L17.0584 197.756Z" fill="#DCDCDC"/>
<path d="M98.3359 164.557L121.467 164.512V137.388L98.3359 138.28V164.557Z" fill="#EFEFEF"/>
<path d="M97.9219 164.969V137.883L121.892 136.961V164.917L97.9219 164.969ZM98.7459 138.677V164.145L121.053 164.1V137.83L98.7459 138.677Z" fill="#DCDCDC"/>
<path d="M124.246 164.535C127.357 164.477 130.462 164.227 133.542 163.786V137.411L124.246 138.28V164.535Z" fill="#EFEFEF"/>
<path d="M123.809 164.947V137.905L133.929 136.961V164.183L133.577 164.235C130.477 164.658 127.356 164.895 124.228 164.947H123.809ZM124.633 138.654V164.123C127.466 164.064 130.295 163.849 133.105 163.479V137.868L124.633 138.654Z" fill="#DCDCDC"/>
<path d="M225.103 0.441733L184.068 6.0748C184.056 6.08093 184.045 6.09051 184.037 6.10243C184.03 6.11435 184.026 6.12814 184.026 6.14221C184.026 6.15628 184.03 6.17007 184.037 6.18199C184.045 6.19392 184.056 6.2035 184.068 6.20963L191.979 10.779C191.989 10.7857 191.998 10.7951 192.005 10.8062C192.011 10.8174 192.014 10.8299 192.014 10.8427C192.014 10.8554 192.011 10.868 192.005 10.8791C191.998 10.8903 191.989 10.8996 191.979 10.9063L117.708 54.3079C112.43 57.37 108.047 61.763 104.998 67.0483C101.948 72.3336 100.338 78.3264 100.329 84.4283V102.271C100.322 106.161 99.2976 109.981 97.3582 113.353C95.4187 116.725 92.6313 119.531 89.2725 121.493L38.3352 151.111C38.3231 151.126 38.3164 151.144 38.3164 151.164C38.3164 151.183 38.3231 151.201 38.3352 151.216L46.2904 164.902C46.2967 164.908 46.3043 164.913 46.3127 164.917C46.321 164.921 46.33 164.922 46.3391 164.922C46.3482 164.922 46.3572 164.921 46.3656 164.917C46.374 164.913 46.3815 164.908 46.3878 164.902L97.3251 135.276C103.093 131.907 107.88 127.089 111.212 121.299C114.544 115.51 116.306 108.951 116.322 102.271V84.4283C116.331 81.1342 117.202 77.8998 118.848 75.0467C120.495 72.1937 122.86 69.8214 125.708 68.1658L208.031 20.135C208.042 20.1276 208.055 20.1236 208.069 20.1236C208.082 20.1236 208.095 20.1276 208.106 20.135L215.387 24.3373C215.396 24.3423 215.407 24.3453 215.417 24.3461C215.428 24.3469 215.438 24.3455 215.448 24.3419C215.458 24.3384 215.467 24.3328 215.475 24.3256C215.482 24.3183 215.488 24.3096 215.492 24.2999L225.178 0.539113C225.184 0.527674 225.186 0.514717 225.185 0.501794C225.184 0.488871 225.18 0.476532 225.172 0.466254C225.164 0.455976 225.153 0.448196 225.141 0.443847C225.129 0.439497 225.115 0.438763 225.103 0.441733Z" fill="#EFEFEF"/>
<path d="M191.976 10.5321C191.987 10.5377 191.996 10.5463 192.003 10.5569C192.009 10.5675 192.013 10.5796 192.013 10.592C192.013 10.6044 192.009 10.6165 192.003 10.6271C191.996 10.6377 191.987 10.6463 191.976 10.6519L188.103 12.8992L191.939 15.1464C191.949 15.1531 191.958 15.1625 191.964 15.1736C191.971 15.1848 191.974 15.1973 191.974 15.2101C191.974 15.2228 191.971 15.2354 191.964 15.2465C191.958 15.2576 191.949 15.267 191.939 15.2737L117.682 58.6678C112.567 61.6398 108.292 65.864 105.258 70.943C102.225 76.0221 100.533 81.7891 100.341 87.702V102.024C100.341 102.384 100.341 102.773 100.341 103.111V106.631C100.331 110.524 99.3018 114.346 97.3554 117.717C95.4091 121.088 92.6136 123.89 89.2475 125.845L40.2578 154.31L46.2504 164.64C46.264 164.651 46.2813 164.658 46.2991 164.658C46.317 164.658 46.3342 164.651 46.3478 164.64L97.2851 135.014C102.903 131.746 107.597 127.104 110.926 121.523C114.256 115.942 116.112 109.606 116.319 103.111V88.7882C116.319 88.4212 116.319 88.0391 116.319 87.6945V84.1739C116.324 80.8751 117.194 77.6352 118.842 74.7777C120.491 71.9202 122.859 69.5449 125.713 67.8889L208.044 19.8506C208.055 19.8452 208.068 19.8424 208.081 19.8424C208.094 19.8424 208.107 19.8452 208.119 19.8506L215.4 24.0529C215.406 24.0595 215.413 24.0647 215.422 24.0683C215.43 24.0719 215.439 24.0737 215.448 24.0737C215.457 24.0737 215.466 24.0719 215.475 24.0683C215.483 24.0647 215.491 24.0595 215.497 24.0529L223.25 5.04883L190.291 9.54329L191.976 10.5321Z" fill="white"/>
<path d="M46.4004 165.374L46.1832 165.336C46.1219 165.32 46.0644 165.292 46.0142 165.254C45.964 165.215 45.9221 165.167 45.891 165.112L37.9283 151.418C37.8963 151.363 37.8756 151.303 37.8673 151.24C37.8591 151.177 37.8634 151.113 37.8802 151.051C37.8969 150.99 37.9257 150.932 37.9648 150.882C38.0039 150.832 38.0526 150.79 38.1081 150.759L89.0454 121.133C92.3414 119.208 95.0766 116.455 96.9794 113.146C98.8821 109.837 99.8863 106.088 99.892 102.271V84.4284C99.904 78.2501 101.536 72.1829 104.625 66.832C107.713 61.4812 112.151 57.0338 117.495 53.9335L191.227 10.8465L183.819 6.56182C183.732 6.5122 183.662 6.43658 183.621 6.34557C183.579 6.25456 183.566 6.15274 183.585 6.0544C183.604 5.95606 183.654 5.86614 183.727 5.79727C183.799 5.7284 183.892 5.68404 183.991 5.67042L225.048 0.0373535H225.28L225.64 0.441855L225.557 0.733996L215.819 24.6371L215.595 24.7419C215.529 24.7645 215.46 24.7721 215.391 24.7643C215.322 24.7566 215.256 24.7336 215.198 24.697L208.089 20.5995L125.937 68.5405C123.147 70.1614 120.829 72.4854 119.217 75.281C117.604 78.0766 116.752 81.246 116.746 84.4734V102.316C116.733 109.075 114.953 115.712 111.583 121.57C108.212 127.428 103.369 132.302 97.5324 135.71L46.4004 165.374ZM38.8122 151.314L46.4303 164.422L97.0979 134.969C102.81 131.634 107.55 126.863 110.848 121.13C114.146 115.397 115.888 108.901 115.9 102.286V84.4284C115.905 81.0566 116.795 77.7452 118.48 74.8246C120.165 71.904 122.587 69.4764 125.503 67.7839L208.029 19.6332L208.306 19.7456L215.25 23.7531L224.576 0.928756L185.1 6.34459L192.366 10.5469L192.403 10.8465C192.403 10.9303 192.381 11.0126 192.339 11.085C192.297 11.1574 192.236 11.2173 192.163 11.2585L117.907 54.6826C112.691 57.7082 108.36 62.0499 105.347 67.2737C102.334 72.4975 100.745 78.4205 100.738 84.4509V102.294C100.734 106.253 99.6946 110.142 97.7237 113.575C95.7528 117.008 92.9186 119.867 89.5023 121.867L38.8122 151.314Z" fill="#DCDCDC"/>
<path d="M194.975 114.496V134.609C194.975 134.623 194.979 134.636 194.985 134.647C194.992 134.659 195.001 134.669 195.012 134.676L202.226 138.841C202.237 138.846 202.25 138.848 202.262 138.847C202.274 138.846 202.286 138.842 202.296 138.836C202.307 138.829 202.315 138.82 202.321 138.809C202.327 138.798 202.331 138.786 202.331 138.774V118.661C202.335 118.652 202.338 118.642 202.338 118.631C202.338 118.621 202.335 118.611 202.331 118.601L195.117 114.436C195.113 114.427 195.107 114.419 195.1 114.411C195.093 114.404 195.084 114.399 195.075 114.395C195.066 114.391 195.056 114.389 195.046 114.389C195.035 114.389 195.025 114.391 195.016 114.395C195.007 114.399 194.998 114.405 194.991 114.412C194.984 114.419 194.978 114.428 194.974 114.437C194.971 114.447 194.969 114.457 194.969 114.467C194.969 114.477 194.971 114.487 194.975 114.496Z" fill="#EFEFEF"/>
<path d="M202.267 139.261C202.18 139.261 202.095 139.237 202.02 139.193L194.604 134.909L194.566 134.609V114.257L195.023 113.957L195.301 114.077L202.709 118.362L202.746 118.661V139.014L202.507 139.193C202.434 139.237 202.351 139.261 202.267 139.261ZM195.39 134.414L201.922 138.16V118.856L195.39 115.111V134.414Z" fill="#DCDCDC"/>
<path d="M170.739 100.496V109.957C170.738 109.97 170.741 109.982 170.747 109.993C170.753 110.004 170.762 110.013 170.773 110.02C170.784 110.026 170.796 110.029 170.809 110.028C170.821 110.028 170.834 110.024 170.844 110.017L178.874 105.193C178.885 105.187 178.894 105.179 178.901 105.168C178.907 105.158 178.911 105.145 178.911 105.133C178.911 105.121 178.907 105.109 178.901 105.098C178.894 105.087 178.885 105.079 178.874 105.073L170.851 100.436C170.841 100.427 170.828 100.421 170.814 100.419C170.8 100.417 170.786 100.42 170.774 100.426C170.762 100.433 170.752 100.443 170.745 100.456C170.739 100.468 170.737 100.482 170.739 100.496Z" fill="#EFEFEF"/>
<path d="M170.852 110.496L170.568 110.377C170.495 110.334 170.434 110.272 170.392 110.199C170.35 110.125 170.328 110.042 170.328 109.957V100.264L170.778 99.9644L171.055 100.077L179.295 104.833V105.125C179.295 105.209 179.273 105.292 179.233 105.365C179.192 105.439 179.133 105.5 179.062 105.545L170.852 110.496ZM171.152 101.088V109.328L178.163 105.111L171.152 101.088Z" fill="#DCDCDC"/>
<path d="M208.067 20.225V40.3228C208.061 40.3319 208.059 40.3422 208.059 40.3527C208.059 40.3633 208.061 40.3736 208.067 40.3827L215.31 44.57C215.322 44.575 215.334 44.577 215.346 44.5761C215.358 44.5751 215.37 44.5711 215.381 44.5644C215.391 44.5577 215.4 44.5486 215.406 44.5378C215.412 44.527 215.415 44.515 215.415 44.5026V24.3899C215.415 24.3899 215.415 24.3375 215.415 24.33L208.171 20.1426C208.159 20.1368 208.145 20.1346 208.131 20.1363C208.118 20.1379 208.105 20.1432 208.094 20.1517C208.083 20.1603 208.075 20.1716 208.07 20.1845C208.065 20.1975 208.064 20.2115 208.067 20.225Z" fill="#EFEFEF"/>
<path d="M215.387 44.9897C215.3 44.9894 215.215 44.9661 215.14 44.9223L207.709 40.6226L207.672 40.323V19.9705L208.121 19.6709L208.398 19.7908L215.844 24.0905L215.882 24.3901V44.7425L215.642 44.9223C215.565 44.9689 215.477 44.9923 215.387 44.9897ZM208.458 40.1282L215.02 43.9185V24.5848L208.458 20.7945V40.1282Z" fill="#DCDCDC"/>
<path d="M183.855 6.23237V15.4835C183.856 15.4962 183.86 15.5085 183.867 15.5192C183.874 15.5299 183.884 15.5387 183.895 15.5447C183.906 15.5507 183.919 15.5537 183.932 15.5535C183.944 15.5533 183.957 15.5498 183.968 15.5434L191.975 10.9066C191.986 10.8999 191.995 10.8905 192.001 10.8794C192.008 10.8682 192.011 10.8557 192.011 10.8429C192.011 10.8302 192.008 10.8176 192.001 10.8065C191.995 10.7954 191.986 10.786 191.975 10.7793L183.96 6.16495C183.949 6.16001 183.937 6.15795 183.924 6.15893C183.912 6.15991 183.9 6.16392 183.89 6.17059C183.879 6.17726 183.871 6.18639 183.865 6.19716C183.859 6.20794 183.856 6.22003 183.855 6.23237Z" fill="#EFEFEF"/>
<path d="M183.997 16.0229L183.72 15.903C183.647 15.8605 183.587 15.8005 183.544 15.7285C183.501 15.6566 183.476 15.5749 183.473 15.491V5.99275L183.922 5.69312L184.199 5.81297L192.394 10.5396L192.432 10.8393C192.432 10.924 192.41 11.0073 192.367 11.0808C192.325 11.1544 192.265 11.2157 192.192 11.2588L183.997 16.0229ZM184.267 6.81673V14.8918L191.211 10.8468L184.267 6.81673Z" fill="#DCDCDC"/>
<path d="M170.92 100.481L178.867 105.065C178.878 105.072 178.887 105.082 178.893 105.093C178.9 105.104 178.903 105.116 178.903 105.129C178.903 105.142 178.9 105.154 178.893 105.166C178.887 105.177 178.878 105.186 178.867 105.193L153.122 120.279C144.07 125.473 133.826 128.232 123.391 128.287L96.2965 128.347C83.544 128.408 71.0359 131.851 60.0486 138.325L13.0365 166.04C13.0255 166.046 13.0163 166.055 13.0099 166.065C13.0034 166.076 13 166.088 13 166.1C13 166.113 13.0034 166.125 13.0099 166.135C13.0163 166.146 13.0255 166.155 13.0365 166.16L28.917 175.149C28.9269 175.156 28.9387 175.16 28.9507 175.16C28.9627 175.16 28.9745 175.156 28.9844 175.149L68.1686 152.063C76.7173 147.025 86.449 144.345 96.3714 144.295L123.466 144.235C136.67 144.166 149.63 140.677 161.084 134.107L194.972 114.391C194.984 114.384 194.997 114.38 195.01 114.38C195.023 114.38 195.036 114.384 195.047 114.391L202.298 118.579C202.307 118.584 202.317 118.587 202.327 118.587C202.337 118.588 202.347 118.587 202.356 118.583C202.365 118.58 202.374 118.574 202.381 118.567C202.388 118.56 202.393 118.551 202.396 118.541L212.089 94.8106C212.095 94.7992 212.098 94.7862 212.097 94.7733C212.096 94.7604 212.091 94.748 212.083 94.7377C212.075 94.7275 212.064 94.7197 212.052 94.7153C212.04 94.711 212.027 94.7102 212.014 94.7132L170.942 100.376C170.934 100.382 170.926 100.389 170.921 100.397C170.915 100.405 170.911 100.414 170.909 100.424C170.907 100.434 170.907 100.444 170.908 100.454C170.91 100.463 170.914 100.473 170.92 100.481Z" fill="#EFEFEF"/>
<path d="M178.732 104.871C178.743 104.878 178.752 104.887 178.758 104.898C178.764 104.909 178.767 104.922 178.767 104.935C178.767 104.947 178.764 104.96 178.758 104.971C178.752 104.982 178.743 104.992 178.732 104.998L174.62 107.41L178.125 109.433C178.136 109.44 178.145 109.449 178.151 109.46C178.157 109.471 178.161 109.484 178.161 109.497C178.161 109.509 178.157 109.522 178.151 109.533C178.145 109.544 178.136 109.554 178.125 109.56L152.372 124.647C143.322 129.837 133.081 132.596 122.649 132.654L95.5469 132.707C82.7974 132.772 70.2929 136.215 59.3066 142.684L16.4219 167.996L28.7742 175.015C28.7853 175.022 28.7983 175.026 28.8116 175.026C28.825 175.026 28.838 175.022 28.8491 175.015L68.0258 151.921C76.5772 146.884 86.3118 144.206 96.2361 144.16L123.33 144.1C136.533 144.034 149.493 140.541 160.941 133.965L194.807 114.227C194.818 114.22 194.831 114.216 194.845 114.216C194.858 114.216 194.871 114.22 194.882 114.227L202.126 118.414C202.135 118.419 202.145 118.422 202.156 118.423C202.166 118.424 202.177 118.422 202.186 118.419C202.196 118.415 202.205 118.41 202.213 118.403C202.221 118.395 202.227 118.387 202.231 118.377L210.036 99.2754L176.867 103.822L178.732 104.871Z" fill="white"/>
<path d="M28.9932 175.659L28.7085 175.539L12.6333 166.407V166.108C12.6294 166.023 12.649 165.939 12.69 165.865C12.731 165.791 12.7918 165.73 12.8655 165.688L59.8776 137.973C70.9305 131.467 83.5099 128.006 96.3352 127.942L123.429 127.882C133.792 127.828 143.963 125.087 152.951 119.927L178.202 105.14L170.749 100.841C170.662 100.79 170.594 100.714 170.552 100.623C170.51 100.532 170.498 100.43 170.516 100.331C170.538 100.232 170.589 100.142 170.662 100.073C170.736 100.003 170.828 99.9577 170.928 99.9418L212.203 94.2788L212.412 94.496C212.465 94.5628 212.499 94.6424 212.511 94.7266C212.523 94.8109 212.512 94.8967 212.48 94.9755L202.742 118.879L202.524 118.976C202.462 119.007 202.392 119.023 202.322 119.023C202.252 119.023 202.183 119.007 202.12 118.976L194.974 114.848L161.265 134.489C149.755 141.101 136.726 144.611 123.452 144.677L96.3502 144.737C86.5097 144.792 76.8592 147.451 68.3797 152.445L28.9932 175.659ZM13.7494 166.093L28.9482 174.73L67.9602 151.733C76.5724 146.659 86.3768 143.96 96.3727 143.913L123.467 143.853C136.598 143.787 149.488 140.316 160.876 133.778L194.974 113.92L195.251 114.032L202.165 118.025L211.453 95.2002L171.977 100.616L179.273 104.833V105.125C179.274 105.21 179.252 105.294 179.21 105.368C179.168 105.441 179.107 105.502 179.033 105.545L153.333 120.601C144.211 125.837 133.887 128.617 123.369 128.669L96.2753 128.729C83.5969 128.789 71.1614 132.212 60.2372 138.647L13.7494 166.093Z" fill="#DCDCDC"/>
<path d="M43.9442 147.336C43.6446 147.464 43.3 147.688 43.2551 148.033C43.1577 148.737 43.1202 149.973 43.0378 150.37C42.8655 151.119 42.9105 151.494 43.4798 151.921C44.0037 152.147 44.565 152.274 45.1352 152.295C45.2574 152.316 45.3826 152.309 45.5019 152.276C45.6211 152.242 45.7313 152.182 45.8244 152.1C46.0816 151.897 46.2934 151.642 46.4461 151.351C46.5435 151.119 46.6259 150.917 46.6783 150.767C46.7556 150.556 46.9039 150.379 47.0978 150.265C47.2057 150.215 47.3188 150.178 47.4349 150.153C48.1426 149.379 48.7561 148.524 49.2627 147.606C49.6597 146.857 48.7009 146.108 48.1465 145.995C47.3736 146.033 46.6131 146.206 45.8993 146.505L43.9442 147.336Z" fill="#81829F"/>
<path d="M45.1951 152.19C45.3172 152.214 45.4431 152.209 45.5629 152.175C45.6826 152.141 45.7926 152.08 45.8842 151.995C46.1411 151.792 46.3529 151.536 46.506 151.246C46.6033 151.022 46.6782 150.819 46.7382 150.662C46.8154 150.451 46.9637 150.274 47.1577 150.16C47.2643 150.114 47.3745 150.076 47.4873 150.048C48.1457 149.339 48.7212 148.557 49.2026 147.718C48.9594 147.381 48.6077 147.138 48.2064 147.029C47.4334 147.067 46.6729 147.239 45.9591 147.538L43.9891 148.392C43.6969 148.52 43.3523 148.744 43.2999 149.089C43.21 149.763 43.1726 150.917 43.0977 151.336C43.2014 151.527 43.3507 151.689 43.5321 151.808C44.055 152.046 44.6206 152.176 45.1951 152.19Z" fill="#81829F"/>
<path d="M45.2767 152.632C45.2095 152.639 45.1416 152.639 45.0744 152.632L44.6325 152.572C44.1585 152.564 43.6945 152.435 43.2841 152.198C42.98 152.004 42.7557 151.708 42.6526 151.362C42.5494 151.017 42.5741 150.646 42.7223 150.317C42.7223 150.138 42.7897 149.673 42.8272 149.231C42.8646 148.789 42.9096 148.317 42.9096 147.988C42.9614 147.767 43.0703 147.563 43.2254 147.398C43.3805 147.232 43.5764 147.11 43.7935 147.044L45.7561 146.19C46.5256 145.865 47.3483 145.685 48.1831 145.658C48.4695 145.729 48.7376 145.86 48.97 146.042C49.2023 146.224 49.3937 146.453 49.5314 146.714C49.616 146.874 49.6603 147.051 49.6603 147.231C49.6603 147.412 49.616 147.589 49.5314 147.748C48.9986 148.737 48.3249 149.643 47.5314 150.437C47.4735 150.461 47.4133 150.479 47.3516 150.49H47.2393C47.1113 150.567 47.0135 150.686 46.9621 150.827C46.9097 150.984 46.8273 151.186 46.7299 151.426C46.5621 151.768 46.3188 152.068 46.0183 152.303C45.8184 152.497 45.5553 152.614 45.2767 152.632ZM44.0707 147.628C43.7785 147.756 43.5913 147.92 43.5688 148.078C43.5238 148.4 43.4939 148.827 43.4639 149.254C43.4498 149.65 43.4098 150.046 43.3441 150.437C43.1868 151.141 43.2467 151.344 43.6737 151.658C43.9925 151.819 44.3431 151.906 44.6999 151.913C44.8797 151.913 45.052 151.913 45.2018 151.98C45.2756 151.993 45.3515 151.989 45.4232 151.967C45.4948 151.944 45.5602 151.906 45.6138 151.853C45.8347 151.679 46.0181 151.463 46.1531 151.216L46.3778 150.64C46.4804 150.356 46.6792 150.117 46.9396 149.965C47.0244 149.92 47.1152 149.887 47.2093 149.868H47.3217C47.9371 149.115 48.4907 148.313 48.9771 147.471C49.0158 147.402 49.0362 147.325 49.0362 147.246C49.0362 147.168 49.0158 147.09 48.9771 147.022C48.8847 146.853 48.7596 146.705 48.6091 146.585C48.4586 146.465 48.2858 146.377 48.1007 146.325C47.3876 146.365 46.6874 146.533 46.0332 146.819L44.0707 147.628Z" fill="#81829F"/>
<path d="M43.0378 150.37C43.1202 149.973 43.1277 148.804 43.2251 148.123C43.2251 147.898 43.5247 147.703 43.6671 147.561C44.7457 147.913 45.9667 148.362 45.9667 148.362C45.9667 148.362 45.5472 150.025 46.0566 150.123C46.3562 150.19 46.2664 149.89 46.7533 149.703C47.5127 149.207 48.1858 148.589 48.7458 147.875C49.1054 147.411 49.3376 146.819 49.0454 146.55C49.1906 146.68 49.29 146.854 49.3291 147.046C49.3682 147.237 49.3449 147.436 49.2627 147.613C48.7606 148.534 48.1467 149.39 47.4349 150.16C47.3176 150.181 47.2039 150.218 47.0978 150.272C46.9039 150.386 46.7556 150.563 46.6783 150.774C46.6259 150.924 46.5435 151.126 46.4461 151.359C46.2934 151.649 46.0816 151.904 45.8244 152.108C45.7313 152.189 45.6211 152.249 45.5019 152.283C45.3826 152.317 45.2574 152.323 45.1352 152.302C44.565 152.281 44.0037 152.154 43.4798 151.928C42.9105 151.493 42.8655 151.126 43.0378 150.37Z" fill="#81829F"/>
<path d="M45.2767 152.632C45.2095 152.639 45.1416 152.639 45.0744 152.632L44.6325 152.572C44.1585 152.564 43.6945 152.435 43.2841 152.198C42.98 152.004 42.7557 151.708 42.6526 151.362C42.5494 151.017 42.5741 150.646 42.7223 150.317C42.7675 149.982 42.795 149.644 42.8047 149.306C42.8047 148.879 42.8572 148.43 42.9096 148.078C42.9697 147.814 43.1243 147.583 43.3441 147.426C43.3721 147.394 43.4021 147.364 43.4339 147.336L43.5763 147.186L43.771 147.254C44.8422 147.606 46.0632 148.063 46.0782 148.063L46.3479 148.16L46.273 148.445C46.1585 148.867 46.113 149.304 46.1381 149.741C46.2765 149.59 46.4485 149.475 46.64 149.403C47.3399 148.926 47.9637 148.345 48.4902 147.681C48.7973 147.284 48.8947 146.932 48.8423 146.812L48.7973 146.767L49.2543 146.31C49.3048 146.352 49.3478 146.403 49.3816 146.46C49.5354 146.637 49.6331 146.857 49.6625 147.09C49.6918 147.323 49.6514 147.56 49.5464 147.771C49.2168 148.377 47.9134 150.355 47.5239 150.467H47.3966L47.2542 150.512C47.1265 150.588 47.0307 150.708 46.9846 150.849C46.9246 151.007 46.8423 151.209 46.7449 151.448C46.5771 151.791 46.3338 152.09 46.0332 152.325C45.8262 152.515 45.5576 152.624 45.2767 152.632ZM43.7785 147.905C43.6961 147.973 43.5838 148.085 43.5763 148.138C43.5313 148.467 43.5014 148.887 43.4789 149.321C43.4655 149.695 43.433 150.067 43.3815 150.437C43.2242 151.141 43.2841 151.344 43.7111 151.658C44.03 151.818 44.3806 151.905 44.7373 151.913C44.9171 151.913 45.0894 151.913 45.2392 151.98C45.3131 151.992 45.3886 151.987 45.4601 151.965C45.5315 151.943 45.5969 151.904 45.6512 151.853C45.8721 151.679 46.0556 151.463 46.1906 151.216L46.4153 150.632C46.5226 150.353 46.7204 150.118 46.9771 149.965C47.0739 149.914 47.1772 149.876 47.2842 149.853H47.3292C47.4402 149.743 47.5429 149.626 47.6363 149.501C47.4138 149.704 47.161 149.87 46.8872 149.995C46.7728 150.038 46.6719 150.11 46.5951 150.205C46.5307 150.298 46.44 150.37 46.3346 150.411C46.2292 150.453 46.1138 150.462 46.0033 150.437C45.9285 150.421 45.8579 150.389 45.796 150.344C45.7342 150.299 45.6823 150.241 45.6437 150.175C45.4631 149.656 45.4474 149.093 45.5988 148.565C45.2018 148.407 44.4602 148.138 43.7486 147.905H43.7785Z" fill="#81829F"/>
<path d="M46.7295 148.01L47.1116 147.943C47.0626 147.669 46.9332 147.416 46.7397 147.215C46.5463 147.015 46.2976 146.877 46.0254 146.819C45.7729 146.762 45.5087 146.787 45.2715 146.891C45.0343 146.995 44.8365 147.172 44.707 147.396L45.0516 147.576C45.1395 147.423 45.2752 147.304 45.4377 147.236C45.6001 147.169 45.7803 147.156 45.9505 147.201C46.1453 147.245 46.3231 147.345 46.4616 147.489C46.6001 147.632 46.6933 147.814 46.7295 148.01Z" fill="#81829F"/>
<path d="M47.405 147.568L47.787 147.501C47.7354 147.229 47.6037 146.979 47.4088 146.783C47.2139 146.586 46.9647 146.453 46.6934 146.4C46.4408 146.341 46.1762 146.366 45.9387 146.47C45.7013 146.574 45.5036 146.751 45.375 146.976L45.7271 147.149C45.8248 147 45.9685 146.887 46.1362 146.828C46.3038 146.768 46.4863 146.765 46.6559 146.819C46.8378 146.862 47.0042 146.955 47.1364 147.088C47.2686 147.22 47.3616 147.386 47.405 147.568Z" fill="#81829F"/>
<path d="M48.4744 124.512C48.4744 124.512 47.6204 132.984 46.9762 135.194C46.332 137.403 47.0287 143.291 46.729 145.808C46.4294 148.325 46.3994 148.415 45.0661 149.029C43.7327 149.643 43.0211 149.029 42.8189 148.325C42.6166 147.621 42.6316 143.965 42.4443 141.793C42.332 140.49 41.7402 139.254 41.9424 136.43C42.2945 131.531 42.4443 130.437 41.8451 127.748C41.2078 124.425 40.9565 121.039 41.096 117.658C41.2982 114.661 44.7515 111.066 44.7515 111.066L49.3508 114.939L48.4744 124.512Z" fill="#81829F"/>
<path d="M44.1527 149.583C43.8946 149.585 43.6393 149.531 43.4036 149.426C43.1955 149.328 43.0104 149.188 42.8607 149.014C42.7109 148.839 42.5998 148.635 42.5346 148.415C42.3849 147.348 42.3148 146.271 42.3249 145.194C42.28 144.063 42.2425 142.782 42.1601 141.823C42.1139 141.423 42.0464 141.025 41.9579 140.632C41.6453 139.247 41.5418 137.823 41.6507 136.407L41.7406 135.223C42.0253 131.283 42.1002 130.227 41.5608 127.815C40.9214 124.464 40.6701 121.051 40.8118 117.643C41.0215 114.534 44.4148 110.991 44.5572 110.841L44.7669 110.624L49.7258 114.804L48.8044 124.542C48.8044 124.886 47.9355 133.066 47.3063 135.276C46.9692 136.497 47.0366 138.924 47.0965 141.269C47.1942 142.79 47.1942 144.316 47.0965 145.838C46.7969 148.355 46.7669 148.617 45.2538 149.314C44.9112 149.484 44.5351 149.576 44.1527 149.583ZM44.8118 111.508C44.0628 112.324 41.6133 115.253 41.4485 117.68C41.3113 121.031 41.5627 124.387 42.1976 127.68C42.7594 130.175 42.6695 131.358 42.3848 135.268L42.3024 136.452C42.1957 137.808 42.2967 139.172 42.6021 140.497C42.6845 140.939 42.7669 141.351 42.8043 141.77C42.8942 142.744 42.9317 144.018 42.9691 145.179C42.9736 146.2 43.0386 147.221 43.1639 148.235C43.1996 148.368 43.2645 148.492 43.3539 148.597C43.4433 148.702 43.555 148.785 43.6807 148.842C43.8906 148.917 44.1141 148.947 44.3363 148.928C44.5585 148.91 44.7742 148.845 44.9691 148.737C46.1527 148.19 46.1527 148.19 46.4673 145.741C46.5707 144.245 46.5832 142.744 46.5048 141.246C46.4373 138.849 46.3699 136.37 46.7295 135.059C47.3138 132.909 48.1677 124.572 48.1752 124.429L49.0666 115.036L44.8118 111.508Z" fill="#81829F"/>
<path d="M44.333 144.257C44.5427 139.898 43.7187 137.815 44.333 134.257C44.7179 131.066 44.5532 127.834 43.8461 124.699V124.661C45.4629 124.888 47.1095 124.58 48.5353 123.785L49.1795 117.043L43.876 112.114C42.8423 113.395 41.2542 115.657 41.1194 117.672C40.9799 121.053 41.2312 124.439 41.8685 127.762C42.4678 130.452 42.3179 131.553 41.9659 136.444C41.7636 139.268 42.3554 140.504 42.4677 141.808C42.655 143.98 42.64 147.636 42.8423 148.34C43.0445 149.044 43.8535 149.613 45.0895 149.044C45.1045 149.066 44.1157 148.624 44.333 144.257Z" fill="#81829F"/>
<path d="M44.1527 149.583C43.8946 149.585 43.6393 149.531 43.4036 149.426C43.1955 149.329 43.0104 149.188 42.8607 149.014C42.7109 148.839 42.5998 148.635 42.5346 148.415C42.3849 147.348 42.3148 146.271 42.3249 145.194C42.28 144.063 42.2425 142.782 42.1601 141.823C42.1139 141.423 42.0464 141.025 41.9579 140.632C41.6453 139.247 41.5418 137.823 41.6507 136.407L41.7406 135.224C42.0253 131.283 42.1002 130.227 41.5608 127.815C40.9214 124.464 40.6701 121.051 40.8118 117.643C40.9466 115.613 42.4298 113.396 43.6433 111.897L43.8605 111.628L49.531 116.871L48.8569 123.943L48.7295 124.025C47.3705 124.813 45.7983 125.153 44.2351 124.999C44.8759 128.05 45.0101 131.185 44.6321 134.28C44.3891 135.982 44.3614 137.709 44.5497 139.418C44.6991 141.024 44.7391 142.639 44.6695 144.25C44.4748 148.138 45.2613 148.707 45.2688 148.744L45.9579 149.029L45.2538 149.321C44.9106 149.489 44.5346 149.578 44.1527 149.583ZM43.9204 112.572C42.9616 113.793 41.5683 115.867 41.4485 117.68C41.3113 121.031 41.5627 124.387 42.1976 127.68C42.7594 130.175 42.6695 131.358 42.3848 135.269L42.3024 136.452C42.1957 137.808 42.2967 139.172 42.6021 140.497C42.6845 140.939 42.7669 141.351 42.8043 141.771C42.8942 142.744 42.9317 144.018 42.9691 145.179C42.9736 146.201 43.0386 147.221 43.1639 148.235C43.1996 148.368 43.2645 148.492 43.3539 148.597C43.4433 148.702 43.555 148.785 43.6807 148.842C43.9567 148.956 44.2634 148.972 44.5497 148.887C44.2201 148.317 43.8755 147.059 44.0103 144.243C44.077 142.659 44.0395 141.072 43.898 139.493C43.6986 137.734 43.7263 135.957 43.9804 134.205C44.3641 131.057 44.2019 127.867 43.501 124.774V124.609L43.7332 124.332H43.9279C45.421 124.529 46.9388 124.268 48.2801 123.583L48.8868 117.141L43.9204 112.572Z" fill="#81829F"/>
<path d="M52.1452 152.287C52.0912 152.879 52.0011 153.467 51.8755 154.048C51.7594 154.349 51.7206 154.675 51.7624 154.996C51.8043 155.316 51.9256 155.621 52.1152 155.883C52.2725 156.057 52.4746 156.183 52.6993 156.249C52.924 156.315 53.1625 156.318 53.3887 156.258C53.9788 156.318 54.5749 156.272 55.149 156.123C55.5011 155.891 55.4936 155.494 56.0179 155.501C56.4782 155.558 56.926 155.689 57.3438 155.891C58.7731 155.937 60.2025 155.804 61.5986 155.494C61.7575 155.399 61.881 155.254 61.95 155.082C62.019 154.91 62.0297 154.721 61.9806 154.542C61.9254 154.362 61.829 154.197 61.699 154.06C61.5689 153.924 61.4089 153.82 61.2315 153.756C60.2577 153.284 58.0404 153.201 56.6322 152.505C55.4994 152.025 54.3037 151.709 53.0815 151.568L52.1452 152.287Z" fill="#81829F"/>
<path d="M61.2551 154.467C60.2888 153.995 58.0715 153.913 56.6633 153.216C55.5302 152.737 54.3346 152.422 53.1126 152.28L52.1763 153.029C52.1186 153.611 52.026 154.189 51.8991 154.759C51.8991 154.894 51.8467 155.022 51.8242 155.149C51.8673 155.382 51.9765 155.598 52.1388 155.771C52.2963 155.944 52.4981 156.071 52.7225 156.139C52.9468 156.206 53.1853 156.211 53.4123 156.153C54.0028 156.21 54.5988 156.161 55.1726 156.01C55.5247 155.778 55.5172 155.381 56.034 155.389C56.496 155.449 56.9458 155.58 57.3674 155.778C58.7942 155.825 60.2212 155.692 61.6147 155.381C61.7521 155.315 61.863 155.204 61.9293 155.067C61.7825 154.793 61.5436 154.581 61.2551 154.467Z" fill="#81829F"/>
<path d="M53.0669 156.625C52.8473 156.622 52.6305 156.575 52.4297 156.486C52.2288 156.397 52.0481 156.269 51.8983 156.108C51.6611 155.812 51.5064 155.459 51.4498 155.084C51.3933 154.709 51.4369 154.326 51.5762 153.973C51.6934 153.407 51.7784 152.834 51.8309 152.258V152.115L52.977 151.231H53.1118C54.3716 151.374 55.6034 151.702 56.7673 152.205C57.6154 152.561 58.5032 152.812 59.4116 152.954C60.0783 153.048 60.7319 153.219 61.3592 153.464C61.5807 153.548 61.7798 153.683 61.9409 153.857C62.102 154.031 62.2208 154.24 62.288 154.467C62.3542 154.717 62.3356 154.98 62.2353 155.218C62.1349 155.455 61.9585 155.652 61.7337 155.778C60.2631 156.131 58.7497 156.272 57.2392 156.198C57.0863 156.152 56.9362 156.097 56.7898 156.033C56.5423 155.91 56.272 155.838 55.9958 155.823C55.8385 155.786 55.801 155.868 55.6812 156.026C55.5805 156.168 55.4564 156.292 55.3141 156.393C54.6943 156.585 54.0401 156.642 53.3965 156.557C53.2892 156.591 53.1787 156.614 53.0669 156.625ZM52.4526 152.452C52.4023 153.014 52.3148 153.572 52.1905 154.123C52.0107 154.872 52.0631 155.366 52.3478 155.658C52.4634 155.789 52.6122 155.886 52.7784 155.938C52.9445 155.991 53.1219 155.998 53.2916 155.958H53.344H53.3965C53.9197 156.017 54.4491 155.987 54.962 155.868C55.0423 155.809 55.1109 155.735 55.1643 155.651C55.2502 155.508 55.3724 155.391 55.5185 155.31C55.6645 155.23 55.8292 155.19 55.9958 155.194C56.3541 155.207 56.706 155.294 57.0295 155.449C57.1549 155.51 57.2852 155.56 57.419 155.599C58.7646 155.621 60.1084 155.495 61.4266 155.224C61.7487 155.059 61.6438 154.64 61.6438 154.64C61.6438 154.64 61.5614 154.295 61.067 154.055C60.4884 153.839 59.8881 153.686 59.2767 153.599C58.3176 153.459 57.3808 153.194 56.4902 152.812C55.4308 152.362 54.3139 152.062 53.1718 151.921L52.4526 152.452Z" fill="#81829F"/>
<path d="M51.899 154.048C51.899 153.913 51.9664 153.756 51.9964 153.606C52.1088 152.977 52.1687 152.295 52.1687 152.295L53.105 151.546C54.267 151.681 55.4057 151.97 56.4909 152.407C56.3433 152.799 56.0801 153.136 55.7362 153.374C55.3923 153.612 54.984 153.74 54.5657 153.741C54.0323 153.786 53.4961 153.786 52.9627 153.741C52.9552 154.092 53.0269 154.44 53.1724 154.759C53.3062 155.031 53.525 155.251 53.7955 155.386C54.066 155.521 54.3733 155.564 54.6706 155.509C55.165 155.344 55.4197 154.714 56.0264 154.819C56.6332 154.924 57.3373 155.636 58.0864 155.568C58.8355 155.501 61.5172 155.321 61.667 155.059C61.7344 154.947 61.8617 154.759 61.9816 154.587C62.0284 154.764 62.0165 154.95 61.9475 155.119C61.8786 155.288 61.7564 155.43 61.5996 155.523C60.2036 155.834 58.7741 155.967 57.3448 155.921C56.927 155.719 56.4792 155.588 56.0189 155.531C55.5021 155.531 55.5021 155.921 55.15 156.153C54.5759 156.302 53.9798 156.348 53.3897 156.288C53.1635 156.348 52.925 156.345 52.7003 156.279C52.4756 156.213 52.2735 156.087 52.1162 155.913C51.9251 155.646 51.8049 155.335 51.7669 155.008C51.7289 154.682 51.7744 154.352 51.899 154.048Z" fill="#81829F"/>
<path d="M53.0744 156.625C52.8536 156.623 52.6355 156.576 52.4334 156.487C52.2312 156.398 52.0492 156.269 51.8983 156.108C51.6611 155.812 51.5064 155.459 51.4498 155.084C51.3933 154.709 51.4369 154.326 51.5762 153.973C51.5762 153.898 51.5762 153.816 51.6287 153.726V153.546C51.7335 152.939 51.7935 152.265 51.7935 152.258V152.115L52.947 151.231H53.0744C54.2699 151.368 55.4415 151.666 56.5576 152.115L56.8048 152.228L56.7374 152.497C56.5706 152.959 56.2652 153.358 55.8629 153.64C55.4606 153.921 54.9812 154.072 54.4901 154.07C54.0612 154.101 53.6307 154.101 53.2017 154.07C53.2151 154.245 53.2609 154.415 53.3365 154.572C53.438 154.784 53.6048 154.959 53.8124 155.069C54.0199 155.18 54.2575 155.221 54.4901 155.187C54.6403 155.119 54.7772 155.025 54.8946 154.909C55.0315 154.752 55.2049 154.631 55.3995 154.557C55.5941 154.482 55.804 154.457 56.0108 154.482C56.3104 154.552 56.5964 154.671 56.8572 154.835C57.1824 155.064 57.5682 155.191 57.9658 155.202C58.1681 155.202 58.5052 155.142 58.8947 155.104C59.7207 155.059 60.542 154.951 61.3517 154.782C61.4191 154.67 61.5315 154.505 61.6438 154.348V153.921L62.2581 154.46C62.326 154.707 62.3081 154.969 62.2074 155.205C62.1067 155.44 61.9292 155.634 61.7037 155.756C60.2332 156.109 58.7198 156.25 57.2093 156.175C57.0567 156.128 56.9067 156.073 56.7598 156.011C56.5123 155.887 56.242 155.816 55.9658 155.801C55.801 155.801 55.7636 155.846 55.6512 156.003C55.5506 156.145 55.4264 156.269 55.2841 156.37C54.6757 156.568 54.0318 156.631 53.3965 156.557C53.2914 156.59 53.1836 156.612 53.0744 156.625ZM52.1905 154.123C52.0107 154.872 52.0631 155.366 52.3478 155.658C52.4634 155.789 52.6122 155.886 52.7784 155.938C52.9445 155.991 53.1219 155.998 53.2916 155.958H53.3515H53.3965C53.9197 156.017 54.4491 155.987 54.962 155.868C55.0423 155.809 55.1109 155.735 55.1643 155.651L55.2692 155.524C55.0881 155.69 54.8687 155.81 54.6305 155.871C54.3924 155.933 54.1427 155.935 53.9035 155.877C53.6644 155.819 53.4431 155.704 53.2593 155.54C53.0755 155.376 52.9348 155.17 52.8496 154.939C52.6674 154.575 52.5798 154.171 52.595 153.763V153.396L52.9545 153.434C53.4704 153.478 53.9892 153.478 54.5051 153.434C54.8049 153.425 55.098 153.344 55.3591 153.196C55.6201 153.049 55.8413 152.84 56.0033 152.587C55.0745 152.253 54.1127 152.02 53.1343 151.891L52.3852 152.445C52.3852 152.64 52.3253 152.999 52.2654 153.374L52.2204 153.651C52.2579 153.823 52.2279 153.981 52.1905 154.123ZM55.9358 155.127C55.8042 155.138 55.6803 155.194 55.5838 155.284C55.7269 155.209 55.8869 155.173 56.0482 155.179H56.1681L56.0108 155.134L55.9358 155.127Z" fill="#81829F"/>
<path d="M56.1466 121.126C56.1466 121.126 56.5211 133.268 56.1466 137.351C55.8647 141.74 55.8072 146.14 55.9743 150.535C56.0866 152.437 55.9743 152.842 54.169 152.954C53.5131 153.079 52.8341 152.953 52.2663 152.602C51.5173 152.175 51.8019 149.126 51.5173 146.609C51.2326 144.092 50.7682 142.564 50.9629 139.598C51.1577 136.632 49.0153 130.729 48.4985 128.287C47.9895 125.932 47.7036 123.534 47.6445 121.126H56.1466Z" fill="#81829F"/>
<path d="M53.5845 153.299C53.0553 153.314 52.5336 153.17 52.0864 152.887C51.4721 152.527 51.4047 151.314 51.3373 149.194C51.3373 148.347 51.2924 147.471 51.21 146.647C51.1276 145.823 51.0302 145.224 50.9403 144.579C50.6409 142.929 50.5428 141.249 50.6481 139.576C50.7905 137.538 49.7867 134.07 48.9777 131.283C48.6406 130.107 48.3485 129.089 48.2286 128.354C47.7158 125.977 47.4273 123.557 47.3672 121.126V120.804H56.461V121.111C56.461 121.238 56.828 133.328 56.461 137.373C56.1754 141.747 56.1179 146.132 56.2887 150.512C56.4011 152.49 56.2887 153.141 54.1838 153.276L53.5845 153.299ZM47.9964 121.448C48.0887 123.715 48.3719 125.97 48.8429 128.19C48.9927 128.939 49.2848 129.905 49.5919 131.074C50.4084 133.905 51.4272 137.433 51.2849 139.591C51.1858 141.217 51.2813 142.849 51.5695 144.452C51.6594 145.104 51.7643 145.778 51.8392 146.55C51.9141 147.321 51.9515 148.287 51.974 149.141C51.974 150.392 52.0564 152.138 52.3935 152.295C52.9075 152.614 53.5239 152.724 54.1164 152.602C55.6819 152.505 55.7269 152.302 55.6145 150.52C55.4475 146.11 55.505 141.695 55.7868 137.291C56.1239 133.643 55.8542 123.343 55.7868 121.418L47.9964 121.448Z" fill="#81829F"/>
<path d="M56.1452 121.216C56.1452 121.216 56.1902 122.714 56.2351 124.751C55.1788 126.335 53.6392 127.536 51.8455 128.175C52.0403 130.699 52.3998 135.725 52.707 137.913C53.1115 140.834 52.6545 143.156 52.707 146.624C52.7594 150.093 52.662 152.063 53.6133 152.467C54.274 152.721 55.0022 152.737 55.6733 152.512C55.2226 152.787 54.7029 152.927 54.1752 152.917C53.5192 153.045 52.8389 152.919 52.2725 152.564C51.5234 152.138 51.8081 149.089 51.5234 146.572C51.2388 144.055 50.7743 142.527 50.9691 139.561C51.1639 136.594 49.1488 131.036 48.5571 128.474C48.5571 128.429 48.5571 128.377 48.5571 128.332C48.0481 125.977 47.7622 123.579 47.7031 121.171L56.1452 121.216Z" fill="#81829F"/>
<path d="M53.5676 153.306C53.0378 153.317 52.5166 153.171 52.0695 152.887C51.4552 152.527 51.3878 151.314 51.3204 149.194C51.3204 148.347 51.2754 147.471 51.193 146.647C51.1106 145.823 51.0133 145.224 50.9234 144.579C50.624 142.929 50.5259 141.249 50.6312 139.576C50.7736 137.538 49.7698 134.07 48.9683 131.291C48.6986 130.369 48.4664 129.553 48.3016 128.894L48.1818 128.444C47.6689 126.067 47.3805 123.647 47.3203 121.216V120.894H56.4591V121.208C56.4591 121.208 56.504 122.669 56.5489 124.744V124.856L56.4815 124.954C56.4398 125 56.4022 125.05 56.3692 125.103C55.3355 126.598 53.8729 127.745 52.1743 128.392L52.2717 129.59C52.4815 132.317 52.7736 136.055 53.0208 137.89C53.2206 139.601 53.2532 141.327 53.1182 143.044C53.0657 144.16 53.0058 145.291 53.0283 146.647V147.703C53.0283 150.235 53.0283 151.913 53.7249 152.197C54.2758 152.377 54.8631 152.416 55.4328 152.31L55.5452 152.197L55.9047 152.257L56.0546 152.662L55.8972 152.804C55.847 152.842 55.7915 152.872 55.7325 152.894C55.2483 153.136 54.7155 153.264 54.1744 153.269C53.9571 153.299 53.7549 153.306 53.5676 153.306ZM48.811 128.175L48.8934 128.444C49.0507 129.133 49.3203 130.055 49.6425 131.111C50.4589 133.942 51.4702 137.471 51.3279 139.62C51.2288 141.247 51.3243 142.879 51.6125 144.482C51.7024 145.134 51.8073 145.808 51.8822 146.579C51.9571 147.351 51.9946 148.317 52.017 149.171C52.017 150.422 52.0994 152.168 52.4365 152.325C52.6786 152.48 52.9482 152.586 53.2305 152.639C52.4815 152.033 52.4365 150.392 52.414 147.726V146.669C52.414 145.313 52.414 144.152 52.5039 143.029C52.6387 141.352 52.6086 139.666 52.414 137.995C52.1594 136.137 51.8747 132.392 51.665 129.65L51.5301 127.95L51.7698 127.867C53.4398 127.282 54.8801 126.18 55.8823 124.721L55.9422 124.646C55.9422 123.193 55.8823 122.055 55.8673 121.538H47.9945C48.0812 123.769 48.3543 125.989 48.811 128.175Z" fill="#81829F"/>
<path d="M44.9015 89.29C44.9015 89.29 42.025 89.29 41.5231 90.4886C40.5888 93.1824 40.1794 96.0303 40.3171 98.8782C40.5718 102.204 41.0212 103.373 40.9239 106.144C40.8265 108.916 39.9501 111.92 39.965 114.894C39.965 117.665 40.0699 118.204 40.7141 118.586C41.2904 118.882 41.8831 119.145 42.4894 119.373C42.5876 119.407 42.6919 119.421 42.7957 119.413C42.8994 119.405 43.0003 119.375 43.0919 119.325C43.1835 119.276 43.2639 119.208 43.3278 119.126C43.3917 119.044 43.4378 118.95 43.4632 118.849L44.0026 114.586L44.6618 120.025C44.661 120.188 44.7019 120.348 44.7806 120.491C44.8592 120.634 44.973 120.755 45.1112 120.841C46.1824 121.515 48.9465 123.088 51.0139 123.088C52.714 122.935 54.3679 122.452 55.8829 121.665C56.192 121.518 56.4535 121.287 56.6376 120.998C56.8217 120.709 56.921 120.375 56.9241 120.032C57.0215 115.238 57.3062 96.4287 56.2275 95.2003C54.5346 93.2976 54.4147 93.2227 53.0514 92.3837C51.6881 91.5448 47.4633 91.6796 47.4633 91.6796L44.9015 89.29Z" fill="#3E5685"/>
<path d="M50.9481 123.396C48.8132 123.396 46.0491 121.807 44.9555 121.148C44.7693 121.033 44.6158 120.872 44.5096 120.681C44.4033 120.489 44.348 120.274 44.3487 120.055L44.0042 117.223L43.7869 118.916C43.7553 119.065 43.6916 119.205 43.6001 119.326C43.5086 119.448 43.3916 119.547 43.2574 119.619C43.1232 119.69 42.975 119.731 42.8232 119.739C42.6714 119.747 42.5196 119.722 42.3787 119.665C41.757 119.43 41.1493 119.16 40.5584 118.856C39.7419 118.377 39.6595 117.725 39.6445 114.886C39.6833 113.237 39.8511 111.594 40.1464 109.972C40.377 108.699 40.5296 107.413 40.6033 106.122C40.6454 104.756 40.5576 103.389 40.3412 102.039C40.2288 101.178 40.1015 100.197 39.9966 98.9007C39.8567 95.9988 40.2763 93.0971 41.2326 90.3537C41.8019 89.0354 44.581 88.9604 44.8956 88.9604H45.0304L47.5922 91.3425C48.3413 91.3425 51.9294 91.2901 53.2328 92.0916C54.5362 92.8931 54.731 93.0429 56.4763 94.9755C57.5475 96.189 57.4276 111.193 57.2254 120.025C57.2223 120.427 57.1061 120.82 56.8902 121.159C56.6743 121.498 56.3673 121.769 56.0044 121.942C54.446 122.752 52.7429 123.246 50.9931 123.396H50.9481ZM43.727 114.264C43.727 114.189 43.757 114.116 43.8104 114.063C43.8638 114.01 43.9362 113.98 44.0117 113.98C44.0871 113.98 44.1595 114.01 44.2129 114.063C44.2663 114.116 44.2963 114.189 44.2963 114.264L44.9929 119.98C44.9875 120.095 45.0123 120.209 45.0648 120.312C45.1174 120.414 45.1959 120.501 45.2926 120.564C46.3413 121.223 48.978 122.744 50.9406 122.744H51.0155C52.6679 122.585 54.2748 122.112 55.7497 121.351C56.006 121.23 56.223 121.04 56.3755 120.801C56.528 120.562 56.6097 120.285 56.6111 120.002C56.8808 106.009 56.6111 96.1216 55.9969 95.3875C54.3489 93.5223 54.2366 93.4549 52.9107 92.6384C51.847 91.9792 48.626 91.9343 47.4799 91.9717H47.3525L44.7832 89.5972C43.7345 89.6346 42.1165 89.9193 41.7869 90.6009C40.8856 93.2626 40.5041 96.0726 40.6633 98.8782C40.7607 100.159 40.888 101.125 41.0004 101.987C41.2239 103.371 41.3142 104.773 41.27 106.174C41.1524 107.832 40.9448 109.483 40.6483 111.118C40.3937 112.781 40.2884 114.463 40.3337 116.144C40.3786 117.822 40.521 118.107 40.9105 118.332C41.4722 118.615 42.05 118.865 42.6408 119.081C42.692 119.107 42.7484 119.12 42.8056 119.12C42.8629 119.12 42.9193 119.107 42.9704 119.081C43.0221 119.053 43.0674 119.014 43.1035 118.968C43.1395 118.922 43.1657 118.868 43.1802 118.811L43.727 114.264Z" fill="#3E5685"/>
<path d="M48.452 90.496L46.1373 88.7881L45.6055 89.1776L45.98 90.3836L47.6055 90.923L48.452 90.496Z" fill="#FDBC38"/>
<path d="M47.635 91.2677L45.7174 90.6385L45.2305 89.0505L46.1369 88.3838L49.0657 90.5561L47.635 91.2677ZM46.2417 90.1366L47.5826 90.5711L47.8373 90.4438L46.1369 89.1853L45.9795 89.2977L46.2417 90.1366Z" fill="black"/>
<path d="M53.443 81.6944C53.8024 81.6919 54.1572 81.6132 54.4839 81.4634C54.8106 81.3136 55.1018 81.0962 55.3382 80.8255C55.4744 80.6692 55.5648 80.4782 55.5992 80.2737C55.6337 80.0693 55.6109 79.8592 55.5333 79.6669C55.4558 79.4746 55.3265 79.3075 55.1599 79.1841C54.9932 79.0607 54.7957 78.9858 54.5891 78.9678C53.9258 79.0568 53.3113 79.3653 52.8438 79.8442C52.9677 80.1224 53.0679 80.4106 53.1434 80.7056L53.443 81.6944Z" fill="#81829F"/>
<path d="M53.2094 82.0164L52.8199 80.8029C52.73 80.5108 52.6251 80.1662 52.5727 80.0539L52.4453 79.934L52.5202 79.7093C53.0481 79.1168 53.7765 78.7406 54.5652 78.6531C54.8116 78.66 55.0516 78.7332 55.2599 78.865C55.4682 78.9969 55.637 79.1824 55.7487 79.4022C55.8805 79.6568 55.9364 79.9439 55.9099 80.2294C55.8833 80.5148 55.7754 80.7867 55.5989 81.0127C55.3366 81.3285 55.008 81.5827 54.6365 81.7575C54.265 81.9322 53.8596 82.0232 53.4491 82.0239L53.2094 82.0164ZM53.2094 79.8965C53.2693 80.0389 53.3367 80.2636 53.4416 80.6456L53.6813 81.3947C53.952 81.3703 54.2151 81.2913 54.4545 81.1626C54.694 81.0339 54.9049 80.858 55.0746 80.6456C55.1811 80.5138 55.2482 80.3545 55.268 80.1862C55.2879 80.0178 55.2598 79.8473 55.1869 79.6943C55.128 79.5797 55.0405 79.4823 54.9329 79.4115C54.8253 79.3406 54.7012 79.2987 54.5727 79.2898C54.0706 79.3687 53.5979 79.5779 53.2019 79.8965H53.2094Z" fill="#8C8DA7"/>
<path d="M49.8862 78.3161C49.8862 78.3161 51.0697 77.4921 50.7027 77.0127C50.0585 76.1737 49.5117 77.7618 48.1633 77.9266C46.815 78.0914 46.0959 78.2112 46.0959 78.2112C46.0959 78.2112 45.534 79.7543 45.8112 79.7693C46.0884 79.7843 48.1633 79.7693 48.8749 79.3348C49.2925 79.0859 49.6404 78.7355 49.8862 78.3161Z" fill="#8C8DA7"/>
<path d="M46.0102 80.0989H45.6282L45.4858 79.9341C45.4259 79.8367 45.2611 79.5746 45.7929 78.1139L45.8604 77.9416H46.0401C46.0401 77.9416 46.8866 77.7992 48.1226 77.6569C48.5991 77.5604 49.0367 77.326 49.381 76.9827C49.6405 76.6973 50 76.5229 50.3848 76.4958C50.4994 76.5158 50.6089 76.5586 50.7067 76.6216C50.8045 76.6847 50.8886 76.7667 50.9541 76.8629C51.0099 76.937 51.05 77.0218 51.0719 77.1119C51.0938 77.2021 51.097 77.2958 51.0814 77.3872C50.999 77.9041 50.3324 78.406 50.1301 78.5783C49.8556 79.0169 49.4807 79.3841 49.0365 79.6495C48.0678 79.9996 47.0388 80.1524 46.0102 80.0989ZM46.3323 78.5034C46.2256 78.8148 46.138 79.1325 46.0701 79.4547C46.9654 79.4762 47.8576 79.3419 48.7069 79.0577C49.0715 78.8368 49.3773 78.5309 49.5983 78.1663V78.0989L49.6582 78.0464C49.9428 77.8517 50.4073 77.4622 50.4073 77.2374C50.4073 77.0127 50.2949 77.0951 50.2724 77.0951C50.25 77.0951 49.9353 77.2824 49.7556 77.4322C49.3157 77.8555 48.7606 78.1395 48.16 78.2487C47.3136 78.3536 46.6544 78.4509 46.3323 78.5034Z" fill="#8C8DA7"/>
<path d="M50.9685 87.8293C50.9685 87.8293 50.5341 89.8743 51.2083 90.7508C51.8824 91.6272 49.1633 91.6646 49.1633 91.6646L46.2344 90.2189C46.6026 89.5291 46.7786 88.7529 46.7437 87.9717C46.579 86.9679 46.4441 86.8855 46.7437 86.923C47.0434 86.9604 50.9685 87.8293 50.9685 87.8293Z" fill="#DEC8BD"/>
<path d="M49.0964 91.9866L45.793 90.3611L45.9503 90.0689C46.2928 89.4299 46.4583 88.711 46.4297 87.9865C46.3773 87.6869 46.3323 87.4696 46.2949 87.3123C46.2349 87.0127 46.1975 86.8329 46.3473 86.6756C46.4024 86.6237 46.4699 86.5867 46.5433 86.5684C46.6168 86.55 46.6937 86.5508 46.7668 86.5707C47.0364 86.6157 50.632 87.4247 51.044 87.5146L51.3511 87.582L51.2837 87.8966C51.1713 88.421 50.9841 89.9341 51.4635 90.5483C51.556 90.647 51.6163 90.7716 51.6364 90.9054C51.6565 91.0392 51.6353 91.1759 51.5758 91.2974C51.2762 91.9191 49.793 92.0465 49.1713 92.0465L49.0964 91.9866ZM46.6544 90.0689L49.2312 91.3424C49.8323 91.3693 50.4309 91.2512 50.9766 90.9978C50.98 90.9805 50.98 90.9627 50.9766 90.9454C50.3848 90.1963 50.5271 88.6981 50.632 88.0764L46.9765 87.2599C46.9765 87.4172 47.0514 87.6194 47.0964 87.8816C47.147 88.6371 46.9944 89.3924 46.6544 90.0689Z" fill="#DEC8BD"/>
<path d="M53.0919 81.6495C53.0919 81.6495 54.1855 84.7582 53.6537 86.6084C53.1219 88.4587 52.9046 88.571 52.9046 88.571C52.0744 88.7657 51.2104 88.7657 50.3802 88.571C49.941 88.3762 49.5486 88.0896 49.2294 87.7304C48.9102 87.3711 48.6718 86.9477 48.53 86.4886C48.53 86.2863 48.4102 81.245 48.4102 81.245L51.2042 80.436L53.0919 81.6495Z" fill="#DEC8BD"/>
<path d="M51.591 89.0427C51.1451 89.0473 50.701 88.9867 50.2726 88.8629C48.8943 88.4584 48.2351 86.7505 48.1902 86.5333C48.1452 86.316 48.0928 82.7879 48.0703 81.2897V81.0425L51.2389 80.1287L53.3588 81.4845V81.5894C53.4037 81.7167 54.4824 84.8179 53.9281 86.743C53.3738 88.6681 53.1041 88.8479 52.9992 88.9004H52.9318C52.4911 88.9949 52.0417 89.0426 51.591 89.0427ZM48.7145 81.4845C48.7145 83.4396 48.8044 86.2112 48.8269 86.4284C48.8494 86.6456 49.4411 87.9266 50.4524 88.2487C51.1924 88.4137 51.9596 88.4137 52.6996 88.2487C52.9694 87.6851 53.1803 87.0952 53.3288 86.4883C53.7783 84.9452 52.9918 82.3759 52.812 81.8291L51.149 80.7878L48.7145 81.4845Z" fill="#DEC8BD"/>
<path d="M52.2432 77.4546C51.5218 77.4458 50.8163 77.6661 50.2282 78.0838C49.1795 78.6681 47.6963 77.9565 46.2356 78.1288C45.3665 78.2688 44.5767 78.7166 44.0102 79.3903C43.4437 80.0641 43.1382 80.919 43.1494 81.7992C43.099 82.6438 43.2668 83.4872 43.6368 84.2481C44.0068 85.009 44.5664 85.6619 45.2618 86.1439C46.3405 86.9829 46.0109 87.6421 46.3929 88.2863C46.6251 88.6608 48.9098 88.9679 49.6214 88.7057C50.333 88.4436 50.0634 86.3986 49.9435 86.0016C49.8237 85.6046 48.6176 84.9903 49.1045 83.9566C49.5914 82.9229 50.7375 83.2075 52.0035 82.7131C52.6154 82.4939 53.1499 82.1006 53.5412 81.5815C53.9325 81.0625 54.1635 80.4404 54.2058 79.7917C54.2058 78.9303 53.9061 77.522 52.2432 77.4546Z" fill="#8C8DA7"/>
<path d="M46.9151 87.8067C46.2175 87.3234 45.6565 86.6681 45.2864 85.9043C44.9163 85.1406 44.7497 84.2942 44.8027 83.4471C44.7915 82.5669 45.097 81.712 45.6636 81.0382C46.2301 80.3644 47.0199 79.9167 47.8889 79.7766C49.3496 79.6043 50.8328 80.316 51.8815 79.7317C52.472 79.3129 53.1802 79.0926 53.904 79.1025C53.8591 78.6303 53.6387 78.1922 53.2864 77.8746C52.9342 77.557 52.4756 77.3831 52.0014 77.3871C51.2798 77.3767 50.5738 77.5972 49.9864 78.0163C48.9377 78.6006 47.4545 77.8964 45.9938 78.0687C45.1234 78.2058 44.3318 78.6527 43.7647 79.3272C43.1976 80.0016 42.8932 80.8582 42.9076 81.7392C42.856 82.5861 43.0232 83.432 43.3932 84.1955C43.7632 84.959 44.3234 85.6145 45.02 86.0988C46.0912 86.9303 45.7691 87.597 46.1511 88.2337C46.5948 88.5297 47.1158 88.6886 47.6492 88.6906C47.4896 88.3347 47.2358 88.029 46.9151 87.8067Z" fill="#8C8DA7"/>
<path d="M48.767 89.1402C47.7407 89.1402 46.3774 88.893 46.1152 88.466C45.9769 88.2197 45.8831 87.9509 45.8381 87.672C45.8094 87.4211 45.7279 87.1792 45.5987 86.9623C45.4696 86.7453 45.2959 86.5583 45.089 86.4135C44.3481 85.9001 43.7521 85.2044 43.3585 84.3935C42.9648 83.5826 42.7869 82.6839 42.8418 81.7842C42.8337 80.8273 43.1696 79.8993 43.7883 79.1692C44.407 78.4392 45.2673 77.9556 46.2126 77.8066C46.8406 77.7574 47.4723 77.7876 48.0928 77.8965C48.751 78.0712 49.4473 78.0371 50.0854 77.7991C50.7271 77.3543 51.4919 77.1213 52.2727 77.1325C53.6959 77.1924 54.5199 78.1962 54.5199 79.8067C54.4781 80.519 54.228 81.2034 53.8005 81.7747C53.373 82.3461 52.787 82.7792 52.1154 83.0202C51.6855 83.1889 51.2383 83.3094 50.782 83.3798C50.0329 83.5146 49.6284 83.612 49.3887 84.1288C49.149 84.6457 49.4337 84.9753 49.8456 85.4098C50.0152 85.556 50.1507 85.7375 50.2427 85.9416C50.3251 86.2113 50.7745 88.6608 49.7258 89.0503C49.4125 89.1284 49.0893 89.1587 48.767 89.1402ZM46.7295 78.4209C46.5774 78.4097 46.4247 78.4097 46.2725 78.4209C45.4784 78.5522 44.7581 78.9652 44.2436 79.5842C43.7291 80.2033 43.4548 80.9869 43.471 81.7917C43.4228 82.5863 43.5809 83.3798 43.9301 84.0952C44.2792 84.8105 44.8075 85.4234 45.4635 85.8742C45.7326 86.0643 45.9604 86.3071 46.1329 86.5877C46.3054 86.8684 46.4192 87.1812 46.4673 87.5072C46.4982 87.7151 46.5668 87.9156 46.6696 88.099C46.9018 88.3162 48.5947 88.0166 49.2314 87.7843C49.6059 87.642 49.8007 86.6083 49.6359 86.0839C49.5643 85.9802 49.4814 85.8848 49.3887 85.7993C49.0838 85.5776 48.862 85.2601 48.7588 84.8975C48.6556 84.535 48.677 84.1483 48.8194 83.7993C49.2089 82.9828 49.9206 82.8554 50.6696 82.7131C51.0893 82.653 51.5012 82.5475 51.8981 82.3985C52.4528 82.2062 52.9387 81.8552 53.2956 81.3891C53.6525 80.923 53.8647 80.3623 53.9056 79.7767C53.9056 79.0276 53.6959 77.8066 52.2577 77.7467C51.594 77.7364 50.9449 77.9414 50.4075 78.331C49.6513 78.6485 48.8118 78.709 48.0179 78.5033C47.5906 78.4489 47.1603 78.4214 46.7295 78.4209Z" fill="#8C8DA7"/>
<path d="M50.2281 84.2712C50.1716 84.179 50.0959 84.1001 50.006 84.04C49.9162 83.9798 49.8144 83.9398 49.7076 83.9227C49.6009 83.9057 49.4917 83.9119 49.3876 83.941C49.2835 83.9701 49.1869 84.0214 49.1045 84.0914C48.228 84.6607 49.1569 85.7543 49.7861 85.8293C49.9633 85.8384 50.1408 85.8384 50.318 85.8293C50.5127 85.8293 50.6775 85.657 50.6326 85.5146L50.2281 84.2712Z" fill="#DEC8BD"/>
<path d="M50.2496 86.1813C50.0824 86.191 49.9149 86.191 49.7477 86.1813C49.4413 86.1143 49.1589 85.9653 48.9307 85.7503C48.7024 85.5352 48.5369 85.2622 48.4518 84.9603C48.392 84.7475 48.4035 84.5209 48.4847 84.3153C48.5659 84.1096 48.7122 83.9363 48.9013 83.8217C49.0301 83.727 49.1772 83.6602 49.3332 83.6253C49.4892 83.5905 49.6508 83.5885 49.8076 83.6195C50.0856 83.6869 50.3255 83.8621 50.4743 84.1064V84.1738L50.8788 85.4472C50.9029 85.5244 50.908 85.6062 50.8936 85.6858C50.8793 85.7653 50.8459 85.8402 50.7964 85.9041C50.734 85.987 50.6539 86.0549 50.5619 86.1029C50.4698 86.1508 50.3683 86.1776 50.2646 86.1813H50.2496ZM49.6503 84.2412C49.5309 84.2469 49.416 84.2887 49.3207 84.361C49.2431 84.3982 49.1806 84.4609 49.1438 84.5386C49.107 84.6164 49.098 84.7044 49.1185 84.788C49.1709 84.9655 49.2669 85.127 49.3978 85.2578C49.5286 85.3887 49.6901 85.4847 49.8676 85.5371C50.0247 85.5462 50.1823 85.5462 50.3395 85.5371L49.9799 84.4135C49.9214 84.3292 49.8331 84.2703 49.7327 84.2487L49.6503 84.2412Z" fill="#DEC8BD"/>
<path d="M53.061 92.3689C53.061 92.3689 52.5217 91.0954 51.7501 90.7583C50.9786 90.4213 48.9261 91.2527 47.4729 90.6235C46.3793 90.1441 46.3118 89.5373 46.3493 89.2602C46.3602 89.1606 46.3428 89.06 46.2991 88.9699C46.2554 88.8798 46.1871 88.8038 46.1021 88.7508C45.9207 88.6542 45.7101 88.6275 45.5103 88.6759C45.3222 88.7222 45.1472 88.8111 44.9988 88.9357C44.8504 89.0603 44.7326 89.2172 44.6544 89.3945C44.5763 89.5718 44.5399 89.7647 44.548 89.9583C44.5561 90.1519 44.6086 90.341 44.7013 90.5111C45.0415 91.0303 45.4816 91.4765 45.996 91.8238C46.5105 92.171 47.0889 92.4123 47.6976 92.5337C49.4841 92.7358 51.2904 92.6803 53.061 92.3689Z" fill="#3E5685"/>
<path d="M49.5088 93.0056C48.8884 93.0125 48.2688 92.9599 47.6586 92.8482C46.9962 92.7168 46.367 92.4534 45.8085 92.0738C45.2499 91.6942 44.7735 91.206 44.4076 90.6385C44.2886 90.4067 44.2266 90.1499 44.2266 89.8894C44.2266 89.6289 44.2886 89.3721 44.4076 89.1403C44.5078 88.9327 44.6545 88.751 44.8364 88.6094C45.0183 88.4678 45.2304 88.3701 45.4563 88.3238C45.7305 88.2577 46.0195 88.2979 46.2653 88.4362C46.4061 88.5187 46.5196 88.6408 46.5915 88.7873C46.6635 88.9338 46.6907 89.0983 46.6698 89.2602C46.6248 89.6347 46.9619 90.0092 47.6061 90.2864C48.4486 90.5459 49.3437 90.5846 50.2054 90.3988C50.757 90.2676 51.3318 90.2676 51.8834 90.3988C52.5595 90.8187 53.0843 91.4432 53.3815 92.1816L53.5388 92.5561L53.1343 92.6235C51.938 92.8477 50.7256 92.9755 49.5088 93.0056ZM45.7185 88.9755H45.5612C45.4347 89.0055 45.3165 89.0634 45.2154 89.1451C45.1143 89.2268 45.0328 89.3301 44.9769 89.4474C44.9064 89.5868 44.8697 89.7407 44.8697 89.8969C44.8697 90.053 44.9064 90.207 44.9769 90.3463C45.2989 90.8249 45.7121 91.2352 46.1928 91.554C46.6735 91.8727 47.2123 92.0936 47.7784 92.204C49.3716 92.4078 50.9857 92.3851 52.5725 92.1366C52.3615 91.6998 52.0318 91.3312 51.6212 91.0729C51.1758 90.9877 50.7183 90.9877 50.2728 91.0729C49.2962 91.272 48.2847 91.2152 47.3365 90.9081C46.0331 90.3388 45.9806 89.5298 46.0256 89.2077C46.0289 89.1713 46.0223 89.1346 46.0065 89.1017C45.9907 89.0687 45.9662 89.0406 45.9357 89.0205C45.868 88.9881 45.7934 88.9727 45.7185 88.9755Z" fill="#3E5685"/>
<path d="M55.7843 123.695C55.9701 124.433 55.9701 125.205 55.7843 125.942C55.4697 126.999 56.2487 127.987 56.5858 128.414C56.9081 128.679 57.2806 128.876 57.6809 128.993C58.0813 129.11 58.5012 129.145 58.9154 129.096C59.4772 128.969 59.6645 128.504 59.7619 127.845C59.9041 127.073 59.8289 126.277 59.5446 125.545L58.7206 123.44L55.7843 123.695Z" fill="#DEC8BD"/>
<path d="M58.639 129.433C57.8131 129.442 57.013 129.146 56.3918 128.602C56.0547 128.175 55.1708 127.059 55.5303 125.838C55.6948 125.163 55.6948 124.459 55.5303 123.785L55.418 123.411L59.0135 123.081L59.9274 125.418C60.2354 126.204 60.3159 127.061 60.1596 127.89C60.0398 128.527 59.8525 129.223 59.066 129.388C58.9261 129.421 58.7827 129.436 58.639 129.433ZM56.2045 123.98C56.3433 124.654 56.3253 125.351 56.1521 126.017C55.8899 126.924 56.6015 127.815 56.9011 128.197C57.4694 128.638 58.186 128.842 58.9012 128.767C59.2383 128.692 59.3806 128.459 59.5079 127.77C59.6395 127.059 59.5695 126.324 59.3057 125.65L58.5566 123.763L56.2045 123.98Z" fill="#DEC8BD"/>
<path d="M58.5583 121.141C58.5583 121.141 59.1351 123.028 58.858 123.388C58.5808 123.747 56.8579 124.085 56.1838 124.01C55.5096 123.935 55.5845 121.725 55.5845 121.725L58.5583 121.141Z" fill="white"/>
<path d="M56.3929 124.347H56.1532C55.2843 124.249 55.2393 122.482 55.2618 121.725V121.47L58.7675 120.721L58.8574 121.006C59.0896 121.755 59.4267 123.111 59.112 123.56C58.7974 124.01 57.1794 124.347 56.3929 124.347ZM55.906 121.987C55.8423 122.576 55.9543 123.17 56.2281 123.695C57.0463 123.734 57.8609 123.564 58.5952 123.201C58.6084 122.618 58.5196 122.037 58.333 121.485L55.906 121.987Z" fill="white"/>
<path d="M54.2736 94.1816C52.723 94.3838 51.3672 96.4887 52.2137 103.755C53.0601 111.021 53.3972 111.545 53.3972 113.905C53.3972 115.762 54.8205 119.763 55.1426 121.658C55.1568 121.895 55.2576 122.12 55.426 122.288C55.5944 122.457 55.8187 122.557 56.0564 122.572C56.4675 122.611 56.8814 122.611 57.2924 122.572C58.1838 122.497 58.5733 122.145 58.7082 121.823C58.7521 121.729 58.7703 121.626 58.7606 121.523C58.6632 120.264 57.3448 111.785 57.4347 109.785C57.5246 107.642 57.6595 98.7734 57.0078 96.6161C56.3561 94.4587 55.2324 94.0617 54.2736 94.1816Z" fill="#3E5685"/>
<path d="M56.3933 122.916C56.2738 122.929 56.1533 122.929 56.0338 122.916C55.7323 122.888 55.4503 122.754 55.2368 122.539C55.0234 122.325 54.8919 122.042 54.8652 121.74C54.7379 121.028 54.4532 119.987 54.1161 118.886C53.5982 117.276 53.2493 115.617 53.0749 113.935C53.0499 112.724 52.9322 111.517 52.7229 110.324C52.5356 109.043 52.2509 107.096 51.8689 103.822C51.1198 97.5299 51.9288 94.189 54.2135 93.8969C55.2248 93.7621 56.5806 94.1141 57.3147 96.5187C57.9814 98.7284 57.854 107.613 57.7567 109.8C57.6967 111.141 58.3035 115.62 58.708 118.579C58.8953 119.987 59.0526 121.096 59.0825 121.5C59.0929 121.657 59.0646 121.814 59.0001 121.957C58.8653 122.264 58.4608 122.789 57.3147 122.879L57.1424 122.849C56.8802 122.894 56.6106 122.916 56.3933 122.916ZM54.5956 94.4887C54.5033 94.4814 54.4106 94.4814 54.3184 94.4887C53.2697 94.6235 51.6367 95.9868 52.5356 103.702C52.9101 106.968 53.1948 108.908 53.3821 110.189C53.5983 111.409 53.7185 112.644 53.7416 113.882C53.9196 115.508 54.2609 117.112 54.7604 118.669C55.0675 119.785 55.3521 120.841 55.5094 121.59C55.5768 122.017 55.7267 122.16 56.1536 122.242C56.4649 122.274 56.7787 122.274 57.09 122.242H57.3147C58.1237 122.175 58.3784 121.867 58.4608 121.695C58.4686 121.646 58.4686 121.595 58.4608 121.545C58.4608 121.163 58.281 120.047 58.0937 118.669C57.6221 115.711 57.3045 112.731 57.1424 109.74C57.2323 107.657 57.3671 98.7734 56.7304 96.676C56.2735 95.2078 55.5768 94.4887 54.5956 94.4887Z" fill="#3E5685"/>
<path d="M44.1981 149.651C43.8371 149.662 43.4806 149.568 43.1719 149.381L43.449 148.984L43.3142 149.186L43.449 148.984C43.707 149.122 43.9952 149.195 44.288 149.195C44.5808 149.195 44.869 149.122 45.127 148.984L45.3142 149.426C44.9617 149.577 44.5817 149.653 44.1981 149.651Z" fill="#81829F"/>
</svg>
