<svg width="44" height="46" viewBox="0 0 44 46" fill="none" xmlns="http://www.w3.org/2000/svg">
<path d="M9.57442 13.8521V25.0555H0.773438V16.9915C0.773438 15.258 2.17931 13.8521 3.91293 13.8521H5.51781H9.57442Z" fill="#BED8FB"/>
<path d="M43.221 17.6568V42.3089C43.221 44.3479 41.5689 46 39.5309 46H9.20977C7.46788 46 6.00828 44.793 5.62043 43.1697L5.6056 41.0594L5.51953 28.4923V3.69113C5.51962 1.65213 7.17175 0 9.20977 0H25.5643C27.034 0 31.7941 4.0585 36.0017 8.33272C39.841 12.2339 43.221 16.3147 43.221 17.6568Z" fill="#DDEAFB"/>
<path d="M43.2209 17.657V26.6876C43.2209 26.6775 43.22 26.6672 43.22 26.6562C42.9423 15.5755 33.9164 15.0627 30.9648 12.1111L36.0017 8.33301C39.8409 12.2341 43.2209 16.3149 43.2209 17.657Z" fill="#CBE2FF"/>
<path d="M25.5619 0H16.5312C16.5414 0 16.5516 0.000898436 16.5627 0.000898436C27.6434 0.278605 28.1561 9.30456 31.1077 12.2561L34.8858 7.21929C30.9847 3.3801 26.9039 0 25.5619 0Z" fill="#CBE2FF"/>
<path d="M43.2185 17.6572V19.2184C43.2185 15.9314 40.5531 13.266 37.2661 13.266H33.6433C31.6053 13.266 29.9524 11.6132 29.9524 9.57517V5.95241C29.9524 2.66539 27.287 0 24 0H25.5612C28.3724 0 31.0693 1.11703 33.0571 3.10472L40.1137 10.1613C42.1015 12.1491 43.2185 14.846 43.2185 17.6572Z" fill="#BED8FB"/>
<path d="M30.5066 27.933V36.2111C30.5066 38.8887 28.3362 41.0592 25.6586 41.0592H5.6056L5.51953 28.492V23.085H25.6586C28.3362 23.085 30.5066 25.2553 30.5066 27.933Z" fill="#CBE2FF"/>
<path d="M33.6443 24.9787V33.2568C33.6443 35.9344 31.4739 38.1048 28.7963 38.1048H3.91284C3.8194 38.1048 3.72776 38.1011 3.63612 38.0919C2.03215 37.9531 0.773438 36.6064 0.773438 34.9653V16.9912C0.773438 17.8576 1.12518 18.6424 1.69344 19.2107C2.1997 19.7179 2.8791 20.053 3.63612 20.1178C3.72776 20.127 3.8194 20.1307 3.91284 20.1307H28.7963C31.474 20.1306 33.6443 22.3011 33.6443 24.9787Z" fill="#DD636E"/>
<path d="M3.63612 20.1177V38.0919C2.03215 37.9531 0.773438 36.6064 0.773438 34.9653V16.9912C0.773438 17.8576 1.12518 18.6424 1.69344 19.2107C2.1997 19.7179 2.87901 20.0529 3.63612 20.1177Z" fill="#DA4A54"/>
<path d="M28.0347 25.3858C28.4181 25.3858 28.7288 25.0751 28.7288 24.6917C28.7288 24.3083 28.418 23.9976 28.0347 23.9976H24.4559C24.0724 23.9976 23.7617 24.3083 23.7617 24.6917V33.5219C23.7617 33.9052 24.0725 34.216 24.4559 34.216C24.8392 34.216 25.15 33.9052 25.15 33.5219V29.7174H27.7504C28.1339 29.7174 28.4445 29.4066 28.4445 29.0232C28.4445 28.6399 28.1338 28.3291 27.7504 28.3291H25.15V25.3859H28.0347V25.3858Z" fill="white"/>
<path d="M17.8554 23.9976H15.3544C15.1701 23.9976 14.9933 24.0709 14.863 24.2013C14.7328 24.3318 14.6598 24.5087 14.6602 24.693V24.7007V24.7009V33.3786C14.6602 33.4327 14.667 33.485 14.6787 33.5355C14.6822 33.7157 14.7552 33.8876 14.8832 34.0147C15.0132 34.1438 15.189 34.2162 15.3723 34.2162H15.3749C15.4503 34.2159 17.2309 34.2091 17.9405 34.1966C19.1724 34.1751 20.2693 33.617 21.0292 32.6252C21.7295 31.7112 22.1153 30.4616 22.1153 29.1069C22.1154 26.0508 20.4034 23.9976 17.8554 23.9976ZM17.9165 32.8084C17.4944 32.8158 16.6624 32.8213 16.0641 32.8245C16.0607 31.8117 16.055 29.9577 16.055 29.0972C16.055 28.3771 16.0517 26.4353 16.0499 25.3859H17.8554C19.2437 25.3859 20.7271 26.3634 20.7271 29.1069C20.727 31.2573 19.5713 32.7795 17.9165 32.8084Z" fill="white"/>
<path d="M10.2726 23.9321H7.79578C7.61134 23.9321 7.43443 24.0055 7.30416 24.1363C7.17479 24.266 7.10228 24.4416 7.10174 24.6248C7.10174 24.6254 7.10156 24.6258 7.10156 24.6264V33.5217C7.10156 33.905 7.41233 34.2158 7.79569 34.2158C8.17915 34.2158 8.48983 33.905 8.48983 33.5217V30.3482C9.0659 30.3451 9.86488 30.341 10.2725 30.341C12.0665 30.341 13.526 28.9035 13.526 27.1366C13.526 25.3696 12.0666 23.9321 10.2726 23.9321ZM10.2726 28.9527C9.86722 28.9527 9.07929 28.9565 8.50321 28.9597C8.50007 28.3682 8.49612 27.5501 8.49612 27.1365C8.49612 26.7875 8.49387 25.9356 8.49207 25.3204H10.2727C11.2838 25.3204 12.1379 26.1521 12.1379 27.1365C12.1379 28.1209 11.2837 28.9527 10.2726 28.9527Z" fill="white"/>
</svg>
