<svg xmlns="http://www.w3.org/2000/svg" width="1919" height="428" fill="none"><mask id="A" mask-type="alpha" maskUnits="userSpaceOnUse" x="0" y="0" width="1920" height="428"><path fill="#000" d="M0 0h1920v428H0z"/></mask><g mask="url(#A)" fill-rule="evenodd" fill="#171718"><path d="M283.968 184.328c1.344-.774 1.253-1.503.5-1.845s-1.935-.5-2.527-.9c-1.503-1.048 1.298-3.666-1.23-4.235-1.935-.433-6.625.478-6.67-.706 0-.182.137-.456 0-.592-.57-.4-2.983.4-4.78.9-3.234.9-6.216.842-6.5-.16 0-.273 0-.615-.296-.797-.865-.546-4.553.32-4.872-.4-.137-.318.455-.865 0-1.115-.73-.524-4.167.82-6.353 1.138a10.96 10.96 0 0 1-3.164 0c-4.327-.296-13.138 2.14-14.982.66-.456-.342-.456-.9-1.617-.888a14.79 14.79 0 0 0-3.393.705 15.94 15.94 0 0 0-5.555 2.414c1.047 0 2.277 0 1.753.706a10.28 10.28 0 0 1-4.736 1.798 34.68 34.68 0 0 0-5.123.957 31.71 31.71 0 0 0-5.146 2.618c-1.753.9-4.85 1.844-5.2 1.275s.82-1.024 1.753-1.616l5.715-3.484a6.83 6.83 0 0 1 1.23-.638c1.115-.432 2.276-.432 3.324-.774s2.527-1.366 2.004-1.685c-1.202-.22-2.442-.093-3.575.365-1.493.455-2.954 1-4.372 1.662l-14.618 6.83c-.888.432-1.912 1.047-1.616 1.275s.728 0 1.047 0 .137.432-.455.592c-4.554 2.914-12.842 5.032-18.352 7.9-1.093.57-2.095 1.162-3.256 1.73-1.503.706-3.165 1.343-4.827 1.958l-16.234 6.125a20.44 20.44 0 0 1-2.846.91c-.615.136-1.162.182-1.8.34-2.027.5-4.235 1.936-6.148 2.277a11.13 11.13 0 0 1 4.554-2.413c1.9-.615 3.757-1.048 5.647-1.73s3.392-1.434 5.077-2.277c4.304-1.9 9.245-3.46 12.842-5.5 2.596-1.48 4.167-3.05 7.104-4.417 1.935-.934 4.918-2.277 4.372-2.664-6.353 1.48-12.523 2.7-18.375 3.643-.75.175-1.528.175-2.277 0-.75-.4 1.753-1.844 1.594-2.482s-1.32-.364-2.14-.478-1.14-.615.113-1.252c-2.504.956-5.942 2.072-6.534 1.457s2.277-2.277.75-2.436c-.88.068-1.754.2-2.618.364-1.23 0-1.64-.32-.934-.956 1.142-.844 2.456-1.427 3.848-1.708a12.47 12.47 0 0 0 1.913-.387c1.958-.638 1.662-1.503 2.413-2.277 1.575-1.073 3.424-1.673 5.328-1.73a17.08 17.08 0 0 0 1.55.273c2.595 0 7.33-2.937 10.633-3.46a10.86 10.86 0 0 0 1.958-.364c.6-.214 1.128-.556 1.57-1.002 1.024-1.002 1.685-2.277-.296-1.98-1.55.32-3.073.76-4.554 1.32-1.68.6-3.46.83-5.237.705-.54-.158-1.103-.212-1.662-.16a27.53 27.53 0 0 0-3.734 1.093c-2.8.888-5.214.797-4.987-.137 0-.273.342-.637 0-.797-.66-.5-4.78.774-4.804 0s1.64-1.252 3.03-1.662 2.64-.546 3.96-.82a34.64 34.64 0 0 0 7.8-2.642c2.05-.455.478 1.14 1.73 1.275a8.46 8.46 0 0 0 1.821-.205l10.155-1.9c.546-.683-.706-.888-2.414-.4a5 5 0 0 1 2.277-.956c.884-.143 1.752-.364 2.596-.66 1.16-.478 1.503-1.07.956-1.252a7.69 7.69 0 0 0-2.595 0 56.61 56.61 0 0 1-13.343 0l2.755-3.415c2.15-.456 4.338-.692 6.535-.706a33.76 33.76 0 0 0 10.61-4.326 39.32 39.32 0 0 1 10.223-4.554c1.458-.342 2.755-.478 4.213-.797a58.12 58.12 0 0 0 7.013-2.277 43.46 43.46 0 0 1 6.967-2.05c2.277-.387 3.848 0 2.9.865l5.92-1.366c.505-.146 1.024-.237 1.55-.273.523 0 .637.205 1.002.318 1.388.387 5.6-1.092 7.764-1.07.82 0 1.275.205 2.277.16 1.912-.114 4.804-1.344 6.83-1.594s2.755.478 4.987 0c1.57-.296 3.46-1.116 4.827-1.23a5.65 5.65 0 0 1 1.73.296c2.118.365 7.013-1.275 9.86-1.343.592.034 1.185.034 1.776 0 1.207-.137 2.687-.66 4.008-.934a17.4 17.4 0 0 1 2.686-.25l13.775-.364c1.704-.583 3.54-.654 5.283-.205a8.06 8.06 0 0 1 2.436 1.48c.382.175.798.266 1.218.266a2.91 2.91 0 0 0 1.218-.266c1.23-.342 1.845-.98 1.913-1.4s-.16-.774.478-1.275a11.93 11.93 0 0 1 3.939-1.48c1.48-.342 2.937-.57 4.417-1.025 1.14-.34 2.277-.82 3.37-1.093s2.277-.227 1.9.228l8.402-2.937a5.23 5.23 0 0 1 1.89-.41c.546 0-.25.615-1.048.956a81.04 81.04 0 0 1-9.107 2.755c-3.074.865-6.58 2.277-7.47 3.393 0 0-.136.205 0 .296s1.116 0 1.9-.182a63.05 63.05 0 0 0 6.558-2.778c1.206-.478 2.527-.888 3.848-1.275l8.47-2.482c.785-.215 1.547-.504 2.277-.865 1.57-.888.296-1.594 2.072-2.46a4.97 4.97 0 0 1 4.03-.251c.455.478 0 1.184.637 1.617 1.184.865 6.057.205 6.42 1.32 0 .228 0 .524.16.706a2.07 2.07 0 0 0 .854.184 2.06 2.06 0 0 0 .854-.184c.34-.127.656-.3.934-.546l3.256-2.664 1.844.865a8.83 8.83 0 0 1 4.007-1.571 15.07 15.07 0 0 1 3.962-.159c4.372.364 7.537 1.525 13.16 1.024 1.4-.136 2.937-.364 4.235-.387a7.12 7.12 0 0 1 5.01 1.48l1.685-.933 2.9-.137a22.95 22.95 0 0 1-3.757 1.981c5.1-.797 10.292-1.73 15.483-2.664l9.768-1.753a24.41 24.41 0 0 0 6.831-1.867c1.434-.797 2.05-1.8 4.03-2.277a3.89 3.89 0 0 1 1.92-.176 3.9 3.9 0 0 1 1.769.768 5.23 5.23 0 0 0 2.185.478c.755 0 1.5-.163 2.186-.478.365.34 0 .865-.75 1.4l1.708-.137c3.847-.467 7.653-1.228 11.384-2.277a7.28 7.28 0 0 1 2.049-.273c.14.008.278.055.394.135s.2.2.267.32a6.82 6.82 0 0 0 5.077.25 9.54 9.54 0 0 0 5.123-2.414c2.983-.774 4.394.296 4.394 1.32s.524 2.277 3.53 1.8c2.277-.365 4.2-1.594 4.144-2.277 0-.296-.25-.547 0-.888 1.622-.987 3.426-1.637 5.305-1.913 2.05-.5 4.554-1.594 3.506-2.004-.66-.25-2.55 0-2.277-.5a1.65 1.65 0 0 1 .73-.5c4.136-1.556 8.538-2.284 12.955-2.14h3.052c.46-.06.928-.06 1.388 0 1.73.478-2.823 2.7-.546 2.915a6.83 6.83 0 0 0 4.372-1.64 6.31 6.31 0 0 1 3.324-2.14c1.844-.478 3.506 0 3.392.547s-1.4 1.434-2.846 2.14c-1.024.478-2.277 1.024-2.277 1.503s.183.4.4.592a7.64 7.64 0 0 0 3.183 1.12 7.49 7.49 0 0 0 3.352-.391c3.12-.9 3.233-2.55 5.988-3.666a22.02 22.02 0 0 0 3.643-1.434c.888-.66-.182-1.093 0-1.708.137-1.002 4.395-2.277 6.376-1.98a7.78 7.78 0 0 0 1.958.319 20.4 20.4 0 0 0 2.891-.524c2.277-.387 3.985.228 3.03 1.116a14.15 14.15 0 0 1-2.004 1.207c-2.277 1.343-2.277 2.823-.137 3.392.48.114 1.093.228 1.116.48s-1.525.98-2.778 1.343l-11.953 3.347c-3.613-.104-7.204.588-10.52 2.026 1.275 0-.16 1.07-1.662 1.32a14.08 14.08 0 0 1-3.825 0c-4.003-.12-7.986.617-11.68 2.163a22.24 22.24 0 0 1 7.218 0c1.55.524.365 2.277-2.482 2.755-1.958.387-3.597 0-5.532.524-3.052.683-3.666 2.277-5.488 3.483-1.554.93-3.203 1.694-4.918 2.277-7.377 2.778-15.05 5.852-19.285 9.245-1.253 1-1.845 2.277.364 2.277.865 0 1.935-.32 2.892-.388 2.436-.227 2.87.843 2.413 1.845s-1.275 2.277 0 2.7a25.06 25.06 0 0 0 8.015-.364c5.897-.615 10.542.387 11.384 2.436a6.17 6.17 0 0 1 4.554-.341 5.19 5.19 0 0 0 2.983 1.115 59.93 59.93 0 0 0 7.605-1.593c2.8-.4 4.713.227 5.054 1.183s-.5 2.14-1.16 3.28c-1.047 1.822-1.57 3.7.615 4.713a16.71 16.71 0 0 0 11.385-1.161c5-2.664-.388-5.1 3.94-7.8 2.413-1.525 6.83-2.413 9.88-3.802 3.87-1.73 4.805-3.87 3.803-5.373a19.33 19.33 0 0 0-5.465-3.917c-.387-.25-.774-.546-.592-.9.433-1.002 3.894-1.868 5.738-2.87 3.575-1.96.228-4.053 4.554-5.784s9.426-.478 14.23-1.776c1.14-.318 2.14-.728 3.234-1.07 2.352-.772 4.87-.9 7.286-.34 1.252.5 1.297 1.457 2.937 1.82a31.93 31.93 0 0 0 4.986.114c1.708 0 3.302.433 2.64 1.184s-3.096 1.32-4.326 2.072c-1.707 1.047-.4 2.004 1.57 2.277 2.068.16 4.122.464 6.148.9a4.93 4.93 0 0 0 1.685.57c1.845-.114 3.62-.745 5.123-1.822l8.538-5.737 9.6 10.246a3.93 3.93 0 0 0-2.778.683c-.433.455 0 .842.364 1.184a13.66 13.66 0 0 0 6.467 2.641 33.88 33.88 0 0 0 3.46.16c1.707 0 5.236-.592 6.443-.4a.98.98 0 0 1 .729.433c.273.364.432.82-.25 1.275s-2.504.706-2.732.342c-.57.432 0 .797.98.888s2.004 0 2.983 0c2.64 0 4.2 1.184 2.277 2.276-2.347.984-4.8 1.658-7.332 2.004-5.032 1.207-8.56 3.507-13.388 4.964-8.63 2.64-17.92 1.8-27.14 3.438a61.68 61.68 0 0 0-19.58 7.24c.342.843 3.598.365 5.943-.204l7.422-1.754c2.204-.576 4.45-.972 6.717-1.184 2.277-.136 4.167.228 4.12 1.093 0 1.435-4.963 2.915-6.42 4.554-.274.273-.4.57-.16.774a3.37 3.37 0 0 0 1.48.296l8.744.638a16.17 16.17 0 0 0 5.464-.319c1.07-.296 1.913-.75 2.915-1.093a4.87 4.87 0 0 1 2.959-.296c.046.018.087.044.122.078a.37.37 0 0 1 .081.118.38.38 0 0 1 .03.141c0 .048-.01.096-.028.14-.432 1.662-5.2 3.324-9.335 4.144-4.178.6-8.315 1.442-12.386 2.55-2.277.752-4.144 1.73-6.262 2.596s-4.963 1.48-5.806.842 1.207-1.616 2.824-2.277 3.233-1.912 1.935-2.276a8.31 8.31 0 0 0-3.87.57c-4.554 1.548-8.083 3.87-12.933 5.282a34.18 34.18 0 0 0-7.969 2.55c-.586.456-1.127.967-1.616 1.526-2.324 1.607-5.02 2.595-7.833 2.87a17.36 17.36 0 0 0-3.939.66 6.83 6.83 0 0 0-1.958 1.161c-3.7 3.006-7.3 6-10.815 9.108a4.43 4.43 0 0 1-2.414 1.116 1.76 1.76 0 0 1-1.138-.25c-.888-.455-1.776-.956-1.48-1.73.336-.526.717-1.02 1.138-1.48.32-.5.205-1.025-.774-1.048a5.68 5.68 0 0 0-2.352.606 5.67 5.67 0 0 0-1.883 1.535c-.865 1.16-2.14 2.595-.98 3.278.82.478 2.163.888 1.548 1.685a7.42 7.42 0 0 1-1.844 1.298c-2.596 1.617-3.37 3.484-1.867 4.554-12.068 3.597-23.065 9.107-29.6 14.822-.683.57-1.32 1.184-1.298 1.685s.615.774 1.048 1.14c1.776 1.434.706 3.78-.387 5.988l-2.437 5a4.55 4.55 0 0 1-2.413 2.277 7.79 7.79 0 0 1-5.487.433c-1.048-.524-1.002-1.48-.797-2.414.546-2.277 2.026-4.963 1.343-7.035s-4.258-3.507-9.7-2.505c-1.685.32-3.416.82-5.1 1.138s-3.483.365-3.916-.182 0-.933-.364-1.275a6.84 6.84 0 0 0-3.575 0 24.87 24.87 0 0 0-6.24 1.344c-1.98.774-3.256 2.276-1.8 2.48.752.137 2.14 0 2.05.456s-1.07.774-1.913 1.002a30.42 30.42 0 0 1-10.679.546 70.21 70.21 0 0 0-26.594 5.078c-4.554 1.798-9.107 4.553-8.72 6.284.182.728 1.207 1.16 1.457 1.867.683 2.026-4.804 5.077-8.15 7.787-6.65 5.328-5.26 10.1-1.048 13.16 2.846 2.072 8.334 3.598 15.734 1.412a40.99 40.99 0 0 0 11.612-5.92 49.66 49.66 0 0 1 10.861-6.148c4.37-1.616 10.1-2.094 10.564-.34a2.41 2.41 0 0 1-.208 1.068c-.15.335-.375.632-.657.867-2.55 2.846-8.72 5.715-10.542 8.54-.66 1.024-.706 2.003-1.867 3.05s-2.4 1.616-3.506 2.436-1.8 1.844-.797 2.277a6.85 6.85 0 0 0 1.981 0c5.635-.532 11.194-1.685 16.576-3.438a30.17 30.17 0 0 1 3.574-1.025c2.277-.4 3.985 0 4.554.9s0 1.98-.706 3.12a36.62 36.62 0 0 1-5.92 5.76 7.04 7.04 0 0 0-1.991 2.78 7.03 7.03 0 0 0-.445 3.39 9.8 9.8 0 0 0 2.596 4.804 3.71 3.71 0 0 0 1.548 1.207 13.8 13.8 0 0 0 9.586-2.003c.466-.353.96-.665 1.48-.934a8.59 8.59 0 0 1 1.844-.546 8.18 8.18 0 0 1 6.603 1.297 8.13 8.13 0 0 0 5.465 2.277 3.96 3.96 0 0 0 2.527-.774l8.128-5.533a33.37 33.37 0 0 1 10.52-5.692c1.548-.455 3.142-.73 4.7-1.184a29.35 29.35 0 0 0 7.992-4.167c1.958 0 1.708 1.412.4 2.505s-3.324 2.117-4.554 3.256c-.547.497-.924 1.154-1.075 1.878s-.07 1.477.233 2.152a.91.91 0 0 0 .141.379.9.9 0 0 0 .291.281 6.49 6.49 0 0 0 2.707-.138c.883-.235 1.706-.654 2.416-1.228a3.9 3.9 0 0 0 .974-1.315c.227-.503.346-1.048.347-1.6a3.94 3.94 0 0 1 .775-1.741 3.95 3.95 0 0 1 1.502-1.174 5.09 5.09 0 0 0 4.872-1.411c1.64-.342 3.165-.16 3.598.432s.136.865.387 1.23c.728.98 3.87.728 6.535.182 2.527-.707 5.14-1.06 7.764-1.047.774 0 1.4.296 2.277.364a26.73 26.73 0 0 0 6.83-1.207 23.87 23.87 0 0 1 12.432 0c.478.205.934.4 1.002.75.25.934-2.117 2.095-4.2 2.8-1.96.477-3.8 1.37-5.374 2.618 3.575.388 8.8-1.867 12.842-1.958 3.438 0 5.032 1.435 5.42 3.03a1.84 1.84 0 0 0 .214.763 1.85 1.85 0 0 0 .514.603c.95.372 1.964.55 2.983.523l7.992.48c1.06.102 2.128.102 3.188 0 1.252-.16 2.55-.524 3.825-.752a17.96 17.96 0 0 1 11.976 1.98c3.46 1.685 7.013 3.507 7.514 6.284s-2.095 6-4.554 9.108c-3.073.433-5.828 2.277-5.965 3.848s1.844 2.504 4.44 2.8c2.933.23 5.882.116 8.8-.34 2.618-.32 3.825-2.004 5.874-3.2 2.184-1.337 4.662-2.12 7.218-2.277 4.007 0 3.825 2.846 6.83 3.802a18.91 18.91 0 0 1 2.55.751c1.662.866.57 2.983 3.005 3.393s5.83-1.57 8.926-2.436a17.39 17.39 0 0 1 8.379 0 65.25 65.25 0 0 0 6.83 1.753c4.554.615 11.112 0 12.57 2.277.387.637.296 1.434 1.184 1.9a20.99 20.99 0 0 0 5.054.478c3.575.455 3.507 2.983 3.006 5.1a12.16 12.16 0 0 1-3.393 6.694c-3.848 3.7-11.862 6.5-14.936 10.337-.956 1.207-1.503 2.573-3.46 3.484-1.484.555-3.006 1.004-4.554 1.343a13.05 13.05 0 0 0-7.65 5.806c-2.892 4.873-3.324 9.723-6.102 14.732a52.52 52.52 0 0 1-6.216 8.402c-3.12 3.643-6.5 7.308-9.927 10.974-3.085 3.678-7.104 6.455-11.635 8.038-4.76 1.48-9.677 1.138-14.48 2.573a101.77 101.77 0 0 0-26.549 13.479c-.514.303-.97.696-1.343 1.16-.32.524 0 .956 0 1.412.98 2.778-2.46 6.398-5.738 9.654L524.2 431.414a3.33 3.33 0 0 1-1.366.933c-.355.113-.722.182-1.093.205-2.527.413-4.9 1.516-6.83 3.188-1.503 1.388-2.875 2.913-4.098 4.553a39.2 39.2 0 0 1-15.802 11.385c-6.83 2.732-15.164 3.233-18.056.32-.66-.66-1.047-1.457-1.958-1.98a4.87 4.87 0 0 0-2.06-.457c-.712 0-1.416.156-2.06.457-1.8.797-2.46 2.277-1.98 3.2s1.73 1.435 2.618 2.14c.78.626 1.332 1.492 1.57 2.463s.15 1.994-.25 2.9c-.4 1.093-1.138 2.277-.57 3.097s2.004.9 2.7 1.57c1.184 1.07-.136 3.096-1.98 4.736-5.17 3.996-11.13 6.85-17.486 8.38-6.42 1.82-12.796 2.937-19.217 4.963a9.99 9.99 0 0 0-2.983 1.366c-2.482 1.9.228 3.46-.524 5.488a8.64 8.64 0 0 1-2.4 2.778 28.35 28.35 0 0 1-5.5 4.143 9.68 9.68 0 0 1-6.535 1.39c-1.275-.432-2.277-1.57-3.985-.842-.556.242-1.065.58-1.502 1.002-4.167 3.78-1.184 7.97 4.804 6.626-.638 2.436-5.237 4.553-8.72 6.67-4.006 2.2-7.438 5.33-10.018 9.107a23.57 23.57 0 0 1-7.127 6.672c-2.277 1.434-5.237 2.277-7.33 3.87s-2.87 4.304-.98 5.078c1.434.57 3.825.228 5.282.797s.797 2.983-1.434 3.484l.865 2.276c-4.898 4.736-10.506 8.677-16.622 11.68a16.32 16.32 0 0 0-3.324 1.708c-3.028 2.276-.774 4.7-2.64 7.286a22.42 22.42 0 0 1-6.831 4.713c-2.55 1.434-5.26 3.87-4.35 5.123s5.055.683 4.122 2.573c-.706 1.48-3.62 2.277-5.442 2.277-2.047-.188-4.095.353-5.784 1.525 1.025 4.554 5.192 7.833 11.385 8.835 3.165.5 7.332 1.275 5.6 4.235-1.503 2.572-6.056 4.075-9.426 4.553-3.446.566-6.937.818-10.428.752-1.936-.123-3.88-.077-5.807.136-1.844.274-3.802.9-5.67 1.275-6.67 1.253-11.066-1.343-12.318-5.168s0-8.607 1.366-13.252a33.59 33.59 0 0 1 6.011-13.092c2.277-2.892 5.624-5.897 6.24-8.56s-1.23-3.848-1.457-5.943c-.433-3.7 3.893-8.606 7.855-13 11.088-12.272 21.426-24.727 24.773-35.884-2.437 1.48-5.328.866-5.26-.728s2.026-3.484 4.03-5.192a24.35 24.35 0 0 0 5.237-5.123 4.91 4.91 0 0 0 .619-2.658 4.92 4.92 0 0 0-.892-2.579c4.553-7.627 16.234-15.938 20.036-23.338 3.097-5.92.4-10.77 4.1-16.62 3.12-4.964 10.223-9.7 14.822-14.55 7.104-7.47 7.787-14.618 12.614-21.86a58.39 58.39 0 0 0 5.169-7.809 64.34 64.34 0 0 0 1.662-6.376c1.503-4.554 6.148-9.973 3.393-13.092-3.233-3.666-15.574-2.46-16.326-7.013-1.912-11.384-1.502-23.452-13.957-29.6-1.48-.595-2.886-1.36-4.2-2.277-.296-.2-.537-.5-.704-.812s-.253-.68-.253-1.044.087-.72.253-1.044.408-.6.704-.812a31.58 31.58 0 0 1 5.92-4.098c5.237-3.302 3.097-4.964 4.2-7.8s8.38-6.42 11.544-9.722c1.024-1.048 1.616-2.118 2.7-3.165a47.61 47.61 0 0 1 8.425-5.282c2.96-1.708 5.806-3.803 5.624-5.397 0-.523-.478-.98-.296-1.548s1.32-1.548 2.277-2.277c2.277-1.662 4.37-3.552 4.053-4.964-.4-1.82-4.714-2.05-5.67-3.665-.433-.706-.387-1.73-2.05-1.708a9.33 9.33 0 0 0-4.896 2.277 11.09 11.09 0 0 1-4.553 2.573 6.1 6.1 0 0 1-4.235-.797c-1.992-.578-4.096-.657-6.125-.228-4.076-.774-5.17-2.937-4.85-5.555 0-.524.228-1.07 0-1.48-.546-.752-2.482-.82-4.03-1.048-1.9-.097-3.674-.9-4.987-2.277-.796-1.138-.865-2.64-3.05-3.074s-6.625.615-9.7.615c-6.58 0-5.783-4.85-12.318-4.827-3.454.298-6.875.9-10.223 1.8-5.27 1.27-10.744 1.424-16.075.455-2.573-.637-4.326-1.753-6.83-2.277a92.25 92.25 0 0 0-10.27-.98c-3.438-.318-6.512-1.047-7.013-2.8s1.048-3.46 1.913-5.26 1.07-3.62-1.435-4.12c-1.672-.228-3.258-.88-4.608-1.9a9.93 9.93 0 0 1-3.11-3.892c-.25-.524-.32-1.253.933-1.936.592-.34 1.344-.592 1.913-.9 1.548-.866.797-1.617 0-2.027-5.715-2.914-9.108-6.83-10.246-11.384a15.55 15.55 0 0 1-6.626 0c-1.57.705-2.117 1.64-1.8 2.276s1.32.82 1.936 1.253c1.57 1.093.82 3.074 1.32 4.554s2.14 2.55 2.642 4.052c.888 2.664-1.913 6.603.888 8.54.66.478 1.64.842 1.525 1.57s-2.117 2.05-3.643 2.117c-.227.02-.456-.01-.672-.084a1.63 1.63 0 0 1-.58-.348l-4.554-3.734c-.364-.296-.75-.615-.75-1.07a5.43 5.43 0 0 1 .318-1.458c1.093-2.504-2.527-3.46-5.874-4.212-1.07-.25-1.753-1.093 0-1.776.455-.182.956-.25 1.412-.4 1.662-.546 2.276-1.548 2.276-2.277 0-3.46-6.5-4.553-5.6-8.288.274-1.047 1.162-2.276 1.07-3.187-.25-2.7-8.037-2.118-11.384-3.552-9.927-4.235-3.37-14.686 6.057-24.34a20.53 20.53 0 0 0 3.847-4.326c.638-1.412 0-2.55 1.253-4.053s2.846-2.55 2.914-3.552c1.708-.296 3.848-1.16 5.6-1.548.366-.06.725-.16 1.07-.296.188-.1.357-.23.5-.388.686-.507 1.222-1.192 1.55-1.98 0-.48-.205-.866-.615-1.184a12.78 12.78 0 0 0-7.49-1.435c-2.618 0-5.624.478-8.197.547h-.774c-.114 0 0-.342.32-.57.637-.57 1.343-1.138 2.117-1.73 3.097-2.277-.956-3.7-4.166-4.167-.706 0-1.48-.16-1.73-.455s.228-1.002.888-1.594c.652-.474 1.215-1.06 1.662-1.73.25-.66-.9-.9-2.186-.706zM504.6 104.18c-3.074 1.184-5.26 2.573-5.032 3.916s2.983 1.753 6.535 1.298c-1.64 1.502 1.98 2.05 5.2 2.277 6.125.296 14.026.34 20.492-2.05 1.267-.568 2.623-.915 4.007-1.024 1.07 0 1.093.546 1.8.774a15.19 15.19 0 0 0 4.713-.25c7.127-.9 13.23.136 14.117 2.436.32.82 0 1.8 1.503 2.277s3.37.432 4.03 1.024-1.525 2.277-3.87 3.165-5.123 2.277-5.237 3.2 1.913 1.297 3.757 1.593l-10.587 1.025c-3.084.2-6.136.744-9.108 1.594-2.87.933-4.76 2.64-2.778 3.142 2.687.66 7.97-1.343 12.136-1.867 7.628-.956 8.903 3.142 16.37 2.573 4.2-.32 8.72-2.05 12.865-2.277 1.82-.114 3.324 0 5.054 0a12.51 12.51 0 0 0 5.237-1.047c1.753-1.025-.228-1.868-2.687-1.913a67.16 67.16 0 0 1-7.4 0c-.614 0-1.16-.296-.98-.615s2.277-.933 3.78-1.07l9.313-.98c.523-1.73-1.8-3.074-5.738-3.347-1.457 0-3.37-.16-3.233-.797s3.984-1.434 6.124-1.434a31.91 31.91 0 0 1 4.554.478 34.52 34.52 0 0 0 5.374.865 14.45 14.45 0 0 0 6.626-1.275c.865-.547 1.047-1.14 2.14-1.64s3.757-.843 5.032-1.503c1.867-.957-.592-1.73-3.233-1.55-2.597.35-5.213.532-7.833.547-2.983-.273-3.097-1.9-6.102-2.14a45.92 45.92 0 0 0-5.943.318c-2.003.114-4.075-.16-3.62-.933s1.525-.98 2.277-1.457c2.277-1.275 1.844-2.642 0-3.37-2.457-.728-4.998-1.134-7.56-1.207-3.63-.392-7.3-.438-10.93-.137a8.75 8.75 0 0 1-2.664 0c-1.092-.318.615-1.275.592-1.9s-2.276-.774-4.257-.57-4.213.638-6.057.66c-3.142 0-5.555-1.07-8.8 0-.456 1.002-3.188 2.277-5.966 2.595s-5.146 0-5.2-.9.774-1.298.888-1.913-.9-1.116-2.687-.82c-.708.15-1.402.364-2.072.638a35.19 35.19 0 0 0-9.54 4.554 10.84 10.84 0 0 1-1.958 1.753c-2.62 1.617-5.465 1.138-5.192 0s3.962-2.482 6.194-3.53c6.375-3.03 1.958-2.96-4.554-1.913a52.44 52.44 0 0 0-9.882 2.7zm-28.915 2.096c-.25.524.66.774 1.093 1.138 1.093.934-.956 2.55-3.256 3.962a18.52 18.52 0 0 0-5.783 4.235c-.16.32-.205.638.227.82.934.387 3.552-.114 4.805.136.82.183.9.66 1.753.82a12.2 12.2 0 0 0 4.554-.615 44.81 44.81 0 0 1 4.804-1.206l2.9-.342c.98-.16 2.14-.592 2.277-.933s0-.228-.205-.32c-1.82-1.14-8.128-.456-9.267-1.8-.523-.615.274-1.526 1.344-2.277 1.367-1.124 2.983-1.905 4.713-2.277 1.025-.227 2.004-.296 3.028-.455a32.6 32.6 0 0 0 6.99-2.14c.888-.365 1.913-.866 1.48-1.093-.242-.08-.496-.12-.75-.114-2.482-.205-19.33-.25-20.697 2.46zm-38.437 12.75a13.55 13.55 0 0 1-3.347-2.823c-.173-.24-.422-.417-.706-.5a3.66 3.66 0 0 0-1.685 0c-.546 0-1.093.296-1.616.455-.5.17-1.007.248-1.526.228-.093-.026-.18-.072-.25-.137a1.78 1.78 0 0 0-.797-.19c-.277 0-.55.065-.797.2l-.524.228c-1.115.6-2.272 1.142-3.46 1.594-.592.227-3.096 1.07-2.64.5a8.88 8.88 0 0 1 2.027-1.663c.273-.182.592-.364.614-.523s0-.137 0-.205c-.5-.456-1.366-2.14-4.553-.82-1.55.638-2.505 1.753-4.076 1.822a5.71 5.71 0 0 0-3.302-1.184 4.52 4.52 0 0 0-1.548 0c-1.64.4-1.024 1.093-1.23 1.685s-4.03 2.026-5.92 1.912-1.958-1.116-.774-2.095 2.276-1.844.614-1.798c-.136 0-4.804 1.753-5.44 1.935l-6.08 1.867a3.83 3.83 0 0 1-1.161 0 8.3 8.3 0 0 0-2.277.296c-1.356.3-2.676.76-3.94 1.343a16.86 16.86 0 0 1-2.413 1.458 16.14 16.14 0 0 0-5.784 2.686 66.28 66.28 0 0 0 12.933-2.072c2.277-.592 5.874-1.184 5.42-.318l-12.363 3.096a7.04 7.04 0 0 0-1.526.478c-.615.32-.433.615.182.66a9.44 9.44 0 0 0 2.277-.25 32.62 32.62 0 0 1 4.782-.637h1.662c1.093-.137 2.277-.547 3.46-.752a28.28 28.28 0 0 0 5.031-.728 14.61 14.61 0 0 1 2.118-.752c.82-.136 1.252 0 2.072 0 1.252-.182 2.505-1.047 3.575-1.047s-.615 1.025-1.526 1.343a60.58 60.58 0 0 1-6.079 1.412l-14.732 3.233c-1.297.638-.478 1.16.843 1.14s3.05-.296 4.212-.183 1.617.82 2.118 1.367c.6.377 1.26.6 1.957.676s1.4-.032 2.05-.3c.97-.298 1.92-.655 2.846-1.07 5.578-2.14 12.82-1.776 17.896-4.053a25.46 25.46 0 0 1 6.125-2.778 10.71 10.71 0 0 1 3.006-.137c3.05.228 5.533.774 8.698.957 3.835.22 7.68-.188 11.384-1.207-1.563-.672-3.278-.908-4.964-.683a242.42 242.42 0 0 1 12.933-2.505c1.457-.25-.524-.888-.774-.9-1.357.1-2.704.3-4.03.592a7.44 7.44 0 0 1-4.007-.114 1.13 1.13 0 0 1-.42-.366 1.14 1.14 0 0 1-.195-.522c0-.113-.137-.25-.5-.182s-.57.25-.57.365.114.227 0 .364a2.3 2.3 0 0 1-.934.32 2.3 2.3 0 0 1-.956 0c-.147-.02-.288-.075-.4-.16l-1.002-.546zm-10.246-5.236v.182c-.115.1-.245.203-.388.273-.5.342-.705.66-.57.9s.25.228.615.25 1.594-.296 2.277-.364a5.03 5.03 0 0 1 1.503.114 4.12 4.12 0 0 0 1.776-.137 1.77 1.77 0 0 0 .91-.569v-.478a.79.79 0 0 0-.432-.364c-.365-.16-1.093-.137-1.457-.296-.82-.342.956-1.9-1.275-1.662s-3.348 1.73-2.96 2.14zm-30.28 2.504l-4.03-.638a10.05 10.05 0 0 0-1.9 0c-.888 0-1.912.342-2.87.524a36.53 36.53 0 0 1-4.736.523l-5.92.228a18.18 18.18 0 0 0-3.165 0 27.14 27.14 0 0 0-3.051.638l-9.107 2.277c-.513.104-1 .272-1.48.5-.433.296 0 .456 0 .638.387.57-1.275 1.57-1.4 2.277.01.1-.014.22-.067.317a.56.56 0 0 1-.229.229c-.25.16-.615.274-.9.433-1.548.73-.432 1.434-2.117 2.14a11.4 11.4 0 0 0-2.459.957c-.365.432 1.297.182 1.935.318a.75.75 0 0 1 .478.274 4.32 4.32 0 0 0 2.641.842c.476.065.96.065 1.435 0 1.867-.364 2.618-1.457 4.35-2.117l1.82-.183a10.54 10.54 0 0 0 5.829-.979 18.24 18.24 0 0 0 1.662-.956 59.63 59.63 0 0 1 21.175-7.036 8.26 8.26 0 0 0 1.048-.182c.706-.364 1.434-.956 1.047-1.024zm20.128-8.264a3.56 3.56 0 0 1-.956 0c-.25 0-.296-.182-.4-.274-.5-.387-2.277-.16-3.7-.136h-3.347c-1.527.067-3.048.235-4.554.5l-4.394.797c-.494.065-.972.22-1.412.455-.57.433 1.32.364.775.797a4.82 4.82 0 0 1-2.004.478 3.99 3.99 0 0 0-1.913.547c-.16.227.456.25 1.048.16.533-.1 1.074-.153 1.616-.16-.182.318-1.4.546-2.277.66s-2.14.5-1.935.706.433 0 .75 0 1.184-.137 1.8-.228a16.29 16.29 0 0 1 2.277-.32c.638 0 1.025.182.57.456l2.573-1.184c-.478.296.433.387 1.16.16a2.27 2.27 0 0 0 1.275-.842 1.73 1.73 0 0 1 .683-.843c.242-.164.512-.28.797-.34.866-.205.98.182.592.5s-1.024.75-.705.9a2.61 2.61 0 0 0 1.16 0 21.15 21.15 0 0 0 3.438-.432c1.207-.296 2.46-.888 2.413-1.253.512-.048 1.027-.01 1.526.114a10.33 10.33 0 0 0 3.62-.41l.638-.136c.546 0 .5.205 0 .432-.537.2-1.094.36-1.662.456-4.213.888-8.448 1.958-12.57 3.2a2.13 2.13 0 0 0-.569.205c-.706.342.16.478.956.433 2.318-.01 4.62-.372 6.83-1.07 1.024-.365 1.844-.82 2.9-1.14s2.277-.546 3.302-.956 1.047-.615 1.776-.865c.737-.23 1.505-.346 2.277-.342 1.4 0 2.732-.16 4.03-.182a7.78 7.78 0 0 0 1.73-.137c.66-.136 1.253-.387 1.9-.57 1.5-.4 3.016-.612 4.554-.66a12.95 12.95 0 0 0 4.554-1.002 3.08 3.08 0 0 0 1.093-.911c.683-.82 1.343-1.707.364-2.14a1.61 1.61 0 0 0-.933 0c-.338.022-.667.12-.962.285a2.29 2.29 0 0 0-.746.67 2.12 2.12 0 0 1-.643.657 2.11 2.11 0 0 1-.86.322c-.546-.182-.706-.546-.387-.956l-1.343.25c.296-.318.5-.683-.182-.683a22.59 22.59 0 0 0-2.277.501c-.48.092-.976.053-1.435-.114l-1.002-.34c-.18-.024-.346-.104-.478-.228-.182-.296.66-.842.182-1.047a4.92 4.92 0 0 0-2.777.569 1.97 1.97 0 0 0-1.071 1.207c0 .32-.227.637.114.842s.66.182.865.342 0 .364-.387.615c1.9 0-.182.728-1.48.9l-6.762.752zm-1.8-5.535c-.35.05-.694.143-1.024.274a.61.61 0 0 0-.273.273l-.683 1.184c0 .136-.137.296 0 .32a12.12 12.12 0 0 0 1.434-.16c.478 0 .524.205.82.273a7.25 7.25 0 0 0 2.527-.296l2.05-.455a10.95 10.95 0 0 0 1.549-.433l1-.432c.387-.137 1.14-.205 1.708-.365s1.23-.66.797-.774-.615 0-.843-.114-.227-.25.183-.364h.455c1.708-.228 5-.9 4.554-1.64s-1.48-.228-2.824 0l-5.6 1.275c-1.047.296-1.844.683-2.9.98a24.91 24.91 0 0 1-2.938.455z"/><path d="M390.368 108.985c-.25.228 0 .4.32.432a4.42 4.42 0 0 0 1.617-.318 8.41 8.41 0 0 1 1.889-.866h.752a5.74 5.74 0 0 0 2.277-.774c.455-.34.523-.637.478-.888a20.19 20.19 0 0 0 3.962-.523c.432-.16 0-.274 0-.433s1.457-.615 1.776-.933c.032-.034.05-.08.05-.126s-.018-.1-.05-.125c-.205-.364-.82-.66-1.936-.637-1.287.043-2.55.353-3.7.9-.25 0-.433.274-.73.387a8.69 8.69 0 0 1-3.05.524 42.01 42.01 0 0 0-11.384 2.505 16.7 16.7 0 0 1-3.939 1.206 6.13 6.13 0 0 0-1.093.183 5.35 5.35 0 0 0-.638.341c-.705.378-1.48.6-2.277.683.205.228-.364.66-1.206.934l-1.503.34c-1.413.268-2.805.633-4.167 1.093-.227.16.114.205.456.182a2.29 2.29 0 0 1 .888 0v.182c0 .183 1.07.205 1.047.48s-.182.273 0 .34c.285.065.58.065.865 0 .66-.12 1.3-.303 1.936-.546a6.53 6.53 0 0 1 1.024-.319c.638 0 .387.34.956.34.553-.084 1.086-.27 1.57-.546.456-.205 1.298-.478 1.503-.342s.342-.364.365-.546.364-.433.842-.5l-.205 1.16v.114a1.28 1.28 0 0 0 .41 0c1.912-.32 3.984-1.275 4.212-1.935 0-.205 0-.387.296-.615s.547 0 .456.228-.25.364 0 .387a3.71 3.71 0 0 0 1.275-.32c1.024-.387 2.277-.865 2.277-1.252v-.342a1.09 1.09 0 0 1 .728-.41c.455 0 .615 0 .638.205 1.252-.25 1.252-1.047 2.277-.98s-.866.797-1.253 1.116zm16.482-6.58c-.432.16-.842.34-.9.5s0 .136 0 .205l.25.34s0 .114.228.137.592 0 .865 0c.144-.013.3-.013.432 0a6.36 6.36 0 0 0 1.207-.137h.32v-.114c0-.113 1.047-.432 1.343-.683s0-.25 0-.318-.387-.137-.432-.228 0-.228-.137-.273a.77.77 0 0 0-.41 0 5.95 5.95 0 0 0-1.39.273c-.387.045-.842.045-1.366.296zm9.85-2.368l-1.412.432a4.8 4.8 0 0 1-1.412.228c-.432.205-.4.433 0 .433a4.67 4.67 0 0 0 .729 0l2.687-.456a2.72 2.72 0 0 1 1.115 0s0 .114.228.114.638-.182.842-.16 0 .25 0 .273h.274c.4-.077.795-.176 1.184-.296a6.59 6.59 0 0 0 .797-.319l1.64-.66c.1-.02.176-.058.25-.114.114-.114 0-.137-.25-.16a13.93 13.93 0 0 0-3.119.205 30.28 30.28 0 0 0-3.552.48zm39.835 7.855a5.01 5.01 0 0 0-1.799.547 6.01 6.01 0 0 0-2.482 1.867 19.97 19.97 0 0 1 2.96-.251c.888 0 1.57.182 1.503.547s-1.867 1.23-3.233 1.32h-1.98c-.75 0-1.07.25-1.525.274-.934 0-.456-.547-.775-.797-1.056-.22-2.155-.075-3.12.4-.98.478-1.025 1-.273 1.183a4.85 4.85 0 0 1 .979.228c.296.182 0 .547.4.683a22.81 22.81 0 0 0 4.053-.432c1.32 0 1.32.683 2.686.637l1.32-.136c1.184 0 .706.705.956 1.092s3.46.388 5.192-.432c.464-.262.943-.498 1.434-.706.87-.257 1.762-.433 2.664-.524a17.66 17.66 0 0 0 5.169-1.662c1.297-.706 1.935-1.503 1.64-2.05-.017-.05-.047-.092-.088-.124s-.1-.052-.14-.058c-.797-.25-3.028.637-3.962.478s0-.865-.842-.888c-.455 0-1.14.137-1.548.114s.296-.706 1.32-.956a16.93 16.93 0 0 0 3.006-.775c1.093-.478.615-1-.524-1-1.338.057-2.666.255-3.962.592 1.3-.353 2.553-.858 3.734-1.503-.205-.32-1.48-.205-2.527 0s-1.958.683-2.914 1.002c-.965.373-1.976.6-3.006.705.524.48 0 .615-1.4.775s-1.753-.183-2.937-.16zm-.66 13.228a4.52 4.52 0 0 1-1.412.25c-1.093.107-2.153.433-3.12.956-.16.114-.296.205-.32.296s.4.205.774.228c.63.048 1.26-.014 1.868-.183a5.34 5.34 0 0 1 1.115-.318.52.52 0 0 1 .273.114 1.29 1.29 0 0 0 .729 0 8.71 8.71 0 0 1 1.047 0c.66 0 .137.5.387.728a2.27 2.27 0 0 0 1.389 0 17.31 17.31 0 0 0 1.799-.432c.284-.057.56-.15.82-.274.296-.182.32-.364.706-.5a3.07 3.07 0 0 1 .66-.113l1.594-.114c.3-.012.598-.058.888-.137.446-.08.853-.305 1.16-.637.4-.5 0-.866.273-1.367 0-.113.137-.204.114-.296s-.455-.204-.82-.25l-3.256-.273a6.18 6.18 0 0 0-1.138 0c-.452.036-.893.16-1.298.364.82-.5-1.98-.455-3.05.25s.046 1.115-1.184 1.707zm7.81-21.767c0 .25.205.433.455.615-.888.182-2.14.592-1.9.82s.775 0 1.162 0c.933 0 .592.614.205 1.07a.6.6 0 0 1-.32.205c-.13.062-.268.1-.4.114-1.343.182-2.004-.183-2.118-.615s.114-.9-.5-1.184a4.94 4.94 0 0 0-3.302.432c-.5.32-.228.592 0 .82.106.12.187.262.238.414a1.23 1.23 0 0 1 .058.474c0 .25-.296.592-1.002.75s-1.07 0-1.616.205a2.13 2.13 0 0 0-.57.228 4.6 4.6 0 0 0-.98.57c-.182.205 0 .387.342.365a5.66 5.66 0 0 0 1.525-.342 15.37 15.37 0 0 1 2.505-.57c.62-.098 1.25-.098 1.867 0 .455 0 .57.34.114.615s-.75.318-1.093.5-.638.387-.342.455a2.37 2.37 0 0 0 .752 0l5.123-.75a16.5 16.5 0 0 0 1.8-.342 18.76 18.76 0 0 1 3.142-.956c1.115 0 1.48.387 2.664.182s1.457-.638 1.434-.934-.34-.523-.182-.842.32-.364.342-.524-.183-.296-.25-.432.364-.752.66-1.162.205-.797-.75-.797H471.7c-.296 0-.433-.34-.456-.546s-.523-.4-1.184-.205-.432.57-.592.888a3.46 3.46 0 0 1-2.026.774c-1.275.114-.683-.273-.638-.615s.4-.615-.66-.592-2.345.478-2.46.9zm-15.32-5.008a4.26 4.26 0 0 0-1.913.751c-.705.75 2.824.546 1.96 1.32-.16.137-.48.296-.66.433-.523.4 0 .706.888.683a9.26 9.26 0 0 0 2.983-.683 7.42 7.42 0 0 1 1.07-.387c.378-.043.76-.043 1.14 0h2.276a10.94 10.94 0 0 1 4.554-.82 15.32 15.32 0 0 1 4.053.478 10.07 10.07 0 0 0 2.732.637 8.63 8.63 0 0 0 4.099-.888c.524-.364.387-.683.228-.956-.342-.638-1.048-1.298-3.143-1.116-1.235.26-2.494.4-3.756.387-.57-.137-.4-.57-1.23-.57s-2.277.455-2.687.25 0-.16-.136-.228c-.64-.165-1.316-.1-1.913.182a5.52 5.52 0 0 1-.637.319c-1.57.57-1.708-.433-2.414-.478a9.11 9.11 0 0 0-2.96.683c-1.207.342-.842.364-1.594.25-.387 0-.273-.296-.842-.34-.7-.038-1.4-.007-2.095.1zm-1.437 7.97c-.137 0-.296.136-.296.182s.182 0 .296 0 .296.182.592.228a2.81 2.81 0 0 0 .933 0l3.05-.433a.51.51 0 0 1 .251 0c.137 0 0 .114-.182.182a2.49 2.49 0 0 1-.592.114c-1.372.2-2.703.605-3.94 1.23l2.05-.433a7.37 7.37 0 0 1 1.89-.182h.16s-.228.136-.4.182l-3.78 1.184a3.68 3.68 0 0 0 1.434 0l1.958-.364c.687-.094 1.36-.27 2.004-.524.425-.263.866-.5 1.32-.706l.774-.205c.592-.205.98-.5.842-.66s-.842-.182-1.48 0h-.34c-.365 0-.32-.137 0-.273l.9-.387c.25-.137.274-.4-.114-.456a5.07 5.07 0 0 0-1.479.114c-1.982.232-3.94.636-5.852 1.207z"/><path d="M488.614 95.757h-3.78a8.68 8.68 0 0 0-1.822.182c-1.412.296-2.163 1.025-1.753 1.366a5.85 5.85 0 0 0 2.687.524l3.096.182a11.14 11.14 0 0 0 3.712-.251 12.06 12.06 0 0 1 2.276-.638c.98 0 .9.387 1.344.615a7.18 7.18 0 0 0 1.115.319c.9.296.73.933.137 1.548s-1.548 1.275-2.163 1.912-.455.774.342.774a27.87 27.87 0 0 0 2.937-.66c.72-.045 1.442-.045 2.163 0a23.56 23.56 0 0 0 5.42-1.184c.48-.153.977-.238 1.48-.25a1.87 1.87 0 0 1 .569 0c2.134.385 4.327.3 6.42-.273l2.55-.57c.865-.137 1.116 0 1.662 0a37.45 37.45 0 0 0 11.612-1.594 75.95 75.95 0 0 0 7.765-.205c.648-.042 1.294-.118 1.935-.228 1.16-.336 2.34-.6 3.53-.82-.273-.273.797-.73 1.753-1.002s2.095-.615 2.277-.98-.523-.455-1.252-.478a12.81 12.81 0 0 1-2.277 0 3.65 3.65 0 0 0-1.116-.182c-.5 0-1.093.228-1.64.296a8.27 8.27 0 0 1-2.505-.319 13.2 13.2 0 0 0-2.072 0c-4.44.4-8.993 1.047-13.547 1.844a85.65 85.65 0 0 1-11.772 1.685c-1.867 0-3.46-.137-5.396 0a13 13 0 0 1-2.618 0c-.638-.137-.456-.66.523-.865s1.23 0 1.845-.25.705-.683 0-.73-1.754.137-2.505 0a7.74 7.74 0 0 0-4.554.114c-3.3.888-5.5.023-8.38.114zm-10.038 6.078c-.3.1-.572.22-.842.364l-1.093.524c-.456.205-.957.5-.775.638.462.132.95.132 1.412 0l1.662-.388c1.526-.182 1.845.5 3.325.365.5 0 1.07-.205 1.548-.228h1.434a2.28 2.28 0 0 0 1.503-.706c.205-.273.16-.5.433-.774s.57-.4.683-.615c.455-.683-1.344-1.684-3.256-1.4a7.96 7.96 0 0 0-2.664.866c-1.074.563-2.203 1.013-3.37 1.343zM519.58 90.1c-.703-.08-1.414-.08-2.117 0-.774 0-1.685.478-1.617.73s.296.182.615.228a11.37 11.37 0 0 1 1.935.273c.48.16.365.592-.5.842-.34.1-.692.17-1.047.205l-4.167.478a14.21 14.21 0 0 0-3.96 1.116c-1.025.5-1.253 1.138-.205 1.275l3.94-.842a3.54 3.54 0 0 1 .933-.114c.478 0 .137.364.387.524.638.342 3.03-.706 4.28-.615.28.04.554.107.82.205a36.89 36.89 0 0 0 5.988-.751c.856.056 1.716.056 2.573 0 2.026-.387 2.982-1.708 4.918-1.867a7.54 7.54 0 0 1 2.049.342c1.818-.035 3.612-.42 5.282-1.138-.113.57 3.552 0 3.325.524 0 .137-.365.296-.456.455s.797.433 1.753.273a13.1 13.1 0 0 0 2.573-.82 8.26 8.26 0 0 1 2.072-.66h1.093a10.48 10.48 0 0 0 5.396-1.73 76.81 76.81 0 0 0-8.424-.251l8.63-.98c-.842-.205 0-.888 1.298-1.252a25.01 25.01 0 0 1 3.985-.66 66.66 66.66 0 0 0 7.31-1.298c.52-.1 1.03-.26 1.525-.455.342-.182.5-.364.843-.524a12.72 12.72 0 0 1 2.277-.638c.774-.228 1.502-.638 1.024-.774a4.49 4.49 0 0 0-.82 0l-4.28.228a19.54 19.54 0 0 0-3.21.32l-3.278.82c-1.364.33-2.778.4-4.167.205a12.69 12.69 0 0 1 2.755-1.047 2.87 2.87 0 0 0-1.548-.273 10.91 10.91 0 0 1 4.736-.342c.136 0 .205.182.387.228a8.08 8.08 0 0 0 3.825-.637c.205-.296-1.457-.25-.98-.547.297-.124.612-.2.933-.228.985-.03 1.967-.13 2.938-.296l1.4-.364a15.58 15.58 0 0 1 3.37-.228 23.91 23.91 0 0 0 5.761-.911 14.38 14.38 0 0 1 2.687-.501c0-.387 1.32-.82 2.48-1.047l3.507-.524a30.43 30.43 0 0 0 3.256-.979c8.493-2.778 19.74-3.142 28.2-5.83a50.18 50.18 0 0 0-8.266.865l18.216-3.643c-.228-.524-2.004-.638-3.575-.66l-12.75-.273c-.848-.078-1.702-.078-2.55 0a18.02 18.02 0 0 0-4.053 1.366 28.69 28.69 0 0 1-8.037 1.753c1.366-1.32 7.035-1.73 9.54-2.96l-13.66.9c-1.687.047-3.36.3-4.987.75-.592.182-1.07.4-1.662.592a16.89 16.89 0 0 1-3.46.57l-18.5 1.8 5.214.956a21.31 21.31 0 0 1-7.263-.228 70.71 70.71 0 0 1-10.041 1.457c-.274.4 1.184.4 2.277.4s1.776.478.614.75a44.31 44.31 0 0 1-8.38-.774c-1.206.228-1.32.797-.865 1.093s1.07.615.25 1.047l-2.7-.865-.933.82c-.32-1.025-4.554-.706-7.15-.934-.842 0-1.548-.205-2.482-.228-1.045-.008-2.084.162-3.073.5-.843.364-.752.865.296.774l-6.262 1.047a19.29 19.29 0 0 0 6.421-.137c1.753-.296 4.12-.73 4.554-.273-1.238.445-2.52.75-3.825.9-2.686-.014-5.363.307-7.97.956a5.59 5.59 0 0 0-2.162-.617 5.67 5.67 0 0 0-2.232.276c-.774.228-1.275.546-1.958.797-3.028 1.093-6.83.273-9.996 1.343-.57.205-1.07.478-.933.66s2.664-.273 3.78-.205c-1.297.228-2.48.888-2.163 1.23a33.88 33.88 0 0 1 9.313-1.594 12.16 12.16 0 0 1-4.008.956c-1.457.205-3.415.98-2.46 1.16a39.38 39.38 0 0 1 10.064-1.184 9.57 9.57 0 0 0 2.619-.159c.478 0 .933-.273 1.434-.364 1.617-.32 1.958.364 1.708.934a76.18 76.18 0 0 1 11.566-2.55c3.894-.524 7.605-.706 11.385-1.116 5.442-.592 10.997-1.617 16.507-2.618-2.276 1.526-9.7 1.48-11.384 3.006a35 35 0 0 0 5.396-.615 26.39 26.39 0 0 1-8.538 1.503 37.7 37.7 0 0 0-8.675.98c-.524.98 1.616 1.594 4.417 1.252-1.35.7-2.877 1-4.394.865-.435-.016-.86-.12-1.253-.3a3.17 3.17 0 0 1-1.024-.783c-.333-.325-.73-.578-1.164-.743a3.37 3.37 0 0 0-1.364-.214 22.24 22.24 0 0 0-3.87.387l-4.554.75c-1.236.17-2.454.443-3.643.82-1.093.387-1.776.98-1.07 1.184l-2.983.4c.73-.9-1.23-1.366-3.506-1.298s-4.896.5-7.332.75-4.964.228-5.578-.433c-.183-.205-.183-.455-.524-.615-1.515-.228-3.06-.174-4.554.16-1.753.228-3.848.32-3.78-.25 0-.182.25-.4 0-.524-.413-.085-.84-.085-1.252 0a39.39 39.39 0 0 0-6.831 1.343c0 .433 1.64.32 2.938.205s2.7 0 1.844.592a21.92 21.92 0 0 0-6.671 1.184l8.014-.182a5.31 5.31 0 0 1-2.4.888 19.12 19.12 0 0 0-2.938.638c-.888.296-1.23.843-.318.797 2.488-.88 5.085-1.417 7.718-1.594.9.182-1.002.98-2.46 1.207a16.32 16.32 0 0 0-4.189.888c-1.14.592 0 1.025 1.434.98s3.233-.364 4.668-.364a49.55 49.55 0 0 1-4.1 1.07 64.71 64.71 0 0 0 10.02-1.23c-.342.797-4.213 1.32-5.624 2.277s.227 1.207 2.026 1.093 3.825-.57 5.738-.82a31.29 31.29 0 0 0 3.552-.592c.967-.3 1.917-.63 2.846-1.025a48.79 48.79 0 0 1 8.22-1.935l4.713-.797a32.54 32.54 0 0 0 4.668-1.025c1.434-.455 2.595-1.16 2.276-1.594 1.412-.182 2.596 0 2.664.455s-1 1.07-2.277 1.4a19.94 19.94 0 0 1 6.467-.16 89.12 89.12 0 0 1-13.844 1.389c-1.25.16-2.484.427-3.688.797a20.55 20.55 0 0 1-2.118.569c-.637 0-1.252 0-1.9.228-1.23.205-2.276.82-1.958 1.16s1.754.296 2.892 0c.2-.074.405-.128.615-.16a2.44 2.44 0 0 1 .569 0 17.02 17.02 0 0 0 3.597-.82 14.1 14.1 0 0 1 4.213-.433c.478 0 .888.137.82.364h-.25c-.75 0-1.457.16-2.277.25a8.27 8.27 0 0 0-2.14.5.48.48 0 0 0-.228.137c-.137.16.4.182.843.137l4.827-.478 1.57-.182a6.06 6.06 0 0 1 2.072.205c.774.137 1.64.228 2.276.4a72.2 72.2 0 0 1-16.94.5zm-41.3.978a8.06 8.06 0 0 0-1.23.182c-.427.1-.82.33-1.138.638-.73.82 0 1.434 1.252 1.753 1.593.295 3.208.455 4.827.478.342 0 .683 0 .774.137s-.182.34-.227.5 1.457.4 2.755.273l9.267-.934a10.85 10.85 0 0 0 2.664-.501c1.23-.5.683-1.07-.57-1.093-1.445.067-2.883.235-4.304.5a17.25 17.25 0 0 1-6.535-1.16 24.45 24.45 0 0 0-7.536-.774zm150.913-5.258a31.01 31.01 0 0 0 3.916 0c7.97 0 11.863 3.12 7.855 6.26-1.958 1.526-5.35 3.598-2.4 4.235a35.36 35.36 0 0 0 9.36-.956c7.878-1.093 13.66 1.822 9.107 4.554a20.96 20.96 0 0 0-3.711 2.277c-1.548 1.685 2.413 2.87 1.07 4.553s-7.787 2.892-10.428 2.027c-2.824 2.117-1.14 4.053.614 5.738l4.782 4.553c1.737 1.87 4 3.173 6.5 3.735 4.85 1.16 12.842.774 16.28 2.55.502.318 1.046.563 1.617.728a12.44 12.44 0 0 0 7.81-1.594 3.02 3.02 0 0 0 1.235-1.485 3.01 3.01 0 0 0 .086-1.93c-.2-.626-.165-1.297.07-1.908s.667-1.125 1.228-1.462c2.87-2.026 10.314-3.256 11.84-5.305.592-.797.16-1.594 1.457-2.277 1.935-1.093 5.76-1.115 8.88-1.366 5.92-.5 11.77-2.687 12.933-4.872 1.776.82 6.307-.137 8.492-1.23a27.37 27.37 0 0 1 6.626-3.188c5.465-1.4 11.635.114 17.464-.9a32.75 32.75 0 0 0 6.125-2.004 9.73 9.73 0 0 1 3.87-.57 5.86 5.86 0 0 0 1.139.114 3.61 3.61 0 0 0 1.32-.364 11.24 11.24 0 0 1 3.142-1.025c.523 0 1.07-.114 1.616-.205l2.528-.455c2.277-.433 3.392 0 5.236-.933 1.14-.592 1.594-1.48-.5-1.594h-2.596c-.95-.136-1.9-.2-2.87-.16-1.22.175-2.428.418-3.62.73a22.77 22.77 0 0 1-5.26 0 1.98 1.98 0 0 1-.501 0c-.228-.16.387-.342.547-.524s-.32-.4-.9-.4a9.73 9.73 0 0 0-1.799.228c-1.457.273-7.878 1.275-7.08.182.4-.356.9-.62 1.412-.774.46-.193.94-.33 1.434-.4.706-.114 1.412 0 2.118 0s1.093-.205 1.662-.296h6.238s-.16-.137-.136-.228a12.23 12.23 0 0 1 5.396.137c2.14.25 4.303.5 6.67.57 1.307.116 2.623-.03 3.87-.433 1.32-.592 0-1.298-1.366-1.662a61.52 61.52 0 0 0-12.614-1.8 16.19 16.19 0 0 1-3.62-.41c-2.4-.797 1.047-2.64 4.736-3.097 3.6-.216 7.228-.216 10.838 0 3.62 0 8.333-.592 9.608-1.9-1.525-.73-6.147-.387-6.33-1.343s3.962-1.434 5.898-2.277 1.252-1.935.865-2.87 0-2.482 3.916-2.527a2.51 2.51 0 0 1 .615 0c.32 0 .25.25.364.387s.888.32 1.526.4a10.6 10.6 0 0 0 1.935 0c.683 0 1.4-.32 1.275-.524s-.205-.16-.228-.25.387-.342.843-.455 1.002-.16 1.412-.273c1.958-.57 1.525-2.14.455-2.618a13.66 13.66 0 0 0-3.734-.82c-1.23-.137-2.915-.228-2.277-.888a8.9 8.9 0 0 1 2.277-1.047c.75-.342.933-.9-.16-.98l4.7-.66c.78-.072 1.545-.248 2.277-.524.57-.25.5-.66-.32-.706h-.592c-.32 0-.137-.273.182-.387.805-.274 1.656-.4 2.505-.34.387 0 .75.114 1.16.114.653-.02 1.302-.1 1.935-.273.8-.1 1.574-.337 2.277-.73.365-.296-.34-.683-1.252-.57a4.1 4.1 0 0 1 1.753-.342 19.58 19.58 0 0 0 2.027 0c1.662-.182 2.55-.98 4.235-1.093h1.184a5.22 5.22 0 0 0 1.275-.342 14.26 14.26 0 0 1 2.89-.592 3.96 3.96 0 0 0 1.139-.182c.432-.182 0-.433-.615-.478s-1.298 0-1.958 0c-.997-.144-1.98-.373-2.937-.683a32.62 32.62 0 0 0-5.442-.159 97.66 97.66 0 0 0-10.087 1.252 431.06 431.06 0 0 1-28.871 3.484c3.352-.864 6.658-1.898 9.905-3.097-1.776-.73-5.715.182-8.8.66a71.98 71.98 0 0 1-10.884.478 178.85 178.85 0 0 0-22.769 1.639 204.2 204.2 0 0 1 43.261-3.506c2.755 0 7.264-.387 6.65-1.252a2.07 2.07 0 0 0-1.23-.478c-4.075-.75-11.6.342-13.66-1.07-.364-.25-.455-.57-1.002-.774-2.095-.843-6.557.638-10.178 1.23a40.19 40.19 0 0 1-8.584.182 155.82 155.82 0 0 0-38.342 2.026 45.71 45.71 0 0 1-5.693.979 62.01 62.01 0 0 1-6.83-.137c-2.263-.155-4.53.244-6.603 1.16 1.093.34 1.548.888 1.23 1.503a61.03 61.03 0 0 0-14.208 1.14c-1.64 1.617 8.448.615 8.857 2.095.274 1.025-4.827 1.935-7.286 1.526a10.63 10.63 0 0 1-4.553-2.277 11.57 11.57 0 0 0-7.583-.569c-3.005.774-3.2 2.14-2.914 3.165a38.49 38.49 0 0 0-14.732 1.047c2.277-.843 1.207-1.958-1.138-2.163a39.83 39.83 0 0 0-8.128.638l-9.45 1.412c-2.537.213-5.022.844-7.354 1.867.82-.66-2.14-.638-3.7 0s-2.276 1.275-3.94 1.8a33.26 33.26 0 0 1-7.24 1.002 50.56 50.56 0 0 0-14.367 3.37c3.12.774 11.635-1.412 12.682 0s-4.372 2.277-8.106 2.914l-27.163 4.053c.57 1.64 6.67 1.617 11.954 1.002a81.75 81.75 0 0 1 15.37-1.16 19.35 19.35 0 0 1-5.237 1.093l-18.694 2.277a9.5 9.5 0 0 0-3.939 1.025c-.888.843 2.277.75 4.395.73 3.142 0 4.76.73 5.055 1.776a109.08 109.08 0 0 1 19.786-3.689l10.633-.75c3.06-.112 6.12.218 9.085.98zm152.277 17.964c-1.028-.067-2.06.04-3.05.32-.274 0-.456.228-.775.32-.842.227-1.82 0-1.935-.365s.205-.705 0-1.024-1.685-.752-3.12-.615a4.87 4.87 0 0 0-3.074 1.184c-.273.4 0 .797-.16 1.207s-.638.888-1.73 1.047c-.683.114-1.457 0-2.072.25-1.025.273-.637.865.342 1a26.7 26.7 0 0 0 3.347 0c1.138 0 2.277.183 2.277.592s-1.526.82-2.733 1.093-2.595.752-2.277 1.162c.365.216.783.327 1.207.318a10.77 10.77 0 0 0 3.643-.387 24.89 24.89 0 0 1 2.778-.933 8.17 8.17 0 0 1 4.417.478 9.25 9.25 0 0 0 3.734 1.002 16.68 16.68 0 0 0 6.171-1.344c1.973-.825 4.1-1.22 6.238-1.16.797 0 1.4.296 2.14.4 3.206.173 6.4-.37 9.38-1.594 1.02-.297 1.987-.75 2.868-1.343.57-.524.32-1.16-.956-1.32-.706 0-1.57 0-2.277-.136-2.436-.365-.592-2.277-3.28-2.414a13.26 13.26 0 0 0-4.986 1.412c-3.188 1.024-4.235 0-6.83 0-2.823-.046-5.965.842-9.3.842zm-177.7 54.03c.637.888-2.55 2.004-4.964 2.8a14 14 0 0 0-5.009 2.505c-.9.933-.182 1.935 1.958 1.912 2.805-.424 5.565-1.1 8.242-2.05a21.59 21.59 0 0 1 8.812.25l2.277.456a20.1 20.1 0 0 0 5.738.523c2.277-.16 4.986-1.024 5.373-1.958s-2.117-1.4-4.554-1.457-5.145 0-6.056-.774c-.296-.25-.342-.592-.843-.797-1.4-.57-5.373.364-6.216-.387-1.502-1.366 9.746-4.44 3.46-4.736-4.235-.205-9.107 2.482-8.22 3.7zm528.17-84.882a31.05 31.05 0 0 0-4.35 0 11.45 11.45 0 0 1-2 .16 10.62 10.62 0 0 1-1.28-.273 14.61 14.61 0 0 0-4.26-.4c-2.55.182-4.03 1.047-6.58 1.23-1.7-.028-3.42.086-5.12.342a12.43 12.43 0 0 1-1.48.638 13.82 13.82 0 0 1-4.2 0 8.49 8.49 0 0 0-3.94.182c-.64.4.27 1.093-.7 1.412a6.23 6.23 0 0 1-1.25.159 13.8 13.8 0 0 0-5.37.797 1.19 1.19 0 0 1-.46.319c-.8.296-2.93 0-3.23.4s.55.5 1.25.615a12.01 12.01 0 0 1 2.05.387c.37.16.55.342.6.524s-.86.933-2.27 1.025c-1.42.1-2.28 0-3.3 0-1.03 0-1.5.592-1.05 1.002.45.4 1.43.66 1.48 1.025 0 .82-4.42.57-4.92 1.343 0 .205 0 .433.27.638a2.27 2.27 0 0 0 1.32.73c.75.164 1.53.164 2.28 0 .64-.137 1.12-.364 1.75-.5 1.72-.343 3.5-.25 5.17.273 1.4.5 1.4 1.4 0 1.73a8.07 8.07 0 0 0-1.27.273c-.9.364.4 1.047 1.86 1.184a23.82 23.82 0 0 0 4.24-.114 17.88 17.88 0 0 1 2.28 0 11.27 11.27 0 0 1 1.82.205 2.05 2.05 0 0 1 .38.182 2.78 2.78 0 0 0 1.07 0c.4 0 .55-.25.98-.296.44-.046.64 0 .96 0s.7 0 .66-.16h-.16l-.45-.228c-.23 0-.55-.182-.4-.273a1.6 1.6 0 0 1 .68 0l4.42.364h2.27a4.86 4.86 0 0 0 1.53 0c.16 0 0-.205-.34-.25-.98-.228-2.12-.205-3.2-.34l-2.48-.387-2.46-.273c-3.46-.546-5.33-2.277-3.6-3.2.7-.4 1.94-.75 1.85-1.252-.1-.5-.7-.66-1.48-.888-.37 0-.82-.182-1.2-.32l-1.23-.387a3.67 3.67 0 0 1-1.32-.592h.18a10.58 10.58 0 0 1 1.67 0h2.5a11.36 11.36 0 0 0 1.57 0c1.53-.228 1.3-1.025 2.1-1.526.1-.062.2-.1.3-.114a2.29 2.29 0 0 1 .8 0 3.89 3.89 0 0 0 1.8-.113 3.92 3.92 0 0 0 1.54-.912c.37-.427.84-.76 1.36-.973.53-.213 1.1-.3 1.66-.256.7 0 1.3.228 1.98.273a8.97 8.97 0 0 0 3.44-.66c.98-.206 1.97-.343 2.96-.4l1.9-.16 7.47-.478c1.02.02 2.04-.035 3.05-.16.87-.137 1.48-.387 2.28-.524a39.46 39.46 0 0 1 6.15 0 24.54 24.54 0 0 0 4-.228 5.65 5.65 0 0 0 2.17-.683c1.66-1.252-3.92-1.935-6.36-1.48a39.82 39.82 0 0 1-10.31 1.412z"/><path d="M1074.85 91.908a5.49 5.49 0 0 0 2.46.182c2.87-.433 3.14-2.277-.62-2.573-3.75-.296-3.78 1.662-1.84 2.4zM1511 180.82c0 .318.78.75.82 1.093.05.34-.13.296-.23.455-.4.592.16 1.434.73 2.277l.62.865c.05.075.12.13.2.16.07.045.15.07.23.07a.42.42 0 0 0 .23-.07 1.75 1.75 0 0 0 .44-.773 1.68 1.68 0 0 0-.03-.889v-.364c0-.1.36-.16.73 0 .25.056.5.156.72.296a10.92 10.92 0 0 1 1.69 1.207 1.72 1.72 0 0 0 .4.318 1.81 1.81 0 0 0 .66.183h.27a1.49 1.49 0 0 1 .78.296c.13.136.13.25.25.387a1.2 1.2 0 0 0 .66.341c.45 0 .5-.136.43-.296a1.74 1.74 0 0 0-.45-.684 1.8 1.8 0 0 0-.71-.409l-.66-.25c-.75-.32-.87-.706-1.3-1.07s-2.5-1.162-3.03-1.753a1.37 1.37 0 0 1-.49-.241 1.44 1.44 0 0 1-.35-.42c-.1-.206-.15-.42-.2-.637-.16-.478-.82-1.07-.4-1.366s.45-.205.3-.388a4.7 4.7 0 0 0-.66-.409c-.4-.32.18-.48.27-.706.1-.228-.27-.547-.45-.843s.1-.956 1.1-1.024a3.96 3.96 0 0 1 1.14 0 3.53 3.53 0 0 1 1.18.387c.2.136.32.273.5.4.3.202.62.377.95.523.32.16.64.3.98.387h.68v-.136a8.25 8.25 0 0 0-2.27-1.321 5.3 5.3 0 0 1-.87-.41l-.34-.273c-.57-.315-1.17-.56-1.8-.728-.58-.135-1.13-.4-1.62-.752-.24-.344-.37-.76-.36-1.184-.06-.273-.2-.527-.38-.74a1.75 1.75 0 0 0-.67-.488 5.42 5.42 0 0 1-.73-.387c-.7-.433-.25-.775-.4-1.207s-.6-.683-.97-1.025c-.47-.393-.8-.905-1-1.48.01-.12-.01-.242-.05-.356-.05-.113-.1-.217-.2-.304a7.72 7.72 0 0 0-2.05-1.184c-.77-.387-1.52-.888-1.34-1.184-.34-.342 0-.478 0-.774s-.93-1.16-2.03-1.73c-.2-.132-.42-.2-.66-.227-.07-.018-.15-.018-.22 0-.4.182-.35.546 0 .9h-.5c-.2 0-.48.183-.28.387a5.54 5.54 0 0 0 .94.57c.34.182.63.4.6.57s0 .137 0 .228.3.296.3.4-.23.16-.46.183c-.5.043-1 .043-1.48 0-.5 0-.55.16-.34.387.2.227.4.25.55.387.13.136-.2.455-.23.728s.48.592.93.9c.46.32.9.66.75.888s-.32.182-.36.296c-.05.114.2.387.45.592l2.03 1.64c1.17.823 2.2 1.84 3.03 3.006l.3.888a4.07 4.07 0 0 0 1.02 1.617 5.76 5.76 0 0 1 .8.979c.18.364 0 .683.1 1.024.05.638 1.64 1.48 1.82 2.232zm.67 5.58l-.68.273a26.22 26.22 0 0 1 3.35 1.662c.77.683-.28 1.093 0 1.753a6.59 6.59 0 0 0 .66.775c.2.25.27.523 0 .592-.28.068-.55 0-.6.16-.04.16 0 .137 0 .228.46.455 1.55.98 1.3 1.297s-1.02.16-1.77 0a17.35 17.35 0 0 1-1.98-.819 3.8 3.8 0 0 0-.76-.296h-.56c-.33-.064-.66-.064-.98 0-.2 0-.14.296.2.478a2.63 2.63 0 0 0 .5.205c.4.182.7.432.66.615-.02.182-.36.25-.82.205h-.57c-.43 0-.45.227-.38.432a.64.64 0 0 0 .25.342 4.09 4.09 0 0 0 .57.341c1.1.564 2.08 1.338 2.9 2.277a2.78 2.78 0 0 0 1.55 0 6.87 6.87 0 0 1 .95-.387c.55-.1 1.12-.027 1.64.182 0-.136-.52-.34-.93-.432l-2-.547c-.4-.084-.8-.214-1.16-.387-.3-.182-.36-.4 0-.4 0-.227 0-.478.5-.523a11.65 11.65 0 0 1 1.71.113c.1-.01.2-.01.3 0h.18l.46.4c.7.137.84-.205 1.43-.227.72.046 1.43.264 2.05.637.57.37 1.18.683 1.82.934.95.22 1.92.336 2.9.34.54.053 1.08.053 1.62 0 .48 0 .6-.32.57-.57s-.16-.547 0-.75c.3-.615 2.27-.524 4.2 0l.82.204c.32 0 .52 0 .52-.182s-.22-.296 0-.364a3.59 3.59 0 0 1 1.14.205c.64.175 1.32.175 1.96 0l-1.68-.73a2.08 2.08 0 0 1-.44-.25c-.23-.182 0-.32 0-.478s0-.342-.32-.5a2.97 2.97 0 0 0-1.32-.137 8.11 8.11 0 0 1-3.14-.728 4.77 4.77 0 0 0-1.6-.547 2.7 2.7 0 0 0-.66 0c-.68-.022-1.35-.16-1.98-.4-1.1-.34-2.15-.742-3.2-1.206-1.03-.48-1.78-1.048-2.8-1.526l-1.5-.73-.64-.432c-.34-.2-.7-.357-1.05-.5l-1.48-.638c-.56-.14-1.15-.126-1.7.046zm2.28 13.934c0 .706 2.62 1.685 2.9 2.436s-.4.638-.73.9c-1 .934.73 2.755-.73 3.53-.77.387-2.27.433-2.93.9s-.4.706-.82 1.002a4.82 4.82 0 0 1-1.55.501 5.26 5.26 0 0 1-1.76.137c-.7-.04-1.37-.295-1.93-.73-.23-.296.14-.478.57-.57s.98-.137 1.14-.342-.23-.615-.9-.75c-.24-.034-.47-.034-.7 0-1.3.136-1.48.865-1.55 1.525l-.25 1.958a1.18 1.18 0 0 0-.01.495 1.11 1.11 0 0 0 .17.462c0 .205.3.387.28.546-.03.16-1.67.273-2.92 0a23.34 23.34 0 0 0-8.15 0 4.58 4.58 0 0 0-1.02-.842c-.78.455-1.67.865-2.55 1.275l-.8.364a4.22 4.22 0 0 1-2.14.41c-.75 0-1.64-.296-2.28-.364s-1.34.227-.75.592 2.07.205 3.2.523c.34 0 .68.25 1.03.32.9.182 1.57-.25 2.27.137l.48.25a.94.94 0 0 0 .64 0l2.28-.888a3.62 3.62 0 0 0 2.16.683c.6-.018 1.2-.102 1.8-.25a12.73 12.73 0 0 1 4.94.501 3.9 3.9 0 0 1 1.07.478c.4.34-.2.5-.18.797s2.46 1.434 2.27 1.98a2.7 2.7 0 0 0 1.14.255c.4 0 .78-.087 1.14-.255.36-.357.84-.582 1.34-.638h1.2c.36 0 .82-.4.48-.797a5.22 5.22 0 0 0-1.87-1.093 2.75 2.75 0 0 1 1.18-.25c.6.003 1.18.152 1.7.432.2.137.3.296.5.433a4.04 4.04 0 0 0 2.5.387c.75-.168 1.52-.168 2.27 0l.8.25c1.25.296 1.16-.615 2.28-.456.68.273 1.1.706.9.934a7.02 7.02 0 0 1 1.61.592c.4 0 .3-.4 0-.706-.3-.296-.5-.592-.36-.797s.93-.228 1.43 0c-.23-.252-.4-.553-.5-.88a2.46 2.46 0 0 1-.07-1.01c.01-.048.04-.092.08-.125.03-.033.08-.053.13-.057.4-.002.78.126 1.1.364a.63.63 0 0 1 .18.247.76.76 0 0 1 .03.3 2.73 2.73 0 0 0 .38 1.275c.07.138.2.25.32.32.66.4 1.7.273 1.7 0s-.43-.843 0-1.048.68-.136.86-.273c.2-.137-.22-.638-.86-.934a13.71 13.71 0 0 0-2.14-.705c1.02 0 1.25-.683.48-1.32a14.95 14.95 0 0 1-1.46-1.07c-.82-.888 1.05-1.343-.14-2.277-.36-.296-.98-.546-1.4-.82-1.68-1.07-.14-1.57.7-2.026a7.23 7.23 0 0 0 1.04-.524c.32-.273.12-.273.16-.57.05-.296-.22-.455 0-.638.23-.182.4-.136.4-.273s-.18-.32-.36-.478l-2.82-2.277-.96-.728c-.8-.516-1.65-.972-2.53-1.367-.45-.247-.95-.424-1.46-.523a4.07 4.07 0 0 1-.91 0c-.77-.182-.68-.683-1.4-.957s-1.07 0-1 .16 1.2.98.98 1.4-1.32.1-1.32.546z"/><path d="M1482.62 214.587v.455c0 .137-1 .205-1.7.137s-1.57 0-1.32.32 1.82.614 2.62 1.024c.17.076.32.192.43.34a1.07 1.07 0 0 1 .23.504h-1.9c1 .837 2.23 1.325 3.53 1.4.88 0 1.02-.638.27-1.14-.27-.182-.68-.4-.68-.57s.82-.16 1.32 0a2.46 2.46 0 0 1 .98.774c.3.3.5.7.57 1.116 0 .34-.4.614-1.14.592a3.71 3.71 0 0 0-.73 0c-.23 0-.18.227-.12.387l.64 1.662a.66.66 0 0 0 .19.289.62.62 0 0 0 .31.143.81.81 0 0 0 .38.098.74.74 0 0 0 .37-.098l.7-.637c.84.32 1.04.797.95 1.116s0 .387.32.57c.3.143.64.183.96.114a.47.47 0 0 0 .21-.115c.06-.056.1-.126.13-.204l1.14-2.755a.53.53 0 0 0 .05-.216c0-.076-.02-.15-.05-.217-.1-.182-.4-.4-.43-.57-.03-.16 1.25-.34 1.13-.73-.1-.387-.66-.523-1.2-.728a12.39 12.39 0 0 1-1.64-.615c-.82-.455 0-.455-.16-.75a4.44 4.44 0 0 0-2.16-.888c-.8-.296-3.97-1.275-4.17-.797zm10.98 1.913c-.42-.126-.87-.126-1.3 0-.22.16 0 .456.4.66l.82.296a5.92 5.92 0 0 1 1.35.751l3.4 2.277c.6-.296.98-.774.23-1.344-.14 0-.3-.204-.4-.318-.03-.026-.05-.056-.06-.1a.37.37 0 0 1-.02-.105c0-.036.01-.07.02-.105s.03-.063.06-.088c.23-.296 1.02-.365 1.87-.296a2.24 2.24 0 0 1 .93.182 3.9 3.9 0 0 1 .57.34c.4.206.83.293 1.27.25.3 0 .23-.32-.13-.524l-.46-.228c-.34-.25 0-.387.3-.5s.27-.432-.25-.57h-.3v-.16c0-.023-.23-.638-.95-.843a4.77 4.77 0 0 0-1.99-.159 1.84 1.84 0 0 1-1.04 0l-.46-.228a3.57 3.57 0 0 0-2.05-.185 3.61 3.61 0 0 0-1.82.982zm173.77-64.8a13.59 13.59 0 0 1-1.5-.273 32.64 32.64 0 0 1-4.96-2.618 12.88 12.88 0 0 0-4.3-.98h-3.5a43.14 43.14 0 0 1-12.77-3.211c-4.2-1.685-7.08-3.62-11.04-5.26-3.5-1.457-7.45-3.028-11.23-4.28a180.18 180.18 0 0 0-26.7-6.24c-3.34-.592-7.2-1.16-8.44-.455-2.07 1.23 3.55 5.578-2.28 4.554a26.2 26.2 0 0 1-6.6-2.755c-5.28-2.168-10.87-3.483-16.56-3.894-3.14-.296-13.2-.478-16.37-2.277-1.14-.615-.75-1.23-2.07-1.844s-3.7-.75-4.85-1.412c-.66-.387-.5-.706-.77-1.07-1.33-.965-2.92-1.5-4.56-1.503-.52-.004-1.03.08-1.52.25-4.94 1.434-15.94-1.16-24.05-3.233-9.74-2.46-21.1-5.237-27.87-4.327.32-.4-1.73-1.047-3.23-1.343a123.25 123.25 0 0 0-18.33-2.823c-5.67-.228-10.13.956-8.58 3.278a96.21 96.21 0 0 0-28.19-4.713c.9 1.366.23 2.573-1.87 3.2-2.8-1.344-5.7-2.687-8.7-3.962-2.5-1.07-5.58-1.958-8.5-2.87a12.87 12.87 0 0 0-2.27-.569c-1.28-.16-2.28 0-3.42 0a15 15 0 0 1-2.94-.615 7.42 7.42 0 0 1-2.8-1.138c-.3-.364.23-.615.9-.706.7-.1 1.6-.114 2.28-.182a1.62 1.62 0 0 0 .68-.159c.25-.205-.3-.57-1.02-.797s-1.5-.433-2.28-.66c-1.23-.4-2.05-.933-3.16-1.4-2.25-.8-4.63-1.215-7.02-1.23a4.67 4.67 0 0 0-1.07 0c-.6.182-.25.615.35.98s4.55 2.983 4.1 3.005c-4.9.32-21.24-.98-23.8-4.144-.27-.424-.7-.726-1.18-.843a12.46 12.46 0 0 0-3.19 0 18.78 18.78 0 0 1-4.35-1.23 9.06 9.06 0 0 0-4.7-.182 2.75 2.75 0 0 1-1.73.478c-.57 0-1.2-.228-1.73-.205a1.49 1.49 0 0 0-.64.137c-1.64.683-.68 2.117-2.6 2.732-.77-.205-.54-.57-.22-.774a1.31 1.31 0 0 0 .71-1.083 1.36 1.36 0 0 0-.1-.662c-.1-.2-.23-.4-.4-.532-4.38-.38-8.8-.32-13.16.182-2.96.442-5.94.693-8.93.75-2.5.224-5.02.277-7.53.16 0-.5 1.16-.774 2.27-.934a27.99 27.99 0 0 0 4.38-.683 11.29 11.29 0 0 1 3.05-.979c1.18-.137 2.6 0 3.73-.228a33 33 0 0 0 3.83-1.275 39.77 39.77 0 0 1 5.94-.615c2.05-.16 4.03-.5 4.33-1.275s-.92-1.57-2.53-2.277c-10.1-4.554-17.44-.82-27.85-3.438-4.23-1.047-6.3-2.96-10.3-4.12-6-1.753-13.25-.865-14.94 1.047-1 1.116-1.07 2.64-4.28 2.96-4.55.478-10.5-1.708-15.94-2.277a50.51 50.51 0 0 0-14.18 1.48 24.43 24.43 0 0 1-6.17.455c-2.62-.205-5.22-1.548-7.72-1.32a1.71 1.71 0 0 0-.87.251c-.34.273.4.706.25 1.025-.34.9-2.64.433-1.1 1.57.8.615 3.4 1.822 2.9 2.277 0 .137-.48.182-.82.228a44.51 44.51 0 0 1-4.74.228h-.38c-.44 0-.62-.273-.44-.387.3-.116.6-.193.9-.228.32 0 .64-.16.6-.296-.05-.137-.98-.433-1.7-.5-3.07-.296-6.28-.25-9.33-.433h-8.02a6.83 6.83 0 0 0-3.14.592c-.18.342.9.797.96 1.16.04.364-.76.888-.37 1.457.8.664 1.77 1.1 2.8 1.23a25.97 25.97 0 0 0 4.06.478 13.57 13.57 0 0 1 2.14.251 6.36 6.36 0 0 1 1.82.751c1.82 1.047 3.7 2.277 2.27 3.142-.13 0-.3.137-.32.25s.7.478 1.26.706c2.73 1.093.36 3.438-2.28 1.935-.5-.273-.57-.57-.9-.865-.56-.376-1.24-.553-1.9-.5-.17.026-.34.072-.5.137l-1.9.843c-.85-.5-.37-1.116.93-1.207-.9-.114-1-.592-.52-.82.47-.228 1.18-.455.88-.774s-.63-.364-.84-.546c-.2-.182.34-.683 1.16-.842s1.8-.32 1.85-.683l-5.13-.5c-.35-.027-.7-.08-1.04-.16-.33-.1-.65-.212-.96-.364-.48-.182-1.07-.34-1.66-.5a46.9 46.9 0 0 0-6.29-1.389 13.65 13.65 0 0 0-5.94.228c.46.4 1.9.774 1.7 1.16s-.96.32-1.73.296a37.56 37.56 0 0 1-4.56-.706c-1.25-.16-2.27.273-1.75.706a8.06 8.06 0 0 0 3.94.66c1.53.956 2.07 2.163-2.1 1.457-.98-.314-1.96-.572-2.96-.774h-1.8a2.96 2.96 0 0 1-1.76-.569c-.1-.1-.2-.223-.26-.36a1.1 1.1 0 0 1-.1-.437c-.22-.863-.67-1.65-1.3-2.277-.23-.273-2.87-1.822-2.8-1.9-.52.547 0 1.252.52 1.9.53.638.57 1.4-.66 1.753-1.07.135-2.13.332-3.18.592-.78.364-.12 1.07 1.27 1.366a6.14 6.14 0 0 1 .62.16c.13.046.25.134.34.25a7.1 7.1 0 0 0 2.13 2.284 7.12 7.12 0 0 0 2.9 1.154 75.7 75.7 0 0 0 8.65.706 13.87 13.87 0 0 1 7.43 3.2c.4.25.8.57.52.75-.3.182-.73.182-.98.32s0 .57.77.774c.75.192 1.5.32 2.28.387l4 .432c.8 0 1.9.274 1.9.57s-1.23.273-2.14.16l-4.3-.546a3.87 3.87 0 0 0-1.02 0c-.48 0-.25.387-.2.592s-.63.432-1.04.227-.14-.205-.25-.296c-.12-.1-1.76-.205-2.62-.4a1.42 1.42 0 0 1-.91-.569 4.51 4.51 0 0 1-1.16-2.983c0-.433-.12-1.025-1.32-1.275-1.15-.124-2.3-.062-3.44.182a38.41 38.41 0 0 1-3.94 0c-1.32 0-2.73.16-2.9.615s.27.546.52.843c.93 1.047 0 3.643-2.94 4.007a18.25 18.25 0 0 0-2.98.387s-.2 0-.25.137.23.296.52.432a12.29 12.29 0 0 1 2.01 1.162c.27.182.52.387.54.592.03.204-.22.387-.72.432a3.4 3.4 0 0 1-2.28-.706 3.02 3.02 0 0 0-1.3-.933 5.08 5.08 0 0 0-.89-.205 51.47 51.47 0 0 0-9.1-.615c-1.33-1.16-1.17-2.026 2.73-1.64 1.23.114 2.46.34 3.7.455a7.8 7.8 0 0 0 5.42-.933 4.24 4.24 0 0 0 .3-.66c.48-.82 2.5-1.48 1.53-2.277a12.26 12.26 0 0 0-3.1-1.343c-3.53-1.366-2.4-2.7-3.16-4.2l-2.87-5.578a3.45 3.45 0 0 0-1.7-1.73 18.02 18.02 0 0 0-12.89.615c-3.84 2.117-5.94 5.373-1.48 8.197 1.58 1.002 3.35 2.095 3.24 3.12 0 .25-.16.478-.6.615-.6.17-1.23.17-1.83 0-.6-.228-.47-.546-.72-.82-.7-.82-3.5-.9-5.17-1.32a47.49 47.49 0 0 1-5.38-1.8l-.6.842c-.1.122-.22.215-.36.27a.9.9 0 0 1-.46.047 1.8 1.8 0 0 1-.75-.182c-1.34-.57-1.48-1.412-3.03-1.913a24.65 24.65 0 0 0-5.51-.501c-1.93 0-3.85-.342-5.76-.387s-3.94.228-4.2.888c-.03.04-.04.088-.04.137s.01.096.04.137a2.27 2.27 0 0 0 .8.364c.85.204 1.67.55 2.4 1.025.43.433-.18.933-1.37.842a8.56 8.56 0 0 0-1.5 0c-.57 0-.4.387-.4.615 0 .57-1.82.9-3.35.637.7-.455-.27-1.184-1.75-1.457a21.08 21.08 0 0 0-5.67.273c-2.28.205-4.55.364-6.83.387a39.42 39.42 0 0 1-12-1.503c-3.45-.07-6.9.167-10.3.706a67.07 67.07 0 0 0-9.48 1.776c-3.66.98-4.18 4.235-11.2 3.028-.22-.027-.43-.088-.63-.182a.57.57 0 0 1-.16-.111.79.79 0 0 1-.1-.162l-.34-.797c-.2-.5-.36-1.093.57-1.412.94-.32 2.64-.342 3.35-.73s0-.934-.96-1.275c-1.15-.337-2.32-.603-3.5-.797a31.18 31.18 0 0 0-7.38-1.39 2.95 2.95 0 0 0-1.55.296c-.2.205.2.478.73.638s1.16.296 1.68.455c2.55.865.3 1.958.44 2.914.18 1.298.7 2.05-1.44 3.165a2.66 2.66 0 0 1-1.45.273 2.12 2.12 0 0 1-.71-.205c-.73-.296-1.32-.638-2.12-.933-.92-.347-1.9-.5-2.9-.478-2.5 0-2.75 1.457-5 1.822-.57 0-1.2 0-1.75.205s-1.03.296-.82.524c.2.134.4.234.64.296l2.82.956c.36.114.75.25.82.433s-.37.364-.87.432a9.29 9.29 0 0 1-1.6 0 32.72 32.72 0 0 1-6.1-1.184c-.62-.265-1.27-.463-1.94-.592-.7-.178-1.43-.122-2.1.16.18.136.3.273.27.4a19.36 19.36 0 0 0-2.69.433c-.52.32.3.75 1.26.934.95.182 2.07.227 2.93.478 1.67.455 1.42 1.502-.25 1.867-1.83.32-3.72.14-5.46-.524-.6-.374-1.28-.593-1.98-.637h-1.28a3.6 3.6 0 0 1-1.73-.524c-1.43-.774-2.93-1.685-2.46-2.573.23-.455 1-.9.5-1.366a10.26 10.26 0 0 0-4.3-.797 20.49 20.49 0 0 1-6.12-1.366c-.4-.182-.8-.4-.64-.638s1.48-.387 2.46-.364a74 74 0 0 1 8.47.342l7.4 1.138c7.03.888 17.46 0 15.94-2.664-1.53-2.664-12.12-2.482-19.24-3.37a66.99 66.99 0 0 1-7.79-1.548 57.87 57.87 0 0 0-18.876-2.027c-.98 0-2.46 0-2.4-.34s.25-.205.455-.273c.98-.446 2.043-.68 3.12-.683.57 0 1.115.114 1.684.137s1.253 0 1.368-.25-.343-.387-.844-.455-1.093 0-1.594-.16c-2.094-.273-3.3-1.366-5.44-1.23a.73.73 0 0 1-.456.706 2.98 2.98 0 0 1-1.844.114c-.524-.205-.228-.5-.25-.774s-.705-.66-1.64-.75a4.43 4.43 0 0 0-2.413.34 1.83 1.83 0 0 0-.433.547 5.03 5.03 0 0 1-3.256 1.138c.62-.36 1.174-.822 1.64-1.366 0 0 .137-.25 0-.32-.27-.058-.55-.058-.82 0-.836.04-1.636.35-2.277.888-.4.387-.547.82-.934 1.207a10.03 10.03 0 0 1-3.37 1.73c-.318-.546 0-2.004-1.024-2.4a14.73 14.73 0 0 0-5.123-.205 2.28 2.28 0 0 0-1.025.615 3.96 3.96 0 0 1-1.616.751 6.01 6.01 0 0 1-2.55 0c-.82-.25-.82-.73-1.64-.98-.868-.223-1.786-.134-2.596.25a.58.58 0 0 0-.115.2.55.55 0 0 0-.021.231c0 1.275-.66 1.662-4.35 1.98-2.8.228-5.738.16-8.538.4-.317.01-.632.064-.934.16-.32.137-.273.32-.4.478s-1.457.592-2.46.797-2.026.546-1.753.933c1.002-.114 1.935.32 1.708.683a3.84 3.84 0 0 1-2.277.73c-.797 0-1.776.182-1.958.478s.113.296.227.433c.638.75-1.002 1.64-3.165 1.753h-1.798a2.89 2.89 0 0 0-1.799.911l-2.732 2.7a52.9 52.9 0 0 0-8.994 1.754c-2.983 1.07-5.5 2.436-8.243 3.62-2.185 1.083-4.473 1.945-6.83 2.573-2.7.66-6.057.9-8.584 1.662a30.8 30.8 0 0 1-5.123 1.708c-.774 0-1.594.136-2.277.273s-1.457.387-1.4.683 1.002.5 1.16.82-.523.637-.888.933c-1.23 1.002 1.4 2.277 4.2 1.913.888.478-.615 1.115-1.9 1.525s-2.46 1.207-1.184 1.526c.994-.464 2.106-.615 3.188-.433 1.07.182 1.548.73.98 1.16s-2.277.752-2.8 1.275 1.093 1.14 2.7 1.253c7.263.546 13.66-3.507 20.856-3.006.592 0 1.252.137 1.412.365s-.16.4-.32.614c-.66.797 1.116 1.526 2.4 2.163 2.55 1.298 3.62 3.03 2.87 4.7-.296.66-.683 1.525.82 1.867a15.94 15.94 0 0 0 5.806-.82 43.98 43.98 0 0 1 5.351-.66c1.8-.137 3.757-.524 4.167-1.184-1.116-.16-1.252-.752-.73-1.16s1.48-.73 2.004-1.116c1.412-1.07-.433-2.277 0-3.438.75-2.277 9.38-2.277 10.018-4.417.342-1.116-2.277-1.98-4.235-2.8-5.1-2.026-5.85-6.24 1.526-6.83a64.39 64.39 0 0 0 7.172-.41 4.08 4.08 0 0 0 3.484-2.892c.774-1.73 2.868-3.53 7.126-4.35s10.702-.114 11.52 1.617-5.032 3.233-8.993 4.553c-4.554 1.55-7.013 3.917-5.556 6.125s7.605 4.008 13.66 3.666c5.42-.296 10.6-2.05 15.643-1.207a16.32 16.32 0 0 0 5.76.615c2.05-.4.957-1.594 1.708-2.413 1.503-1.64 8.352-.82 12.292.25 2.03.57 4.3 1.366 3.83 2.277s-2.87 1.16-5 1.4a194.43 194.43 0 0 1-27.958 1.64c-3.416-.136-7.674-.296-9.472.774-2.596 1.594 2.595 4.554-2.027 5.214-2.02.07-4.043.017-6.056-.16-4.964 0-6.148 2.664-5.83 4.554-2.65-.445-5.374.03-7.72 1.343a15.75 15.75 0 0 1-5.077 3.028c-5.032 1.48-12.022 0-18.215.183-5.123.205-11.385 1.548-14.618.113-1.4-.614-2.436-1.548-2.027-2.276s.706-1.07.456-1.594-.4-.456-.32-.706 1.025-.66 1.412-1.002c.865-.774-.98-1.617-.4-2.413.296-.388 1.138-.706 1.616-1.07s.48-.9-.5-1.047c-.648-.054-1.3-.016-1.936.114l-2.163.387a15.93 15.93 0 0 0-4.326 1.138c-.6.3-1.098.815-1.4 1.435l-.98 1.662a1.34 1.34 0 0 0-.273.979c0 .433.683.797 1.207 1.16 1.4.98 2.572 2.05 2.276 3.188-.592 2.277-7.627 2.983-12.318 3.87l-11.384 2.277a72.32 72.32 0 0 0-7.81 1.958 12.55 12.55 0 0 0-2.277.728c-.4.342.296.547 0 .843-.585.596-1.327 1.015-2.14 1.206l-.956.297-4.554 1.23a11.2 11.2 0 0 1-1.708.4 10.86 10.86 0 0 1-4.554-.137 3.64 3.64 0 0 0-1.16-.25c-.842 0-1.503.4-1.4.728s.66.592 1.092.843.73.637.342.933c-.98.435-2.05.622-3.12.547-3.325 0-10.383-.228-10.975 1.867 0 .296.205.66.956.683h.888c.34-.046.686-.007 1.008.112a2.1 2.1 0 0 1 .837.571c1.184 1.98 2.7 1.913 7.126 2.596 3.256.523 4.395 1.685 4.736 3.074a4.55 4.55 0 0 1 .312 1.868c-.028.638-.2 1.263-.477 1.834a4.55 4.55 0 0 1-1.181 1.482 4.56 4.56 0 0 1-1.682.872 24.52 24.52 0 0 1-5.009 0h-4.03c-6.82-.512-13.67-.512-20.492 0a11.97 11.97 0 0 0-5.283 1.207c-.155.1-.288.247-.4.407a1.45 1.45 0 0 0-.203.526 3.25 3.25 0 0 0 .01 1.412 3.26 3.26 0 0 0 .606 1.275c.34.5.82 1.025.364 1.548a7.11 7.11 0 0 1-1.73 1.025c-3.916 2.072-.296 3.734-1.16 5.852-.4 1-2.7 2.14-1.435 2.9 1.793.515 3.694.515 5.487 0a12.55 12.55 0 0 1 5.67-.273c1.457.546.57 1.8 2.095 2.277 2.026.706 5.578-.57 8.265-.32.66 0 1.207.182 1.82.273 2.555.278 5.14-.025 7.56-.888 1.115-.364 2.094-1.115 3.187-1.4s2.027 0 2.778-.32a7.27 7.27 0 0 0 2.118-1.161 4.48 4.48 0 0 1 .728-.478c.357-.142.722-.264 1.093-.365a14.54 14.54 0 0 0 4.85-2.277c.137 0 .25-.205.25-.318s-1.707-.48-1.64-.888.182-.228.32-.342a1.26 1.26 0 0 0 .32-.888c.204-1.32 2.276-2.618 4.895-3.392a31.8 31.8 0 0 1 4.189-.592c1.48-.25 2.277-.888 3.666-1.14.433 0 .9-.114 1.344-.205 1.388-.296 1.867-1.024 1.935-1.64s-.137-1.275.592-1.822a10.52 10.52 0 0 1 5.76-1.07 57.78 57.78 0 0 1 6.08.797c.347.057.7.057 1.047 0a1.39 1.39 0 0 0 .615-.273c2.12-1.027 4.492-1.423 6.83-1.14 0-1.275 2.846-2.48 6-2.277 1.32.034 2.624.272 3.87.706.683.228 1.32.547 1.275.934s-.182.34 0 .5c.1.146.26.257.433.32.98.523 2.277.9 3.302 1.434s1.502 1.025 2.276 1.503a64.96 64.96 0 0 0 15.165 5.328c.837.17 1.654.428 2.436.774a2.84 2.84 0 0 1 1.229 1.275c.57.933 1.093 1.958 0 2.823-.4.342-1.07.706-.797 1.048s1.526.478 2.277.296c.66-.13 1.268-.447 1.754-.9 2.14-1.958 0-3.757 2.163-5.6l3.78.933a4.33 4.33 0 0 0 1.253.205c1.07 0 1.73-.57 1.4-.98a4.76 4.76 0 0 0-2.072-.956c-2.493-.774-5.023-1.42-7.582-1.936-.4 0-.888-.182-.9-.387s.205-.227.25-.34-.4-.5-1.002-.592c-.645-.034-1.3-.034-1.935 0a11.39 11.39 0 0 1-5.58-1.275c-.615-.456-.66-1.025-1.093-1.503a9.53 9.53 0 0 0-4.553-1.958 17.17 17.17 0 0 1-2.62-.73c-.706-.296-1.138-.75-.774-1.184s1.138-.615 1.138-.98-.523-.523-.888-.774c-1.798-1.275 3.712-1.48 5.624-1.617a4.12 4.12 0 0 1 1.184 0c.683.137.57.547.296.866s-.57.57-.5.865.706.615 1.458.546c1.298 0 1.093-1.024 2.277-1.252a32.45 32.45 0 0 1 3.164 2.277c.388.32.684.73 0 .956-.182 0-.432.137-.57.205s.342.524 1.002.547c.663-.016 1.326.03 1.98.136a7.07 7.07 0 0 1 .934.456 8.51 8.51 0 0 0 2.276.409c4.258.4 5.602 2.14 9.837 2.756 1.4.204 2.914.295 4.166.614s2.277.98 1.594 1.55c-.228.204-.66.4-.797.637-.387.592 1.344 1.093 1.48 1.73 0 .227-.16.478-.182.728 0 1.344 4.736 1.822 5.852 3.097.273.34.318.683.728.98s1.98.706 2.277 1.184-.16.797-.296 1.207.32.956 1.32.933c-1.14 0-.25 1.07.296 1.207a10.8 10.8 0 0 0 3.871-.478c1.9-.592 2.276-1.366 1.844-2.277-.706-2.004-4.76-4.053-2.824-6.08 3.234-3.392 18.216-.432 24.272-3.028a6.01 6.01 0 0 0 2.869-2.504c1.503-2.277 2.846-8.8 7.218-10.155 3.554-1.116 14.894-.638 14.644 1.912 0 .32-.3.66-.25 1.002.13.797 2.1 1.435 4.12 1.594a32.24 32.24 0 0 0 5.94-.228l5.2-.523a5.93 5.93 0 0 0 1.23-.228c.82-.32.16-.956-.9-1.207-1.15-.206-2.33-.305-3.5-.296-2.94 0-6.2-.706-7.08-1.82 8 .888 14.82-2.14 22.9-2.277.38-.046.76-.046 1.14 0 1.02.182 1.02.774.64 1.16-1.78 1.753-7.72 2.7-7.52 4.7.14 1.16 2.48 2.277 4.83 2.96s4.55 1.412 6.83 2.004c2.2.308 4.33 1.084 6.22 2.277.98 1.093-.32 2.277-2.42 2.96-6.83 2.277-12.52-.342-20.08-.387s-14.16 1.457-21.6 1.502-16.64-1.206-21.468 1.093c-3.87 1.822-2.004 4.736 1.024 6.83a17.48 17.48 0 0 0 5.169 2.14c1.64.524 2.664 1.207 4.35 1.822a9.34 9.34 0 0 0 5.056.273c.84-.297 1.57-.855 2.07-1.594a4.18 4.18 0 0 1 1.47-.846c.55-.176 1.13-.237 1.7-.178a5.69 5.69 0 0 1 2.4.774 15.85 15.85 0 0 0 3.34 1.594c1.52.46 3.14.538 4.7.227 1.53-.455 1.62-1.4 2.8-1.98 1.57-.585 3.27-.703 4.9-.34 4.28.98.77 2.755 1.57 4.12s4.94 2.277 1.84 3.643c-.77.342-1.88.547-2.57.9-.68.364-.82.706-.7 1.093.1.387.52.728.75 1.093.45.706.23 1.457-.6 2.05-2.1 1.03-4.37 1.656-6.7 1.844a125.19 125.19 0 0 1-14.66.478 119.09 119.09 0 0 1-13.413.228c-4.086-.3-8.152-.808-12.18-1.548a87.19 87.19 0 0 1-10.201-1.594c-.705-.25-1.275-.547-1.98-.797a26.34 26.34 0 0 0-8.06-.797 20.55 20.55 0 0 0-3.574.205c-1.526.273-2.62.934-2.687 1.64s.865 1.412 2.277 1.754c-4.554 1.434-5.35 1.525-3.598 3.802-4.27.228-8.55-.063-12.75-.865a17.98 17.98 0 0 1-5.488-1.98l-5.032-2.596a16.37 16.37 0 0 0-7.696-2.277c-1.434 0-2.823.228-4.235.274a26.89 26.89 0 0 1-7.263-1.048 4.22 4.22 0 0 1-1.8-.683c-.774-.73 1.002-1.57.843-2.277 0-.432-.752-.82-.934-1.252-.478-1.093 2.027-2.027 3.87-2.892s2.87-2.413.478-2.87c-.757-.068-1.52-.068-2.277 0-6.603.205-13.4 0-19.923.615-9.968.686-19.865 2.163-29.6 4.417-2.6.8-5.22 1.443-7.878 1.958a45.55 45.55 0 0 1-12.592-.136c-1.912-.205-7.65-1.503-9.608-.843-.455.162-.85.455-1.14.843-2.276 2.277-9.654 5.988-14.663 7.514-4.258 1.275-10.018 2.686-9.927 4.736 0 1.047 1.776 1.844 2.095 2.868.728 2.4-5.784 4.395-10.747 6.08a78.7 78.7 0 0 0-24.318 14.208c-2.05 1.593-6.83 4.326-5.168 5.988 1.294.842 2.64 1.603 4.03 2.277 2.64 1.798 1.662 4.554-.342 6.83s-4.94 4.782-6.147 7.264c-.9 1.912-.843 3.916-3.188 5.692-.82.615-1.935 1.23-2.277 1.9s.365 1.275 1.025 1.82c4.554 3.507 11.885 5.35 17.555 8.288a34.18 34.18 0 0 1 13.48 11.385 8.38 8.38 0 0 0 2.92 3.438c1.27.858 2.747 1.355 4.276 1.434a38.19 38.19 0 0 0 9.996-1.275c6.83-1.275 13.98-1.207 20.924-2.095s14.4-3.3 15.278-6.648a80.82 80.82 0 0 0 8.038 2.277c3.46 0 5.624-1.958 8.515-2.664a23.8 23.8 0 0 1 9.108.205c2.664.4 5.578.956 6.58 2.277.384.693.543 1.5.455 2.277a2.29 2.29 0 0 0 .58 1.302 2.28 2.28 0 0 0 1.241.701c3.962 1.207 9.108-.615 13.252-.364 4.553.273 6.694 2.87 6.466 4.872-.182 1.617-3.757 3.052-2.004 4.554.98.843 2.64 1.55 2.62 2.528s-2.437 2.094-3.347 3.233 0 2.732 1.707 3.802 3.87 1.9 5.442 3.006a24.4 24.4 0 0 1 3.78 3.916 100.85 100.85 0 0 0 8.288 6.649c2.664 2.276 4.554 4.986 3.666 7.695a12.57 12.57 0 0 0-1.23 2.96c-.16 1.526 1.207 2.938 1.958 4.395 5.715 11.157-22.2 22.77-9.95 34.404 2.277 2.277 5.556 4.075 8.06 6.238a15.94 15.94 0 0 1 5.715 9.586c.73 4.987-2.277 10.747 1.116 15.642a45.34 45.34 0 0 0 11.681 10.975 20.7 20.7 0 0 1 4.781 4.554c2.527 3.12 4.554 6.83 2.618 10.1a15.73 15.73 0 0 0-1.115 1.981c-1.435 3.643 2.96 8.38 8.56 9.996 9.107 2.596 18.602-2.277 27.323-5.032 7.56-2.277 16.2-3.12 23.974-5.055 11.1-2.8 19.67-8.174 24.32-14.458 1.5-1.982 2.65-4.22 3.37-6.603.66-2.277-.46-4.167-.32-6.5a4.39 4.39 0 0 1 1.02-2.336c.57-.658 1.33-1.13 2.17-1.353a45.46 45.46 0 0 1 6.2-1.07 9.8 9.8 0 0 0 3.68-1.137 9.86 9.86 0 0 0 2.95-2.46c1.77-2.824.4-7.605-1.28-10.474-1.27-2.277-3.43-4.235-3.46-6.535-.02-2.3 3.35-4.098 5.26-6.33 3-2.707 6.9-4.18 10.93-4.12a35.45 35.45 0 0 0 7.24-.432c1.58-.413 2.97-1.324 4-2.596 8.13-9.313 2.84-19.24-1.82-28.87-3.7-7.582-6.38-15.642-.4-22.04 3.62-3.87 10.1-6.716 15.82-9.722 15.24-7.946 17.28-17.6 31-25.547 2.28-1.343 4.56-2.778 4.94-4.554.4-1.776-2.57-4.052-6.5-4.303a20.54 20.54 0 0 0-4.35.342c-9.1 1.4-26.2 6.398-32.42-.888-.2-.228-.4-.5-.3-.73s.54-.478.8-.73c.57-.592 0-1.343-.68-1.98a20.87 20.87 0 0 0-11.84-6.968 23.8 23.8 0 0 1-2.8-.592c-2.1-.728-2.28-2.026-2.94-3.165-2.53-4.553-14.3-7.696-15.37-12.227-.45-1.958.94-4.212-2.27-5.6-1.44-.637-3.53-.9-4.92-1.548-3-1.434-1-3.643-2.4-5.42-1.6-1.356-3.45-2.4-5.45-3.074a16.3 16.3 0 0 1-6.03-5.965 24.38 24.38 0 0 0-2-2.277c-.75-.683-3.05-1.64-3.24-2.277 0-.342.85-.706 1.48-.478.15.052.3.13.4.227a23.73 23.73 0 0 0 6.04 3.347c.38.144.8.144 1.18 0 .14 0 0-.204 0-.318s.6-.365 1.12-.365a6.6 6.6 0 0 1 1.5.228c1.07.178 2.1.516 3.07 1.002.3.223.58.483.82.774 1.8 1.822 6.6 3.142 8.1 4.895a3.97 3.97 0 0 1 .52 1.139c.53 1.03 1.4 1.837 2.48 2.277 1.14.57 2.6 1.002 3.74 1.548 5.12 2.573 1.55 6.057 5.37 8.72a31.05 31.05 0 0 0 5.69 2.436c3 1.04 5.6 3 7.45 5.578.73 1.07.82 2.414 1.82 3.438s2.7 1.57 3.3 2.62a3.88 3.88 0 0 1 .41 1.525 20.31 20.31 0 0 1 0 3.12 2.7 2.7 0 0 0 .16 1.434c.57 1.207 10.04 5.6 11.55 4.76.8-.433.36-1.14-.12-1.73 11.23.866 22.48-.82 29.28-4.37 1.66-1.053 3.52-1.736 5.47-2.004 1.5-.137 3.16 0 4.55-.137a10.85 10.85 0 0 0 3.96-1.388l21.8-11.6c2.05-1.093 4.2-2.277 4-3.848-.34-2.914-7.5-4.963-12.25-6.67-2.66-.98-5.2-2.277-5.1-3.7 0-.5 0-1.184-1.05-1.343-.33-.055-.67-.03-1 .073s-.6.28-.85.52a17.94 17.94 0 0 1-5.88 3.506 3.39 3.39 0 0 1-1.79.296c-1.14-.136-1.8-.9-2.94-.9-2.55 0-4.78 1.23-7.47 1.115-4.42-.182-3.4-1.8-2.66-2.914.18-.256.28-.562.28-.877s-.1-.62-.28-.876a1.34 1.34 0 0 0-.71-.547 2.57 2.57 0 0 0-1.59-.103 2.58 2.58 0 0 0-1.35.855c-.25.614-.32 1.388-1.66 1.57-.58.103-1.2.055-1.75-.14a3.52 3.52 0 0 1-1.46-.976c-.25-.66.34-1.252.9-1.822s1-1.184.5-1.82a9.4 9.4 0 0 0-3.89-1.685c-3.33-1.047-14.6-6.58-7.34-7.673a16.25 16.25 0 0 1 5.11.296c5.03.77 9.66 3.17 13.2 6.83.88 1.064 1.95 1.947 3.17 2.595a18.36 18.36 0 0 0 7.56 1.753 26.17 26.17 0 0 0 7.6-.82c.84-.248 1.7-.438 2.57-.57 3.35-.387 7.38 1.207 8.3 2.824.16.362.42.67.75.888a7.56 7.56 0 0 0 2.7.592l19.15 2.277c6.26.637 11.38-.683 17.46-.137a34.3 34.3 0 0 1 12.75 3.825c1.87.957 3.55 2.277 5.5 3.097a16.92 16.92 0 0 0 8.06.774c.32-.056.64-.056.96 0 .75.228.36.66-.14.888-2.4 1.093-6.46 2.55-3.1 4.554a9.81 9.81 0 0 0 4.55 1.047c3.5 0 5.05-2.527 8.33-2.004 2.62.433 2.78 2.072 2.55 3.188-1.68 8.243 16.1 17.168 22.95 26.4 2.83 3.78 5.08 8.47 12.9 10.52 7.5-3.894 10.54-9.677 8.4-15.756-.4-1.184-1.9-2.596 0-3.325a40.93 40.93 0 0 0 4.4-.98c1.32-.728.23-2.277 1.4-2.983a8.39 8.39 0 0 1 3.07-.796 31.99 31.99 0 0 0 13.4-5c2.73-1.662 4.55-4.28 10.6-3.984.9 0 1.87.182 2.7.136 3.1 0 3.3-1.912 5.26-2.777a14.84 14.84 0 0 1 10.18 1.001c1.68.843 2.7 1.867 4.35 2.733 1.07.57 2.27 1.024 3.55 1.525 6.62 2.778 10.34 7.013 8.8 10.04-.4.752-1 1.594.18 2.437 2.28 1.64 11.52 2.595 12.9 1.4a3.43 3.43 0 0 1 1.51-.788 3.4 3.4 0 0 1 1.7.037c.74.193 1.43.534 2.03 1.002 2.78 1.98 5.67 4.098 6.42 6.147a4.83 4.83 0 0 0 1.07 2.277c.57.494 1.17.95 1.8 1.366a11.27 11.27 0 0 1 2.05 2.095 21.12 21.12 0 0 1 4.55 9.29c.06 1.53.63 2.998 1.62 4.167 2.15 1.807 4.52 3.337 7.06 4.553a38.15 38.15 0 0 1 10.04 8.129 27.24 27.24 0 0 0 6.83 7.127c3.94 2.2 8.15 3.868 12.52 4.963a26.84 26.84 0 0 0 5.47 1.162c1.73 0 3.2-.4 2.9-1.298s-3-2.118-4.8-3.142c-3.46-1.98-4.07-4.372-6.4-6.558-3.46-3.28-10.3-5.738-15.7-8.493a35.37 35.37 0 0 1-10.98-8.174 9.82 9.82 0 0 1-2.14-3.87c-.27-1.23.43-2.55-.98-3.893-.36-.342-.86-.66-1.23-1.002-1.2-1.138-.52-2.14.2-3.005.12-.178.3-.326.48-.436a1.68 1.68 0 0 1 .6-.202c1.06-.026 2.12.184 3.1.615 4.14 1.64 6.4 4.053 9.72 6.102s8.45 4.03 12.6 6.102c1.46.75 2.96 1.617 3.26 2.46s-.14.956-.16 1.435.36 1.138 1.4 1.525c.82.27 1.7.332 2.55.182 2.28-.4 2.76-1.98 1.07-3.438-.3-.273-.7-.57-.64-.82.07-.25.4-.25.7-.318 5.92-1.4 12.9-2.277 10.86-6.83s-9.45-8.903-15.94-13.092-12.82-8.948-11.68-12.614c.78-2.482 6.83-2.846 12.43-2.277a9.15 9.15 0 0 1 3.65.956 1.36 1.36 0 0 1 .66.624 1.34 1.34 0 0 1 .11.902 1.38 1.38 0 0 0 .01.853c.1.277.26.52.5.695.68.524 2.46.956 2.83.57.36-.387 0-.523.2-.706s1.27 0 2 0c1.98 0 2.28-.956 3.03-1.662a9.1 9.1 0 0 1 3.85-1.594 98.64 98.64 0 0 1 12.34-1.684c3.4-.452 6.74-1.372 9.9-2.733 2.27-.865 2.27-2.618 4.55-3.506 1.72-.414 3.4-.916 5.08-1.503 2.66-1.594-.96-5.237 2.1-6.626 1.16-.523 3.23-.956 1.96-1.958-1.28-1.002-3.78-1.48-3.92-2.277-.13-.797 1.64-.615 1.44-1.184s-.64-.592-1.14-.888c-5.62-3.142-12.4-6.42-17.37-9.608-2.78-1.776-4.15-4.008-3.76-5.556s3.46-1.867 5.58-2.527c.66-.253 1.36-.384 2.07-.387a19.75 19.75 0 0 0 4.76.205c.75-.342-.16-1.207-1.5-1.708a16.67 16.67 0 0 0-4.31-.842 38.57 38.57 0 0 0-7.03 0c-1.63.23-3.3.23-4.92 0-1.72-.334-3.36-1-4.83-1.936-.57-.34-.84-.706-1.34-1.047s-1.4-.683-1.98-1.07-.94-.866-.57-1.14a1.81 1.81 0 0 1 1.16-.182l1.23.137c1.4-.018 2.75-.517 3.82-1.412 1.46-.706 3.03-1.366 4.38-2.095a3.95 3.95 0 0 1 1.25-.478 13.7 13.7 0 0 1 3.2 0c.96.052 1.92.182 2.87.387.98.25 1.93.706 2.07 1.116s-.4.524-.84.706c-2.28.933-2.4 1.844-.37 3.574 3.33-1.184 10.73-3.05 16.74.797 1.1.683 1.73 1.57.68 1.845-.57.136-1.52 0-2.05.227-1.23.4.82 1.753 2.92 2.277s4.1.57 6.2.956 4.7 1.412 4.55 2.277c0 .365-.68.57-.73.934-.04.364 1.73 1.548 2.7 2.277 2.03 1.73 0 2.9-.45 4.303 0 0 0 .296.22.433a3.02 3.02 0 0 0 .94.227c1.52.183 4.55.524 4-.364-.27-.478.25-.797 1.05-.933s3.14.227 3.67-.228c0 0 .16-.228.43-.25a2.58 2.58 0 0 1 .68 0c.7.17 1.46.1 2.12-.227.37-.273.2-.73-.36-1.14s-1-.592-1.5-.9c-1.75-1.048-1.57-1.845-2.43-2.847a16.27 16.27 0 0 0-2.96-2.459c-1.6-1.093-9.52-5.92-12.6-5.874 6.12 0 6.53-3.2 8.42-5.42.6-.706 1.98-.934 2.85-1.526.86-.592.93-1.252 1.8-1.73a8.04 8.04 0 0 1 2.07-.66 7.86 7.86 0 0 1 4.55.41 1.95 1.95 0 0 1 .91.693c.23.316.35.693.37 1.083a3.23 3.23 0 0 0 1.1 1.12c.45.274.97.43 1.5.452a2.57 2.57 0 0 0 1.12-.137c.75-.266 1.47-.617 2.14-1.047 2.22-1.766 4.58-3.342 7.06-4.714a10.49 10.49 0 0 0 5.01-4.371c1.16-1.814 1.86-3.878 2.06-6.02s-.12-4.302-.92-6.297c-.66-1.867-2.28-4.258-7-5.806-6.26-2.095-14.44-1.435-18.86-4.122-2.82-1.684-.93-3.028 1.07-3.893l15.58-6.83c2.68-1.268 5.67-1.712 8.6-1.275 2.9.342 6.06 1.344 9.1 1.845 3.32.422 6.68.514 10.02.273a81.57 81.57 0 0 1 11.09 1.138 17.93 17.93 0 0 1 3.03.592c1.02.296 1.96.843 1.82 1.16s-2.28.183-2.46.638 1.62 1.184 3.03 1.412c3.5.592 4.55-.775 7.6-.683 1.26 0 2.8.318 3.94.273s1.46-.706.12-1.23a9.93 9.93 0 0 0-2.28-.25 4.68 4.68 0 0 1-2.28-.569c-.1-.08-.16-.194-.18-.32-.14-.433-.23-.888.36-1.093a9.39 9.39 0 0 1 1.53-.182c3.28-.296 3.05-1.958 5.94-2.277a29.32 29.32 0 0 1 10.93 1.32c4.56 1.276 7.33 3.598 9.93 2.277.7-.457 1.46-.782 2.28-.956 1.1-.182 2.9 0 2.84-.706 0-.205-.23-.432-.27-.615-.14-.523.8-.728 1.87-.774 2.2-.04 4.42.198 6.58.706a3.54 3.54 0 0 1-1.14 1.111 3.56 3.56 0 0 1-1.51.506 3.26 3.26 0 0 0-1.3.432c-.34.342.2.934.5 1.435s.25 1.047-.87 1.024c-1.1-.022-2.82-.637-3.87-.614a1.32 1.32 0 0 0-.95.364 8.97 8.97 0 0 1-4.2 2.436c-1.96.478-4.35.774-5.1 1.776-.44.57-.3 1.412-1.87 1.48h-1.87c-2.28.205.53 2.277-.68 2.87-.92.252-1.87.4-2.82.4-2.5.433-1.64 2.277 0 3.848 4.55 4.554 8.28 8.834 13.66 13.547.7.65 1.58 1.105 2.52 1.32a2.45 2.45 0 0 0 1.69-.205l1.96-.933c.32-.16.66-.32.52-.615-.32-.375-.7-.7-1.14-.934-.73-.5-1.3-1.047-1.18-1.4.1-.365 1.14-.5 2.28-.183.52.16.97.388 1.5.547 1.9.592 3.12 0 2.68-.75-.43-.752-1.77-1.64-2.27-2.414s.25-1.457 2.16-1.002a10.62 10.62 0 0 0 5.53.843c1.14-.32.78-1.298-.8-2.277-.37-.205-.8-.4-1.12-.615-1.02-.706-.4-1.207.7-1.366s2.55 0 3.4-.296c.87-.296.84-1.002-.64-1.617-.47-.205-1-.34-1.52-.523-3.1-1.025-2.5-1.685-2.98-2.55a25.53 25.53 0 0 0-3.44-3.347c-1.37-1.4-1.7-2.64-1.1-3.597.16-.356.42-.657.75-.864a2.08 2.08 0 0 1 1.1-.297 19.89 19.89 0 0 1 3.92 1.229c.34-.455.5-.98 1.25-1.275a6.82 6.82 0 0 1 3.8 0 2.94 2.94 0 0 0 1.23 1.776c2.28.182 3.7-.273 3.65-1.138 0-.274-.2-.592 0-.82.43-.66 3.2-.32 5.53.364 2.23.622 4.36 1.582 6.3 2.846.52.416 1.08.775 1.68 1.07a9.12 9.12 0 0 0 3.55.774 4.38 4.38 0 0 0 2.12-.478c2.28-1.07 3.28-2.596 5.42-3.7 3.06-1.27 6.43-1.604 9.68-.956 1.27.16 12.56 2.277 12.72 3.3-.3-1.912-5.46-5.578-11.38-7.33-1.48-.433-2.94-.683-4.42-1.025a17.25 17.25 0 0 1-4.16-1.434c-.53-.274-.9-.615-.7-.752.44-.12.9-.12 1.35 0 2.27.342 4.55 1.23 6.83 1.776 2.8.683 10.7 1.503 9.95 0a6.37 6.37 0 0 0-2.03-1.48 6.34 6.34 0 0 1-2.03-1.48c-.27-.455.32-.728 1.4-.637a7.5 7.5 0 0 1 2.12.501c2.28.956 1.34 2.026 3.6 3.028a8.7 8.7 0 0 0 4.55.523 8.83 8.83 0 0 1 4.56.319c2.73.98 2.48 2.46 5.2 3.46 1.26.388 2.56.632 3.87.73a37.19 37.19 0 0 1 6.17 1.343 36.09 36.09 0 0 0 5.01 1.389c1.57.228 2.28-.34.87-1.025-.5-.227-1.14-.4-1.7-.637-1-.387-1.7-.9-1.66-1.23.13-1.093 7.62.547 9.54.16 3.02-.32-6.52-2.46-9.36-3.006zm-554.6 17.942c-1.47-.486-3-.77-4.55-.842-1.94.205-1.12 1.503.55 2.14 1.66.638 3.96 1.16 4.55 2.026s-1.9 1.98-1.32 3.097c.4.774 2.1 1.343 3.26 2.004s1.66 1.707 0 1.958h-2.17a51.62 51.62 0 0 1-6.24.706c-3.32-.32-4.8-2.687-8.06-2.62-1.4 0-2.4.57-3.84.547a5.54 5.54 0 0 1-3.81-1.662c-1.6-1.55-3.2-3.325-1.73-4.714.94-.865 3.03-1.525 3.14-2.504.12-.98-2.57-2.277-5.07-2.983a7.22 7.22 0 0 1-2.55-1.093c-.57-.57 0-1.16-.25-1.753-.4-1.047-2.96-1.8-4.92-2.596s-3.33-2.163-1.35-2.732c-1.63-1.184-3.27-2.687-1.38-3.597a9.16 9.16 0 0 1 2.02-.501c2.7-.638 12.84-1.526 13.37-2.733.27-.614-.34-1.4.66-1.844s3.78 0 4.1.638-.46 1.32.93 1.548c.63.035 1.27-.01 1.9-.137a14.3 14.3 0 0 1 7.22 1.571c1.9.888 3.98 1.9 4.03 2.96.04 1.07-3.46 1.9-5.5 1.025a5.57 5.57 0 0 0-2-.82c-1.3-.16-1.9.5-1.76 1.025s.4 1.16-.6 1.4c-1.7.433-4.3-.842-6.17-.523s-.75 1.343.8 1.776c1.54.432 3.5.523 5.16.865 3.83.797 5.3 3.12 2.7 4.212 2.78-.342 5.58-.342 8.36 0 2.84.387 5.58 1.435 5.94 2.62s-2.7 2.05-5.4 1.525zM923.824 177.1a3.61 3.61 0 0 0-.888-.136h-.706c-.354-.01-.7-.1-1.002-.296l-2.14-1.184c-.182 0-.387-.228-.296-.365s.592-.227.98-.205.66.16.98.228a11 11 0 0 0 4.804 0c.234-.034.472-.034.706 0 .638 0 .433.66 1.116.615.34 0 .455-.205.66-.342.297-.135.62-.205.945-.205s.648.07.945.205c.114.182 0 .387 0 .57s1.252.75.774 1.115-.57.205-.75.342 0 .523.4.75.5.57 0 .73c-.448.095-.916.03-1.32-.182-.296-.16-.433-.387-.683-.547a19.84 19.84 0 0 0-4.531-1.093z"/><path d="M898.708 168.025c-.25 0-.524.136-.57.25s.82.25 1.048.455 0 .296.114.433.387.228.592.342c1.115.592-.752 1.548 0 2.277a4.78 4.78 0 0 1 .501.387c.204.227 0 .523.5.683.667.174 1.373.118 2.004-.16a9.16 9.16 0 0 1 1.57-.728l.5-.137c.638-.273.16-.683.205-1.047s1.503-1.116.9-1.594c-.137 0-.365-.182-.387-.32s.683-.364.797-.592-1.754-.478-1.867-.9 0-.25-.114-.34a2.09 2.09 0 0 0-.57 0 26.94 26.94 0 0 0-5.237 1.002zm1.96-5.01c-.327.023-.65.092-.957.204-.432.183-.227.48 0 .684s.683.432.615.66-.387.364-.615.546-.318.4 0 .524 1.708-.137 2.277 0c.273 0 .342.228.592.32a2.28 2.28 0 0 0 1.594-.205.53.53 0 0 0 .145-.153.51.51 0 0 0 .073-.198.55.55 0 0 0-.01-.21.68.68 0 0 0-.093-.2c-.114-.25-.273-.5-.137-.75s.82-.615.9-.933-.9-.866-.842-1.344a1.94 1.94 0 0 0 0-.341.43.43 0 0 0-.205-.25c-1.07-.637-1.298.205-1.435.4-.212.33-.492.6-.822.823a2.73 2.73 0 0 1-1.1.407zm217.403 172.998a1.56 1.56 0 0 1-.21.844c-.15.255-.37.46-.64.6a28.35 28.35 0 0 1-3.46.592c-3.46.865-.45 4.554-3.8 5.556-1.9.546-4.67-.182-6.83.182s-2.78 1.73-4.37 2.505c-2.46 1.252-7.33 1.366-7.77 3.256-.3 1.23 1.64 2.276 3 3.53 3.44 2.846 3.6 6.603.36 9.107-1.05.66-2.03 1.423-2.93 2.277a4.1 4.1 0 0 0-.8 2.869c.16 5.647 4.55 11.6 12.1 16.143.66.437 1.38.775 2.14 1.002a7.87 7.87 0 0 0 5.6-.956c7.24-4.076 7.22-10.77 9.8-16.37 1.7-3.734 4.74-7.218 4.67-11.134a5.71 5.71 0 0 1 .29-3.142c.8-1.32 3.1-2.277 2.55-3.825-.54-1.55-4.55-2.983-3.7-4.418.53-1.024 3.78-1 4.88 0 1.13-.364 1-1.32.4-2.072s-1.55-1.457-1.78-2.276.34-1.503.48-2.277c.27-1.754-1.73-3.552-3.67-5.17-6.05-5.077-6.15.956-6.3 3.188zm235.5-53.484c-1.54 1.184 1.07 3.393 4.06 4.873l5.96 2.778c1.96.956 3.05 1.73 4.56 2.595a7.64 7.64 0 0 1 3.23 2.437c.1.405.33.765.66 1.024a7.07 7.07 0 0 0 2.03.683 14.56 14.56 0 0 1 8.74 5.852 28.62 28.62 0 0 0 9.7 6.307 7.9 7.9 0 0 1 2.78 1.548c.27.32.25.638.38.98.8 1.134 1.86 2.05 3.1 2.664l12.36 7.947a39.93 39.93 0 0 0 9.1 4.28c.36.128.74.205 1.12.228.34 0 .6 0 .54-.296a.79.79 0 0 0-.18-.273c-.16-.228 0-.456.28-.524a2.23 2.23 0 0 1 1.22.137c.44.182.76.432 1.17.637a3.34 3.34 0 0 0 1.52.32c.48 0 .75-.228.73-.478s-.18-.433-.2-.638c-.03-.205.25-.387.68-.273s.4.16.6.205.77 0 .75-.25-1.4-1.457-1.77-2.026c-.4-.57-.9-1.617-.37-2.277.14-.16.34-.273.34-.455s-.16-.433-.48-.638a11.4 11.4 0 0 0-1.4-.57c-2.14-.888-1.6-1.48-2.1-2.277-.4-.535-1-.9-1.64-1.025-.9-.205-1.26.228-2.1 0s-1.34-1-2.12-1.502c-.3-.202-.63-.377-.98-.524-.97-.524-1.57-1.207-1.54-1.753.02-.547.18-.683-.37-1.025-.73-.298-1.54-.298-2.27 0a19.33 19.33 0 0 1-2.67-.865c-.82-.364-1.55-.843-1.68-1.298-.14-.455.13-.637 0-1.002 0-1.115-2.5-2.277-4.35-3.233-2.2-.713-4.28-1.7-6.22-2.937-.18-.228-.25-.433-.45-.66-.9-1.07-3.85-1.64-4.97-2.687-.27-.335-.6-.613-.98-.82-1.1-.5-2.64-.228-3.78-.706-.24-.1-.47-.247-.66-.432a7.33 7.33 0 0 1-1.36-1.344 9.33 9.33 0 0 0-.41-.706c-.28-.303-.65-.517-1.05-.614-.4 0-.96-.16-1.16-.365a3.91 3.91 0 0 1-1.4-.592c-.23-.16-.4-.34-.62-.5-1.24-.578-2.54-1.042-3.87-1.4-2.05-.843-2.55-2.277-4.73-3.05-.55-.183-1.14-.274-1.64-.48s-1.05-.888-1.6-1.343a11.18 11.18 0 0 0-5.17-1.617 21.85 21.85 0 0 1-5.5-1.115c-.68-.296-1.27-.66-2-.9-.57-.205-1.2-.213-1.78-.023zm105.06 11.794c0 .296.87.615 1.48.706a8.72 8.72 0 0 1 1.9.387c.7.296.9.75.66 1.024a2.73 2.73 0 0 1-1.36.456l-4.9.82c-1.25.228-2.6.5-2.82 1.207v1.093c-.46 2.277-9.6.4-10.38 2.596-.23.614.3 1.4.25 2.05-.07.66-1.2 1.138-2.64.637s-1.62-1.092-2.58-1.616a4.84 4.84 0 0 0-2.26-.625 4.86 4.86 0 0 0-2.29.511c-.68.683-.18 1.73.32 2.7a23.28 23.28 0 0 0 6.49 8.287 2.63 2.63 0 0 0 .61.433 2.29 2.29 0 0 0 1.27.197c.43-.056.83-.235 1.17-.516l5.64 6.83a13.72 13.72 0 0 1 3.6-.273c1.45.076 2.86.532 4.08 1.32.5.532 1.12.964 1.8 1.275a4.23 4.23 0 0 0 1.36.183c1.53.045 3.06-.093 4.56-.4a10.75 10.75 0 0 1 2.45-.456c1.1-.024 2.2.268 3.15.843.82.57.93 1.298 2.02 1.73 1.1.433 2.05 0 3.17.32a10.73 10.73 0 0 0 1.57.364c.77 0 .73-.478.84-.865.37-1.525 4.87-1.275 5.33-2.778.34-1.115-1.73-2.823-1.12-3.825.35-.546 1.42-.774 1.62-1.343.52-1.32-3.5-3.7-2.28-4.554.73-.57 3-.4 2.87-1.252-.1-.843-3.18-1.867-4.55-2.938s-.82-2.072-2.05-3.12-4.05-1.935-4.74-3.005c-1.1-1.708 4.56-1.23 4.56-2.733 0-.34-.32-.797-.98-1.16a6.97 6.97 0 0 0 3.78-1.093 31.3 31.3 0 0 1-5.35-1.89c-2.87-1.434-5.63-4.235-9.57-4.257-3-.25-4.44 2.094-6.67 2.732zM1427.42 329a4.58 4.58 0 0 1 1.9-.732 4.51 4.51 0 0 1 2.02.163 10.05 10.05 0 0 0 2.41.478c.8 0 .87-.57 1.48-.774 1.28-.387 3.6.728 5.33 1.548 3.5 1.5 7.15 2.583 10.9 3.256a33.04 33.04 0 0 0 9.85 1.025c.55 0 1.08-.183 1.7-.205 1.1.001 2.18.24 3.17.7a7.53 7.53 0 0 1 2.59 1.964 2.74 2.74 0 0 0 .4.933 6.87 6.87 0 0 0 3.6 1.526c1.35.144 2.7.364 4.03.66 1.36.387 2.82 1.32 2.5 1.867 0 .16-.36.273-.38.455 0 .706 2.57 1.412 3.2 2.277s-1.3.934-2.76.387a40.58 40.58 0 0 1-3.92-2.026c-3.75-1.8-8.06-1.548-12.22-2.55-3.1-.75-6.17-2.277-9.1-2.664-1.66-.228-3.14 0-4.83-.342-2.8-.387-5.7-1.662-8.54-2.163-1.6-.296-3.1-.318-4.7-.57a8.92 8.92 0 0 1-4.37-1.708c-.27-.335-.6-.614-.98-.82-1.48-.66-2.27.455-3.55-.342-1.05-.615-.1-2.026.27-2.345zm66.04-7a7.59 7.59 0 0 1 .47 2.049 8.68 8.68 0 0 0 0 2.277c.25.58.6 1.108 1.07 1.55.45.44 1 .8 1.57 1.023.52-.2 1.08-.245 1.62-.16 1.57 1.708.66 3.097.7 4.554.01.395.1.782.3 1.13a2.6 2.6 0 0 0 .78.874c1 .754 2.23 1.14 3.48 1.093.66-.137.73-.615 1.03-.957.32-.188.68-.287 1.05-.287.38 0 .74.1 1.06.287 1.4-.478-2.27-2.277-2.27-3.415 0-.478.72-.73.66-1.23-.07-.5-.73-.933-1.14-1.4s-.5-1.047.3-1.024a4.31 4.31 0 0 1 2.39 1.138c2.85 2.277 5.86 4.896 5.8 6.968a3.42 3.42 0 0 0 1.59.469c.56.024 1.12-.1 1.62-.333.53-.432.46-1.093.84-1.594.4-.322.88-.523 1.38-.575a2.59 2.59 0 0 1 1.47.279l-4.55-3.574c-1.15-.926-2.35-1.778-3.6-2.55a26.49 26.49 0 0 0-8.27-3.074c.23-1.298 4.74-.274 6.24-1.048.73-.387.57-1.138.96-1.685.47-.314 1.03-.48 1.6-.48s1.13.167 1.6.48c.77 0-.4-.865-1.37-1.138-2.15-.716-4.45-.888-6.7-.5a2.88 2.88 0 0 1-1.62 0c-.75-.182-1.34-.706-2.1-.865a12.02 12.02 0 0 0-1.82 0c-.52-.03-1-.213-1.4-.526a2.53 2.53 0 0 1-.87-1.227c0-.592.36-1.184-.46-1.867-.4-.365-1.13-.73-1.1-1.025s.82-.296 1.5-.228l8.56.98c1.16.058 2.3.377 3.3.934a3.96 3.96 0 0 0 .78.524c.68.273 1.1 0 1.57-.137 1.25-.273 4.07.888 4.85.364.36-.25 0-.706.13-1.047.14-.342 1.23-.752 1.92-1.093.68-.342.68-1.207-.62-1.73-.36-.155-.74-.234-1.14-.234a2.84 2.84 0 0 0-1.13.234c-.46.25-.62.637-1.07.888-1.62.428-3.3.475-4.95.136l-7.03-.75a4.68 4.68 0 0 1-1.6-.387c-.34-.23-.66-.498-.94-.797-1.38-.8-3-1.018-4.55-.638-2.62.524-4.56.615-4.3 2.414l2.4 6.922zm-38.2-78.668c0 .318-.55.592 0 .956.3.17.6.293.93.364a7.09 7.09 0 0 0 4.3 0 1.24 1.24 0 0 0 .27-.182c.52-.455.34-1.16-.52-1.867a4.52 4.52 0 0 1-.87-.706c-.64-.774.96-1.07 1.03-1.753a5.63 5.63 0 0 0-.45-2.141c-.28-.677-.7-1.288-1.24-1.798 0-.114-3.14-2.96-3.48-2.55-.75 1.117-1.22 2.398-1.37 3.734-.27 1.07-2.27 1.616-1.84 2.846s3.23 2.2 3.23 3.097z"/><path d="M1408.2 246.077l-5.12.637c-.9.114-1.9.274-1.94.775 0 .9 3.1 1.867 3.92 2.9a2.3 2.3 0 0 0 .73.774 4.46 4.46 0 0 0 .84.274 6 6 0 0 0 4.55-.57 9.07 9.07 0 0 1 2.74-1.753c.63-.182 1.5-.4.97-.888-.52-.478-2.5-.842-2.27-1.275s.32-.205.32-.364-.82-.5-1.42-.592c-.97-.184-1.98-.184-2.96 0m55.3 13.39c-.2.5-.78.888-.85 1.412s.55 1.32 1.82 1.73c-1.3.063-2.6-.262-3.73-.933-.66.25 0 .956.9 1.48a24.07 24.07 0 0 1 2.66 1.548c.47.484.85 1.047 1.12 1.662a3.98 3.98 0 0 0 2.5 1.412c.26-.295.62-.486 1-.536a1.62 1.62 0 0 1 1.11.263c.1.047.2.127.28.227a.69.69 0 0 1 .11.342c0 .546-.32 1.024 0 1.616a3.57 3.57 0 0 0 1.15 1.067c.45.268.96.432 1.5.482.57.04 1.15-.005 1.7-.137a13.67 13.67 0 0 1 7.49 1.571l1.6.9c1.12.537 2.28.986 3.46 1.343a11.94 11.94 0 0 0 2.28.547c.7 0 1.23-.182.9-.547-3.28-1.115-4.05-3.506-7.36-4.554a18.94 18.94 0 0 0-2.48-.5 20 20 0 0 1-8.01-2.71c-1.62-1.207-1.44-2.277-.64-3.233s2.14-1.435 2.7-2.277 0-2.277-1.98-3.324a7.13 7.13 0 0 1-2.41-1.253c-.3-.4.18-.683.13-1.07-.04-.387-1-1.07-2.05-1.32-1.04-.25-2.05-.137-2.27.25-.5 1.343-3.4-1.4-4.72-.25s2.5 3.552 2.08 4.78zm28.94 28.736a3.24 3.24 0 0 0-.93-.137c-1.05-.108-2.12-.023-3.14.25-.77.365-.7 1.048-.62 1.708l.35 2.846c.02.133.1.254.2.348a.63.63 0 0 0 .35.176 1.34 1.34 0 0 0 .4 0c.98-.055 1.9-.45 2.62-1.116a4.28 4.28 0 0 1 1.74-.554 4.31 4.31 0 0 1 1.81.213l1.4.455 1.23.137a4.16 4.16 0 0 1 2.28 1.206.8.8 0 0 1 .21.275c.05.107.08.223.08.34a.8.8 0 0 1-.29.615c-.25.182-.57.364-.5.638s1.34 1.047 2.27 1.388a11.48 11.48 0 0 1 2.99 1.184 3.54 3.54 0 0 0 .54.388 2.85 2.85 0 0 0 1.55.113c1.28.018 2.52.414 3.58 1.14a3.26 3.26 0 0 0 1.68-1.025.25.25 0 0 0 .07-.182.25.25 0 0 0-.07-.182 4.47 4.47 0 0 0-.9-.364c-1.32-.57-1.73-1.435-1.4-1.96s1.16-.82 1.7-1.252.68-1.116-.25-1.82c-.44-.275-.85-.57-1.26-.888-.38-.4-.16-.752-.3-1.14s-1.07-1.093-1.9-1.616c-.98-.716-2.12-1.17-3.33-1.32-1.73 0-.6 1.457-1.23 1.958s-1.45.524-3.16.5a53.43 53.43 0 0 1-5.62-.319c-1.28-.592-.64-1.57-2.15-2.003zm-27.35-6.08a1.81 1.81 0 0 0-.04.768 1.69 1.69 0 0 0 .29.712c.32.57.4 1.16-.34 1.366a12.82 12.82 0 0 1-1.9 0c-1.76 0-2.5.933-1.64 1.958 2.64.387 3.4-.888 4.85-1.548.34-.127.67-.288.98-.478.4-.274.5-.684.7-1.048a5.04 5.04 0 0 1 .87-.956c1.55-1.435 5.33-3.097.77-5.715a4.84 4.84 0 0 0-3-.706c-.9.25-.16 1.116.18 1.8.9 1.958-1.28 2.618-1.7 3.848zm21.65-2.278c2.28-.136-2.87-2.163-3.23-2.595-2.05 1.184-1.37 2.482-1.96 4.144a.43.43 0 0 0 0 .16c.16.32 1.14.433 1.5.273.37-.16.7-.82.9-1.275s.73-.888 1.87-.797a4.51 4.51 0 0 0 .93.091zm75.94 48.134a29.02 29.02 0 0 0-4.9-.979c-1.52-.137-2.87 0-3.05.797s1.14 1.9 2.82 2.276c1.7.387 2.78 0 4.28.638 1.17.585 2.3 1.24 3.4 1.958 2.05 1.002 4.92 1.047 6.4 2.277l-8.13-.478c.8 1.434 5.76 2.277 6.83 3.825a2.48 2.48 0 0 0 .54.729c.6.405 1.32.583 2.03.5a1.01 1.01 0 0 0 .51-.236c.15-.125.25-.288.3-.47a7.17 7.17 0 0 1 3.92 1.434 15.82 15.82 0 0 0 3.55 2.14c2.28.82 4.55.433 6.5 1.526 1.7 1.172 3.7 1.828 5.78 1.9.86 1.065 2.06 1.798 3.4 2.072a7.96 7.96 0 0 0 1.07 0 11.54 11.54 0 0 1 6.28 2.504c1.32 1.237 2.58 2.544 3.76 3.917l3.4 3.028c.96 1.024 1.48 2.117.64 2.596-1.2-.706-2.7-.57-3 0s0 1.275-.57 1.707c4.03 1.16 5.95-1.002 9.98.273 3.07.98 5 3.234 8 4.554a13.64 13.64 0 0 0 7.03.979 3.68 3.68 0 0 1 1.57 0c.44 0 .85.32 1.28.478 2.05.797 4.17.866 4.76.16s-.84-2.846.52-3.438l4.9 1.662a16.02 16.02 0 0 0 1.73.524l1.82.296a16.47 16.47 0 0 1 6.42 2.732 16.7 16.7 0 0 0 3.67 2.527c.93.387 1.9.57 2.77.98 1.53.73 2.14 1.867 3.62 2.64s3.2.9 4.56 1.73c.35.27.7.52 1.1.75 1.44.797 2.64.205 4.2.66.55.17 1.08.382 1.6.637a32.67 32.67 0 0 0 6.54 1.89h.77c.12 0-.32-.5-.75-.75l-5.7-2.983-1.28-.9c-.86-.592-1.84-1.138-2.84-1.685l-9.7-5.26c-.52-.254-1-.56-1.46-.9-.4-.365-.55-.73-.93-1.093-1-.956-3.33-1.708-4.17-2.64s1.4-1.344 1.66-2.277c.28-.934-2.27-2.55-4.2-2.892a10.72 10.72 0 0 1-1.57-.296c-1.23-.433-1.82-1.298-2.9-1.912-2.08-1.116-4.56-.592-6.54-1.776-1.57-.934-1.14-2.072-2.8-2.938a28.01 28.01 0 0 0-5.72-2.618 7.46 7.46 0 0 1-1.66-.547c-.86-.455-1.07-1.115-2-1.548-.57-.25-1.18-.397-1.8-.432-4.2-.615-8.86-2.983-13.32-4.28-1.5-.433-3-.75-4.55-1.252a70.22 70.22 0 0 0-8.54-3.302c-1.5-.32-2.82-.25-4.37-.706s-3-1.4-4.56-1.958a20.43 20.43 0 0 0-3.98-.842c-.88-.147-1.77-.147-2.64 0a1.62 1.62 0 0 0-.82.66c-1 1.226-2.27 2.226-3.7 2.937-.44.195-.92.278-1.4.242a2.98 2.98 0 0 1-1.36-.447 2.59 2.59 0 0 1-.52-.66 6.05 6.05 0 0 0-3.46-1.844 5.3 5.3 0 0 1-1.16-.273 1.8 1.8 0 0 1-.94-.888c-.88-1.708-1.9-3.416-3-5.146-.32-.515-.8-.908-1.37-1.116a5.83 5.83 0 0 0-1.04-.25c-2.5-.236-5-.6-7.47-1.093zm-32.2-11.43c.4.4.84.82.66 1.093s-.18.136-.2.25c-.03.114 1.27.797 1.66 1.252s-.25.66-.27 1.025c-.03.364.38.706.82 1.07a16.62 16.62 0 0 0 4.25 2.824c.57.25 1.5.432 1.4.136a13.86 13.86 0 0 1-2.91-2.004c-.75-.614-1.48-1.297-1.37-1.798.12-.5 1.6-.547 2.5 0 .32.182.5.4.82.614.66.4 1.8.57 2.1.296s-.25-.888-1.07-1.206-1.1-.32-1.66-.478a3.04 3.04 0 0 1-1.39-.684c-.52-.683 1.6-.478 1.55-1.047s-.6-.683-1.2-.865a1.71 1.71 0 0 0-.7-.151c-.25 0-.5.052-.7.15a.64.64 0 0 1-.36.276c-.15.046-.32.037-.46-.026a1.61 1.61 0 0 1-.41-.25c-1.37-1.184-.4-2.414-1.78-3.575a2.09 2.09 0 0 0-1.48-.432c-.18 0 0 .296 0 .478.37.842-.47 1.252-.43 1.98.02.4.34.797.66 1.07zm1.78-4.826l1.46 1.98a3.13 3.13 0 0 0 .91.888c.84.5 2.28.683 2.53.296s0-.25-.12-.4c-.1-.16-1.27-.5-1.68-.82-.14-.132-.26-.277-.37-.433a3.67 3.67 0 0 0-2.09-.979m-38.7 34.964c.7 0 1.7.364 2.44.34s.9-.387 1.57-.432a12.85 12.85 0 0 0 1.57 0c.98-.137 0-1.298.87-1.503a3.89 3.89 0 0 1 2.45.751c.7.48 1.14 1.002 1.87 1.458a3.43 3.43 0 0 0 2.44.592c1.05.455 1.52 1.275.84 1.525a5.45 5.45 0 0 1-2.53-.227c-1.9-.6-3.9-.835-5.9-.66-1.42.387-1.7.98-3.97 0-1.1-.32-3.27-1.707-1.66-1.844zm27.96 6.602a3.43 3.43 0 0 1-.84-.296c-.64-.342-.48-.774 0-.888 1.46-.32 4.28.82 5.78.524.96-.183 1.23-.888 2.5-.706s2.4 1.047 3.57 1.206c.4.074.83.074 1.23 0l5.85-1.32a3.99 3.99 0 0 1 1.76 0c.86.182 1.75.66 2.64.865a5.25 5.25 0 0 0 2.59-.182 4.28 4.28 0 0 1 2.94.592c.52.4.4.82 0 .98a6.17 6.17 0 0 1-1.87 0 109.17 109.17 0 0 0-11.24 0 8.3 8.3 0 0 0-2.62.433c-.55.227-.84.614-1.53.75-2.02.273-7.97-1.23-10.77-1.958z"/><path d="M1712.04 505.598a34.59 34.59 0 0 1-5.62-2.823 7.6 7.6 0 0 1-.96-.706c-1.05-.956-.4-1.685-1.12-2.64-.7-.957-1.68-1.435-2.1-2.118a7.43 7.43 0 0 1-.39-.888 9.09 9.09 0 0 0-2.73-2.277c-1.12-.75-2.28-1.616-2.5-2.277-.1-.34 0-.66-.36-1.047a3.58 3.58 0 0 0-1.96-.797 3.25 3.25 0 0 0-1.82.16c-.4.17-.85.193-1.27.064s-.77-.402-1-.77 0-.706 0-1.048c-.17-.562-.5-1.07-.9-1.48l-1.23-1.343a13.69 13.69 0 0 1-.91-1.594c-.32-.633-.78-1.186-1.34-1.616-.65-.528-1.45-.838-2.28-.888-.66 0-.5.75-.2 1.32s.68 1.252.3 1.594c-.36.342-.38.182-.45.342-.02.127-.02.26 0 .387 0 .637-1.1.705-2.07.728-.4.053-.82.053-1.23 0-.46-.118-.86-.372-1.16-.728-.14-.296 0-.433.45-.456.46-.023.75 0 1.07 0 .2-.013.38-.092.53-.225.14-.132.24-.3.27-.503a1.52 1.52 0 0 0 .01-.92 1.59 1.59 0 0 0-.51-.766c-.7-.66-1.16-.957-1.2-1.57a3.27 3.27 0 0 1 .37-1.435c.13-.72.1-1.464-.13-2.166a4.54 4.54 0 0 0-1.1-1.864 1.85 1.85 0 0 0-1.1-.751.32.32 0 0 0-.24.034.31.31 0 0 0-.14.193c-.55 1.07-1.05 2.277-2.83 2.55-.45 0-.95 0-1.36.182-.98.25-1.26 1.07-.82 2.003.13.214.22.455.25.706 0 .182-.23.296-.44.364a3.73 3.73 0 0 1-2.27-.182 3.88 3.88 0 0 1-2.12-1.571.79.79 0 0 0-.3-.455c-.16-.2-.36-.364-.6-.478l-1.5-.592a3.78 3.78 0 0 1-1.59-.934c-.24-.324-.37-.715-.37-1.115-.33-.77-.82-1.46-1.44-2.022a5.81 5.81 0 0 0-2.16-1.234l-1.52-.5a9.73 9.73 0 0 1-2.05-1.002 2.35 2.35 0 0 1-.6-.524c-.34-.637 1.4-.432.95-1.07a2.27 2.27 0 0 0-1.41-.706 11.55 11.55 0 0 1-1.48-.228c-.57-.18-1.08-.53-1.46-1-.22-.433 0-.82-.6-1.23-.2-.136-.43-.25-.66-.34-.9-.387-2-.706-2.46-.456-.1.087-.2.156-.34.205a2.95 2.95 0 0 1-1.73-.57c-.54-.382-1.13-.695-1.75-.934a2.13 2.13 0 0 0-.86-.057c-.28.04-.56.136-.8.285-.3.146-.6.222-.94.222-.32 0-.64-.076-.93-.222-.64-.32-.93-.82-.87-1.138.4 0 .64.273.96.25a16.6 16.6 0 0 0-4.99-1.867 16.46 16.46 0 0 0-4.44-.137l-9.6.683c-1.37.156-2.75.1-4.1-.136-1.4-.46-2.83-.774-4.28-.934-1.46 0-2.1 1.162-3.92.5-.66-.227-1.25-.66-1.9-.9-2.87-1.047-2.94 2.14-5.8.957-.4-.16-.77-.387-1.16-.57-2-.888-3.28 0-3.25 1.16.02 1.16.45 2.527-1.05 2.778-2.28.364-7.08-2.277-8.17-1.002-.14.16-.2.387-.4.523s-1.94 0-3.03-.614a15.91 15.91 0 0 0-3.26-1.389 15.84 15.84 0 0 0-3.14 0c-1.3-.17-2.57-.43-3.82-.774-1.28-.228-2.62-.16-2.53.592 0 .387.5.865.45 1.23-.04.364-.7.547-1.3.615l-6.3.842c-.93.137-1.96.296-2.1.9s0 .956-.66.888a4.94 4.94 0 0 1-1.64-.797 7.25 7.25 0 0 0-4.44-.592 6.67 6.67 0 0 1-4.56-.842c-.82-.592-1.07-1.298-1.82-1.913a12.28 12.28 0 0 0-1.36-.842l-6.54-3.552c-.84-.478-1.84-1.116-1.75-1.57s1.27-.32 2.28 0a19.56 19.56 0 0 0 2.73 1.07c1.23-1.116-1.6-3.825-2.5-5.647a31.73 31.73 0 0 1-1.02-3.575 24.3 24.3 0 0 0-5.22-6.603c-3.6-3.7-6.83-7.4-9.97-11.088l-4.1-4.713c-.58-.72-1.25-1.364-2-1.913a24.88 24.88 0 0 0-2.14-1.275 33.37 33.37 0 0 1-5.87-3.893c-.62-.57-1.58-1.253-1.14-1.708.8-.865 2.62.637 4.03.9 5.92 1.138-3.55-6.83-6.83-8.13-.62-.273-1.4-.66-1.3-.956s.64-.182 1.05-.16c1.82 0 2.27-1.32.72-2.46 0-.797-.6-1.73-.63-2.527-1.35-.296-2.6-1.366-2.28-1.98s1.9-.592 3.1 0a3.61 3.61 0 0 0 1.14.524c.28.097.58.097.86 0l5.35-1.936c.5-.182 1.03-.364 1.18-.728.16-.364 0-.865 0-1.275.2-1.207 2.8-1.252 5.22-.9 2.2.512 4.47.65 6.72.4 1.6-.478 1.68-1.867 2.98-2.55a21.67 21.67 0 0 1 6.83-.638c4.55-.25 7.22-2.095 7.2-4.78.08-.477.04-.965-.1-1.427s-.4-.884-.72-1.237c-.47-.5-1.16-.98-1.57-1.48s-.6-1.207-.2-1.57a.45.45 0 0 1 .1-.086.32.32 0 0 1 .14-.028c.23-.018.47-.018.7 0 .26.082.53.064.78-.05a1.01 1.01 0 0 0 .52-.565l.44-.9s.13-.16.3-.114h.2c1.1.684 1.34 1.458 2 2.277a27.81 27.81 0 0 0 2.92 2.459c.43.365.98-.66.95-.796-.2-.607-.5-1.177-.88-1.685-.32-.387-.9-.774-1.23-1.162-.35-.387-.53-1.047 0-1.23a3.24 3.24 0 0 1 2.27.615 3.6 3.6 0 0 0 .94.774c.32.136.68.16 1 .273a3.52 3.52 0 0 0 .93.32c.06.007.12-.008.16-.042.05-.034.08-.084.1-.14.05-.395 0-.796-.15-1.163a2.29 2.29 0 0 0-.71-.932c-.4-.314-.74-.665-1.05-1.047-.25-.342-.3-.706 0-.797.82-.205 2.7.75 3.37.455.06-.032.12-.076.16-.132a.61.61 0 0 0 .09-.187c.1-.188.1-.402.03-.597s-.2-.357-.4-.45a4.35 4.35 0 0 1-.62-.41c-.27-.273 0-.455.23-.546s.6-.16.6-.388-.43-.546-.5-.774c-.25-.933 2.4.57 3.05.638s.75 0 .75-.342-1.1-1.184-.7-1.48a.86.86 0 0 1 .47-.136c.54-.132 1.1-.132 1.62 0a3.5 3.5 0 0 0 .59.182c.5 0 .62-.182 1-.205.2-.032.4-.032.6 0a4.54 4.54 0 0 1 2.59 1.571 1.01 1.01 0 0 0 .46.5c.25.095.5.164.77.205.7.222 1.3.605 1.82 1.116.63.5 1.15 1.102 1.53 1.798.03.417.03.836 0 1.253.1.282.26.537.48.743a1.88 1.88 0 0 0 .77.44c.84.273 1.4 0 1.28-.48a6.15 6.15 0 0 0-1-1.41c-.22-.342-.36-.683 0-.82.4-.12.8-.12 1.2 0l1.4.4a6.31 6.31 0 0 1 1.8.865 2.24 2.24 0 0 0 1.11.319 8.28 8.28 0 0 1 1.46.114c.66.136 1.07.5 1.64.637.08.04.17.06.26.06s.18-.02.26-.06l.3-.16s-.18-.182-.37-.273c-.66-.32-1.34-.638-1.93-1.002a12.82 12.82 0 0 0-1.16-.706c-.32-.182-.7-.342-.98-.524-1.7-1.002-.4-1.98 1.46-1.252a1.21 1.21 0 0 0 .34 0c.1 0 .13 0 .16-.137.07-.268.07-.55 0-.82-.2-.4-.5-.746-.9-.957l-.46-.273c-.32-.25 0-.455.36-.432a8.34 8.34 0 0 1 1.35.341c.38.154.8.193 1.2.114.3-.114 0-.5-.3-.82a8.1 8.1 0 0 0-1.55-1.047 4.4 4.4 0 0 1-1.14-.683v-.16c0-.045 0 0 .14 0 .54 0 1.48.16 1.54-.16.07-.32.87-.82 0-1.503a11.66 11.66 0 0 1 1.71.182 4.95 4.95 0 0 1 1.75.729l.57-.797c.08-.088.17-.153.28-.186a.59.59 0 0 1 .34.004c.6.137.8.615 1.25.934a3.21 3.21 0 0 0 2.05.478c.7-.08 1.38.006 2.03.25.36.16.63.387 1 .524a1.99 1.99 0 0 0 1.11.114 1.02 1.02 0 0 0 .53-.387c.04-.028.07-.064.1-.105s.03-.088.03-.134-.01-.093-.03-.135-.05-.077-.1-.105a4.44 4.44 0 0 0-.98-.5c-.9-.433-1.34-1.048-2.28-1.48a13.33 13.33 0 0 0-2.64-.866c-.9-.25-1.98-.774-2.1-1.206s.7-.456 1.48-.25a11.86 11.86 0 0 1 2.27.956 3.72 3.72 0 0 0 1.37.433 1.77 1.77 0 0 1 .59 0c.34 0 .5.342.73.524.45.336 1 .548 1.55.614a2.29 2.29 0 0 0 1.23-.16c.18-.053.37-.053.54 0a1.81 1.81 0 0 1 .98.524 4.11 4.11 0 0 0 .71.66 4.18 4.18 0 0 0 1.48.478c.48 0 .9 0 1.4.16a1.5 1.5 0 0 1 .68.227c.2.137.28.274.48.433a2.78 2.78 0 0 0 1.53.387 3.26 3.26 0 0 1 1.5.182l.6.32c.42.154.87.216 1.32.182h1.2c.4-.076.82-.076 1.23 0a6.42 6.42 0 0 1 1.95 1.07 4.34 4.34 0 0 0 2.05.82c.16-.182 0-.4-.1-.66s0-.547.3-.57a4.47 4.47 0 0 1 .75 0c.68 0 1.16-.136 1.16-.478a.87.87 0 0 1 .2.168.65.65 0 0 1 .11.231c.02.083.02.17 0 .254-.01.085-.05.165-.1.235-.1.273 0 .638.48.956s.93.296 1.34.524.53.592.28.752a3.29 3.29 0 0 1-1.05.204 2.82 2.82 0 0 0-1 .32c-.14 0-.25.137-.25.25s.16.318.4.432a2.86 2.86 0 0 0 .45.137c.5.153.93.446 1.26.842a1.27 1.27 0 0 1 .25.843.33.33 0 0 1 .01.099c-.01.034-.02.065-.04.092s-.05.05-.08.063a.21.21 0 0 1-.1.019 3.18 3.18 0 0 1-1.23-.592c-.74-.413-1.56-.676-2.4-.774a2.3 2.3 0 0 0-.55 0c-.45 0-.13.546.3.888s.98.75 1.05 1.07c.06.32 0 .25.13.387l.3.16c.5.296.45.638.36.866-.2.308-.27.667-.24 1.027.02.36.17.702.4.976a4.53 4.53 0 0 1 .48.638c.16.32 0 .546 0 .842.05.223.15.428.3.593s.36.283.58.34c.98.364 1.57.865 2.55 1.138 1.02.193 2.02.467 3 .82a31.09 31.09 0 0 0 2.8 1.526c.4.136.78.182 1.2.34a9.91 9.91 0 0 1 1.09.547c.84.387 1.8.5 2.6.956a17.06 17.06 0 0 0 1.57.956c.43.182.86.205 1.3.364a6.42 6.42 0 0 1 1.4.73c1.7 1.025 3.57 1.98 5.44 2.914.45.238.9.443 1.4.615.36.114.7.182 1.07.32 1.9.683 2.55 2.277 4.4 3.142a7.76 7.76 0 0 0 2.46.524l2.78.296a2.7 2.7 0 0 0 .87 0c.43-.16 0-.706-.23-1.14s-.84-1.366-.57-1.798.87-.66.25-1.23c0-.273-.45-.57-.82-.888-.1-.08-.2-.17-.27-.273 0-.182.2-.228.4-.273.6-.137.66-.638.18-1.184-.14-.137-.32-.296-.34-.433s.3-.228.4-.364-.98-1.002-1.2-1.48c-.2-.478.46-.547.52-.865.07-.32-.36-.82-.88-1.253a15.72 15.72 0 0 1-1.51-1.298 9.75 9.75 0 0 1-.91-1.525c-.57-.684-1.2-1.33-1.84-1.935-.2-.228-.4-.48-.37-.66.05-.182.37-.25.6-.34.22-.1.32-.32 0-.57.52-.637-.12-1.502-.82-2.48a10.62 10.62 0 0 1-1.76-2.892c-.1-.592 0-1.116-.54-1.776-.55-.66-.94-.774-1.1-1.138-.05-.086-.08-.185-.08-.285a.57.57 0 0 1 .08-.285c.16-.34.44-.683 1.23-.523 0 .25.55.614 1.03.865a14.83 14.83 0 0 1 1.48.82 9.32 9.32 0 0 0 1.41 1.206c.32.16.68.296 1 .478.84.48.82 1.093 1.62 1.572s1.3.5 1.87.842c1.18.66.8 1.457 1.82 2.277.48.32 1.16.57 1.68.888a4.87 4.87 0 0 1 1.35 1.23l1.34 1.663a5.15 5.15 0 0 1 .43.637 3.57 3.57 0 0 1 .18 1.025 6.38 6.38 0 0 0 1.78 2.277 2.8 2.8 0 0 0 .55.455 3.67 3.67 0 0 0 .95.341c.57 0 1.14.137 1.3 0s-.46-1.07.18-1.138a3.66 3.66 0 0 1 1.96.911 4.92 4.92 0 0 0 1.9 1.093 3.4 3.4 0 0 1 1.03.227c.12.075.23.176.32.296.44.53.97.977 1.57 1.32a12.99 12.99 0 0 1 2.43 1.48c.5.495.8 1.147.87 1.844a3.88 3.88 0 0 0 1.39 2.277c.5.433 1.16.843 1.73 1.275a39.76 39.76 0 0 0 3.2 2.277c.8.478 1.7.888 2.4 1.4.74.508 1.33 1.2 1.7 2.026.5 1.462 1.34 2.787 2.44 3.87.64.5 1.24 1.074 1.8 1.685.25.32.34.615.6.934a2.54 2.54 0 0 0 1.37.797 4.34 4.34 0 0 0 2.55.796c.56-.06 1.13-.013 1.68.137.6.257 1.1.647 1.53 1.138a5.57 5.57 0 0 0 1.18.911c.47.273 1 .436 1.53.478.34 0 .52-.16.86-.182a3.88 3.88 0 0 1 1.82.569 6.35 6.35 0 0 1 1.44 1.14 4.75 4.75 0 0 0 1.91 1.434c.4.137.75.183 1.14.342a3.07 3.07 0 0 1 1.14.842 2.04 2.04 0 0 1 .51.745 1.95 1.95 0 0 1 .12.895.7.7 0 0 0-.08.318.7.7 0 0 0 .08.319c.4.4.86.694 1.37.888a24.09 24.09 0 0 1 3.83 1.73c.8.537 1.4 1.344 1.66 2.277a7.76 7.76 0 0 0 3.09 3.301 5.62 5.62 0 0 0 2.28.865 7.43 7.43 0 0 1 1.23 0 5.12 5.12 0 0 1 2.28 1.184 14.6 14.6 0 0 0 1.8 1.48 20.11 20.11 0 0 1 1.68 1.002c1.07.843.5 1.503 1.28 2.277a7.88 7.88 0 0 0 1.25.979l4.73 3.142a9.59 9.59 0 0 0 1.23.73c.53.228 1.07.387 1.58.66 1.2.683 1.2 1.526 2.14 2.277.93.75 3.34 1.457 4.55 2.46.6.547.73 1.116 1.5 1.594.38.22.76.417 1.16.592.86.412 1.6 1.07 2.08 1.9 1.04 2.05.22 3.53 3.02 5.965 1.64 1.13 3.16 2.4 4.56 3.825a4.08 4.08 0 0 0 1.14 1.48 8.71 8.71 0 0 0 .88.547c1.23.75 2.1 1.73 2.08 2.277-.03.546-.55.797-.78 1.23s0 1.16.9 1.8a7.6 7.6 0 0 1 1.14.73c.4.4 0 .683-.45.637-.46-.045-.57 0-.6 0-.02 0 .2.273.37.4l1.48 1.207M439.64 249.447a5.08 5.08 0 0 1 1.048-.615 6.58 6.58 0 0 1 1.616-.456 32.8 32.8 0 0 1 3.78-.364l4.554-.228c.34-.023.683-.023 1.024 0 .392.178.826.24 1.253.183.32 0 .637-.228.98-.296a32.92 32.92 0 0 1 5.783.728 24.19 24.19 0 0 1 6.831.911c.797.455.956 1.275 2.482 1.275.612-.08 1.232-.08 1.844 0 .205 0 .25.25.364.364.615.775 3.962.274 5.283-.774.865-.16.933.342.546.752s-1.025.9-.75 1.184 3.666-.547 4.44 0-1.093 1.297-2.414 1.48a27.33 27.33 0 0 1-3.62 0c-3.575.16-8.22 2.276-11.385 2.117a6.26 6.26 0 0 1 2.869-1.525c-.364-1.116-4.417-.638-4.872-1.708-.137-.364.16-.843-.16-1.16-.683-.683-3.552 0-5.44 0a7.2 7.2 0 0 1-3.325-.797 12.23 12.23 0 0 0-4.918-1.207 15.44 15.44 0 0 0-7.149 1.594c-.843.478-3.347 2.277-4.35 1.616-.592-.273 3.028-2.618 3.688-3.073z"/><path d="M464.16 258.805c-1.408.22-2.835.3-4.258.205-.34-.034-.684-.034-1.024 0a4.19 4.19 0 0 0-1.64.751c-.387.296-.728.592-.774.865s.273.48.843.433a17.35 17.35 0 0 0 1.958-.478c1.047-.228 1.935 0 1.8.478s-.615.774-.25.956a2.81 2.81 0 0 0 1.457 0 24.54 24.54 0 0 0 5.715-2.05c.396-.206.807-.38 1.23-.524.455-.136 1.002-.16 1.07 0 .592-.25.82-.637.638-.842s-.684-.296-1.207-.342a28.51 28.51 0 0 0-5.692.479m14.934-2.21l-.5.183c-1.434.683-1.548 1.73-.205 1.844a39.9 39.9 0 0 0 6.512-1.32c2.277-.318 4.28.4 6.626-.364l.205 1.002a7.02 7.02 0 0 0 3.643-1.002c.9-.615 1.024-1.343.25-1.64 1.07-.182 2.05 0 2.277.387s0 .432.296.592a4.74 4.74 0 0 0 2.869-.478c.934-.483 1.9-.88 2.914-1.184a18.46 18.46 0 0 1 3.143-.205c1.047 0 2.618-.592 2.595-1.07s-.364-.32-.75-.388c-1.366-.227-3.2 0-4.713 0a27.72 27.72 0 0 1-3.962-.819c-1.665-.307-3.38-.2-4.987.34-.57.182-1.115.456-1.73.592-1.935.478-2.8-.4-4.372-.57-2.413-.228-1.16 2.46-1.798 2.983-2.62 1.958-5.67.387-8.3 1.115z"/></g></svg>