<svg width="1366" height="768" viewBox="0 0 1366 768" fill="none" xmlns="http://www.w3.org/2000/svg">
<mask id="mask0" mask-type="alpha" maskUnits="userSpaceOnUse" x="0" y="0" width="1366" height="768">
<rect width="1366" height="768" fill="white"/>
</mask>
<g mask="url(#mask0)">
<path d="M1177 435.5C1177 699.21 958.944 913 690.001 913C421.056 913 203 699.21 203 435.5C203 171.79 421.056 -42 690.001 -42C723.971 -42 757.185 -38.5747 789.23 -32.0634C567.873 12.8719 401.458 205.126 401.458 435.5C401.458 591.773 530.67 718.439 690.07 718.439C849.469 718.439 978.68 591.773 978.68 435.5C978.68 279.227 849.469 152.527 690.07 152.527L694.608 152.391C744.394 86.2942 811.098 33.1859 888.459 -0.693473C1058.52 73.7802 1177 241.074 1177 435.5Z" fill="#F1F1F1"/>
</g>
</svg>
