<svg width="620" height="768" viewBox="0 0 620 768" fill="none" xmlns="http://www.w3.org/2000/svg">
<mask id="mask0" maskUnits="userSpaceOnUse" x="0" y="0" width="620" height="768">
<rect width="620" height="768" fill="#C4C4C4"/>
</mask>
<g mask="url(#mask0)">
<path d="M974 396.5C974 660.21 755.944 874 487.001 874C218.056 874 0 660.21 0 396.5C0 132.79 218.056 -81 487.001 -81C520.971 -81 554.185 -77.5747 586.23 -71.0634C364.873 -26.1281 198.458 166.126 198.458 396.5C198.458 552.773 327.67 679.439 487.07 679.439C646.469 679.439 775.68 552.773 775.68 396.5C775.68 240.227 646.469 113.527 487.07 113.527L491.608 113.391C541.394 47.2942 608.098 -5.81407 685.459 -39.6935C855.517 34.7802 974 202.074 974 396.5Z" fill="#F8F8F8"/>
</g>
</svg>
