<svg width="974" height="768" viewBox="0 0 974 768" fill="none" xmlns="http://www.w3.org/2000/svg">
<mask id="mask0" maskUnits="userSpaceOnUse" x="0" y="0" width="974" height="768">
<rect width="974" height="768" fill="white"/>
</mask>
<g mask="url(#mask0)">
<path d="M974 435.5C974 699.21 755.944 913 487.001 913C218.056 913 0 699.21 0 435.5C0 171.79 218.056 -42 487.001 -42C520.971 -42 554.185 -38.5747 586.23 -32.0634C364.873 12.8719 198.458 205.126 198.458 435.5C198.458 591.773 327.67 718.439 487.07 718.439C646.469 718.439 775.68 591.773 775.68 435.5C775.68 279.227 646.469 152.527 487.07 152.527L491.608 152.391C541.394 86.2942 608.098 33.1859 685.459 -0.693474C855.518 73.7802 974 241.074 974 435.5Z" fill="#F1F1F1"/>
</g>
</svg>
