<svg xmlns="http://www.w3.org/2000/svg" width="1060" height="940" fill="none"><mask id="A" mask-type="alpha" maskUnits="userSpaceOnUse" x="0" y="0" width="1060" height="940"><path fill="#fff" d="M0 0h1060v940H0z"/></mask><g mask="url(#A)"><path d="M1060 490c0 287.182-237.3 520-530 520S0 777.182 0 490 237.3-30 530-30c36.97 0 73.116 3.73 108 10.82-240.902 48.935-422 258.3-422 509.18 0 170.182 140.62 308.122 314.095 308.122S844.17 660.182 844.17 490 703.55 181.84 530.076 181.84l4.94-.147c54.182-71.98 126.775-129.815 210.967-166.7C931.056 96.085 1060 278.27 1060 490z" fill="#f1f1f1"/></g></svg>