<svg xmlns="http://www.w3.org/2000/svg" xmlns:xlink="http://www.w3.org/1999/xlink" width="236" height="230" fill="none"><style><![CDATA[.B{fill:#dcdcdc}.C{fill:#efefef}.D{fill:#81829f}.E{fill:#dec8bd}.F{fill:#8c8da7}.G{fill:#f2e1cc}.H{fill:#3e5685}]]></style><g class="B"><path d="M84.132 203.94l-19.718-66.74c-4.01-13.574-12.914-25.014-24.433-31.393l-7.82-4.368-24.8 58.942a1.58 1.58 0 0 0-.004 1.209 1.58 1.58 0 0 0 .341.514c.146.147.32.264.512.344s.397.12.604.122a1.59 1.59 0 0 0 .605-.119c.192-.08.366-.195.514-.34a1.58 1.58 0 0 0 .344-.511l17.428-41.537 34.398 20.422 18.992 64.35a1.58 1.58 0 0 0 .273.56c.128.166.287.306.47.4a1.57 1.57 0 0 0 1.212.147c.205-.057.397-.155.564-.29a1.58 1.58 0 0 0 .406-.486 1.59 1.59 0 0 0 .183-.606c.02-.212-.004-.426-.07-.63zm-50.485-98.043l4.804 2.67c10.21 5.653 18.232 15.574 22.276 27.427l-31.784-18.87 4.703-11.228z"/><path d="M186.568 73.5l-62.562-36.152a3.66 3.66 0 0 0-1.659-.473c-.583-.023-1.163.093-1.692.34L20.77 94.928l-2.893-1.117v3.33c.05.21.15.408.286.576a1.45 1.45 0 0 0 .507.396l57.456 33.158a4.14 4.14 0 0 0 2.072.557c.728 0 1.443-.193 2.072-.557l23.83-13.552a6.21 6.21 0 0 1 3.542-.804l11.45.86a6.7 6.7 0 0 0 3.798-.86l68.025-39.336a.97.97 0 0 0 .393-.336.96.96 0 0 0 .165-.49v-3.497l-4.904.235z"/><path d="M78.2 132.12a4.47 4.47 0 0 1-2.234-.593L18.556 98.358a1.72 1.72 0 0 1-.938-1.117V93.41l3.117 1.117 99.752-57.624c.565-.263 1.184-.387 1.805-.362a3.9 3.9 0 0 1 1.77.507l62.562 36.107 5.14-.246v4.145c-.117.318-.348.58-.648.737L123.1 117.115a6.79 6.79 0 0 1-3.966.905l-11.45-.86c-1.168-.08-2.332.185-3.352.76l-23.896 13.62c-.68.386-1.452.586-2.234.58zM18.176 94.224v2.86c.038.175.118.34.233.477a1.12 1.12 0 0 0 .427.316l57.445 33.17a3.91 3.91 0 0 0 3.865 0l23.818-13.585a6.37 6.37 0 0 1 3.687-.826l11.462.85a6.31 6.31 0 0 0 3.642-.827l68.014-39.336a.71.71 0 0 0 .424-.581v-3.195l-4.725.224h-.067l-62.562-36.152a3.35 3.35 0 0 0-3.016-.134L20.8 95.196l-2.614-.972z"/></g><path d="M190.664 72.204l-66.66-38.453a3.67 3.67 0 0 0-1.659-.479 3.66 3.66 0 0 0-1.693.333L18.575 92.626c-.838.48-.737 1.33.235 1.9L76.03 127.56c.632.36 1.346.55 2.072.55s1.44-.19 2.072-.55l23.92-13.64c1.073-.615 2.307-.895 3.54-.804l11.853.894a6.58 6.58 0 0 0 3.81-.872l67.6-39.045c.85-.47.737-1.33-.235-1.888z" fill="#fff"/><g class="B"><path d="M78.12 128.443a4.37 4.37 0 0 1-2.234-.592l-57.2-33.08a1.64 1.64 0 0 1-.95-1.318 1.26 1.26 0 0 1 .715-1.117l102.2-58.964c.56-.264 1.178-.4 1.798-.367a4.01 4.01 0 0 1 1.765.5l66.617 38.453a1.61 1.61 0 0 1 .652.531 1.62 1.62 0 0 1 .298.787c-.004.233-.072.46-.196.657s-.3.356-.508.46l-67.6 39.1c-1.198.7-2.576 1.006-3.955.905l-11.864-.893a5.92 5.92 0 0 0-3.352.759l-23.974 13.54c-.666.4-1.424.62-2.2.637zm44.06-94.825a2.66 2.66 0 0 0-1.285.29L18.72 92.86a.74.74 0 0 0-.436.592c0 .28.246.592.67.827l57.222 33.046a3.88 3.88 0 0 0 3.865 0l23.92-13.64a6.54 6.54 0 0 1 3.687-.838l11.864.894a6.26 6.26 0 0 0 3.642-.827l67.6-39.045a.74.74 0 0 0 .289-.241c.075-.104.12-.225.136-.35 0-.28-.246-.592-.67-.827l-66.617-38.464c-.53-.285-1.12-.43-1.72-.425v.056zm33.832 25.56l-6.704 3.877a4.22 4.22 0 0 1-3.809-.168l-20.545-11.9c-1.117-.66-1.25-1.642-.28-2.234l6.703-3.865a4.21 4.21 0 0 1 1.925-.37 4.22 4.22 0 0 1 1.884.538l20.545 11.898c1.13.637 1.25 1.62.28 2.234z"/><path d="M147.644 63.647a4.72 4.72 0 0 1-2.235-.58l-20.6-11.853a1.82 1.82 0 0 1-.763-.59 1.83 1.83 0 0 1-.355-.896 1.39 1.39 0 0 1 .805-1.196l6.703-3.865c.646-.303 1.355-.447 2.07-.42a4.47 4.47 0 0 1 2.031.577l20.545 11.864c.302.124.565.328.762.6a1.82 1.82 0 0 1 .355.896 1.42 1.42 0 0 1-.805 1.195l-6.703 3.865a3.73 3.73 0 0 1-1.809.413zM133.02 44.8a3.14 3.14 0 0 0-1.508.335L124.81 49c-.144.06-.268.16-.36.286a.87.87 0 0 0-.164.429c0 .346.3.715.793 1.005l20.544 11.864a4.06 4.06 0 0 0 3.543.156l6.703-3.865a.94.94 0 0 0 .354-.29c.092-.124.15-.27.17-.424 0-.346-.3-.715-.793-1.005l-20.545-11.864a4.28 4.28 0 0 0-2.033-.492zm-4.97-1.8l-6.703 3.865c-.605.272-1.265.4-1.928.372s-1.3-.208-1.892-.53l-4.067-2.357c-1.117-.648-1.25-1.63-.268-2.234l6.703-3.865a4.28 4.28 0 0 1 3.821.156l4.066 2.357c1.13.68 1.252 1.665.268 2.234z"/><path d="M119.69 47.515a4.59 4.59 0 0 1-2.234-.581l-4.066-2.346c-.302-.127-.564-.33-.76-.592a1.85 1.85 0 0 1-.358-.894 1.39 1.39 0 0 1 .23-.708c.14-.21.335-.38.564-.487l6.703-3.865c.644-.302 1.352-.445 2.063-.417a4.47 4.47 0 0 1 2.026.574l4.066 2.346a1.85 1.85 0 0 1 .76.592c.196.26.32.57.357.894a1.38 1.38 0 0 1-.23.708c-.14.21-.334.38-.563.487l-6.703 3.865c-.57.306-1.21.453-1.855.425zm1.855-9.34c-.524-.018-1.044.102-1.508.346l-6.703 3.865a.88.88 0 0 0-.514.715c0 .346.28.715.793 1.005l4.067 2.346c.536.296 1.134.463 1.746.49a3.99 3.99 0 0 0 1.784-.334l6.703-3.865a.88.88 0 0 0 .514-.715c0-.346-.29-.715-.793-1.005l-4.067-2.346c-.622-.333-1.317-.506-2.022-.503z"/></g><path d="M124.952 50.978l.815.47 5.586-3.23c.603-.275 1.262-.403 1.924-.376a4.22 4.22 0 0 1 1.886.533L154.88 59.76l1.117-.637c.972-.56.85-1.542-.28-2.234l-20.545-11.82a4.22 4.22 0 0 0-3.81-.167l-6.703 3.865c-.96.57-.837 1.553.29 2.212z" class="C"/><path d="M154.905 60.083L135.053 48.62a3.98 3.98 0 0 0-1.752-.495c-.615-.027-1.227.09-1.79.338l-5.743 3.352-.96-.56c-.302-.127-.564-.33-.76-.592a1.85 1.85 0 0 1-.358-.894 1.39 1.39 0 0 1 .235-.71c.142-.21.34-.38.57-.485l6.703-3.865c.646-.303 1.355-.447 2.07-.42a4.47 4.47 0 0 1 2.031.577l20.545 11.864c.302.125.565.328.762.6a1.82 1.82 0 0 1 .355.896 1.42 1.42 0 0 1-.805 1.195l-1.25.67zM133.03 47.56a4.78 4.78 0 0 1 2.301.57l19.573 11.306.96-.547c.14-.066.262-.166.354-.29s.15-.27.17-.424c0-.346-.3-.715-.793-1.005l-20.545-11.864a4.01 4.01 0 0 0-1.752-.491c-.615-.027-1.227.087-1.79.334l-6.703 3.865c-.144.06-.268.16-.36.286a.87.87 0 0 0-.164.429c0 .346.3.715.793 1.006l.68.39 5.474-3.117a3.69 3.69 0 0 1 1.799-.447z" class="B"/><path d="M113.472 44.342l.826.48 5.586-3.23c.605-.275 1.266-.404 1.93-.376s1.312.2 1.892.533l3.24 1.877 1.117-.637c.983-.57.86-1.553-.268-2.234l-4.067-2.357c-.58-.32-1.228-.502-1.892-.53s-1.323.1-1.928.372l-6.703 3.865c-.984.603-.86 1.586.268 2.234z" class="C"/><path d="M114.297 45.147l-.96-.56a1.8 1.8 0 0 1-.766-.587c-.196-.262-.318-.572-.35-.898a1.38 1.38 0 0 1 .23-.708c.14-.21.334-.38.563-.487l6.703-3.865a4.47 4.47 0 0 1 4.089.156l4.066 2.346c.3.126.564.33.76.592a1.85 1.85 0 0 1 .358.894 1.39 1.39 0 0 1-.23.708c-.14.21-.335.38-.564.487l-1.24.715-3.35-1.944a3.99 3.99 0 0 0-3.531-.168l-5.775 3.318zm-.682-1.04l.682.39 5.463-3.195c.644-.302 1.352-.445 2.063-.417a4.47 4.47 0 0 1 2.026.574l3.105 1.8.96-.56c.14-.064.262-.163.353-.29a.89.89 0 0 0 .161-.426c0-.346-.29-.715-.793-1.005l-4.067-2.346c-.537-.295-1.134-.463-1.747-.5a3.99 3.99 0 0 0-1.783.334l-6.703 3.865a.89.89 0 0 0-.514.715c0 .346.28.715.793 1.006v.045z" class="B"/><path d="M184.465 27.328c-.008-2.566.37-5.12 1.117-7.574.412-1.303.924-2.573 1.53-3.798a25.58 25.58 0 0 1 24.421-14.02 25.45 25.45 0 0 1 16.757 7.855c4.402 4.628 6.903 10.743 7.005 17.13a25.45 25.45 0 0 1-22.946 25.735c-1.475 3.206-4.37 7.586-9.686 9.43a1.12 1.12 0 0 1-1.276-.294 1.11 1.11 0 0 1-.271-.632 1.12 1.12 0 0 1 .15-.671c1.283-2.753 1.692-5.833 1.173-8.826a25.46 25.46 0 0 1-12.993-9.207c-3.235-4.38-4.98-9.68-4.982-15.125z" class="F"/><path d="M200.354 60.787a1.43 1.43 0 0 1-.685-.188 1.42 1.42 0 0 1-.51-.494 1.43 1.43 0 0 1-.068-1.374c1.208-2.66 1.597-5.62 1.118-8.502a25.55 25.55 0 0 1-13.067-9.312 25.56 25.56 0 0 1-4.942-15.265 26.44 26.44 0 0 1 .514-5.16l.547.112c-.335 1.662-.504 3.354-.503 5.05a25.02 25.02 0 0 0 17.776 24.053h.167v.168a15.27 15.27 0 0 1-1.195 8.993c-.077.158-.104.335-.078.508a.88.88 0 0 0 .223.464.81.81 0 0 0 .904.246c5.172-1.8 8.032-6.044 9.518-9.284l.067-.145h.157a25.02 25.02 0 0 0 12.02-4.469 25.41 25.41 0 0 0 9.362-12.367 25.16 25.16 0 0 0 .197-15.955 25.17 25.17 0 0 0-39.689-11.977l-.257-.335A25.7 25.7 0 0 1 202.611.547c3.9-.818 7.938-.718 11.793.293s7.422 2.905 10.42 5.532a25.69 25.69 0 0 1 6.849 9.604 25.7 25.7 0 0 1 1.836 11.653c-.3 3.974-1.52 7.824-3.565 11.245s-4.856 6.32-8.213 8.467a25.7 25.7 0 0 1-11.132 3.905 17.32 17.32 0 0 1-3.925 5.712 17.35 17.35 0 0 1-5.85 3.717c-.15.065-.307.102-.47.112zm-13.787-48.295l-.458-.313 1.118-1.664 1.653-2.044.413.38-1.62 2c-.2.235-.525.726-1.106 1.653zm11.765 10.512a9.65 9.65 0 0 1 1.094-4.457 9.64 9.64 0 0 1 3.03-3.448 9.65 9.65 0 0 1 4.279-1.659 9.66 9.66 0 0 1 4.562.505 9.65 9.65 0 0 1 6.015 6.581 9.65 9.65 0 0 1 .094 4.589c-.338 1.515-1.037 2.926-2.036 4.113l-.1.123-.078.1-.134.134a12.65 12.65 0 0 0-2.335 3.675c-.07.273-.17.54-.3.793v.067a4.91 4.91 0 0 1-2.01 2.142c-.872.492-1.876.706-2.874.613a4.92 4.92 0 0 1-4.287-3.615c-.472-1.213-1.132-2.344-1.955-3.35-.934-.9-1.678-1.96-2.2-3.144a9.56 9.56 0 0 1-.783-3.75z" class="B"/><path d="M200.266 24.546c-.001-1.552.373-3.082 1.09-4.46s1.755-2.56 3.027-3.452 2.74-1.46 4.28-1.663a9.65 9.65 0 0 1 8.379 3.055 9.65 9.65 0 0 1 2.204 4.027c.4 1.5.433 3.075.095 4.6a9.65 9.65 0 0 1-2.037 4.115l-.1.123a.71.71 0 0 1-.089.089l-.123.145c-1 1.073-1.78 2.314-2.335 3.664-.08.274-.176.543-.29.804-.432.908-1.132 1.66-2.006 2.157s-1.88.712-2.88.62-1.95-.493-2.715-1.143-1.315-1.52-1.57-2.493a12.35 12.35 0 0 0-1.955-3.296 9.55 9.55 0 0 1-2.971-6.882z" fill="#fff"/><path d="M206.016 42.566a2.02 2.02 0 0 0 1.949 1.485 2.02 2.02 0 0 0 1.95-1.485 2.02 2.02 0 0 0-1.95-1.485 2.02 2.02 0 0 0-1.949 1.485z" class="G"/><g class="B"><path d="M207.973 44.342a2.57 2.57 0 0 1-1.542-.492c-.205-.146-.374-.34-.493-.562a1.63 1.63 0 0 1-.188-.723c.006-.25.07-.497.19-.718a1.6 1.6 0 0 1 .492-.555 2.54 2.54 0 0 1 1.553-.503c.53-.05 1.06.106 1.476.437s.69.81.76 1.34c-.067.53-.34 1.015-.76 1.347s-.953.486-1.486.43zm0-2.994c-.433-.01-.857.124-1.206.38-.136.096-.248.22-.33.366a1.12 1.12 0 0 0-.14.472 1.12 1.12 0 0 0 .14.472c.082.145.194.27.33.366a1.93 1.93 0 0 0 1.195.38c.916 0 1.665-.547 1.665-1.218s-.715-1.262-1.654-1.262v.045z"/><path d="M204.44 40.957c0 1.117 1.576 2.033 3.508 2.033s3.52-.905 3.52-2.033-1.575-2.033-3.508-2.033-3.52.905-3.52 2.033z"/><path d="M207.97 43.27c-2.123 0-3.787-1.017-3.787-2.313s1.675-2.312 3.798-2.312a5.24 5.24 0 0 1 2.614.637 2 2 0 0 1 .817.676 1.99 1.99 0 0 1 .356.999c-.01 1.296-1.676 2.313-3.798 2.313zm-3.24-2.313c0 .95 1.486 1.754 3.23 1.754s3.228-.804 3.228-1.754a1.51 1.51 0 0 0-.288-.716c-.157-.2-.366-.375-.605-.48a4.75 4.75 0 0 0-2.335-.559c-1.743 0-3.218.804-3.23 1.754z"/></g><path d="M204.44 39.628c0 1.117 1.564 2.033 3.508 2.033s3.508-.905 3.508-2.033-1.575-2.033-3.508-2.033-3.508.905-3.508 2.033z" class="G"/><g class="B"><path d="M207.97 41.94c-2.134 0-3.787-1.017-3.787-2.312s1.653-2.313 3.787-2.313c2.122 0 3.787 1.017 3.787 2.313s-1.665 2.313-3.787 2.313zm-3.23-2.312c0 .95 1.475 1.754 3.23 1.754 1.743 0 3.228-.804 3.228-1.754s-1.485-1.754-3.228-1.754c-1.754 0-3.23.804-3.23 1.754z"/><use xlink:href="#B"/><path d="M207.97 40.533a5.25 5.25 0 0 1-2.625-.637c-.317-.156-.588-.394-.784-.688s-.31-.635-.333-.988c0-1.296 1.664-2.3 3.787-2.3s3.787 1.017 3.787 2.313-1.71 2.3-3.832 2.3zm0-4.055c-1.754 0-3.23.793-3.23 1.743.03.26.127.506.282.716s.362.375.6.48c.722.383 1.53.575 2.346.56 1.754 0 3.23-.793 3.23-1.743s-1.475-1.754-3.23-1.754z"/></g><use xlink:href="#B" y="-1.33" class="G"/><g class="B"><path d="M207.97 39.203a5.25 5.25 0 0 1-2.625-.637c-.317-.157-.588-.394-.784-.688s-.31-.635-.333-.988c0-1.296 1.664-2.3 3.787-2.3.914-.017 1.817.198 2.625.626a1.8 1.8 0 0 1 1.145 1.676 1.8 1.8 0 0 1-1.145 1.676 5.35 5.35 0 0 1-2.67.637zm0-4.055c-1.754 0-3.23.793-3.23 1.743a1.5 1.5 0 0 0 .883 1.195c.722.383 1.53.575 2.346.56a4.75 4.75 0 0 0 2.335-.547c.24-.103.45-.267.608-.477a1.49 1.49 0 0 0 .286-.718c-.028-.26-.126-.5-.283-.72a1.47 1.47 0 0 0-.611-.475c-.716-.39-1.52-.58-2.335-.56z"/><use xlink:href="#B" y="-3.362"/><path d="M207.985 37.17a5.35 5.35 0 0 1-2.626-.626 2.02 2.02 0 0 1-1.117-1.687c0-1.296 1.654-2.3 3.776-2.3a5.35 5.35 0 0 1 2.614.626 2.03 2.03 0 0 1 .816.684c.206.296.33.643.357 1.003a1.99 1.99 0 0 1-1.173 1.676 5.35 5.35 0 0 1-2.647.626zm0-4.055c-1.743 0-3.218.793-3.218 1.743.027.26.123.508.28.718a1.46 1.46 0 0 0 .604.477 4.7 4.7 0 0 0 2.346.56 4.75 4.75 0 0 0 2.335-.547 1.5 1.5 0 0 0 .608-.477 1.49 1.49 0 0 0 .286-.718c-.03-.26-.126-.5-.284-.72s-.368-.374-.6-.475a4.75 4.75 0 0 0-2.335-.559h-.01zm-.66-4.212l.66-.413c-2.312-3.664-2.614-4.78-2.636-5.105l.357.145a4.92 4.92 0 0 0 2.235.537c.777 0 1.542-.184 2.234-.537a2.48 2.48 0 0 1 .38-.156c.078.235.1 1.24-2.436 5.105l.648.436c2.95-4.47 2.816-5.642 2.302-6.167-.347-.335-.77-.134-1.218.067a4.47 4.47 0 0 1-1.899.503c-.686.001-1.362-.156-1.978-.458-.446-.2-.86-.37-1.206-.078s-.592 1.14 2.558 6.122z"/><path d="M207.973 35.718c.257.015.5-.07.705-.24s.314-.408.334-.665V29.17c-.02-.257-.14-.496-.334-.665s-.448-.256-.705-.24a.97.97 0 0 0-.7.241c-.193.17-.3.408-.328.664v5.686c.03.247.154.473.345.632s.435.24.683.228z"/><path d="M207.97 36.042a1.4 1.4 0 0 1-.984-.402c-.2-.206-.33-.487-.335-.782V29.17a1.32 1.32 0 0 1 .425-.853c.243-.22.56-.344.888-.344a1.32 1.32 0 0 1 1.313 1.197v5.686a1 1 0 0 1-.1.47 1.12 1.12 0 0 1-.279.39 1.39 1.39 0 0 1-.938.324zm0-7.496a.69.69 0 0 0-.749.626v5.686a.58.58 0 0 0 .05.213.57.57 0 0 0 .129.178.83.83 0 0 0 .58.235.85.85 0 0 0 .547-.201.55.55 0 0 0 .149-.19.56.56 0 0 0 .052-.235V29.17a.7.7 0 0 0-.759-.626zm.002 8.624c-1.144-.001-2.256-.38-3.163-1.076a5.19 5.19 0 0 1-1.853-2.779 11.87 11.87 0 0 0-1.866-3.184 9.93 9.93 0 0 1-2.784-5.081 9.94 9.94 0 0 1 .525-5.77c.745-1.828 2.017-3.393 3.655-4.495a9.85 9.85 0 0 1 5.542-1.69c1.887.005 3.735.548 5.325 1.565a9.94 9.94 0 0 1 4.495 9.665 9.93 9.93 0 0 1-2.235 5.081l-.1.134-.202.223a12.29 12.29 0 0 0-2.29 3.586 4.28 4.28 0 0 1-.3.816l-.067.134a5.16 5.16 0 0 1-4.681 2.871zm0-23.528a9.36 9.36 0 0 0-3.586.71 9.35 9.35 0 0 0-3.04 2.03 9.37 9.37 0 0 0-2.033 3.039c-.47 1.137-.713 2.355-.713 3.585a9.25 9.25 0 0 0 .738 3.643 9.24 9.24 0 0 0 2.111 3.06 12.7 12.7 0 0 1 2.033 3.407c.258 1 .837 1.865 1.645 2.492a4.63 4.63 0 0 0 2.823.972c.874.004 1.73-.24 2.47-.706a4.61 4.61 0 0 0 1.708-1.92v-.134a4.1 4.1 0 0 0 .245-.67 12.6 12.6 0 0 1 2.402-3.798l.213-.223c.032-.033.058-.07.078-.112 1.148-1.365 1.883-3.03 2.118-4.8a9.37 9.37 0 0 0-9.279-10.607l.067.034z"/></g><path d="M95.85 91.118V65.423a2.47 2.47 0 0 1 .281-1.105c.178-.34.434-.636.747-.86l30.834-17.685a.66.66 0 0 1 .648 0l.76.447-.76 1.117v24.97a2.47 2.47 0 0 1-.297 1.034 2.48 2.48 0 0 1-.708.809L97.19 92.503l-.28-.123-.75-.447a.94.94 0 0 1-.313-.816z" fill="#fff"/><path d="M97.192 92.816l-.37-.123-.916-.57a1.31 1.31 0 0 1-.335-.95V65.48c-.001-.44.105-.873.3-1.262s.5-.723.863-.972l30.8-17.73a1.05 1.05 0 0 1 .659-.145l1.274.726-.894 1.262v24.88a2.71 2.71 0 0 1-.287 1.253c-.194.39-.48.725-.83.98L97.192 92.816zm-.827-1.117l.782.447 29.973-18.288a2.15 2.15 0 0 0 .651-.754 2.14 2.14 0 0 0 .243-.966V47.08l.637-.905-.492-.28a.39.39 0 0 0-.197-.022c-.067.01-.13.037-.183.078L97.047 63.714c-.273.197-.496.455-.65.754s-.238.63-.243.966V91.13c-.012.107.001.215.038.316a.69.69 0 0 0 .175.265v-.01z" class="B"/><path d="M97.76 92.604l30.812-17.718a2.45 2.45 0 0 0 .743-.862 2.44 2.44 0 0 0 .273-1.105V47.057c0-.76-.458-1.117-1.027-.782l-30.78 17.718a2.47 2.47 0 0 0-1.028 1.966v25.103c-.022.76.436 1.866 1.005 1.542z" class="C"/><path d="M97.56 92.94c-.118.004-.235-.027-.335-.09-.255-.22-.457-.496-.6-.805s-.195-.645-.18-.982V65.96c-.006-.435.092-.864.286-1.253s.48-.725.83-.98l30.9-17.685a.92.92 0 0 1 .467-.161c.168-.01.335.026.483.105.177.123.316.293.403.5s.117.414.09.627v25.862a2.77 2.77 0 0 1-.292 1.251c-.194.388-.477.725-.826.984l-30.89 17.65a.67.67 0 0 1-.346.089zM129 46.43c-.096.007-.188.038-.268.09L97.93 64.24c-.27.2-.49.46-.643.758s-.24.627-.25.962v25.103c-.014.483.163.953.492 1.307.02.01.04.016.062.016s.043-.006.06-.016l30.822-17.73a2.16 2.16 0 0 0 .644-.756 2.17 2.17 0 0 0 .239-.964V47.057a.68.68 0 0 0-.034-.322c-.037-.103-.098-.196-.178-.27L129 46.43z" class="B"/><path d="M98.488 89.934l29.404-16.914a1.13 1.13 0 0 0 .322-.379 1.12 1.12 0 0 0 .125-.481V48.543c0-.335-.2-.492-.458-.346L98.5 65.11a1.12 1.12 0 0 0-.324.384c-.078.15-.12.318-.123.487v23.606c-.022.335.18.492.436.346z" fill="#fff"/><path d="M98.31 90.27c-.1-.001-.178-.024-.257-.067-.096-.07-.174-.162-.224-.27s-.073-.226-.066-.345V65.982c.003-.22.058-.436.16-.63s.25-.36.43-.487l29.415-16.858c.088-.052.19-.08.29-.08a.57.57 0 0 1 .29.08.67.67 0 0 1 .226.263.68.68 0 0 1 .065.341v23.617c-.001.22-.056.437-.16.63s-.252.36-.433.486L98.623 90.18a.67.67 0 0 1-.313.089zm29.76-41.86L98.646 65.356c-.096.074-.174.17-.228.277s-.083.227-.085.35v23.606c-.008.044-.008.1 0 .134l.156.212-.18-.246 29.403-16.914a.8.8 0 0 0 .228-.277c.055-.108.084-.227.085-.35V48.543a.48.48 0 0 0 .034-.134h.01z" class="B"/><path d="M97.996 92.694l1.653-.145 29.538-16.98c.354-.16.74-.235 1.13-.217a2.47 2.47 0 0 1 1.105.318l20.455 11.83 1.117-.09v.313c-.001.123-.038.243-.105.346s-.162.184-.274.235l-30.845 17.73c-.353.163-.74.24-1.128.224a2.46 2.46 0 0 1-1.107-.314L98.532 94.615c-.145-.064-.27-.164-.365-.29s-.153-.277-.17-.435v-1.195z" fill="#fff"/><g class="C"><path d="M120.768 106.535a2.89 2.89 0 0 1-1.397-.357L98.402 94.86a1.33 1.33 0 0 1-.648-.749v-1.63l1.855-.156 29.438-16.948a2.76 2.76 0 0 1 1.262-.255c.435.016.86.134 1.24.345l20.39 11.797 1.296-.112v.894c-.04.118-.104.228-.186.322s-.183.17-.295.226l-30.878 17.685a2.3 2.3 0 0 1-1.106.257zM98.313 93.7v.2c0 .156.156.335.402.48l20.935 11.328a2.24 2.24 0 0 0 .962.268c.337.015.673-.046.982-.178l30.834-17.674c.112-.067.246-.18.235-.324l-.87.078-20.523-11.93a2.23 2.23 0 0 0-.962-.267c-.336-.016-.672.045-.982.178l-29.65 17.026-1.363.123v.704z"/><path d="M121.768 105.507L152.58 87.79c.57-.324.49-.905-.156-1.285L131.42 74.36c-.34-.19-.717-.3-1.105-.318a2.47 2.47 0 0 0-1.13.217l-30.81 17.718c-.57.324-.503.905.156 1.285l21.003 12.144c.338.19.717.3 1.105.317s.775-.057 1.13-.217z"/><path d="M120.784 106c-.488.002-.97-.12-1.396-.358L98.396 93.497c-.192-.08-.357-.213-.478-.383a1.12 1.12 0 0 1-.204-.577.94.94 0 0 1 .514-.804l30.81-17.718c.396-.182.83-.267 1.264-.25a2.76 2.76 0 0 1 1.239.351l20.99 12.155c.192.08.358.213.478.383s.19.37.204.577c-.006.17-.058.334-.15.475s-.223.256-.375.33l-30.812 17.708c-.334.186-.712.28-1.095.268zm9.362-31.694a1.74 1.74 0 0 0-.826.19L98.508 92.224a.39.39 0 0 0-.235.313c0 .156.145.335.402.48l20.99 12.155a2.24 2.24 0 0 0 1.933.089l30.812-17.718c.1 0 .245-.156.245-.313s-.145-.335-.402-.48l-20.99-12.155c-.345-.182-.728-.278-1.118-.28z"/></g><path d="M113.314 99.8l29.404-16.903c.257-.145.223-.402-.067-.57l-11.73-6.804c-.153-.075-.32-.114-.49-.114a1.12 1.12 0 0 0-.492.114l-29.392 16.87c-.257.145-.224.39.067.56l11.74 6.815c.148.077.3.12.477.125a1.12 1.12 0 0 0 .484-.092z" class="B"/><path d="M112.89 100.2c-.243.003-.482-.06-.693-.18l-11.73-6.804c-.107-.05-.2-.13-.266-.228s-.106-.212-.114-.33a.57.57 0 0 1 .084-.287c.053-.087.128-.157.218-.205l29.404-16.914a1.39 1.39 0 0 1 .631-.151c.22 0 .435.052.63.15l11.73 6.815c.11.05.202.127.27.226a.65.65 0 0 1 .111.333.57.57 0 0 1-.302.48l-29.404 16.958c-.174.095-.37.14-.57.135zm17.472-24.522c-.1-.004-.2.02-.3.067l-29.404 16.96.078.078 11.73 6.815c.11.05.23.074.352.074s.24-.025.352-.074l29.404-16.947-.078-.078-11.73-6.815a.91.91 0 0 0-.414-.078z" class="C"/><g class="B"><path d="M132.682 97.877l7.73-4.47c.134-.067.123-.212 0-.302l-6.256-3.62a.58.58 0 0 0-.525 0l-7.73 4.47c-.134.078-.123.212 0 .302l6.256 3.63c.083.04.173.06.264.057a.58.58 0 0 0 .261-.068z"/><path d="M132.464 98.212c-.153.004-.304-.034-.436-.112l-6.256-3.63a.47.47 0 0 1-.268-.413c-.002-.076.02-.15.058-.217s.097-.118.165-.152l7.742-4.47a.84.84 0 0 1 .794 0l6.256 3.63a.47.47 0 0 1 .192.169c.048.073.074.158.076.245a.42.42 0 0 1-.224.369l-7.742 4.47c-.107.067-.23.106-.357.112zm-6.223-4.145l6.122 3.553c.037.016.077.025.118.025a.29.29 0 0 0 .117-.025l7.563-4.346-6.122-3.553c-.08-.032-.167-.032-.246 0l-7.552 4.346z"/></g><path d="M142.717 82.907l-.134.078-11.663-6.77c-.153-.075-.32-.114-.492-.114s-.338.04-.5.114l-29.26 16.8h-.078c-.3-.168-.324-.413-.067-.56l29.404-16.96a1.11 1.11 0 0 1 .49-.114 1.12 1.12 0 0 1 .492.114l11.73 6.804c.347.212.347.47.067.614zM140.42 93.42l-.224.134-6.066-3.52a.58.58 0 0 0-.525 0l-7.507 4.323-.2-.112c-.157-.1-.168-.223 0-.302l7.73-4.47a.58.58 0 0 1 .262-.063c.1 0 .18.022.263.063l6.256 3.62c.123.112.134.257 0 .324z" class="C"/><g class="B"><path d="M114.688 73.936l-.4-.402c.1-.078 8.367-8.5 8.38-19.785h.558c-.01 11.53-8.457 20.098-8.546 20.187zm-14.916 10.68l-.346-.458c.156-.112 14.77-10.7 14.746-21.048h.56c.045 10.647-14.344 21.06-14.96 21.506z"/><path d="M100.958 85.812l-.302-.47c.145-.112 14.77-10.7 14.747-21.047h.56v9.9c1.765-2 7.887-9.563 7.898-19.27h.56v17.27l-23.46 13.607zm14.445-17.763c-1.82 6.368-7.82 12.3-11.43 15.372l19.908-11.54V60.094a33.37 33.37 0 0 1-7.988 15.015l-.47.48-.022-7.54zm-36.766 52.05L52.15 104.804 69.9 94.56l26.488 15.294-17.74 10.245zm-25.37-15.294l25.37 14.702 16.623-9.597L69.9 95.207l-16.623 9.597z"/><path d="M52.707 101.34l25.93 14.97 17.182-9.92-25.93-14.97-17.182 9.92z"/></g><path d="M78.637 116.634l-26.49-15.294 17.74-10.244 26.49 15.304-17.74 10.244zm-25.37-15.294l25.37 14.646L95.26 106.4 69.9 91.744l-16.623 9.596zm37.527 4.46l-12.65 7.294.28.484 12.65-7.294-.28-.484zm-2.018-1.148l-12.64 7.288.28.484 12.64-7.288-.28-.484zm-2.006-1.16l-12.65 7.294.28.484 12.65-7.295-.28-.483zm-5.983 1.147l-8.662 4.995.28.484 8.662-4.995-.28-.484zm-2.012-1.143l-8.662 4.995.28.484 8.662-4.995-.28-.484z" class="C"/><path d="M77.88 98.77c-3.888 2.48-10.546 2.66-14.87.413s-4.67-6.088-.77-8.57 10.546-2.66 14.858-.402 4.67 6.09.782 8.558z" class="B"/><path d="M70.09 101.027a15.96 15.96 0 0 1-7.217-1.631c-2.234-1.184-3.54-2.815-3.62-4.603s.927-3.24 2.827-4.47c3.966-2.514 10.758-2.704 15.15-.413 2.234 1.117 3.553 2.815 3.63 4.592s-.938 3.24-2.838 4.47a15.12 15.12 0 0 1-7.932 2.055zm-.09-12.1a14.52 14.52 0 0 0-7.619 1.933c-1.72 1.117-2.636 2.502-2.57 3.955s1.24 3.05 3.35 4.134c4.245 2.235 10.78 2.022 14.602-.402a4.67 4.67 0 0 0 2.57-3.944c-.067-1.586-1.25-3.05-3.352-4.134a15.33 15.33 0 0 0-6.982-1.542z" class="C"/><g class="B"><path d="M76.583 94.215c.008-2.073-2.906-3.765-6.51-3.78s-6.53 1.654-6.54 3.727 2.906 3.765 6.51 3.78 6.53-1.654 6.54-3.728z"/><path d="M74.648 92.023l-.324-1.843c1.117-.212 4.47-1.195 4.47-2.882 0-.58-.2-.737-.268-.782-.684-.258-1.44-.258-2.123 0l-.58-1.787c.246-.078 2.413-.748 3.8.257a2.67 2.67 0 0 1 1.05 2.313c-.045 3.553-5.418 4.614-6.033 4.726z"/></g><g class="C"><path d="M77.175 83.175H62.93s-.078 3.944 1.117 6.19c.7 1.407 1.18 2.915 1.42 4.47.092.407.282.785.555 1.1s.62.56 1.01.71a7.17 7.17 0 0 0 3.267.687c1.128-.03 2.232-.328 3.224-.866.295-.165.548-.394.742-.67s.322-.594.375-.927c.242-1.553.72-3.06 1.42-4.47 1.207-2.3 1.117-6.223 1.117-6.223z"/><path d="M75.342 86a11.17 11.17 0 0 1-10.055.279c-2.927-1.575-3.162-4.178-.492-5.865 1.536-.834 3.248-1.293 4.995-1.34s3.48.32 5.06 1.07c2.894 1.53 3.128 4.122.492 5.854z"/></g><path d="M70.078 87.554c-1.707.02-3.395-.36-4.927-1.117a4.01 4.01 0 0 1-2.502-3.184 3.62 3.62 0 0 1 1.955-3.095c1.582-.855 3.342-1.325 5.14-1.374s3.58.326 5.206 1.094a4.01 4.01 0 0 1 2.502 3.184c-.02.644-.21 1.27-.554 1.815s-.828.986-1.4 1.28a10.47 10.47 0 0 1-5.418 1.396zm0-8.2c-1.794-.047-3.565.406-5.117 1.307a3.04 3.04 0 0 0-1.698 2.592 3.54 3.54 0 0 0 2.234 2.715c1.538.726 3.225 1.08 4.925 1.033a10.85 10.85 0 0 0 4.861-1.301 3.04 3.04 0 0 0 1.698-2.592 3.54 3.54 0 0 0-2.234-2.715c-1.47-.715-3.09-1.07-4.726-1.04h.056z" class="B"/><path d="M74.125 85.097a9.35 9.35 0 0 1-7.742.201c-2.234-1.06-2.424-2.87-.402-4.044 1.204-.582 2.52-.9 3.856-.933s2.666.22 3.897.743c2.234 1.06 2.413 2.87.39 4.033z" class="C"/><g class="B"><path d="M70.07 86.314a9.08 9.08 0 0 1-3.798-.771c-1.24-.58-1.944-1.396-1.977-2.3a2.57 2.57 0 0 1 1.553-2.234c1.24-.6 2.594-.93 3.972-.965s2.747.226 4.016.764c1.24.58 1.944 1.397 1.977 2.3a2.57 2.57 0 0 1-1.553 2.234 8.57 8.57 0 0 1-4.189.972zm0-5.71c-1.354-.034-2.695.274-3.9.894-.85.492-1.296 1.117-1.274 1.72s.626 1.34 1.654 1.82a9.03 9.03 0 0 0 3.733.716c1.28-.03 2.54-.33 3.697-.884.85-.492 1.296-1.117 1.273-1.72s-.626-1.34-1.653-1.82a8.59 8.59 0 0 0-3.575-.726h.045z"/><path d="M65.978 83.376a3.44 3.44 0 0 0-1.017.849 3.79 3.79 0 0 0 1.419 1.117 9.35 9.35 0 0 0 7.742-.201c.393-.21.74-.5 1.017-.85-.375-.482-.862-.865-1.42-1.117-1.23-.52-2.558-.77-3.893-.735s-2.647.354-3.85.936z"/><path d="M70.07 86.314a9.17 9.17 0 0 1-3.81-.771c-.585-.247-1.102-.63-1.508-1.117l-.134-.18.134-.168a3.51 3.51 0 0 1 1.117-.927 9.73 9.73 0 0 1 7.999-.201 4 4 0 0 1 1.508 1.117l.134.167-.134.168a3.35 3.35 0 0 1-1.117.927 8.57 8.57 0 0 1-4.189.983zm-4.737-2.09a3.82 3.82 0 0 0 1.173.816 9.03 9.03 0 0 0 3.755.726c1.29-.03 2.557-.334 3.72-.894a3.54 3.54 0 0 0 .793-.614 3.8 3.8 0 0 0-1.173-.804c-1.186-.506-2.467-.752-3.756-.72s-2.557.337-3.718.9c-.293.155-.56.355-.793.592z"/><path d="M66.828 84.694c-.613.004-1.225-.037-1.832-.123h-.112l-.09-.1v-.078l-.134-.168.134-.168a3.51 3.51 0 0 1 1.117-.927 9.62 9.62 0 0 1 6.703-.626l.525.134-.424.346c-.227.19-.47.363-.726.514-1.595.82-3.368 1.23-5.16 1.195zm-1.34-.626a10.76 10.76 0 0 0 6.245-1.117l.18-.1a8.94 8.94 0 0 0-5.787.704c-.23.146-.445.32-.637.514z"/></g><path d="M71.63 85.856c-.96 0-1.7-.402-1.7-.905s.75-.916 1.7-.916 1.7.402 1.7.916-.726.905-1.7.905zm0-1.262c-.715 0-1.117.268-1.117.37a1.58 1.58 0 0 0 1.117.335c.715 0 1.117-.257 1.117-.358a1.54 1.54 0 0 0-1.117-.346zm6.146 6.714l-.212-.514c.715-.302 3.284-1.866 2.748-4.055a2.77 2.77 0 0 0-3.128-2l-.078-.56s3.06-.4 3.742 2.424c.626 2.525-2.078 4.3-3.072 4.703zM21.43 167.712L.38 155.255a.08.08 0 0 1-.022-.027c-.005-.01-.008-.023-.008-.034s.003-.024.008-.035.013-.02.022-.027l20.1-11.373c.012-.005.026-.008.04-.008a.11.11 0 0 1 .04.008l21.036 12.423c.01.008.017.017.022.028s.008.022.008.034-.003.023-.008.034-.013.02-.022.027L21.43 167.712z" class="C"/><path d="M21.462 168.002a.43.43 0 0 1-.168 0L.246 155.523c-.053-.03-.098-.074-.13-.127s-.047-.113-.047-.175.016-.12.047-.174.075-.097.13-.127l20.277-11.44.212.067 21.048 12.434c.052.034.095.08.124.135a.37.37 0 0 1 .044.178v.156l-.18.134-20.11 11.373c-.062.032-.13.047-.2.045zM.84 155.255l20.623 12.177L41.18 156.26l-20.623-12.177L.84 155.255z" class="B"/><path d="M.277 155.344v7.508l21.036 12.39c.012.006.024.008.037.008s.025-.005.037-.01.02-.016.027-.027.01-.024.01-.037v-7.407L.39 155.255c-.012-.015-.03-.024-.048-.027s-.038.004-.053.016-.024.03-.026.048a.07.07 0 0 0 .015.052z" class="C"/><g class="B"><path d="M21.383 175.588a.34.34 0 0 1-.168 0L0 163.075v-7.73a.36.36 0 0 1 .05-.175c.03-.052.076-.096.13-.127a.35.35 0 0 1 .173-.046.35.35 0 0 1 .173.046l21.036 12.423c.053.03.098.075.13.127a.36.36 0 0 1 .05.175v7.462a.38.38 0 0 1-.111.247c-.066.066-.154.105-.247.11zM.56 162.73l20.668 12.133V167.9L.56 155.713v7.016z"/><path d="M41.737 156.372v7.585a.07.07 0 0 1 .009.034.07.07 0 0 1-.009.034l-20.11 11.238c-.01.006-.02.01-.033.01s-.023-.003-.033-.008-.02-.014-.025-.024-.01-.02-.01-.033v-7.44l20.11-11.373c.005-.008.01-.016.02-.022s.017-.01.026-.012.02-.003.03 0 .02.006.026.012z"/><path d="M21.526 175.587a.36.36 0 0 1-.246-.108c-.065-.067-.1-.156-.1-.25v-7.463a.37.37 0 0 1 .046-.172c.03-.052.07-.097.12-.13l20.1-11.372c.053-.03.114-.045.175-.044s.12.02.173.05a.33.33 0 0 1 .124.13c.03.053.044.114.042.175v7.586c.003.06-.01.122-.04.175s-.074.097-.127.127l-20.1 11.25c-.052.026-.1.04-.168.044zm.212-7.697v6.993l19.718-11.015v-7.105L21.738 167.9zm-1.083-21.75v7.52c.005.008.007.018.007.028a.06.06 0 0 1-.007.028L11.438 159c-.012.005-.026.008-.04.008a.11.11 0 0 1-.04-.008l-6.578-3.9a.08.08 0 0 1-.022-.027c-.005-.01-.008-.023-.008-.034s.003-.024.008-.035.013-.02.022-.027l15.797-8.937c.01 0 .023.002.033.007s.02.01.027.02.013.018.016.03.004.022.002.033z"/><path d="M11.37 159.288c-.067-.001-.133-.02-.2-.056l-6.58-3.876c-.052-.034-.095-.08-.124-.135a.37.37 0 0 1-.044-.178.36.36 0 0 1 .179-.302l15.797-8.937c.054-.027.113-.042.173-.042s.12.015.173.042a.36.36 0 0 1 .132.132c.03.055.048.117.047.18v7.518a.38.38 0 0 1-.047.171c-.03.053-.07.098-.12.13l-9.228 5.284c-.05.033-.108.056-.168.067zm-6.167-4.234l6.167 3.642 9.004-5.16v-7.038l-15.17 8.557z"/></g><path d="M20.7 153.713l10.055 5.888c.012.005.026.008.04.008s.027-.003.04-.008l6.468-3.653c.01-.008.017-.017.022-.028s.008-.022.008-.034-.003-.023-.008-.034-.013-.02-.022-.027l-16.512-9.753c-.01-.007-.023-.01-.036-.01s-.025.004-.035.01-.02.017-.024.028-.007.024-.005.037v7.518c-.003.01-.004.02-.002.03s.006.02.013.026z" class="C"/><g class="B"><path d="M30.752 159.89c-.063-.002-.125-.022-.18-.055L20.52 153.96c-.05-.033-.09-.078-.12-.13a.38.38 0 0 1-.047-.171v-7.52a.36.36 0 0 1 .047-.181c.03-.054.077-.1.132-.132l.145-.078.2.09 16.512 9.742c.05.033.092.078.12.13s.045.112.046.172-.016.125-.047.18-.077.1-.132.133l-6.468 3.653a.45.45 0 0 1-.156.044zm-9.82-6.356l9.83 5.764 6.1-3.418-15.875-9.373-.056 7.027z"/><path d="M20.654 153.814v10.568c.001.014-.002.027-.008.04s-.017.02-.03.027-.026.01-.04.007-.026-.008-.036-.017l-9.07-5.362c-.01-.008-.017-.017-.022-.028s-.008-.022-.008-.034.003-.023.008-.034.013-.02.022-.027l9.072-5.195c.01-.01.023-.015.036-.017s.027.001.04.007.022.015.03.027.01.025.008.04z"/><path d="M20.59 164.73a.38.38 0 0 1-.19 0l-9.07-5.352c-.05-.033-.092-.077-.12-.13s-.045-.11-.046-.17.013-.124.045-.177.078-.097.134-.125l9.07-5.206a.32.32 0 0 1 .173-.05c.06 0 .12.017.173.05s.098.075.13.127a.36.36 0 0 1 .05.175v10.568c-.001.06-.018.12-.05.174a.36.36 0 0 1-.129.128.33.33 0 0 1-.168-.011zm-8.67-5.71l8.457 4.994v-9.876l-8.457 4.882z"/></g><path d="M20.757 153.758l9.898 5.798c.01.007.017.017.022.027s.008.023.008.035-.003.023-.008.034-.013.02-.022.027l-9.295 5.24-.704-.414v-10.69c0-.012.004-.023.01-.033s.015-.018.025-.024.02-.008.033-.008.023.003.033.01z" class="C"/><path d="M21.358 165.243l-.983-.58v-10.848a.35.35 0 0 1 .05-.174.36.36 0 0 1 .129-.128.35.35 0 0 1 .346 0l9.898 5.798c.05.036.092.082.12.137s.045.114.046.176-.02.122-.05.174a.36.36 0 0 1-.129.128l-9.43 5.318zm-.425-.905l.436.257 8.792-4.983-9.228-5.474v10.2z" class="B"/><path d="M2.29 164.193L5.45 188.3l15.864 9.43c.01.01.023.015.036.017s.027-.001.04-.007.022-.015.03-.027.01-.025.008-.04v-22.3c.008-.02.008-.045 0-.067l-18.992-11.17c-.01-.02-.025-.035-.045-.042s-.042-.006-.06.002-.034.026-.042.045-.006.042.002.062z" class="C"/><g class="B"><path d="M21.384 198.087a.3.3 0 0 1-.168 0l-15.998-9.55v-.2l-3.206-24.098c-.01-.066-.001-.135.026-.196s.073-.114.13-.15.12-.055.184-.055.13.02.184.055l19.17 11.272v22.567a.36.36 0 0 1-.179.302c-.044.026-.094.04-.145.044zm-15.64-9.91l15.484 9.194v-21.85L2.615 164.595l3.128 23.583z"/><path d="M21.562 197.797l14.6-8.334v-.056l3.352-23.975c.001-.013-.001-.027-.007-.04s-.015-.023-.026-.03-.025-.013-.038-.014-.028.001-.04.007l-17.875 9.977a.1.1 0 0 0 0 .067v22.343c.001.013.006.024.014.034s.018.018.03.022z"/><path d="M21.528 198.087c-.055.017-.113.017-.168 0-.06-.04-.106-.1-.13-.167s-.025-.143-.004-.213v-22.343a.36.36 0 0 1 .179-.313l17.875-9.965c.055-.036.12-.055.184-.055s.13.02.184.055a.34.34 0 0 1 .122.146c.026.06.034.125.023.19l-3.35 24.11-.156.123-14.523 8.345c-.03.03-.068.053-.108.068s-.083.023-.126.02zm.212-22.567v21.863l14.177-8.1 3.23-23.46-17.406 9.708z"/></g><path d="M21.484 158.986l3.776.123c.405.013.797.148 1.123.387a2.01 2.01 0 0 1 .709.954l.346.994c.01.013.014.03.014.045s-.005.03-.014.044l-5.988 3.352c-.013.01-.03.014-.045.014s-.032-.005-.045-.014l-2.58-3.73c-.012-.014-.018-.032-.018-.05s.006-.036.018-.05l2.68-2.044.022-.023z" class="C"/><path d="M21.383 165.198a.34.34 0 0 1-.165-.042c-.05-.027-.094-.066-.125-.115l-2.58-3.73c-.05-.073-.07-.163-.054-.25s.062-.166.132-.22l2.77-2.123h.134l3.776.123c.46.008.908.16 1.28.43s.65.652.798 1.09l.357 1.005c.028.077.026.162-.005.24s-.09.138-.163.174l-5.977 3.352a.52.52 0 0 1-.179.067zm-2.3-4.044l2.357 3.418 5.664-3.206-.29-.827a1.72 1.72 0 0 0-.611-.797c-.28-.2-.6-.3-.953-.32l-3.71-.112-2.458 1.844z" class="B"/><path d="M13.988 160.472l5.228-4.725c.167-.15.365-.262.58-.325a1.48 1.48 0 0 1 .664-.038c.222.037.432.125.615.255s.334.3.44.5l1.944 3.52c.12.24.15.515.086.776a1.12 1.12 0 0 1-.443.643l-2.47 1.586-4.647-.938-1.922-1.118c-.018.01-.04.014-.06.008s-.037-.018-.047-.036-.013-.04-.008-.058a.08.08 0 0 1 .036-.048z" class="C"/><path d="M20.688 162.963h-.168l-4.726-1.005-2.067-1.218v-.2a.38.38 0 0 1 .112-.301l5.15-4.715c.198-.177.434-.307.69-.38a1.77 1.77 0 0 1 .786-.043c.263.042.513.145.73.3a1.73 1.73 0 0 1 .521.593l1.944 3.52c.162.3.204.652.12.983a1.36 1.36 0 0 1-.578.804l-2.514 1.653zm-6.312-2.468l1.687.994 4.47.894 2.413-1.542c.17-.11.292-.277.34-.472s.024-.402-.073-.578l-1.988-3.52c-.09-.16-.212-.3-.36-.405s-.32-.178-.5-.2-.363-.018-.538.035-.334.143-.468.267l-4.983 4.536z" class="B"/><path d="M15.505 161.332l4.223-.39c.194-.016.4.007.575.068s.355.16.5.3a1.44 1.44 0 0 1 .345.464c.082.177.127.37.133.564l.078 2.48c-.001.013-.004.025-.01.036s-.016.02-.027.027-.024.01-.036.01a.08.08 0 0 1-.037-.007l-5.776-3.42c-.012-.008-.02-.02-.026-.032s-.006-.028-.002-.04.012-.026.023-.035.024-.014.04-.015z" class="C"/><path d="M21.3 165.164c-.064-.001-.126-.02-.18-.056l-5.776-3.35a.36.36 0 0 1-.168-.38.35.35 0 0 1 .112-.186c.056-.048.127-.077.2-.082l4.212-.4a1.76 1.76 0 0 1 .691.081c.223.073.428.2.605.343a1.68 1.68 0 0 1 .416.554c.098.212.15.442.154.675l.078 2.48a.34.34 0 0 1-.04.18c-.03.055-.073.1-.127.133a.36.36 0 0 1-.179 0zm-5.117-3.62l4.893 2.893-.067-2.1a1.08 1.08 0 0 0-.096-.46 1.12 1.12 0 0 0-.687-.613 1.11 1.11 0 0 0-.469-.043l-3.575.324zM207.8 211.326c-.2.046-.4.052-.612.017a1.58 1.58 0 0 1-.572-.22 1.57 1.57 0 0 1-.445-.422c-.12-.17-.203-.36-.247-.56l-10.547-47c-2.306-10.152-8.323-19.077-16.87-25.024l-19.238 43.1a1.57 1.57 0 0 1-.875.826 1.58 1.58 0 0 1-1.996-2.11l20.68-46.486 1.542.983a44.96 44.96 0 0 1 19.785 27.997l10.513 47a1.58 1.58 0 0 1-.21 1.186c-.224.352-.58.6-.986.7h.078z" class="B"/><g class="D"><path d="M140 171.152s-7.82 5.988-14.825 7.307a3.35 3.35 0 0 0-1.515.785c-.43.388-.75.88-.932 1.43s-.22 1.135-.107 1.702.368 1.096.744 1.535l.067.08 4.47-.235c3.932-.212 7.82.212 11.484-1.34 1.665-.715 3.352-1.943 3.508.492 0 0 .257 1.117 3.664.145.942-.294 1.73-.945 2.2-1.814a3.78 3.78 0 0 0 .304-2.833c-.447-1.61-.994-3.218-1.307-4.87-.224-1.195-1.04-3.452-3.977-2.47-3.922 1.296-3.776.09-3.776.09z"/><path d="M128.64 179.32c-.322-.74-.395-1.566-.207-2.352a3.73 3.73 0 0 1 1.246-2.005c.538-.518 1.26-.803 2.008-.8a2.83 2.83 0 0 1 1.98.857l-.793.804c-.16-.16-.35-.287-.56-.373s-.433-.132-.66-.132-.45.045-.66.132-.4.213-.56.373c-.44.35-.753.834-.894 1.378a2.59 2.59 0 0 0 .112 1.639l-1.016.47z"/><path d="M132.263 177.096a3.75 3.75 0 0 1-.204-2.351c.187-.786.623-1.5 1.243-2.006a2.84 2.84 0 0 1 .925-.598 2.83 2.83 0 0 1 1.083-.197 2.82 2.82 0 0 1 1.981.862l-.794.804a1.74 1.74 0 0 0-.558-.374 1.71 1.71 0 0 0-.66-.13c-.227 0-.45.045-.66.13a1.73 1.73 0 0 0-.559.374 2.59 2.59 0 0 0-.782 3.016l-1.017.47zm6.522-9.742l.793 6.815c.042.413.234.798.542 1.078a1.69 1.69 0 0 0 1.123.441h2.156c.234-.005.465-.058.677-.157s.402-.24.558-.415a1.68 1.68 0 0 0 .344-.603c.072-.223.098-.458.074-.7l-.748-9.485-5.52 3.017z"/></g><path d="M138.527 164.64l.794 6.815a1.7 1.7 0 0 0 1.664 1.519h2.156a1.71 1.71 0 0 0 .679-.156 1.72 1.72 0 0 0 .559-.415c.156-.175.275-.38.348-.603s.1-.458.08-.69l-.76-9.485-5.52 3.016z" class="E"/><g class="D"><path d="M140.998 173.253a1.98 1.98 0 0 1-1.308-.514c-.358-.325-.584-.77-.636-1.25l-.816-7.005 6.067-3.352.793 9.92c.018.28-.02.56-.112.825a2.08 2.08 0 0 1-.425.717c-.18.194-.397.35-.64.458s-.503.164-.768.167h-2.156v.034zm-2.156-8.468l.77 6.636a1.4 1.4 0 0 0 .442.901c.254.235.586.368.933.372h2.156a1.38 1.38 0 0 0 .548-.12 1.39 1.39 0 0 0 .457-.327c.135-.15.24-.328.304-.52s.09-.395.076-.597l-.726-9.06-4.96 2.715z"/><path d="M129.968 115.53c-3.832 6.546-2.413 13.897-1.877 15.83l10.613 37.29c.09.33.29.615.572.807s.62.28.96.243l3.262-.402a1.43 1.43 0 0 0 .869-.455c.226-.25.358-.57.37-.908l1.575-25.013c.57-6.927-1.888-10.68-2.938-11.943-.032-.035-.053-.08-.06-.127s.002-.096.024-.138a.23.23 0 0 1 .098-.1c.042-.022.1-.03.138-.026 1.53.212 10.055-8.937 9.82-12.01-.615-7.52-22.7-4.324-23.427-3.05z"/><path d="M140.057 169.98c-.37-.002-.73-.128-1.024-.356a1.69 1.69 0 0 1-.596-.906l-10.613-37.28c-.246-.894-2.234-8.937 1.91-16.043.636-1.117 11.73-2.86 18.49-1.318 3.44.782 5.273 2.234 5.452 4.47s-3.955 7.384-7.016 10.255c-1.43 1.352-2.447 2.034-3.017 2.056 1.118 1.374 3.52 5.184 2.95 12.077-.66 7.82-1.42 22.21-1.576 25.002a1.7 1.7 0 0 1-.448 1.08c-.27.297-.64.488-1.037.54l-3.263.402-.212.022zm-9.842-54.305c-4.067 6.937-2.09 14.735-1.855 15.64l10.614 37.29a1.11 1.11 0 0 0 .451.66c.227.157.504.224.777.19l3.263-.402c.274-.03.528-.16.71-.367s.285-.474.283-.75l1.575-25.025c.56-6.803-1.82-10.48-2.87-11.74-.07-.083-.114-.185-.124-.293s.014-.216.068-.3a.49.49 0 0 1 .218-.205c.092-.044.195-.06.296-.04.2 0 .983-.335 2.66-1.9 3.35-3.15 6.982-7.955 6.837-9.81-.134-1.687-1.464-2.927-3.955-3.698-6.703-2.11-18.32.01-18.947.76z"/></g><g class="B"><path d="M196.857 162.807a1.59 1.59 0 0 0-.398-.47 1.56 1.56 0 0 0-.547-.282c-.2-.058-.408-.075-.614-.05a1.58 1.58 0 0 0-.586.19l-29.594 16.422a39.75 39.75 0 0 0-7.587-15.044c-3.574-4.414-8.054-8.012-13.137-10.55l-1.474-.738-20.668 46.318a1.59 1.59 0 0 0-.024 1.204 1.58 1.58 0 0 0 .828.874c.2.085.394.132.6.138a1.56 1.56 0 0 0 .607-.105c.194-.075.37-.188.52-.33s.27-.316.35-.506L144.45 156.6c4.617 2.573 8.62 6.117 11.736 10.387a36.56 36.56 0 0 1 6.307 14.347l9.328 47.4c.08.4.32.768.666 1a1.58 1.58 0 0 0 1.177.24 1.54 1.54 0 0 0 .572-.232c.172-.115.322-.262.437-.435a1.54 1.54 0 0 0 .235-.57c.04-.204.04-.414-.004-.617l-9.093-46.25L196.24 165c.186-.1.35-.236.482-.4a1.57 1.57 0 0 0 .334-1.183 1.59 1.59 0 0 0-.201-.594zm-4.26-25.494c-.195-.324-.266-.708-.198-1.08a1.56 1.56 0 0 1 .567-.942c4.022-3.25 4.1-8.635 3.877-11.17a1.56 1.56 0 0 1 .308-1.071c.23-.307.566-.518.943-.594a1.59 1.59 0 0 1 .659.004c.217.047.422.14.6.272a1.58 1.58 0 0 1 .439.492c.1.193.178.407.2.63.28 3.14.145 9.764-5.072 13.908a1.56 1.56 0 0 1-1.264.308 1.53 1.53 0 0 1-.612-.262 1.59 1.59 0 0 1-.448-.493z"/><path d="M198.333 147.77a128.7 128.7 0 0 1-27.315 15.898l-.97.424c-4.37 1.9-11.05 1.564-16.233-.827l-15.64-7.217c-6.402-2.96-9.418-11.305-5.23-14.378l1.53 3.084c9.757-7.048 20.21-13.083 31.19-18.01 5.474-2.49 14.523-1.285 19.506 2.625l13.004 6.435c3.82 2.938 3.296 9.53.156 11.965z"/><path d="M163.384 165.6c-3.34.001-6.64-.708-9.686-2.078l-15.64-7.217a12.8 12.8 0 0 1-7.295-9.674c-.162-.965-.06-1.956.293-2.87a5.44 5.44 0 0 1 1.717-2.315l.27-.2 1.53 3.072c9.696-6.984 20.07-12.972 30.968-17.875 5.586-2.547 14.67-1.33 19.808 2.66l12.96 6.413a7.68 7.68 0 0 1 2.128 2.778c.486 1.077.718 2.252.676 3.433a7.9 7.9 0 0 1-2.648 6.212c-8.43 6.424-17.624 11.78-27.37 15.942l-.972.424c-2.136.876-4.427 1.313-6.736 1.285zm-30.5-23.46c-.602.562-1.056 1.264-1.32 2.044s-.333 1.613-.198 2.425c.306 1.992 1.103 3.878 2.317 5.486a12.17 12.17 0 0 0 4.643 3.731l15.64 7.217c5.117 2.368 11.697 2.703 15.998.826l.972-.424a127.83 127.83 0 0 0 27.248-15.864c.808-.722 1.446-1.615 1.867-2.614s.615-2.08.568-3.162a7.13 7.13 0 0 0-.607-3.167c-.44-.995-1.105-1.876-1.94-2.575l-12.96-6.412c-5.028-3.9-13.842-5.084-19.27-2.615a177.24 177.24 0 0 0-31.147 17.976l-.257.2-1.553-3.073z"/></g><path d="M198.007 143.67c-8.415 6.407-17.6 11.75-27.315 15.908l-.972.425c-4.368 1.9-11.06 1.564-16.232-.827l-15.64-7.217c-6.4-2.96-8.244-7.976-4.044-11.037l.347-.257a176.48 176.48 0 0 1 31.191-18.009c5.474-2.49 14.523-1.285 19.506 2.625l12.032 9.35c3.82 2.938 4.21 6.614 1.128 9.038z" class="C"/><path d="M163.106 161.51a23.59 23.59 0 0 1-9.685-2.078l-15.64-7.217c-3.765-1.754-6.178-4.334-6.435-6.904-.066-.91.117-1.823.53-2.638a5.03 5.03 0 0 1 1.815-1.987l.347-.246a177.89 177.89 0 0 1 31.28-18.042c5.586-2.547 14.67-1.33 19.808 2.66l12.032 9.35c2.11 1.642 3.273 3.586 3.273 5.463a5.06 5.06 0 0 1-2.234 4.021 128.08 128.08 0 0 1-27.382 15.942l-.96.425a17.21 17.21 0 0 1-6.748 1.251zm9.15-39.894a16.34 16.34 0 0 0-6.703 1.296 176.91 176.91 0 0 0-31.147 17.975l-.335.257c-.695.426-1.26 1.035-1.635 1.76a4.46 4.46 0 0 0-.487 2.351c.234 2.38 2.524 4.793 6.1 6.446l15.64 7.217c5.117 2.37 11.685 2.704 15.998.827l.96-.424a127.95 127.95 0 0 0 27.259-15.864 4.55 4.55 0 0 0 1.416-1.558c.343-.622.536-1.318.56-2.028 0-1.7-1.117-3.486-3.06-5.017l-12.032-9.35c-3.678-2.6-8.088-3.96-12.59-3.888h.045z" class="B"/><g class="D"><path d="M106.367 177.732s-8.714 4.47-15.84 4.536a3.26 3.26 0 0 0-1.66.467c-.502.302-.913.733-1.2 1.248a3.26 3.26 0 0 0-.388 1.68c.024.585.205 1.153.523 1.644l.067.09 4.47.57c3.9.502 7.82 1.642 11.72.76 1.754-.402 3.452-1.33 3.173 1.118 0 0 .067 1.173 3.586.804.978-.12 1.868-.622 2.477-1.397a3.73 3.73 0 0 0 .774-2.737c-.168-1.664-.436-3.35-.458-5.027 0-1.206-.447-3.586-3.508-3.15-4.1.558-3.743-.604-3.743-.604z"/><path d="M107.996 172.348l-1.988 6.546c-.124.4-.1.832.068 1.216s.47.693.848.873l1.977.883a1.67 1.67 0 0 0 .668.136c.23-.002.457-.05.667-.144a1.67 1.67 0 0 0 .553-.399c.155-.17.273-.37.346-.587l3.084-8.938-6.223.414z"/></g><path d="M108.867 169.678l-1.988 6.547a1.73 1.73 0 0 0 .905 2.089l1.988.882a1.67 1.67 0 0 0 .668.136c.23-.002.457-.05.667-.144s.398-.23.553-.4.273-.37.346-.587l3.084-8.937-6.223.413z" class="E"/><g class="D"><path d="M110.452 179.62a2.01 2.01 0 0 1-.805-.168l-1.977-.882a2.02 2.02 0 0 1-.986-1.013 2.01 2.01 0 0 1-.075-1.412l2.044-6.703 6.86-.5-3.23 9.373a1.97 1.97 0 0 1-.442.675c-.192.192-.422.342-.675.442-.224.108-.467.17-.715.18zm-1.374-9.675l-1.933 6.368a1.43 1.43 0 0 0 .76 1.743l1.977.882c.174.084.365.127.56.127s.384-.043.558-.127c.183-.076.347-.2.482-.334s.237-.316.3-.504l2.95-8.58-5.653.425zM93.84 183.732a3.72 3.72 0 0 1 1.765-4.111 2.85 2.85 0 0 1 2.121-.413c.734.146 1.38.575 1.8 1.195l-.927.66c-.257-.38-.653-.644-1.102-.734s-.916.001-1.3.253a2.53 2.53 0 0 0-1.1 1.207 2.59 2.59 0 0 0-.164 1.631l-1.084.313z"/><path d="M97.73 182.2a3.71 3.71 0 0 1 1.765-4.1 2.83 2.83 0 0 1 2.12-.417 2.84 2.84 0 0 1 1.8 1.2l-.927.66a1.74 1.74 0 0 0-2.402-.491 2.61 2.61 0 0 0-1.105 1.208c-.23.5-.288 1.082-.17 1.63l-1.084.313zm58.34-50.238s-25.304-13.216-37.157-8.535a7.1 7.1 0 0 0-4.167 5.262l-7.496 45.21a1.44 1.44 0 0 0 .136.989c.16.304.426.54.746.664l3.073 1.195a1.37 1.37 0 0 0 1.709-.614l12.602-21.44c3.62-5.876 3.117-10.367 2.748-11.987a.23.23 0 0 1 .005-.14c.016-.046.045-.085.084-.113s.086-.043.134-.044.095.013.134.04c4.368 3.206 34.934 23.986 49.156 2 11.63-18.1-21.707-12.48-21.707-12.48z"/><path d="M111.716 177.13c-.207.001-.41-.037-.603-.11l-3.084-1.207c-.378-.152-.69-.432-.883-.792s-.252-.775-.167-1.174l7.54-45.2c.207-1.202.712-2.333 1.47-3.29a7.28 7.28 0 0 1 2.865-2.185c11.618-4.592 35.425 7.53 37.302 8.502 1.62-.27 19.416-3.017 23.528 3.24 1.53 2.313.96 5.586-1.687 9.675-1.515 2.52-3.55 4.69-5.966 6.362s-5.163 2.815-8.055 3.346c-15.07 2.76-32.923-9.73-35.403-11.54.37 1.776.77 6.278-2.804 12.088-3.933 6.4-10.647 18.02-12.602 21.438-.147.256-.358.47-.613.62s-.544.228-.84.23zm13.406-54.417c-2.044-.052-4.08.282-6 .983-1.032.447-1.937 1.14-2.634 2.022s-1.167 1.92-1.366 3.028l-7.54 45.2c-.057.274-.017.56.113.806a1.2 1.2 0 0 0 .602.546l2.972 1.184a1.11 1.11 0 0 0 .772.005 1.12 1.12 0 0 0 .591-.496l12.613-21.45c3.552-5.765 3.083-10.166 2.714-11.786a.51.51 0 0 1 .01-.312c.036-.1.103-.186.19-.246a.51.51 0 0 1 .3-.085.5.5 0 0 1 .293.107c2 1.474 19.986 14.288 35.068 11.518 2.817-.52 5.492-1.633 7.848-3.264s4.337-3.744 5.815-6.2c2.525-3.9 3.094-6.95 1.698-9.07-4.022-6.11-22.88-3.005-23.07-2.972h-.18c-.212-.134-18.355-9.518-30.912-9.518h.1z"/></g><path d="M133.98 86.895l2.916-2.234a2.94 2.94 0 0 1 1.955-.38l1.453.246a3.05 3.05 0 0 1 1.754.994l3.262 3.62-11.34-2.246z" fill="#f3e2cc"/><g class="E"><path d="M146.08 89.543l-12.747-2.435 3.352-2.637a3.15 3.15 0 0 1 2.167-.447l1.463.246a3.35 3.35 0 0 1 1.944 1.117l3.82 4.156zm-11.44-2.804l9.91 1.933-2.67-3.005c-.422-.464-.982-.78-1.597-.905l-1.452-.246c-.594-.08-1.197.034-1.72.324l-2.47 1.9z"/><path d="M161.252 95.62c-4.728-2.324-9.71-4.1-14.847-5.262-.168-.313-.302-.525-.302-.525l-4.044-3.73a2.85 2.85 0 0 0-1.586-.726l-1.743-.212c-.527-.065-1.062.02-1.542.246l-3.206 1.486-2.68 1.586-.324.715a2.23 2.23 0 0 0 1.999 0l1.207-.302a3.72 3.72 0 0 1 1.318-.089l2.737.313c.377.048.734.198 1.03.435s.524.55.656.906a4.54 4.54 0 0 0 1.855 2.033l-.458.302a4.65 4.65 0 0 1-2.235.726l-1.117.078c-.4.04-.8-.076-1.117-.324-.816-.626-2.167-.67-2.324.28l1.844 1.207a4.62 4.62 0 0 0 1.999.737l1.955.246a4.73 4.73 0 0 0 2.235-.257h.603c.758.186 1.504.417 2.234.693 2.668 1.21 5.135 2.818 7.318 4.77a12.64 12.64 0 0 0 7.239 2.916 3.86 3.86 0 0 0 1.296 0c.637-.3 11.373-2.413 0-8.245z"/><path d="M160.693 104.223h-.76c-2.754-.205-5.368-1.294-7.452-3.106-2.16-1.943-4.605-3.544-7.25-4.748a18.21 18.21 0 0 0-2.111-.681h-.526a5.08 5.08 0 0 1-2.234.257l-1.966-.246c-.75-.1-1.47-.354-2.1-.77l-2-1.307v-.2c.034-.2.116-.37.24-.517s.283-.263.464-.332c.353-.108.728-.127 1.09-.055s.7.233.987.47c.25.188.56.28.87.257l1.117-.078a4.32 4.32 0 0 0 2.078-.681l.112-.078a4.58 4.58 0 0 1-1.609-1.866 1.79 1.79 0 0 0-.577-.761c-.258-.197-.564-.32-.886-.356l-2.737-.313a3.45 3.45 0 0 0-1.218.078l-1.196.313c-.356.15-.74.22-1.127.204s-.764-.116-1.107-.293l-.235-.123.47-1.028 2.77-1.63 3.23-1.508c.526-.245 1.11-.338 1.687-.268l1.743.212a3.07 3.07 0 0 1 1.731.804l4.156 3.8.246.424c5.118 1.173 10.082 2.94 14.79 5.262 3.743 1.922 5.486 3.62 5.34 5.195-.2 2.033-3.508 3.005-4.915 3.43-.15.03-.295.075-.436.134a1.66 1.66 0 0 1-.681.09zm-17.54-9.094c.758.195 1.504.433 2.234.715a29.06 29.06 0 0 1 7.396 4.815 12.29 12.29 0 0 0 7.139 2.972 4.35 4.35 0 0 0 1.117 0 2.21 2.21 0 0 1 .514-.168c1.184-.357 4.357-1.285 4.47-2.95.09-.894-.715-2.424-5.04-4.648-4.66-2.307-9.57-4.065-14.635-5.24h-.123v-.112c-.123-.235-.234-.413-.268-.48l-4.078-3.72c-.392-.37-.894-.6-1.43-.66l-1.742-.212a2.45 2.45 0 0 0-1.386.223l-3.262 1.44-2.592 1.53-.167.37c.486.183 1.022.183 1.508 0l1.262-.324c.463-.123.944-.157 1.42-.1l2.737.324c.418.044.816.2 1.152.453s.598.59.76.977c.38.796.99 1.458 1.754 1.9l.357.235-.827.536a4.99 4.99 0 0 1-2.346.771l-1.117.078a1.84 1.84 0 0 1-1.262-.38 1.74 1.74 0 0 0-.727-.343c-.266-.056-.54-.05-.804.02a.5.5 0 0 0-.177.097c-.052.044-.094.098-.124.16l1.675 1.117c.564.37 1.207.603 1.877.68l1.955.246a4.58 4.58 0 0 0 2.056-.235h.067l.66-.09z"/><path d="M140.76 87.33l-1.698-.492a4.75 4.75 0 0 0-2.134-.123l-2.87.458-.09-.56 2.87-.458c.794-.126 1.606-.076 2.38.145l1.7.492-.157.536z"/></g><path d="M193.36 83.063c-4.468-5.686-16.58.715-16.58.715l-9.82 5.33a14.21 14.21 0 0 0-4.926 4.357c-4.47 6.334-14.792 22.522-16.98 39.86.885 4.457 2.764 8.658 5.496 12.29l.056.09a298.4 298.4 0 0 1 5.53 7.195c1.944 2.625 5.128 3.62 8.4 3.485 7.653-.312 22.8-4.938 27.192-16.4 3.262-8.5 2.826-14.143 1.676-17.618 2.234-5.07 3.418-8.702 3.418-8.702s1.04-24.902-3.452-30.6z" class="H"/><path d="M166.98 53.592s-2.167-3.285-.648-5.117c1.34-1.63 1.676 3.15 6.402 2.95s-5.754 2.167-5.754 2.167z" class="F"/><g class="E"><path d="M179.216 77.466l.592-4.39-4.3.503c.105-.18.187-.37.246-.57 1.232-3.618 2.772-7.124 4.603-10.48l-15.473-8.736a40.67 40.67 0 0 0-3.016 11.663c0 .402-.157 1.117-.157 1.117l-1.53 3.776c.485.32 1.05.497 1.63.514a35 35 0 0 0 .983 5.999c.075.297.254.558.503.736s.554.262.86.236a35.59 35.59 0 0 0 4.58-.637l-.156.3c.958 1.565 1.496 3.35 1.563 5.184s-.34 3.654-1.183 5.284c0 0 9.105 1.653 12.914-3.63a7.81 7.81 0 0 1-2.186-3.098 7.82 7.82 0 0 1-.473-3.762z"/><path d="M172.246 88.527c-1.123.012-2.245-.078-3.352-.268l-.368-.067.167-.324a10.47 10.47 0 0 0 1.144-5.141c-.062-1.783-.58-3.52-1.5-5.048V77.6c-1.36.267-2.73.457-4.11.57-.37.03-.74-.073-1.044-.3s-.518-.534-.6-.895a33.98 33.98 0 0 1-.972-5.798c-.548-.064-1.075-.25-1.54-.547l-.18-.134 1.62-3.977.134-1.028c.428-4.05 1.455-8.016 3.05-11.764l.123-.268 15.964 9.016-.123.246a65.45 65.45 0 0 0-4.58 10.39.83.83 0 0 1-.056.145l4.167-.492-.637 4.748a7.52 7.52 0 0 0 .449 3.628c.447 1.154 1.17 2.18 2.11 2.986l.213.168-.157.223c-2.47 3.34-6.86 4-9.91 4zm-2.87-.76c1.687.223 8.814.894 12.1-3.352-.956-.87-1.687-1.958-2.13-3.172s-.586-2.517-.416-3.8l.547-4.044-4.468.536.245-.47c.093-.167.168-.343.224-.525 1.195-3.54 2.7-6.97 4.468-10.256l-14.958-8.446c-1.486 3.614-2.453 7.42-2.872 11.306 0 .402-.156 1.117-.156 1.117l-1.463 3.62c.394.216.835.335 1.284.346h.257v.257a34.34 34.34 0 0 0 1.062 5.943 1 1 0 0 0 .412.595c.206.14.457.2.705.164a33.3 33.3 0 0 0 4.547-.637l.592-.123-.37.68a11.05 11.05 0 0 1 .38 10.256z"/></g><g class="F"><path d="M173.85 61.86s-5.005 6.904-3.888 13.183c.793 4.47-5.81 5.14-5.81 5.14s-3.25-1.63-1.654-5.664l3.14-.76c.494-.12.946-.37 1.308-.726a2.8 2.8 0 0 0 .748-1.296c.715-2.77 1.843-8.334.268-10.937-2.156-3.54 6.636-2.502 6.636-2.502l-.748 3.564z"/><path d="M160.403 48.264a6.37 6.37 0 0 0-1.229 2.905c-.16 1.056-.053 2.135.313 3.14.85 2.67 3.184 5.92 8.937 7.898 8.837 3.06 4.335 4.58 3.25 9.63-.64 2.737-.284 5.613 1.005 8.11.054.072.126.128.208.163a.52.52 0 0 0 .262.038l4.09-.57c1.107-.156 2.186-.47 3.206-.927l.547-.246a.76.76 0 0 0 .425-.804c-.18-1.028.413-3.698 2.815-6.345 3.92-4.3 5.82-8.144 4.39-13.406-1.732-6.424-8.178-8.557-13.027-7.887-6.3.86-10.747 2.09-12.5-.883-1.284-2.2-1.888-1.8-2.703-.816z"/></g><path d="M167.094 90.46s-.86-3.586 2.235-3.9 10.132.704 11.987-2.76a8.63 8.63 0 0 1-1.453-2.044s1.888-2.044 4.123-1.575 5.195 3.463 0 7.675-12.758 3.575-16.892 2.603z" class="H"/><g class="E"><path d="M166.256 93.453c-8.938-6.122-18.557 20.11-20.7 25.807-.046.128-.12.244-.22.338s-.22.162-.35.2a.87.87 0 0 1-.403.019.86.86 0 0 1-.367-.167c-2.85-2.235-17.316-15.987-17.473-16.166-1.608-1.798-1.988-4.993-2.234-6.446a3.9 3.9 0 0 0-.898-1.91c-.47-.542-1.078-.944-1.76-1.162h-.09l-2.123.75s.246 1.397 2.234 1.352l.2.112c.264.853.447 1.728.548 2.614-.912-1.128-2.007-2.095-3.24-2.86a4.29 4.29 0 0 0-2.476-.455c-.853.1-1.656.453-2.305 1.013-2.648-.078-2.235 1.71-2.168 2.1.012.014.018.032.018.05s-.006.036-.018.05c-1.62.626-1.24 1.675-1.117 1.932v.067c-1.117.146-1.698 0-2.234.38s-.48.838.938 1.117a14.5 14.5 0 0 0 1.542.179s.692 0 1.955-.134c2-.223 2.368 1.53 3.418 2.648s4.38 2.234 4.38 2.234c2.893 1.464 5.775 5.273 11.652 13.07 4.96 6.59 8.937 11.07 11.384 12.188.614.285 1.283.432 1.96.432s1.347-.147 1.96-.432c11.317-5.306 27.46-32.41 17.987-38.922z"/><path d="M119.28 97.82a10.36 10.36 0 0 0-4.68-1.04v-.56c1.72-.03 3.42.353 4.96 1.117l-.28.48zm-1.073 1.577c-1.822-.687-3.8-.846-5.7-.458l-.1-.547a10.68 10.68 0 0 1 6.066.503l-.246.503zm-6.847 1.563l-.157-.536c.145 0 3.62-1.117 5.82-.067l-.235.503c-2-.916-5.396.1-5.43.1z"/></g><g class="B"><path d="M149.7 160.707c-5.218-4.145-5.352-10.77-5.072-13.91.022-.22.1-.435.2-.628a1.58 1.58 0 0 1 .438-.493 1.6 1.6 0 0 1 .601-.272c.217-.047.442-.05.66-.004.376.078.71.292.94.602a1.57 1.57 0 0 1 .3 1.074c-.235 2.514-.18 7.887 3.888 11.172.296.237.496.574.564.948a1.57 1.57 0 0 1-.196 1.085 1.56 1.56 0 0 1-.452.487 1.55 1.55 0 0 1-1.277.233c-.217-.055-.42-.155-.594-.295z"/><path d="M160.58 151.624c-1.107.485-2.307.72-3.514.684a8.17 8.17 0 0 1-3.469-.885l-5.954-2.97a87.37 87.37 0 0 1-12.188-7.329l-.213-.157c-1.754-1.273-2.793-5.976-1.117-6.937l1.263 2.86c1.06-.464 2.205-.696 3.36-.68s2.295.277 3.342.77c4.468 2.022 8.768 4.398 12.858 7.105l6.502.816c1.922 1.262.86 5.73-.87 6.725z"/><path d="M157.52 152.596a9.33 9.33 0 0 1-4.067-.927l-5.954-2.972c-4.292-2.108-8.402-4.567-12.29-7.35l-.2-.145c-1.34-.972-2.235-3.597-2.078-5.34a2.35 2.35 0 0 1 .219-1.159c.17-.362.43-.674.753-.908l.268-.156 1.262 2.86a8.52 8.52 0 0 1 3.376-.571c1.152.04 2.284.314 3.327.805 4.45 2.007 8.73 4.368 12.803 7.06l6.558.85a3.17 3.17 0 0 1 1.117 2.871c.007.832-.172 1.655-.524 2.408s-.867 1.42-1.51 1.95c-.947.485-1.997.734-3.06.726zm-23.46-18.12a2.37 2.37 0 0 0-.447 1.418 6.46 6.46 0 0 0 .415 2.618c.317.834.803 1.594 1.43 2.23l.2.145a85.35 85.35 0 0 0 12.155 7.306l5.965 2.972c1.033.526 2.17.817 3.328.854a7.87 7.87 0 0 0 3.375-.642c.555-.48 1-1.076 1.302-1.746a5.08 5.08 0 0 0 .452-2.13c.05-.432 0-.87-.148-1.278s-.387-.78-.7-1.08l-6.558-.85c-4.065-2.69-8.34-5.052-12.78-7.06-1.01-.482-2.114-.742-3.233-.76a7.83 7.83 0 0 0-3.258.649l-.28.157-1.218-2.804z"/></g><path d="M160.58 147.68a8.12 8.12 0 0 1-3.514.688 8.13 8.13 0 0 1-3.468-.889l-5.955-2.972c-4.257-2.103-8.334-4.555-12.188-7.33l-.213-.145c-1.754-1.285-1.832-2.95-.167-3.9l.3-.18c1.06-.464 2.206-.695 3.363-.678a8.08 8.08 0 0 1 3.34.779c4.453 2.013 8.738 4.377 12.814 7.07l5.285 3.53c1.977 1.284 2.133 3.038.402 4.033z" class="C"/><path d="M157.52 148.653c-1.404.004-2.8-.3-4.056-.916l-5.954-2.972a87.02 87.02 0 0 1-12.29-7.362l-.2-.146a3.01 3.01 0 0 1-1.061-1.049c-.26-.434-.406-.926-.425-1.43a2.39 2.39 0 0 1 .419-1.121 2.4 2.4 0 0 1 .91-.778l.312-.18c1.104-.496 2.303-.746 3.513-.73a8.3 8.3 0 0 1 3.492.82 91.72 91.72 0 0 1 12.848 7.105l5.295 3.52c.473.253.875.62 1.168 1.07a3.19 3.19 0 0 1 .508 1.5 2.37 2.37 0 0 1-.411 1.15c-.235.342-.556.615-.93.793a6.49 6.49 0 0 1-3.14.727zm-19.104-16.12a5.89 5.89 0 0 0-2.893.66l-.313.18a1.8 1.8 0 0 0-.715.582 1.81 1.81 0 0 0-.335.859 2.53 2.53 0 0 0 .37 1.16 2.48 2.48 0 0 0 .88.841l.2.145c3.847 2.76 7.912 5.203 12.155 7.306l5.966 2.972a7.92 7.92 0 0 0 3.328.849 7.93 7.93 0 0 0 3.375-.637 1.86 1.86 0 0 0 1.061-1.475c-.05-.438-.205-.858-.454-1.223a2.71 2.71 0 0 0-.976-.866l-5.284-3.53a92.55 92.55 0 0 0-12.78-7.06 8.96 8.96 0 0 0-3.586-.76zm50.382 23.013c-.568 0-1.136-.04-1.698-.123a1.58 1.58 0 0 1-.629-.254 1.57 1.57 0 0 1-.678-1.139 1.59 1.59 0 0 1 .078-.674 1.58 1.58 0 0 1 .682-.838c.32-.2.695-.26 1.06-.2a5.58 5.58 0 0 0 5.932-2.38c.592-.972.56-2.1-.112-3.966a48.75 48.75 0 0 1-1.776-24.712 19.58 19.58 0 0 0 .19-1.262 1.55 1.55 0 0 1 .503-1.005 1.56 1.56 0 0 1 1.05-.403 1.58 1.58 0 0 1 .637.128 1.55 1.55 0 0 1 .53.376 1.59 1.59 0 0 1 .332.56 1.57 1.57 0 0 1 .075.646c0 .5-.123.994-.212 1.508-1.457 7.717-.9 15.68 1.642 23.114.66 1.866 1.25 4.3-.156 6.636a8.31 8.31 0 0 1-3.18 3.014c-1.3.702-2.785 1.038-4.27.975z" class="B"/><path d="M201.48 121.896a140.32 140.32 0 0 1-24.321 14.144l.68 2.714c-3.35 1.52-7.54-2.357-8-6.02l-1.374-10.993c-.57-4.47 2.47-10.703 6.703-13.607l.346-.235c8.757-6.09 18-11.435 27.662-15.975 4.345-2.022 10.557 1.117 9.786 6.502l-5.027 12.703a17.07 17.07 0 0 1-6.457 10.769z" class="C"/><g class="B"><path d="M176.254 139.37a5.29 5.29 0 0 1-2.636-.749 8.42 8.42 0 0 1-4.056-5.842l-1.374-11.038c-.58-4.66 2.47-10.88 6.804-13.875l.346-.235a191.2 191.2 0 0 1 27.695-15.987 7.74 7.74 0 0 1 7.675.871c.926.657 1.65 1.56 2.095 2.605s.59 2.194.418 3.317l-5.016 12.78c-.72 4.336-3.065 8.236-6.558 10.904a141.07 141.07 0 0 1-24.164 14.065l.693 2.715-.224.1a4.21 4.21 0 0 1-1.698.369zm29.795-47.793a6.55 6.55 0 0 0-2.782.592 191.16 191.16 0 0 0-27.616 15.943l-.346.245c-4.1 2.827-7.117 8.938-6.57 13.34l1.385 11.016c.192 1.127.628 2.198 1.28 3.138s1.5 1.726 2.486 2.302c.535.337 1.138.552 1.765.63s1.265.015 1.866-.182l-.682-2.703.212-.1a139.96 139.96 0 0 0 24.265-14.11 16.76 16.76 0 0 0 6.357-10.591l5.016-12.814a5.59 5.59 0 0 0-.409-2.989c-.408-.94-1.066-1.75-1.903-2.34a7.33 7.33 0 0 0-4.324-1.374z"/><path d="M204.52 123.784a139.12 139.12 0 0 1-24.321 14.133l-.75.346c-3.35 1.508-6.11 0-6.57-3.642l-1.374-11.026c-.57-4.47 2.47-10.692 6.703-13.596l.347-.246a191.13 191.13 0 0 1 27.638-15.942c4.346-2.022 7.407.883 6.636 6.29l-1.854 12.937c-.707 4.274-3.016 8.117-6.457 10.747z"/><path d="M176.947 139.123c-.715.012-1.42-.165-2.044-.514-.668-.43-1.225-1.014-1.625-1.7s-.632-1.46-.677-2.253l-1.374-11.016c-.58-4.658 2.47-10.88 6.804-13.875l.346-.235c8.772-6.092 18.035-11.443 27.695-15.998a4.96 4.96 0 0 1 5.183.112c1.598 1.173 2.235 3.54 1.844 6.47l-1.844 12.936c-.71 4.358-3.06 8.28-6.568 10.96-7.63 5.53-15.796 10.275-24.377 14.166l-.75.335c-.818.387-1.71.597-2.614.614zM208.81 93.42a6.07 6.07 0 0 0-2.503.626c-9.616 4.534-18.835 9.867-27.56 15.942l-.347.235c-4.1 2.838-7.116 8.937-6.557 13.34l1.318 11.027a4.48 4.48 0 0 0 2.011 3.541c.657.302 1.375.448 2.098.427s1.43-.2 2.07-.55l.748-.335c8.54-3.88 16.67-8.606 24.265-14.1 3.39-2.592 5.664-6.38 6.357-10.59l1.843-12.937c.39-2.725-.2-4.893-1.62-5.943a3.48 3.48 0 0 0-2.122-.67z"/></g><path d="M164.98 113.484c4.323-8.29 6.032-16.758 1.273-20.03-5.14-3.54-10.535 3.754-14.6 11.63.01.022 2.938 7.16 13.317 8.4z" class="H"/><path d="M127.96 142.765a14.17 14.17 0 0 0-1.318-3.541l.5-.257a14.82 14.82 0 0 1 1.374 3.675l-.547.123zm18.613 34.967a1.01 1.01 0 0 1-.62.929c-.184.077-.386.096-.58.058a1.01 1.01 0 0 1-.515-.276 1 1 0 0 1-.275-.514c-.04-.195-.02-.398.057-.58a1.01 1.01 0 0 1 .929-.621 1 1 0 0 1 1.004.995z" class="D"/><path d="M166.826 90.56a4.47 4.47 0 0 1 .537-3.162 2.64 2.64 0 0 1 .848-.775c.335-.193.7-.3 1.096-.343l.067.547c-.306.023-.604.1-.874.257s-.505.348-.7.593a4.04 4.04 0 0 0-.436 2.726l-.548.156z" class="B"/><defs ><path id="B" d="M204.44 38.22c0 1.117 1.564 2.033 3.508 2.033s3.508-.905 3.508-2.022-1.575-2.033-3.508-2.033-3.508.905-3.508 2.022z"/></defs></svg>