<svg xmlns="http://www.w3.org/2000/svg" width="180" height="151" fill="none"><style><![CDATA[.B{fill:#dcdcdc}.C{fill:#3e5685}.D{fill:#fff}.E{fill:#efefef}]]></style><g class="C"><path d="M34.985 68.823c-1.75-2.096-4.15-3.547-6.82-4.126h-.12c-.384-.07-.78.01-1.108.222L3.514 78.404c-.647.46-1.178 1.065-1.55 1.767s-.577 1.48-.597 2.274v17.85c-.02.475.104.945.358 1.347a13.28 13.28 0 0 0 7.007 4.296c.034.028.076.043.12.043s.086-.015.12-.043l5.762-10.484 12.14-7.007c.654-.466 1.19-1.08 1.563-1.79s.574-1.5.586-2.302V76.17l4.28-4.245 1.688-3.103z"/><path d="M8.814 106.704c-.08.017-.16.017-.24 0-2.886-.713-5.47-2.325-7.382-4.603l-.188-.255c-.234-.47-.35-.992-.34-1.518V82.445c.012-.923.243-1.83.676-2.646s1.054-1.516 1.813-2.042L26.5 64.27c.396-.25.863-.363 1.33-.324h.477a12.82 12.82 0 0 1 7.177 4.381l.256.34-2.012 3.648-4.075 4.143v7.876c-.012.923-.243 1.83-.676 2.646s-1.054 1.516-1.813 2.043L15.24 95.93l-5.626 10.23a.94.94 0 0 1-.325.384c-.14.096-.306.152-.477.16zm-6.427-5.42c1.636 1.93 3.827 3.31 6.274 3.955l5.626-10.314h.17l12.14-7.007a4.45 4.45 0 0 0 1.79-3.495v-8.524l4.347-4.313 1.432-2.608c-1.666-1.792-3.825-3.05-6.206-3.614h-.136c-.214-.027-.43.022-.614.136L3.853 78.95a4.45 4.45 0 0 0-1.705 3.41v17.935a1.79 1.79 0 0 0 .222.955l.017.034z"/><path d="M14.732 95.453l7.314-4.228L1.758 80.586c-.246.6-.38 1.22-.392 1.858v17.85c-.02.475.104.945.358 1.347 1.823 2.137 4.276 3.64 7.007 4.297a.19.19 0 0 0 .239 0l5.762-10.485z"/><path d="M8.814 106.704c-.08.017-.16.017-.24 0-2.886-.713-5.47-2.325-7.382-4.603l-.188-.255a3.28 3.28 0 0 1-.341-1.518V82.444a5.73 5.73 0 0 1 .443-2.114l.3-.716.665.358c3.4 1.705 11.525 6.052 20.288 10.62l1.108.58-8.217 4.757-5.626 10.23a.94.94 0 0 1-.325.384c-.14.096-.306.152-.477.16zm-6.427-5.42c1.636 1.93 3.827 3.31 6.274 3.955l5.626-10.314 6.393-3.683-18.515-9.666c-.066.285-.1.577-.102.87v17.85a1.79 1.79 0 0 0 .222.955l.102.034z"/></g><path d="M33.415 92.35l-23.356 13.485c-1.193.7-2.148 0-2.148-1.705V86.383c.012-.803.212-1.59.586-2.302s.908-1.324 1.563-1.79l23.356-13.485c1.176-.682 2.148 0 2.148 1.705v17.748c-.012.803-.212 1.59-.586 2.302s-.908 1.324-1.562 1.79z" fill="#193768"/><path d="M9.208 106.8a1.71 1.71 0 0 1-.904-.239 2.56 2.56 0 0 1-.852-1.023c-.19-.4-.265-.863-.222-1.313V86.383c.012-.923.243-1.83.676-2.646S8.96 82.22 9.72 81.694l23.356-13.52a2.01 2.01 0 0 1 2.08 0c.372.258.67.6.86 1.02s.27.864.23 1.315v17.747a5.85 5.85 0 0 1-.678 2.652c-.433.818-1.053 1.522-1.81 2.053l-23.356 13.47a2.41 2.41 0 0 1-1.193.358zm25.06-37.507a1.14 1.14 0 0 0-.511.17L10.402 82.888a4.45 4.45 0 0 0-1.705 3.41v17.918c0 .682.205 1.04.392 1.143s.546 0 .716-.12l23.27-13.485a4.43 4.43 0 0 0 1.285-1.5c.3-.6.483-1.243.506-1.91V70.425c0-.665-.205-1.023-.392-1.142h-.205z" class="C"/><path d="M25.51 65.33l-.663 1.21 6.67 3.653.663-1.21-6.67-3.653z" fill="#150035"/><path d="M1.866 97.856l-.663 1.215 6.69 3.65.663-1.215-6.69-3.65z" class="C"/><path d="M13.98 28.452S9.684 42.09 9.633 52.558c.013 1.054.156 2.102.426 3.12 1.193 4.5 3.63 19.316 3.63 19.316l10.86-11.832-5.32-20.56-5.25-14.15z" fill="#193768"/><path d="M13.246 76.41l-.24-1.415c0-.153-2.455-14.764-3.614-19.163a12.29 12.29 0 0 1-.443-3.307c0-10.468 4.33-24.175 4.38-24.31l.597-1.927 5.95 15.974 5.438 21.072-12.07 13.076zm.818-45.74c-2.118 7.127-3.37 14.482-3.734 21.907a10.86 10.86 0 0 0 .392 2.932c.99 3.716 2.78 14.116 3.4 17.9l9.65-10.348-5.234-20.34-4.484-12.053z" class="C"/><g fill="#81829f"><path d="M28.506 141.86a13.84 13.84 0 0 0-1.04 5.898 1.91 1.91 0 0 0 .414 1.067c.244.305.575.528.95.638l2.574.767a2.23 2.23 0 0 0 1.191.009 2.25 2.25 0 0 0 1.026-.605l1.04-1.057c.553-.578 1.275-.966 2.063-1.108.567-.1 1.103-.327 1.57-.665l4.9-3.615c.166-.115.308-.263.418-.434a1.54 1.54 0 0 0 .203-1.164c-.045-.197-.128-.384-.246-.55-.58-.67-1.376-1.117-2.25-1.26-2.54-.3-5.11-.16-7.604.41l-5.217 1.67z"/><path d="M32.033 150.996a2.91 2.91 0 0 1-.835-.12l-2.574-.75c-.508-.155-.957-.462-1.286-.88s-.523-.925-.555-1.456a14.47 14.47 0 0 1 1.176-6.222l.12-.273 5.507-1.84a22.6 22.6 0 0 1 7.996-.427 4.55 4.55 0 0 1 2.642 1.705 1.97 1.97 0 0 1 .358.762 2.13 2.13 0 0 1 .035.841 2.34 2.34 0 0 1-.92 1.5l-4.9 3.58a4.4 4.4 0 0 1-1.858.801c-.65.113-1.247.43-1.705.904l-1.023 1.057a2.9 2.9 0 0 1-.997.635 2.89 2.89 0 0 1-1.168.183zm-3.018-8.524a13.64 13.64 0 0 0-.852 5.319c.012.246.1.482.254.674a1.17 1.17 0 0 0 .599.4l2.574.767c.27.077.553.08.823.007a1.55 1.55 0 0 0 .711-.416l1.04-1.057a4.51 4.51 0 0 1 2.438-1.312c.46-.085.898-.272 1.28-.546l4.9-3.58a.87.87 0 0 0 .251-.259c.064-.103.107-.218.124-.338a.73.73 0 0 0-.01-.295c-.023-.097-.066-.188-.126-.267a3.14 3.14 0 0 0-1.858-1.143 21.73 21.73 0 0 0-7.297.427l-4.86 1.62zm-15.46-9.512L11.85 140a3.41 3.41 0 0 0 .171 2.404 1.54 1.54 0 0 0 1.058.853l3.07.7a1.87 1.87 0 0 0 1.138-.057 1.86 1.86 0 0 0 .891-.71 17.32 17.32 0 0 1 2.966-3.53l3.12-2.625c.407-.4.7-.908.817-1.464a2.98 2.98 0 0 0-.101-1.673c-.34-.92-2.08-1.33-3.75-1.483-1.082-.104-2.17-.144-3.256-.12l-4.416.664z"/><path d="M16.57 144.774a2.12 2.12 0 0 1-.563 0l-3.07-.7a2.25 2.25 0 0 1-.914-.453 2.24 2.24 0 0 1-.62-.809c-.413-.904-.486-1.927-.205-2.88.494-1.603 1.705-6.94 1.705-7l.102-.46 4.927-.802a27.92 27.92 0 0 1 3.41.103c2.54.255 3.955.903 4.33 1.943.24.662.283 1.38.126 2.066s-.51 1.312-1.013 1.804l-3.154 2.66c-1.107 1.01-2.08 2.155-2.898 3.4-.238.352-.562.638-.94.832a2.54 2.54 0 0 1-1.225.276zm-2.438-11.15l-1.62 6.65a2.76 2.76 0 0 0 .102 1.909.82.82 0 0 0 .232.309c.1.083.22.14.348.17l3.07.7a1.16 1.16 0 0 0 .717-.059c.227-.095.417-.26.544-.47.886-1.364 1.953-2.603 3.17-3.682l3.12-2.643c.3-.307.506-.692.596-1.11a2.29 2.29 0 0 0-.085-1.259s-.358-.75-3.17-1.04c-1.03-.122-2.067-.167-3.103-.136l-3.92.665z"/><path d="M42.432 76.154c-2.37-2.148-8.2 1.603-12.2 4.67-1.074-7.263-15.923-1.262-15.923-1.262s1.585 19.487 1.006 24.67-3.17 8.524-3.035 19.86v13.64c-.002.125.028.25.088.36s.147.203.253.27c.86.605 1.888.93 2.94.93s2.08-.325 2.94-.93a.82.82 0 0 0 .29-.512c.324-2.42 2.83-18.43 4.415-22.163a24.85 24.85 0 0 0 1.585-8.337c.05-1.43.29-2.845.716-4.21a35.81 35.81 0 0 1 1.108-4.654 6.36 6.36 0 0 1 .529 2.779l.58 7.04c.53 4.21-1.057 8.252-1.57 13.64-.443 4.67 1.176 18.19 1.585 21.447a1.5 1.5 0 0 0 .238.683c.134.205.316.375.53.493.848.52 1.82.805 2.816.823s1.977-.23 2.844-.72a1.71 1.71 0 0 0 .852-1.398c0-3.4.17-16.214 1.296-20.322.848-3.445 1.373-6.96 1.57-10.502 2.132-9.478 3.64-19.086 4.518-28.76.153-2.302.886-6.734.017-7.535z"/><path d="M31.488 145.933c-1.17-.012-2.315-.33-3.325-.92a2.25 2.25 0 0 1-.758-.72c-.192-.296-.313-.633-.35-.984-.494-3.888-2.03-16.93-1.585-21.6a56.04 56.04 0 0 1 .887-5.677 25.11 25.11 0 0 0 .682-7.74c-.136-1.074-.324-3.256-.546-6.496-.085.495-.198.985-.34 1.467a15.65 15.65 0 0 0-.682 4.006 25.21 25.21 0 0 1-1.705 8.524c-1.432 3.615-3.904 19.146-4.33 22.06-.024.19-.086.37-.183.536s-.226.306-.38.42c-.982.664-2.14 1.02-3.325 1.02s-2.343-.355-3.324-1.02c-.213-.13-.386-.312-.503-.53s-.173-.466-.162-.714c0-1.09.102-4.586 0-13.536a47.28 47.28 0 0 1 1.978-14.935c.486-1.594.845-3.225 1.074-4.876.563-5.114-1.006-24.345-1.023-24.55v-.494l.477-.205c.41-.153 10.23-4.058 14.696-1.5.888.5 1.572 1.283 1.926 2.233 6.07-4.518 10.23-5.865 12.258-4.006.852.784.716 2.88.358 6.24 0 .682-.136 1.33-.17 1.858a225.37 225.37 0 0 1-4.569 28.71c-.2 3.554-.73 7.08-1.585 10.536-1.09 3.972-1.245 16.418-1.28 20.134a2.3 2.3 0 0 1-1.193 1.995 5.97 5.97 0 0 1-3.018.767zm-4.62-48.47l.34.597c.412.88.622 1.84.614 2.813v.256l.563 7.006c.197 2.742-.04 5.498-.7 8.167-.324 1.705-.665 3.546-.852 5.558-.443 4.637 1.227 18.548 1.57 21.293a.87.87 0 0 0 .426.665c.75.456 1.607.705 2.484.723s1.744-.196 2.51-.62c.144-.083.264-.202.347-.345a.96.96 0 0 0 .13-.473c0-3.75.188-16.35 1.313-20.458a57.76 57.76 0 0 0 1.569-10.366c2.11-9.436 3.62-18.996 4.518-28.624l.205-1.84c.276-1.694.276-3.42 0-5.115-1.534-1.364-5.66.34-11.32 4.705l-.92.716-.17-1.16c-.048-.478-.21-.937-.475-1.338s-.622-.732-1.042-.964c-3.4-1.96-11.064.665-13.042 1.398.256 3.188 1.5 19.504.972 24.294-.237 1.73-.607 3.44-1.108 5.114a45.56 45.56 0 0 0-1.841 14.628v13.64a4.45 4.45 0 0 0 5.115 0c.256-1.705 2.813-18.447 4.484-22.368a23.46 23.46 0 0 0 1.517-8.098c.05-1.488.302-2.962.75-4.38.153-.478.307-1.33.46-2.15.392-2.182.53-2.66.972-2.915l.614-.358z"/></g><path d="M50.565 20.234L47.82 21.77c-.035.02-.074.03-.114.032s-.08-.006-.117-.023-.07-.042-.094-.073-.042-.068-.05-.107l-.51-3.07-11.797-5.626-8.644 31.915 21.805 6.478L56.685 23.1l-6.12-2.864z" class="D"/><path d="M48.774 52.15l-23.118-6.82 9.02-33.415 12.872 6.137.477 2.813 2.506-1.398 6.973 3.256-8.73 29.426zm-21.43-7.842l20.458 6.086 8.013-26.954-5.268-2.455-2.42 1.364c-.138.068-.3.103-.443.103s-.305-.035-.443-.103-.25-.167-.34-.288-.148-.262-.172-.41l-.46-2.71-10.723-5.114-8.2 30.483z" class="B"/><g class="C"><path d="M20.627 24.82a4.11 4.11 0 0 0-3.332-.472c-.557.16-1.074.438-1.517.813a4.11 4.11 0 0 0-1.05 1.363c-2.267 3.99-1.517 13.93-.546 22.998.87 8.115-2.063 24.31-2.694 27.584-.03.17-.004.348.076.502s.2.277.367.35l4.518 2.285c5.258 2.517 11.014 3.822 16.844 3.82a13.45 13.45 0 0 0 5.933-1.364l.41-.187a10.23 10.23 0 0 0 4.995-5.251s-5.728-12.31-5.728-20.63 2.78-23.39-2.42-26.29a12.7 12.7 0 0 0-10.229-.972l-5.626-4.552z"/><path d="M33.297 84.797c-5.9-.018-11.72-1.34-17.048-3.87l-4.637-2.284a1.52 1.52 0 0 1-.697-.713c-.145-.31-.182-.66-.104-.992.614-3.07 3.512-19.265 2.694-27.295-1.04-9.752-1.705-19.333.63-23.408.306-.623.74-1.174 1.27-1.62s1.15-.777 1.816-.97c1.285-.277 2.626-.07 3.768.58l5.37 4.33a13.45 13.45 0 0 1 10.331 1.142c4.365 2.404 3.734 11.746 3.188 19.998-.187 2.557-.34 4.944-.34 6.956 0 8.064 5.592 20.203 5.66 20.322l.12.273-.12.3a10.98 10.98 0 0 1-5.302 5.643l-.41.205c-1.932.926-4.046 1.41-6.19 1.415zM18.31 24.89a2.9 2.9 0 0 0-.75.085 3.75 3.75 0 0 0-2.233 1.944c-2.13 3.75-1.415 13.52-.443 22.504.87 8.234-2.097 24.6-2.71 27.79l4.603 2.404a38.68 38.68 0 0 0 16.52 3.734c1.952-.003 3.88-.44 5.643-1.28l.392-.205a9.58 9.58 0 0 0 4.552-4.62C42.997 75.37 38.2 64.458 38.2 56.7c0-2.046.17-4.484.34-7.04.494-7.45 1.125-16.725-2.472-18.753-1.448-.794-3.042-1.287-4.686-1.448s-3.303.012-4.878.51l-.375.153-5.882-4.74a4.45 4.45 0 0 0-1.927-.494z"/></g><g fill="#dec8bd"><path d="M22.23 25.417c-.187.307 0 .375.307.614 1.09 1.057 4.416 3.4 10.23 1.705l.188-4.177c-.002-.03.005-.058.02-.082s.038-.044.065-.054l3.035-1.074s2.574-3.4 1.91-10.843l-.818-3-6.598-.443-5.115 5.37-.904 5.438c-.422 2.29-1.205 4.5-2.32 6.547z"/><path d="M28.88 29.083c-2.515.06-4.957-.848-6.82-2.54l-.12-.102c-.223-.143-.38-.37-.437-.627s-.01-.53.13-.753a21.74 21.74 0 0 0 2.233-6.325l.92-5.745 5.507-5.762 7.416.51.904 3.614c.7 7.655-1.9 11.27-2.012 11.423l-.136.17-2.88 1.023-.188 4.313-.46.136c-1.314.413-2.68.637-4.057.665zm-5.9-3.53c1.023.972 3.938 3.052 9.053 1.705l.154-3.683a.82.82 0 0 1 .563-.75l2.813-1.006a17.05 17.05 0 0 0 1.705-10.229l-.63-2.523-5.78-.392-4.774 4.944-.852 5.32c-.424 2.303-1.183 4.53-2.25 6.615z"/></g><g class="C"><path d="M23.29 25.656c-.317-.36-.74-.61-1.2-.715s-.96-.057-1.4.135c-.358.188-.784.205-1.16.63-1.705 1.91 4.33 7.553 11.934 5.404 1.188-.322 2.404-.533 3.63-.63l1.227-.085c-.47-1.1-1.267-2.03-2.284-2.66-.277-.18-.6-.275-.93-.275s-.653.096-.93.275c-1.414.512-2.955.56-4.4.136a7.79 7.79 0 0 1-4.484-2.216z"/><path d="M28.078 32.373a11.03 11.03 0 0 1-9.019-4.16 2.15 2.15 0 0 1-.498-2.086 2.15 2.15 0 0 1 1.555-1.477l.256-.102c.57-.262 1.212-.332 1.826-.2s1.17.46 1.583.933c1.156 1.056 2.62 1.713 4.177 1.875 2.625.46 3.58.17 3.904 0a2.37 2.37 0 0 1 2.643 0 6.48 6.48 0 0 1 2.54 3.018l.102.307-.375.58h-.358l-1.227.102a19.78 19.78 0 0 0-3.529.597c-1.16.37-2.364.577-3.58.614zm-6.512-6.82c-.202-.008-.402.04-.58.136a3.13 3.13 0 0 1-.426.153c-.2.054-.383.16-.53.307-.307.34.085 1.023.205 1.227 1.142 1.824 5.575 4.603 11.098 3.052 1.232-.34 2.494-.556 3.768-.648h.222a6.63 6.63 0 0 0-1.603-1.534c-.163-.105-.352-.16-.545-.16s-.383.056-.546.16a7.21 7.21 0 0 1-4.876.239c-1.85-.226-3.575-1.053-4.9-2.353-.16-.182-.356-.328-.577-.428s-.46-.152-.702-.152z"/></g><g fill="#dec8bd"><path d="M57.624 22.843a2.78 2.78 0 0 0-3.614-1.33l.938.528.852 2.148-1.96 2.233-.75.99-.904-.153s-.358-1.586-1.296-1.944-1.16 1.142-1.16 1.142v1.108c.14 1.628.542 3.224 1.193 4.722l4.756 1.432a28.05 28.05 0 0 1 1.517-4.603c.482-.966.768-2.017.84-3.094s-.068-2.158-.415-3.18z"/><path d="M56.14 34.555l-5.745-1.705-.136-.307c-.682-1.564-1.108-3.228-1.262-4.927v-1.193a2.44 2.44 0 0 1 .938-1.705c.18-.09.38-.135.58-.135s.4.046.58.135a3.22 3.22 0 0 1 1.586 1.995l.477-.63 1.705-1.96-.614-1.534-1.705-1.006 1.04-.597c.706-.38 1.533-.466 2.302-.24a3.7 3.7 0 0 1 2.25 1.841 8.68 8.68 0 0 1 .47 3.457c-.08 1.172-.395 2.316-.93 3.363-.598 1.443-1.082 2.93-1.45 4.45l-.085.7zM51.4 31.69l3.75 1.125a24.14 24.14 0 0 1 1.398-4.04 7.64 7.64 0 0 0 .392-5.609 2.32 2.32 0 0 0-1.33-1.125l.904 2.285-2.216 2.557-.99 1.296-1.705-.375-.102-.426c-.12-.494-.477-1.296-.87-1.45a1.33 1.33 0 0 0-.239.597v1.04a15.09 15.09 0 0 0 1.006 4.126z"/></g><g class="C"><path d="M34.166 37.266a51.28 51.28 0 0 0 8.695 20.219c1.343 1.78 2.94 3.354 4.74 4.67a1.57 1.57 0 0 0 1.227.284 1.57 1.57 0 0 0 1.04-.71l.546-.51c1.025-.996 1.827-2.2 2.353-3.53.34-.873.547-1.793.614-2.728l2.404-19.094c.022-.368-.076-.732-.28-1.04s-.5-.54-.846-.665l-3.103-1.04c-.102-.037-.21-.05-.32-.038s-.212.047-.303.105-.17.135-.227.227-.094.196-.105.303c-.256 2.182-.955 5.694-1.858 9.684a65.09 65.09 0 0 0-.87 11.133s-4.04-19.06-8.354-22.47-6.223 1.432-5.353 5.2z"/><path d="M48.538 63.163c-.5.002-.97-.153-1.364-.443a22.88 22.88 0 0 1-4.859-4.774c-4.402-6.093-7.416-13.076-8.83-20.458-.53-2.37 0-5.507 1.8-6.7.92-.58 2.472-.887 4.688.87 3.018 2.404 5.83 11.78 7.365 17.765.095-2.033.34-4.056.733-6.052.972-4.262 1.62-7.587 1.858-9.615a1.4 1.4 0 0 1 .176-.64c.11-.196.264-.363.45-.487s.402-.2.625-.224a1.4 1.4 0 0 1 .658.09l3.103 1.023a2.37 2.37 0 0 1 1.603 2.421l-2.455 19.11a10.38 10.38 0 0 1-.682 2.898c-.554 1.422-1.41 2.707-2.506 3.768l-.494.477c-.35.482-.866.817-1.45.938l-.41.034zm-11.695-31.54a1.55 1.55 0 0 0-.818.222c-1.16.733-1.705 3.086-1.193 5.268 1.387 7.17 4.294 13.96 8.524 19.913 1.296 1.73 2.842 3.258 4.586 4.535.097.083.21.144.334.18s.252.043.378.024.247-.066.354-.136.197-.163.264-.272l.12-.136.546-.51a9.12 9.12 0 0 0 2.182-3.29c.31-.815.506-1.67.58-2.54l2.404-19.094a.97.97 0 0 0-.648-.955l-3.12-1.04c-.3 2.097-.938 5.473-1.926 9.786a64.92 64.92 0 0 0-.835 10.962v6.82l-1.398-6.598c-1.108-5.234-4.722-19.384-8.098-22.163a4.04 4.04 0 0 0-2.233-.972z"/></g><g fill="#8c8da7"><path d="M23.236 5.198c-1.5 1.346-2.624 3.08-3.222 5.012a9.19 9.19 0 0 0 1.023 7.962 6.94 6.94 0 0 0 8.712 3.154c.063-.026.115-.072.15-.13s.047-.127.04-.194c-.37-2.138.067-4.338 1.227-6.172a4.84 4.84 0 0 1 4.126-1.875.29.29 0 0 0 .222-.085c.614-.563 3.768-3.785 1.62-7.433a10.86 10.86 0 0 0-12.735-4.109.17.17 0 0 0-.096.153.17.17 0 0 0 .096.153c.53.222 1.28.767.443 1.875-.48.61-1.018 1.176-1.603 1.688z"/><path d="M27.124 22.45a7.79 7.79 0 0 1-6.666-3.955 9.97 9.97 0 0 1-1.52-4.137c-.192-1.475-.05-2.974.41-4.388.633-2.025 1.813-3.836 3.4-5.234a11.54 11.54 0 0 0 1.5-1.62c.205-.256.256-.443.24-.51s-.153-.205-.392-.307c-.152-.07-.282-.184-.372-.326s-.14-.307-.14-.475a.87.87 0 0 1 .529-.767 11.54 11.54 0 0 1 13.639 4.399c2.42 4.075-1.006 7.62-1.705 8.286-.096.095-.21.168-.337.215s-.26.067-.396.058a4.09 4.09 0 0 0-3.546 1.534 8.27 8.27 0 0 0-1.091 5.643c.032.222-.01.448-.122.643s-.284.346-.492.43c-.944.35-1.943.523-2.95.512zm-3.4-16.742c-1.413 1.24-2.467 2.834-3.052 4.62-.412 1.225-.54 2.528-.375 3.8s.62 2.51 1.33 3.6a6.24 6.24 0 0 0 7.587 3.001 9.36 9.36 0 0 1 1.432-6.41 5.37 5.37 0 0 1 4.518-2.063c.767-.733 3.154-3.4 1.38-6.46-1.176-1.732-2.86-3.057-4.82-3.793s-4.1-.846-6.125-.315c.117.165.203.35.256.546.065.3.057.612-.023.908s-.23.57-.437.797a14.39 14.39 0 0 1-1.705 1.705l.034.068z"/></g><path d="M46.784 21.75l-.995 3.047 1.313.43.995-3.047-1.313-.43z" class="B"/><path d="M26.393 100.073c-1.04-4.007-2.114-10.485-2.13-10.553l1.364-.222s1.074 6.478 2.114 10.434l-1.347.34zm12.563-6.018c-.912.017-1.808-.238-2.574-.733-2.728-1.807-2.932-6.2-2.932-6.376l1.33-.017s.17 3.87 2.302 5.268a4.4 4.4 0 0 0 4.058 0l.494 1.28a7.72 7.72 0 0 1-2.677.58zM18.278 112a6.35 6.35 0 0 1-2.68-1.538 6.34 6.34 0 0 1-1.634-2.622l1.33-.443a4.96 4.96 0 0 0 1.303 2.03c.595.56 1.318.963 2.107 1.175L18.278 112zm14.096 5.762c-5.37-.477-5.507-4.296-5.507-4.347h1.38c0 .12.153 2.642 4.245 3l-.12 1.347z" fill="#81829f"/><path d="M137.43 48.364l-41.12-23.75 41.19-23.595 41.138 23.75-41.19 23.595h-.017z" class="D"/><g class="B"><path d="M137.48 49.15l-.41-.187L95.61 25.094v-.784l.324-.222L137.532.22l.375.24 41.428 23.868v.818l-.34.205-41.514 23.8zM97.672 24.616l39.774 22.964 39.843-22.81-39.774-22.964-39.843 22.81z"/><path d="M137.445 48.382v52.322l41.19-23.578V24.804l-41.19 23.578z"/><path d="M137.46 101.505l-.7-.393V47.955l.307-.24 41.513-23.766.7.41v53.19l-.375.188-41.445 23.766zm.665-52.73v50.753l39.86-22.828V25.963l-39.86 22.81z"/></g><path d="M96.29 24.633v52.322l41.138 23.748V48.38L96.29 24.633z" fill="#ffb000"/><path d="M137.444 101.504l-.375-.187L95.6 77.45V24.224l.75-.41.358.24 41.428 23.868v53.174l-.682.41zM96.97 76.563l39.774 22.964v-50.77L96.97 25.81v50.753z" fill="#150035"/><g class="B"><path d="M92.556 126.583l44.94-25.88V48.4l-44.94 26.084-7.126 39.996 7.126 12.104z"/><path d="M92.35 127.52l-.392-.546-7.212-12.207v-.3l7.177-40.37.222-.187 45.35-26.323.716.375v53.09l-.307.222L92.35 127.52zm-6.206-13.162l6.598 11.303 44.07-25.35V49.575l-43.66 25.42-7.007 39.365z"/></g><path d="M92.52 126.583l-41.19-23.868V92.452l41.206 23.75v10.348s0 .034-.017.034z" class="E"/><path d="M92.54 127.385l-.358-.205-41.53-23.97V92.043l.682-.41.358.205 41.53 23.97v11.166l-.682.4zm-40.507-24.977l39.825 23V116.6l-39.825-23v8.797z" class="B"/><path d="M92.54 116.167L51.352 92.3l8.968-5.114 41.19 23.783-8.95 5.114-.017.086z" class="D"/><path d="M92.522 116.985l-.34-.222-41.513-23.97v-.75l.358-.222 9.325-5.438.358.24 41.497 23.953v.802l-.34.22-9.343 5.388zm-39.808-24.6l39.825 22.998 7.62-4.398-39.808-23-7.638 4.398z" class="B"/><path d="M101.507 110.932L60.352 87.15V76.8l41.172 23.766v10.348s0 .017-.017.017z" class="E"/><path d="M101.525 111.734l-.358-.205-41.53-23.97V76.41l.665-.41.358.17 41.564 23.987v11.166l-.7.4zM61.018 86.758l39.825 22.998v-8.797L61.018 77.96v8.797z" class="B"/><path d="M119.512 69.215L78.34 45.432l8.95-5.114 41.258 23.697-8.968 5.115-.068.085z" class="D"/><path d="M119.493 70.016l-.34-.222L77.656 45.84v-.818l.375-.205 9.326-5.387.375.24 41.48 23.868v.818l-.358.204-9.36 5.456zM79.685 45.432l39.842 22.98 7.604-4.382-39.825-22.998-7.62 4.398z" class="B"/><path d="M128.545 63.98l-41.24-23.783V29.833l41.24 23.766V63.98z" class="E"/><path d="M128.543 64.765l-.358-.205L86.62 40.608V29.44l.7-.41.358.205 41.513 23.97v11.15l-.648.41zm-40.558-24.96l39.842 22.98v-8.78L87.985 31.01v8.797z" class="B"/><path d="M128.544 53.564L87.32 29.782l8.968-5.114 41.172 23.868-8.968 5.115.052-.085z" class="D"/><path d="M128.546 54.348l-.392-.187L86.64 30.19v-.818l9.667-5.524.375.222 41.496 23.885v.784l-.307.222-9.325 5.387zm-39.86-24.584l39.86 23.067 7.62-4.398L96.3 25.383l-7.604 4.382z" class="B"/><path d="M101.524 100.567L60.352 76.7l8.968-5.114 41.19 23.868-8.967 5.115h-.017z" class="D"/><path d="M101.558 101.3l-.3-.187-41.616-23.97v-.818L60 76.12l9.325-5.387.375.24L111.2 94.84v.767l-.324.222-9.308 5.472zm-39.86-24.6l39.843 23.015 7.603-4.38-39.825-23-7.62 4.365z" class="B"/><path d="M110.51 95.282L69.32 71.585v-10.45L110.527 84.9v10.348l-.018.034z" class="E"/><path d="M110.474 96.083l-.324-.205-41.513-23.97V60.742l.682-.41.358.205 41.53 23.97v11.167l-.733.41zM70.018 71.107l39.774 22.998V85.31L70.018 62.3v8.797z" class="B"/><path d="M110.525 84.865l-41.19-23.783 8.968-5.115 41.173 23.868-8.95 5.115v-.085z" class="D"/><path d="M110.506 85.684l-.34-.222-41.513-23.97v-.818L69 60.47l9.29-5.37.34.17L120.2 79.273v.835l-.358.205-9.326 5.37zm-39.808-24.6l39.825 22.98 7.62-4.38-39.842-22.998-7.604 4.4z" class="B"/><path d="M119.492 79.63L78.32 55.85V45.483l41.19 23.766v10.348l-.017.034z" class="E"/><path d="M119.5 80.433l-.358-.204L77.62 56.24V45.1l.7-.4.358.205 41.53 23.97V80.1l-.7.324zM79.002 55.457l39.825 22.947v-8.746L79.002 46.66v8.797zm-18.666 40.93L92.728 114.8a.25.25 0 0 0 .153 0l4.927-2.848-32.392-18.395c-.025-.017-.055-.026-.085-.026a.16.16 0 0 0-.085.026l-4.9 2.83zm40.884 2.47l5.147-3.072L74.16 76.748c-.022-.02-.05-.03-.077-.03s-.056.01-.077.03l-5.147 3.1 32.205 19.02c.023.016.05.025.078.025s.054-.01.077-.025zm18.753-30.687l5.147-3.072L92.915 46.06c-.022-.02-.05-.03-.077-.03s-.056.01-.077.03l-5.147 3.1 32.205 19.02c.023.016.05.025.077.025s.055-.01.078-.025zm8.523-15.344l5.147-3.072-32.205-19.037c-.02-.02-.05-.03-.077-.03s-.055.01-.077.03l-5.147 3.1 32.205 19.02a.13.13 0 0 0 .077.025c.027 0 .054-.01.077-.025zM111.013 83.53l5.58-3.208L83.14 61.388c-.05-.017-.107-.017-.16 0l-5.6 3.155 33.454 18.916c.015.03.042.056.074.07s.07.013.102.001z" class="B"/></svg>