<svg xmlns="http://www.w3.org/2000/svg" width="226" height="203" fill="none"><style><![CDATA[.B{fill:#efefef}.C{fill:#dcdcdc}.D{fill:#81829f}.E{fill:#3e5685}.F{fill:#dec8bd}]]></style><path d="M.663 193.51l15.873 8.99c.01.006.024.01.036.01s.025-.003.037-.01.02-.014.028-.025.01-.023.012-.036v-4.906c0-.014-.004-.027-.01-.04s-.016-.02-.027-.03l-15.88-8.99c-.01-.007-.023-.01-.035-.01s-.025.003-.036.01-.02.015-.026.026-.01.024-.008.036v4.907c0 .013.003.027.01.04s.016.02.028.028z" class="B"/><path d="M16.572 202.948a.54.54 0 0 1-.24-.06L.25 193.75v-5.438l.24-.187a.49.49 0 0 1 .24-.062.49.49 0 0 1 .24.062l16.1 9.138v5.44l-.247.18a.46.46 0 0 1-.24.068zm-15.536-9.686l15.2 8.637v-4.142l-15.2-8.63v4.135z" class="C"/><path d="M4.608 186.16l15.873 8.99c.01.005.02.014.027.025s.01.022.01.035-.003.024-.01.035-.016.02-.027.025l-3.8 2.224c-.01.008-.02.013-.034.013s-.024-.005-.034-.013l-15.88-8.99a.07.07 0 0 1-.026-.027c-.006-.01-.01-.024-.01-.036s.003-.026.01-.037.015-.02.026-.027l3.805-2.195c.007-.008.017-.015.027-.02s.022-.005.033-.003z" class="B"/><g class="C"><path d="M2.37 189.314l14.233 8.1c.022.008.046.008.067 0l2.165-1.25-14.232-8.082c-.01-.007-.024-.01-.037-.01s-.026.004-.037.01l-2.157 1.243z"/><path d="M16.692 197.974l-.277-.12-16.1-9.13v-.3a.48.48 0 0 1 .05-.228c.035-.07.087-.13.152-.176l4-2.315.285.112 16.083 9.14.037.3a.5.5 0 0 1-.066.24c-.042.073-.102.135-.174.18l-4 2.3zm-15.244-9.558l15.19 8.63 3.124-1.805-15.19-8.622-3.124 1.798z"/></g><path d="M4.71 181.135l15.88 8.99c.005.01.008.022.008.033s-.003.024-.008.034v4.906c.001.013-.002.025-.008.037s-.015.02-.026.026-.023.01-.036.01-.025-.005-.035-.012l-15.873-8.99c-.004-.01-.006-.02-.006-.03a.07.07 0 0 1 .006-.029v-4.907c-.001-.012.001-.024.006-.035a.07.07 0 0 1 .023-.028c.01-.006.022-.01.034-.01s.024.001.035.007z" class="B"/><path d="M20.52 195.6a.54.54 0 0 1-.24-.06L4.198 186.4l-.037-.3v-5.146l.24-.18a.49.49 0 0 1 .24-.062.49.49 0 0 1 .24.062l16.1 9.13v5.446l-.24.18a.46.46 0 0 1-.21.067zM4.984 185.86l15.2 8.674v-4.127l-15.2-8.63v4.082z" class="C"/><path d="M8.812 178.663l15.873 8.99c.01.005.02.014.027.024a.07.07 0 0 1 .01.035c0 .013-.004.025-.01.036s-.016.02-.027.024l-4.06 2.345c-.01.008-.02.012-.034.012s-.024-.004-.034-.012l-15.85-8.98c-.01-.007-.02-.016-.026-.028s-.01-.023-.01-.036.003-.025.01-.037.015-.02.026-.027l4.067-2.344c.012-.005.025-.005.037 0z" class="B"/><g class="C"><path d="M20.624 190.146l2.247-1.29-14.06-7.985c-.01-.008-.02-.012-.034-.012s-.024.004-.034.012l-2.247 1.296 14.06 7.978c.01.006.022.01.034.01s.024-.004.034-.01z"/><path d="M20.626 190.625l-.277-.12-16.075-9.13v-.3c-.002-.086.02-.17.06-.244s.104-.135.18-.176l4.27-2.472.27.12 16.083 9.14.037.3c.001.085-.02.17-.063.242s-.103.135-.177.178l-4.307 2.464zm-15.23-9.558l15.19 8.63 3.378-1.955-15.19-8.622-3.378 1.948z"/></g><path d="M8.888 173.63l15.873 8.99a.08.08 0 0 1 .007.033c0 .012-.003.024-.007.034v4.9c0 .012-.003.024-.01.035s-.015.02-.025.027-.022.01-.034.012-.025-.002-.036-.007l-15.88-8.988a.08.08 0 0 1-.026-.026c-.007-.01-.01-.022-.01-.034v-4.907c-.004-.01-.007-.02-.007-.03s.001-.022.005-.032.01-.02.017-.027.016-.014.026-.018.02-.007.03-.008.022.002.032.006.02.01.027.017.014.016.02.026z" class="B"/><path d="M24.725 188.1a.46.46 0 0 1-.24-.068l-16.083-9.13v-5.446l.24-.18c.074-.043.158-.065.243-.065s.17.022.243.065l16.083 9.13v5.446l-.24.18a.48.48 0 0 1-.247.068zm-15.52-9.7l15.2 8.637V182.9l-15.2-8.63v4.12z" class="C"/><path d="M12.946 171.194l15.873 8.99c.01.006.02.014.027.025s.01.023.01.035-.003.025-.01.035-.016.02-.027.025l-4.008 2.315c-.01.007-.024.01-.037.01s-.026-.004-.038-.01l-15.873-8.99c-.01-.007-.02-.016-.026-.028s-.01-.023-.01-.036.003-.025.01-.036.015-.02.026-.028l4.008-2.314c.012-.007.025-.01.04-.008s.026.007.036.015z" class="B"/><g class="C"><path d="M24.655 182.648l2.375-1.37-14.232-8.1c-.022-.008-.046-.008-.067 0l-2.382 1.348 14.232 8.083c.006.013.018.024.032.03s.03.006.043.001z"/><path d="M24.835 183.127l-.277-.12-16.105-9.13v-.307c.002-.085.025-.17.068-.242s.105-.135.18-.178l4.2-2.434.277.12 16.083 9.138v.3a.49.49 0 0 1-.24.42l-4.195 2.434zm-15.23-9.558l15.19 8.63 3.326-1.925-15.176-8.622-3.34 1.918z"/></g><path d="M13.035 166.16l15.88 8.99c.005.01.007.022.007.034s-.002.023-.007.034v4.9c0 .013-.003.026-.01.038s-.016.022-.027.028-.024.01-.038.01-.026-.003-.038-.01l-15.858-8.99c-.01-.006-.02-.015-.026-.025s-.01-.023-.01-.035v-4.906c-.003-.016-.002-.033.005-.048s.018-.026.033-.034.03-.01.047-.008.03.01.042.022z" class="B"/><g class="C"><path d="M28.88 180.633a.47.47 0 0 1-.24-.068l-16.083-9.13-.037-.3v-5.146l.24-.18a.5.5 0 0 1 .24-.062.5.5 0 0 1 .24.062l16.1 9.132v5.445l-.24.18a.46.46 0 0 1-.2.068zm-15.536-9.7l15.2 8.637v-4.128l-15.2-8.63v4.12zM225.23 20.697V.524a.07.07 0 0 0-.01-.033c-.006-.01-.014-.02-.023-.025s-.02-.01-.03-.012-.023-.001-.034.003L192.1 10.832l-8.112 14.98L142.54 48.4v29.723l-8.585 5.034V54.503l-13.58 7.8c-10.7 6.202-20.045 30.038-20.045 42.413v17.85c-.006 3.9-1.03 7.7-2.97 11.08a22.29 22.29 0 0 1-8.087 8.134l-50.937 29.626c-.012.014-.018.03-.018.05s.006.035.018.05L46.29 185.2c.006.006.014.012.022.015s.017.006.026.006.018-.002.027-.006.016-.01.022-.015l50.937-29.62a38.34 38.34 0 0 0 18.997-33.012v-17.85c0-3.303.866-6.548 2.513-9.4s4.017-5.244 6.873-6.904l82.323-48.03c.012-.007.025-.01.038-.01s.026.004.037.01l7.28 4.202c.02.008.04.01.06.002s.036-.02.045-.04L225.23 20.7z"/><path d="M46.312 185.636c-.085 0-.168-.022-.24-.064s-.135-.102-.178-.175l-8.045-13.858v-.225a.51.51 0 0 1 .225-.292L89 141.403a21.89 21.89 0 0 0 7.932-7.988c1.903-3.308 2.907-7.057 2.915-10.873v-17.828c0-12.27 9.08-36.308 20.225-42.773l63.447-36.413 8.15-14.982.202-.082L225.207 0l.232.135c.063.044.114.102.15.17s.054.143.053.22v20.263l-.045.112-9.797 23.97-.225.097c-.063.027-.13.042-.2.042a.49.49 0 0 1-.198-.042l-7.11-4.105-82.15 47.94a18.47 18.47 0 0 0-6.723 6.744c-1.613 2.797-2.464 5.968-2.468 9.197v17.843c-.013 6.757-1.792 13.394-5.163 19.25s-8.215 10.73-14.05 14.136L46.574 185.6c-.082.038-.173.05-.262.037zm-7.49-14.052l7.61 13.1L97.1 155.23c5.71-3.334 10.45-8.103 13.75-13.835s5.04-12.226 5.053-18.84v-17.843a19.27 19.27 0 0 1 9.603-16.645L208.03 39.91l.277.12 6.944 4.008 9.565-23.41V.99l-32.472 10.195-8.105 14.93-.127.082-63.53 36.458c-10.764 6.262-19.843 30.233-19.843 42.06v17.843c-.005 3.958-1.045 7.847-3.015 11.28s-4.805 6.292-8.22 8.293l-50.683 29.454z"/><path d="M178.964 105.155l-8.367 15.207-23.22 9.183c-8.99 5.19-12.12 7.678-22.54 7.73l-29.68 1.146c-12.562.052-64.765 35.783-66.15 36.705-.008.02-.008.04 0 .06v4.988c.005.01.007.022.007.034s-.003.023-.007.034l-4.082 2.352a.08.08 0 0 0-.007.034c0 .01.002.023.007.033v4.982a.08.08 0 0 1 .007.033c0 .012-.003.023-.007.034l-4.135 2.382c-.01.007-.02.017-.027.03s-.01.025-.01.04v4.98c.005.01.008.022.008.034s-.003.023-.008.033l-3.88 2.248c-.005.01-.008.022-.008.033s.003.024.008.034v4.9c0 .012.003.024.01.035s.015.02.025.027.022.01.035.01.025-.001.036-.006l51.417-30.157a56.09 56.09 0 0 1 28.203-7.761l27.094-.06c13.205-.067 26.167-3.56 37.618-10.135l33.664-19.7c.01-.007.024-.01.037-.01s.027.004.038.01l7.25 4.18c.006.007.014.012.022.016s.018.005.027.005.018-.002.026-.005.016-.01.022-.016l9.738-23.835V94.796c0-.01-.003-.023-.01-.032s-.013-.02-.023-.025-.02-.01-.03-.013-.023-.001-.034.003l-33.012 10.397a.06.06 0 0 0-.035.004c-.01.006-.02.015-.025.026z"/><path d="M16.75 203l-.277-.12c-.073-.042-.134-.103-.177-.177a.48.48 0 0 1-.063-.242v-5.14l.24-.18L20.182 195v-5.026l.24-.18 3.963-2.292v-5.027l.247-.18 3.9-2.248v-5.01l.2-.18c2.18-1.498 53.73-36.705 66.376-36.802l29.664-1.146c9.258-.045 12.547-1.963 19.753-6.165l2.554-1.498.1-.053 23.102-9.123 8.314-15.11.36.195-.36-.195.075-.15.203-.082 33.206-10.487.232.135a.48.48 0 0 1 .203.389v20.337l-9.813 24.023-.217.098c-.067.02-.137.03-.207.023s-.137-.027-.198-.06l-7.116-4.06-33.71 19.648c-11.51 6.61-24.54 10.12-37.813 10.188l-27.102.06a55.71 55.71 0 0 0-27.97 7.708L16.75 203zm.307-5.244v4.113l50.937-29.85c8.612-5.075 18.417-7.774 28.412-7.82l27.094-.06a75.9 75.9 0 0 0 37.409-10.075l34.06-19.866.277.12 6.914 3.993 9.566-23.416v-19.64l-32.488 10.225-8.345 15.198-.157.1-23.22 9.17-2.585 1.498c-7.123 4.158-10.696 6.24-20.15 6.285l-29.663 1.14c-12.083.06-62.623 34.405-65.79 36.562v5.05l-.24.18-3.9 2.247v5.026l-.24.18-3.97 2.292v5.026l-.24.18-3.67 2.157z"/></g><path d="M98.336 164.557l23.13-.045v-27.124l-23.13.892v26.277z" class="B"/><path d="M97.922 164.97v-27.086l23.97-.922v27.956l-23.97.052zm.824-26.292v25.468l22.307-.045v-26.27l-22.307.847z" class="C"/><path d="M124.246 164.535c3.11-.058 6.216-.308 9.296-.75V137.41l-9.296.87v26.255z" class="B"/><path d="M123.81 164.947v-27.042l10.12-.944v27.222l-.352.052a78.83 78.83 0 0 1-9.349.712h-.42zm.824-26.293v25.47a77.22 77.22 0 0 0 8.472-.644v-25.61l-8.472.786z" class="C"/><path d="M225.103.442l-41.035 5.633c-.012.006-.023.016-.03.028s-.01.026-.01.04.004.028.01.04.02.022.03.028l7.91 4.57c.01.007.02.016.026.027s.01.024.01.037-.003.025-.01.036a.09.09 0 0 1-.026.027l-74.27 43.402a34.88 34.88 0 0 0-12.71 12.74c-3.05 5.285-4.66 11.278-4.67 17.38v17.843a22.31 22.31 0 0 1-11.056 19.222L38.335 151.11c-.012.015-.02.033-.02.053s.007.037.02.052l7.955 13.686c.006.006.014.01.022.015s.017.005.026.005.018-.001.026-.005.016-.01.022-.015l50.937-29.626a38.32 38.32 0 0 0 13.887-13.977 38.33 38.33 0 0 0 5.11-19.028V84.428c.01-3.294.88-6.528 2.526-9.382s4.012-5.225 6.86-6.88l82.323-48.03c.01-.007.024-.01.038-.01s.026.004.037.01l7.28 4.202c.01.005.02.008.03.01s.02-.001.03-.004a.08.08 0 0 0 .027-.016c.007-.007.013-.016.017-.026L225.178.54c.006-.01.008-.024.007-.037s-.005-.025-.013-.036-.02-.018-.03-.022-.026-.005-.038-.002z" class="B"/><path d="M191.976 10.532c.01.006.02.014.027.025s.01.023.01.035-.004.024-.01.035-.016.02-.027.025l-3.873 2.247 3.836 2.247c.01.007.02.016.025.027s.01.024.01.037-.003.025-.01.036-.015.02-.025.027l-74.257 43.394a34.89 34.89 0 0 0-12.424 12.275c-3.033 5.08-4.725 10.846-4.917 16.76v18.93c-.01 3.893-1.04 7.715-2.986 11.086s-4.742 6.173-8.108 8.128l-49 28.465 5.993 10.33c.014.01.03.018.05.018s.035-.007.05-.018l50.937-29.626c5.618-3.268 10.312-7.9 13.64-13.49s5.186-11.917 5.393-18.412V84.174c.005-3.3.875-6.54 2.523-9.396s4.017-5.233 6.87-6.89l82.33-48.038c.01-.005.024-.008.037-.008s.026.003.038.008l7.28 4.202c.006.007.013.012.022.015s.017.005.026.005.018-.002.027-.005.016-.01.022-.015L223.25 5.05l-32.96 4.494 1.685.99z" fill="#fff"/><path d="M46.4 165.374l-.217-.038a.48.48 0 0 1-.169-.082c-.05-.04-.092-.087-.123-.142l-7.963-13.694c-.032-.055-.053-.115-.06-.178s-.004-.127.013-.19a.48.48 0 0 1 .228-.292l50.937-29.626a21.88 21.88 0 0 0 10.847-18.862V84.428c.012-6.178 1.644-12.245 4.733-17.596s7.526-9.798 12.87-12.898l73.732-43.087-7.408-4.285c-.087-.05-.157-.125-.198-.216a.48.48 0 0 1 .106-.548c.072-.07.165-.113.264-.127L225.28.037l.36.405-.083.292-9.738 23.903-.224.105c-.066.023-.135.03-.204.022s-.135-.03-.193-.067l-7.11-4.097-82.152 47.94c-2.8 1.62-5.108 3.945-6.72 6.74a18.46 18.46 0 0 0-2.471 9.192v17.843a38.76 38.76 0 0 1-19.214 33.394L46.4 165.374zm-7.588-14.06l7.618 13.108 50.668-29.453a37.92 37.92 0 0 0 13.75-13.839 37.93 37.93 0 0 0 5.052-18.844V84.428c.005-3.372.895-6.683 2.58-9.604s4.107-5.348 7.023-7.04l82.526-48.15.277.112 6.944 4.008L224.576.93 185.1 6.345l7.266 4.202.037.3c0 .084-.022.166-.064.24a.47.47 0 0 1-.176.173l-74.256 43.424a34.46 34.46 0 0 0-17.169 29.768v17.843c-.004 3.96-1.043 7.848-3.014 11.28a22.71 22.71 0 0 1-8.221 8.292l-50.7 29.447z" class="C"/><path d="M194.975 114.496v20.113c0 .014.004.027.01.038s.016.022.027.03l7.214 4.165c.01.005.024.007.036.006a.08.08 0 0 0 .034-.011c.01-.007.02-.016.025-.027s.01-.023.01-.035V118.66c.004-.01.007-.02.007-.03s-.003-.02-.007-.03l-7.214-4.165c-.004-.01-.01-.017-.017-.025s-.016-.012-.025-.016-.02-.006-.03-.006-.02.002-.03.006-.018.01-.025.017-.013.016-.017.025-.005.02-.005.03.002.02.006.03z" class="B"/><path d="M202.267 139.26a.49.49 0 0 1-.247-.068l-7.416-4.284-.038-.3v-20.352l.457-.3.278.12 7.408 4.285.037.3v20.353l-.24.18c-.073.044-.156.068-.24.068zm-6.877-4.847l6.532 3.746v-19.304l-6.532-3.745v19.303z" class="C"/><path d="M170.74 100.496v9.46c-.001.013.002.025.008.036s.015.02.026.027.023.01.036.008.025-.004.035-.01l8.03-4.824c.01-.006.02-.014.027-.025s.01-.023.01-.035-.004-.024-.01-.035-.016-.02-.027-.025l-8.023-4.637a.07.07 0 0 0-.037-.017c-.014-.002-.028.001-.04.007s-.022.017-.03.03-.008.026-.006.04z" class="B"/><path d="M170.852 110.496l-.284-.12a.49.49 0 0 1-.24-.42v-9.693l.45-.3.277.113 8.24 4.756v.292a.5.5 0 0 1-.233.42l-8.2 4.95zm.3-9.408v8.24l7.01-4.217-7.01-4.023z" class="C"/><path d="M208.067 20.225v20.098c-.006.01-.008.02-.008.03s.002.02.008.03l7.243 4.187c.012.005.024.007.036.006a.08.08 0 0 0 .035-.012c.01-.007.02-.016.025-.027s.01-.023.01-.035V24.33l-7.244-4.187c-.012-.006-.026-.008-.04-.006s-.026.007-.037.015-.02.02-.024.033a.07.07 0 0 0-.003.041z" class="B"/><path d="M215.387 45c-.087 0-.172-.024-.247-.067l-7.43-4.3-.037-.3V19.97l.45-.3.277.12 7.446 4.3.038.3v20.352l-.24.18c-.077.047-.165.07-.255.067zm-6.93-4.86l6.562 3.8V24.585l-6.562-3.8v19.334z" class="C"/><path d="M183.855 6.232v9.25c.001.013.005.025.012.036s.017.02.028.026.024.01.037.01.025-.004.036-.01l8.007-4.637c.01-.007.02-.016.026-.027s.01-.024.01-.037-.003-.025-.01-.036-.015-.02-.026-.027l-8.015-4.614c-.01-.005-.023-.007-.036-.006s-.024.005-.034.012a.07.07 0 0 0-.025.027c-.006.01-.01.023-.01.035z" class="B"/><path d="M183.997 16.023l-.277-.12c-.073-.043-.133-.103-.176-.175a.5.5 0 0 1-.071-.238V5.993l.45-.3.277.12 8.195 4.727.038.3c0 .085-.022.168-.065.242s-.102.135-.175.178l-8.195 4.764zm.27-9.206v8.075l6.944-4.045-6.944-4.03z" class="C"/><path d="M170.92 100.48l7.947 4.584c.01.007.02.017.026.028s.01.023.01.036-.003.025-.01.037-.015.02-.026.027l-25.745 15.086a60.38 60.38 0 0 1-29.731 8.008l-27.095.06a72.08 72.08 0 0 0-36.248 9.978L13.037 166.04c-.01.006-.02.015-.027.025s-.01.023-.01.035.003.025.01.035.016.02.027.025l15.88 8.99c.01.007.022.01.034.01s.024-.004.034-.01l39.184-23.086c8.55-5.038 18.28-7.718 28.203-7.768l27.095-.06c13.204-.07 26.164-3.558 37.618-10.128l33.888-19.716c.012-.007.025-.01.038-.01s.026.004.037.01l7.25 4.188c.01.005.02.008.03.008s.02 0 .03-.004.018-.01.025-.016.012-.016.015-.026l9.693-23.73c.006-.01.01-.024.008-.037s-.006-.025-.014-.036-.02-.018-.03-.022-.025-.005-.038-.002l-41.072 5.663c-.008.006-.016.013-.02.02s-.01.017-.012.027-.002.02-.001.03.006.02.012.027z" class="B"/><path d="M178.732 104.87c.01.007.02.016.026.027s.01.024.01.037-.003.025-.01.036-.015.02-.026.027l-4.112 2.412 3.505 2.023c.01.007.02.016.026.027s.01.024.01.037-.004.025-.01.036-.015.02-.026.027l-25.753 15.087c-9.05 5.2-19.29 7.95-29.723 8.007l-27.102.053a72.15 72.15 0 0 0-36.24 9.977l-42.885 25.312 12.352 7.02c.01.007.024.01.037.01s.026-.004.038-.01l39.177-23.094c8.55-5.037 18.286-7.715 28.2-7.76l27.094-.06c13.203-.066 26.163-3.56 37.61-10.135l33.866-19.738c.01-.007.024-.01.038-.01s.026.004.037.01l7.244 4.187c.01.005.02.008.03.01s.02-.001.03-.004.02-.01.027-.016.014-.016.018-.026l7.805-19.102-33.17 4.547 1.865 1.05z" fill="#fff"/><path d="M28.993 175.66l-.285-.12-16.075-9.132v-.3c-.004-.085.016-.17.057-.243a.46.46 0 0 1 .176-.177l47.012-27.715c11.053-6.506 23.632-9.967 36.458-10.03l27.094-.06a59.92 59.92 0 0 0 29.522-7.955l25.25-14.787-7.453-4.3a.49.49 0 0 1-.233-.51c.022-.1.073-.19.146-.258a.5.5 0 0 1 .266-.131l41.275-5.663.21.217a.48.48 0 0 1 .068.48l-9.738 23.904-.218.097c-.062.03-.132.047-.202.047s-.14-.016-.202-.047l-7.146-4.128-33.71 19.64c-11.5 6.612-24.54 10.122-37.813 10.188l-27.102.06a55.73 55.73 0 0 0-27.97 7.708L28.993 175.66zm-15.244-9.566l15.2 8.637 39.012-22.997c8.612-5.074 18.417-7.773 28.412-7.82l27.094-.06a75.9 75.9 0 0 0 37.409-10.075l34.098-19.858.277.112 6.914 3.993 9.288-22.825-39.476 5.416 7.296 4.217v.292a.48.48 0 0 1-.063.243c-.042.073-.103.134-.177.177l-25.7 15.056c-9.122 5.236-19.446 8.016-29.964 8.068l-27.094.06c-12.678.06-25.114 3.483-36.038 9.918L13.75 166.093z" class="C"/><g class="D"><path d="M43.944 147.336c-.3.128-.644.352-.69.697l-.217 2.337c-.172.75-.127 1.124.442 1.55a4.61 4.61 0 0 0 1.655.374.84.84 0 0 0 .367-.019c.12-.034.23-.094.322-.176.257-.203.47-.458.622-.75l.232-.584a.97.97 0 0 1 .419-.502c.108-.05.22-.087.337-.112a13.29 13.29 0 0 0 1.828-2.547c.397-.75-.562-1.498-1.116-1.61-.773.038-1.533.21-2.247.5l-1.955.83z"/><path d="M45.195 152.2a.79.79 0 0 0 .368-.015c.12-.034.23-.095.32-.18a2.36 2.36 0 0 0 .622-.749l.232-.584a.97.97 0 0 1 .419-.502c.107-.046.217-.084.33-.112.658-.71 1.234-1.49 1.715-2.33-.243-.337-.595-.58-.996-.69-.773.038-1.534.2-2.247.51l-1.97.854c-.292.128-.637.352-.69.697l-.202 2.247c.104.19.253.353.434.472.523.238 1.09.368 1.663.382z"/><path d="M45.277 152.632c-.067.007-.135.007-.202 0l-.442-.06a2.79 2.79 0 0 1-1.348-.374 1.5 1.5 0 0 1-.562-1.881c0-.18.067-.644.105-1.086l.082-1.243c.052-.22.16-.425.316-.6a1.29 1.29 0 0 1 .568-.354l1.963-.854c.77-.325 1.592-.505 2.427-.532.286.07.554.202.787.384s.424.41.56.672c.085.16.13.337.13.517a1.1 1.1 0 0 1-.129.517 11.56 11.56 0 0 1-2 2.689c-.058.024-.118.042-.18.053h-.112c-.128.077-.226.196-.277.337l-.232.6c-.168.342-.41.642-.712.877-.2.194-.463.31-.742.33zm-1.206-5.004c-.292.128-.48.292-.502.45-.045.322-.075.75-.105 1.176a9.1 9.1 0 0 1-.12 1.183c-.157.704-.097.907.33 1.22a2.38 2.38 0 0 0 1.026.255c.18 0 .352 0 .502.067.074.013.15.01.22-.013s.137-.06.19-.114a2.08 2.08 0 0 0 .539-.637l.225-.576a1.29 1.29 0 0 1 .562-.675c.085-.045.176-.078.27-.097h.112a18.08 18.08 0 0 0 1.655-2.397.46.46 0 0 0 .059-.225c0-.078-.02-.156-.06-.224-.092-.17-.218-.317-.368-.437a1.44 1.44 0 0 0-.508-.26 6 6 0 0 0-2.068.494l-1.962.81z"/><path d="M43.038 150.37c.082-.397.1-1.566.187-2.247 0-.225.3-.42.442-.562l2.3.8s-.42 1.663.1 1.76c.3.067.2-.233.697-.42.76-.496 1.432-1.114 1.992-1.828.36-.464.592-1.056.3-1.325a.91.91 0 0 1 .284.496c.04.19.016.4-.066.567-.502.92-1.116 1.777-1.828 2.547-.117.02-.23.058-.337.112a.97.97 0 0 0-.419.502l-.232.585a2.36 2.36 0 0 1-.622.749c-.093.08-.203.14-.322.175s-.245.04-.367.02a4.61 4.61 0 0 1-1.655-.374c-.57-.435-.614-.802-.442-1.558z"/><path d="M45.277 152.632c-.067.007-.135.007-.202 0l-.442-.06a2.79 2.79 0 0 1-1.348-.374 1.5 1.5 0 0 1-.562-1.881c.045-.335.073-.673.082-1 0-.427.053-.876.105-1.228a1.1 1.1 0 0 1 .434-.652.98.98 0 0 1 .09-.09l.142-.15.195.068 2.577.907-.075.285a4.05 4.05 0 0 0-.135 1.296 1.3 1.3 0 0 1 .502-.338 8.4 8.4 0 0 0 1.85-1.722c.307-.397.404-.75.352-.87l-.045-.045.457-.457a.58.58 0 0 1 .127.15 1.19 1.19 0 0 1 .281.63c.03.233-.01.47-.116.68-.33.606-1.633 2.584-2.023 2.696h-.127l-.142.045a.62.62 0 0 0-.27.337l-.24.6c-.168.343-.4.642-.712.877a1.17 1.17 0 0 1-.757.307zm-1.498-4.727c-.082.068-.195.18-.202.233a14.93 14.93 0 0 0-.097 1.183 10.93 10.93 0 0 1-.097 1.116c-.157.704-.097.907.33 1.22a2.41 2.41 0 0 0 1.026.255c.18 0 .352 0 .502.067a.48.48 0 0 0 .22-.015.49.49 0 0 0 .191-.112 2.08 2.08 0 0 0 .539-.637l.225-.584c.107-.28.305-.514.562-.667a1.2 1.2 0 0 1 .307-.112h.045a3.15 3.15 0 0 0 .307-.352 2.89 2.89 0 0 1-.749.494.76.76 0 0 0-.292.2.57.57 0 0 1-.261.206.56.56 0 0 1-.331.026.55.55 0 0 1-.207-.093.54.54 0 0 1-.152-.17c-.18-.52-.196-1.082-.045-1.6l-1.85-.66h.03zm2.95.095l.382-.067a1.41 1.41 0 0 0-.372-.728 1.4 1.4 0 0 0-.714-.396 1.21 1.21 0 0 0-.754.072c-.237.104-.435.28-.565.505l.345.18a.8.8 0 0 1 .386-.34c.162-.067.343-.08.513-.035a1.02 1.02 0 0 1 .511.288c.14.143.232.325.268.52z"/><path d="M47.405 147.568l.382-.067c-.052-.272-.183-.522-.378-.718s-.444-.33-.715-.383a1.2 1.2 0 0 0-.755.07c-.237.104-.435.28-.564.506l.352.173a.81.81 0 0 1 .929-.33 1 1 0 0 1 .48.269 1.01 1.01 0 0 1 .269.48z"/><path d="M48.474 124.512s-.854 8.472-1.498 10.682.053 8.097-.247 10.614-.33 2.607-1.663 3.22-2.045 0-2.247-.704-.187-4.36-.375-6.532c-.112-1.303-.704-2.54-.502-5.363.352-4.9.502-5.993-.097-8.682a43.95 43.95 0 0 1-.749-10.09c.202-2.997 3.656-6.592 3.656-6.592l4.6 3.873-.876 9.573z"/><path d="M44.153 149.583c-.258.002-.513-.052-.75-.157-.208-.098-.393-.238-.543-.412s-.26-.38-.326-.6a21.72 21.72 0 0 1-.21-3.221l-.165-3.37c-.046-.4-.114-.798-.202-1.19a14.23 14.23 0 0 1-.307-4.225l.1-1.184c.285-3.94.36-4.996-.18-7.408-.64-3.35-.89-6.764-.75-10.172.2-3.11 3.603-6.652 3.745-6.802l.2-.217 4.96 4.18-.92 9.738c0 .344-.87 8.524-1.498 10.734-.337 1.22-.27 3.648-.2 5.993a35.65 35.65 0 0 1 0 4.569c-.3 2.517-.33 2.78-1.843 3.476-.343.17-.72.262-1.1.27zm.66-38.075c-.75.816-3.198 3.745-3.363 6.172a43.44 43.44 0 0 0 .749 10c.562 2.495.472 3.678.187 7.588l-.082 1.184c-.107 1.356-.006 2.72.3 4.045.082.442.165.854.202 1.273.1.974.127 2.248.165 3.41.005 1.02.07 2.042.195 3.056a.93.93 0 0 0 .19.362c.09.105.2.188.327.245.2.075.433.105.656.086s.438-.083.633-.19c1.184-.547 1.184-.547 1.498-2.996a37.08 37.08 0 0 0 .038-4.495c-.068-2.397-.135-4.876.225-6.187.584-2.15 1.438-10.487 1.446-10.63l.89-9.393-4.255-3.528z"/><path d="M44.333 144.257c.2-4.36-.614-6.442 0-10 .385-3.19.22-6.423-.487-9.558v-.038a7.49 7.49 0 0 0 4.689-.876l.644-6.742-5.303-4.93c-1.034 1.28-2.622 3.543-2.757 5.558a43.95 43.95 0 0 0 .749 10.09c.6 2.7.45 3.79.097 8.682-.202 2.824.4 4.06.502 5.364l.375 6.532s1.01 1.273 2.247.704c.015.022-.974-.42-.757-4.787z"/><path d="M44.153 149.583c-.258.002-.513-.052-.75-.157a1.62 1.62 0 0 1-.543-.412 1.65 1.65 0 0 1-.326-.6 21.72 21.72 0 0 1-.21-3.221l-.165-3.37a11.37 11.37 0 0 0-.202-1.19 14.23 14.23 0 0 1-.307-4.225l.1-1.183c.285-3.94.36-4.997-.18-7.4-.64-3.35-.9-6.764-.75-10.172.135-2.03 1.618-4.247 2.832-5.746l.217-.27 5.67 5.243-.674 7.072-.127.082c-1.36.788-2.93 1.128-4.494.974a28.4 28.4 0 0 1 .397 9.281 20.5 20.5 0 0 0-.082 5.138 35.59 35.59 0 0 1 .12 4.832c-.195 3.888.592 4.457.6 4.494l.7.285-.704.292a2.58 2.58 0 0 1-1.101.262zm-.232-37c-.96 1.22-2.352 3.295-2.472 5.108a43.44 43.44 0 0 0 .749 10c.562 2.495.472 3.678.187 7.6l-.082 1.183a13.32 13.32 0 0 0 .3 4.045c.082.442.165.854.202 1.274.1.973.127 2.247.165 3.408a25.84 25.84 0 0 0 .195 3.056.93.93 0 0 0 .517.607c.276.114.583.13.87.045-.33-.57-.674-1.828-.54-4.644a36.17 36.17 0 0 0-.112-4.75 20.64 20.64 0 0 1 .082-5.288c.384-3.148.22-6.338-.48-9.43v-.165l.232-.277h.195a7.43 7.43 0 0 0 4.352-.749l.607-6.442-4.966-4.57zm8.224 39.714a14.62 14.62 0 0 1-.27 1.761 1.94 1.94 0 0 0 .24 1.835 1.27 1.27 0 0 0 .584.366 1.28 1.28 0 0 0 .689.009c.6.06 1.186.014 1.76-.135.352-.232.345-.63.87-.622a4.24 4.24 0 0 1 1.326.39 17.09 17.09 0 0 0 4.255-.397.85.85 0 0 0 .351-.412c.07-.172.08-.36.03-.54a1.22 1.22 0 0 0-.749-.786c-.974-.472-3.2-.555-4.6-1.25-1.133-.48-2.328-.796-3.55-.937l-.936.72z"/><path d="M61.255 154.467c-.966-.472-3.184-.554-4.592-1.25a12.96 12.96 0 0 0-3.551-.936l-.936.75c-.058.582-.15 1.16-.277 1.73 0 .135-.052.263-.075.4a1.24 1.24 0 0 0 .315.622 1.3 1.3 0 0 0 .584.368c.224.067.463.072.7.014a5.02 5.02 0 0 0 1.76-.143c.352-.232.345-.63.86-.62a4.5 4.5 0 0 1 1.333.389 16.94 16.94 0 0 0 4.247-.397c.137-.066.248-.177.315-.314a1.31 1.31 0 0 0-.674-.6z"/><path d="M53.067 156.625c-.22-.003-.436-.05-.637-.14a1.62 1.62 0 0 1-.531-.378 2.15 2.15 0 0 1-.322-2.135 15.32 15.32 0 0 0 .255-1.715v-.143l1.146-.884h.135c1.26.143 2.492.47 3.655.974.848.356 1.736.607 2.644.75.667.094 1.32.265 1.948.5.22.084.42.22.582.393s.28.383.347.6c.066.25.048.513-.053.75a1.16 1.16 0 0 1-.502.56 15.92 15.92 0 0 1-4.495.42c-.153-.046-.303-.1-.45-.165-.248-.123-.518-.195-.794-.2-.157-.037-.195.045-.315.203a1.55 1.55 0 0 1-.367.367c-.62.192-1.274.25-1.918.164-.107.034-.218.057-.33.068zm-.614-4.173a12.76 12.76 0 0 1-.262 1.671c-.18.75-.127 1.243.157 1.535.116.13.264.228.43.28a.96.96 0 0 0 .513.02h.105a4.63 4.63 0 0 0 1.566-.09c.08-.06.15-.133.202-.217a.95.95 0 0 1 .354-.341c.146-.08.31-.12.477-.116a2.61 2.61 0 0 1 1.034.255 2.47 2.47 0 0 0 .389.15c1.346.022 2.69-.104 4.008-.375.322-.165.217-.584.217-.584s-.082-.345-.577-.585a8.57 8.57 0 0 0-1.79-.456 11.16 11.16 0 0 1-2.786-.787 12.36 12.36 0 0 0-3.318-.891l-.72.53z"/><path d="M51.9 154.048c0-.135.067-.292.097-.442l.172-1.31.936-.75c1.162.135 2.3.424 3.386.86-.148.392-.41.73-.755.967s-.752.366-1.17.367c-.533.045-1.07.045-1.603 0-.008.35.064.7.2 1.018a1.38 1.38 0 0 0 .623.627c.27.135.578.178.875.123.494-.165.75-.795 1.356-.7s1.31.817 2.06.75 3.43-.247 3.58-.51l.315-.472a.84.84 0 0 1-.034.532c-.07.17-.19.31-.348.404-1.396.31-2.826.444-4.255.398a4.24 4.24 0 0 0-1.326-.39c-.517 0-.517.4-.87.622-.574.15-1.17.195-1.76.135a1.28 1.28 0 0 1-.689-.009 1.27 1.27 0 0 1-.584-.366 1.94 1.94 0 0 1-.217-1.865z"/><path d="M53.074 156.625c-.22-.002-.44-.05-.64-.138a1.64 1.64 0 0 1-.535-.379 2.15 2.15 0 0 1-.322-2.135c0-.075 0-.157.053-.247v-.18l.165-1.288v-.143l1.154-.884h.127a13.43 13.43 0 0 1 3.483.884l.247.113-.067.27c-.167.462-.472.86-.874 1.143a2.38 2.38 0 0 1-1.373.43c-.43.03-.86.03-1.288 0 .013.175.06.345.135.502a1.1 1.1 0 0 0 1.154.615 1.39 1.39 0 0 0 .404-.278 1.27 1.27 0 0 1 .505-.352c.195-.075.404-.1.61-.075.3.07.586.19.846.353a2.02 2.02 0 0 0 1.109.367c.202 0 .54-.06.93-.098a16.39 16.39 0 0 0 2.457-.322c.067-.112.18-.277.292-.434v-.427l.614.54a1.13 1.13 0 0 1-.051.745c-.1.235-.278.43-.504.55a15.88 15.88 0 0 1-4.494.419 4.76 4.76 0 0 1-.45-.164c-.247-.124-.518-.195-.794-.2-.165 0-.202.045-.315.202-.1.142-.225.266-.367.367a4.44 4.44 0 0 1-1.888.187c-.105.033-.213.055-.322.068zm-.884-2.502c-.18.75-.127 1.243.157 1.535.116.13.264.228.43.28a.96.96 0 0 0 .513.02h.105a4.63 4.63 0 0 0 1.566-.09c.08-.06.15-.133.202-.217l.105-.127c-.18.166-.4.286-.64.347a1.49 1.49 0 0 1-.727.006c-.24-.058-.46-.173-.644-.337a1.5 1.5 0 0 1-.41-.601c-.182-.364-.27-.768-.255-1.176v-.367l.36.038c.516.044 1.035.044 1.55 0 .3-.01.593-.1.854-.238s.482-.356.644-.61c-.93-.334-1.89-.567-2.87-.696l-.75.554c0 .195-.06.554-.12.93l-.045.277c.038.172.008.33-.03.472zm3.745 1.004a.59.59 0 0 0-.352.157c.143-.075.303-.11.464-.105h.12l-.157-.045-.075-.007z"/><path d="M56.147 121.126s.374 12.142 0 16.225c-.282 4.39-.34 8.79-.172 13.184.112 1.902 0 2.307-1.805 2.42a2.67 2.67 0 0 1-1.903-.352c-.75-.427-.464-3.476-.75-5.993s-.75-4.045-.554-7.01-1.948-8.87-2.464-11.31c-.51-2.355-.795-4.753-.854-7.16h8.502z"/><path d="M53.585 153.3a2.66 2.66 0 0 1-1.498-.412c-.614-.36-.682-1.573-.75-3.693 0-.847-.045-1.723-.127-2.547l-.27-2.068a20.73 20.73 0 0 1-.292-5.003c.142-2.038-.86-5.506-1.67-8.293l-.75-2.93c-.513-2.377-.8-4.797-.86-7.228v-.322h9.094v.307c0 .127.367 12.217 0 16.262a126.18 126.18 0 0 0-.172 13.139c.112 1.978 0 2.63-2.105 2.764l-.6.023zm-5.588-31.85a40.4 40.4 0 0 0 .846 6.742c.15.75.442 1.715.75 2.884.816 2.83 1.835 6.36 1.693 8.517-.1 1.626-.004 3.258.285 4.86.1.652.195 1.326.27 2.098s.112 1.737.135 2.59c0 1.25.082 2.997.42 3.154.514.32 1.13.43 1.723.307 1.566-.097 1.61-.3 1.498-2.082-.167-4.4-.11-8.825.172-13.23.337-3.648.067-13.948 0-15.873l-7.8.03z"/><path d="M56.145 121.216l.1 3.535c-1.056 1.584-2.596 2.785-4.4 3.424l.86 9.738c.404 2.92-.053 5.243 0 8.71s-.045 5.44.906 5.843c.66.254 1.39.27 2.06.045-.45.275-.97.415-1.498.405-.656.128-1.336.002-1.903-.353-.75-.426-.464-3.475-.75-5.992s-.75-4.045-.554-7.01-1.82-8.525-2.412-11.087v-.142c-.51-2.355-.795-4.753-.854-7.16l8.442.045z"/><path d="M53.568 153.306a2.69 2.69 0 0 1-1.498-.419c-.614-.36-.682-1.573-.75-3.693 0-.847-.045-1.723-.127-2.547l-.27-2.068a20.73 20.73 0 0 1-.292-5.003c.142-2.038-.86-5.506-1.663-8.285l-.667-2.397-.12-.45c-.513-2.377-.8-4.797-.86-7.228v-.322h9.14v.314l.1 3.536v.112l-.067.098a1.04 1.04 0 0 0-.112.149 8.99 8.99 0 0 1-4.195 3.289l.097 1.198.75 8.3c.2 1.71.232 3.437.097 5.154l-.1 3.603v1.056c0 2.532 0 4.2.697 4.494a3.46 3.46 0 0 0 1.708.113l.112-.113.36.06.15.405-.157.142c-.05.038-.106.068-.165.1a3.56 3.56 0 0 1-1.558.375 4.38 4.38 0 0 1-.607.037zm-4.757-25.13l.082.27.75 2.667c.816 2.83 1.828 6.36 1.685 8.51a20.45 20.45 0 0 0 .285 4.862l.27 2.097.135 2.592c0 1.25.082 2.997.42 3.154.242.155.512.26.794.314-.75-.606-.794-2.247-.816-4.913v-1.057l.1-3.64a25.71 25.71 0 0 0-.09-5.034l-.75-8.345-.135-1.7.24-.083a8.33 8.33 0 0 0 4.113-3.146l.06-.075-.075-3.108h-7.873a40.06 40.06 0 0 0 .816 6.637z"/></g><g class="E"><path d="M44.902 89.3s-2.876 0-3.378 1.2c-.934 2.694-1.344 5.542-1.206 8.4.255 3.326.704 4.495.607 7.266s-.974 5.776-.96 8.75c0 2.77.105 3.3.75 3.692.576.296 1.17.56 1.775.787a.76.76 0 0 0 .306.04c.104-.008.205-.038.296-.088s.172-.117.236-.2.1-.176.135-.277l.54-4.263.66 5.44c-.001.163.04.323.12.466a.95.95 0 0 0 .331.35c1.07.674 3.835 2.247 5.903 2.247a13.11 13.11 0 0 0 4.869-1.423c.31-.147.57-.378.755-.667s.283-.623.287-.966c.097-4.794.382-23.603-.697-24.832-1.693-1.903-1.813-1.978-3.176-2.817s-5.588-.704-5.588-.704l-2.562-2.4z"/><path d="M50.948 123.396c-2.135 0-4.9-1.59-5.993-2.248a1.28 1.28 0 0 1-.446-.467c-.106-.192-.162-.407-.16-.626l-.345-2.832-.217 1.693c-.032.15-.095.29-.187.4s-.21.22-.343.293-.282.112-.434.12a1.04 1.04 0 0 1-.444-.074 17.52 17.52 0 0 1-1.82-.809c-.816-.48-.9-1.13-.914-3.97a31.58 31.58 0 0 1 .502-4.914c.23-1.273.383-2.56.457-3.85.042-1.366-.046-2.733-.262-4.083l-.345-3.138a22.65 22.65 0 0 1 1.236-8.547c.57-1.318 3.348-1.393 3.663-1.393h.135l2.562 2.382c.75 0 4.337-.052 5.64.75s1.498.95 3.244 2.884c1.07 1.213.95 16.218.75 25.05a2.14 2.14 0 0 1-.335 1.134c-.216.34-.523.6-.886.783-1.558.8-3.26 1.304-5.01 1.454h-.045zm-7.22-9.132c0-.075.03-.148.083-.2s.126-.083.2-.083.148.03.2.083.083.126.083.2l.697 5.716a.66.66 0 0 0 .072.332c.053.102.13.19.228.252 1.05.66 3.685 2.18 5.648 2.18h.075a13.05 13.05 0 0 0 4.734-1.393 1.5 1.5 0 0 0 .861-1.349c.27-13.993 0-23.88-.614-24.614-1.648-1.865-1.76-1.933-3.086-2.75-1.064-.66-4.285-.704-5.43-.667h-.127l-2.57-2.374c-1.05.037-2.667.322-2.996 1.004-.9 2.662-1.283 5.472-1.124 8.277.097 1.28.225 2.247.337 3.11.224 1.384.314 2.786.27 4.187a45.92 45.92 0 0 1-.622 4.944c-.255 1.663-.36 3.345-.315 5.026s.187 1.963.577 2.188c.562.283 1.14.533 1.73.75.05.026.108.04.165.04s.114-.013.165-.04a.43.43 0 0 0 .133-.113c.036-.046.062-.1.077-.157l.547-4.547z"/></g><path d="M48.452 90.496l-2.315-1.708-.532.39.374 1.206 1.626.54.846-.427z" fill="#fdbc38"/><path d="M47.635 91.268l-1.918-.63-.487-1.588.906-.667 2.93 2.172-1.43.712zm-1.393-1.13l1.34.434.255-.127-1.7-1.258-.157.112.262.84z" fill="#000"/><path d="M53.443 81.694a2.54 2.54 0 0 0 1.895-.869c.136-.156.227-.347.26-.552s.012-.415-.066-.607-.207-.36-.373-.483-.364-.198-.57-.216c-.663.09-1.278.398-1.745.876a5.42 5.42 0 0 1 .3.861l.3.99z" class="D"/><g fill="#8c8da7"><path d="M53.2 82.016l-.647-1.964-.127-.12.075-.225c.528-.593 1.256-.97 2.045-1.056a1.37 1.37 0 0 1 1.184.749 1.5 1.5 0 0 1-.15 1.611 2.8 2.8 0 0 1-2.15 1.011l-.24-.007zm0-2.12c.06.142.127.367.232.75l.24.75c.27-.024.534-.103.773-.232s.45-.305.62-.517a.9.9 0 0 0 .112-.951.75.75 0 0 0-.614-.404c-.502.08-.975.288-1.37.607h.008zm-3.324-1.58s1.183-.824.816-1.303c-.644-.84-1.2.75-2.54.914l-2.067.285s-.562 1.543-.285 1.558 2.352 0 3.064-.434a2.87 2.87 0 0 0 1.01-1.02z"/><path d="M46 80.1h-.382l-.142-.165c-.06-.097-.225-.36.307-1.82l.067-.172h.18l2.082-.285a2.48 2.48 0 0 0 1.258-.674 1.5 1.5 0 0 1 1.004-.487.87.87 0 0 1 .569.367.68.68 0 0 1 .127.524c-.082.517-.75 1.02-.95 1.19-.274.44-.65.806-1.094 1.07-.97.35-1.998.503-3.026.45zm.322-1.596c-.107.31-.194.63-.262.95.895.022 1.788-.113 2.637-.397.365-.22.67-.527.89-.89V78.1l.06-.052c.285-.195.75-.584.75-.81s-.112-.142-.135-.142-.337.187-.517.337a3.1 3.1 0 0 1-1.596.817l-1.828.255z"/></g><g class="F"><path d="M50.97 87.83s-.434 2.045.24 2.92-2.045.914-2.045.914l-2.93-1.446a4.36 4.36 0 0 0 .509-2.247c-.165-1.004-.3-1.086 0-1.05s4.225.906 4.225.906z"/><path d="M49.096 91.987l-3.303-1.626.157-.292a4.07 4.07 0 0 0 .479-2.082l-.135-.674c-.06-.3-.097-.48.052-.637a.44.44 0 0 1 .42-.105c.27.045 3.865.854 4.277.944l.307.067-.067.315c-.112.524-.3 2.037.18 2.652.092.1.153.223.173.357s-.001.27-.06.392c-.3.622-1.783.75-2.404.75l-.075-.06zm-2.442-1.918l2.577 1.273c.6.027 1.2-.09 1.745-.345.003-.017.003-.035 0-.052-.592-.75-.45-2.247-.345-2.87l-3.655-.817c0 .157.075.36.12.622a4.24 4.24 0 0 1-.442 2.187z"/><path d="M53.092 81.65s1.094 3.11.562 4.96-.75 1.963-.75 1.963a5.53 5.53 0 0 1-2.524 0c-.44-.195-.832-.48-1.15-.84s-.558-.783-.7-1.242l-.12-5.244 2.794-.81 1.888 1.213z"/><path d="M51.59 89.043a4.58 4.58 0 0 1-1.318-.18c-1.378-.404-2.037-2.112-2.082-2.33s-.097-3.745-.12-5.244v-.247l3.17-.914 2.12 1.356v.105c.045.127 1.124 3.228.57 5.154s-.824 2.105-.93 2.157h-.067a6.4 6.4 0 0 1-1.341.142zm-2.876-7.558l.112 4.944c.023.217.614 1.498 1.625 1.82.74.165 1.507.165 2.247 0a9.07 9.07 0 0 0 .629-1.76c.45-1.543-.337-4.112-.517-4.66l-1.663-1.04-2.434.697z"/></g><g fill="#8c8da7"><path d="M52.243 77.455a3.41 3.41 0 0 0-2.015.629c-1.05.584-2.532-.127-3.993.045a3.67 3.67 0 0 0-3.086 3.67 4.93 4.93 0 0 0 2.112 4.345c1.08.84.75 1.498 1.13 2.142.232.374 2.517.682 3.23.42s.442-2.307.322-2.704-1.326-1.01-.84-2.045 1.633-.75 2.9-1.243c.612-.22 1.146-.612 1.538-1.132s.622-1.14.665-1.8c0-.86-.3-2.27-1.963-2.337z"/><path d="M46.915 87.807a4.93 4.93 0 0 1-2.112-4.36 3.67 3.67 0 0 1 3.086-3.671c1.46-.172 2.944.54 3.993-.045.6-.42 1.3-.64 2.023-.63-.045-.472-.265-.9-.618-1.228s-.81-.492-1.285-.487c-.722-.01-1.428.2-2.015.63-1.05.584-2.532-.12-3.993.052-.87.137-1.662.584-2.23 1.258s-.87 1.53-.857 2.412c-.052.847.116 1.693.486 2.456s.93 1.42 1.627 1.903c1.07.832.75 1.498 1.13 2.135a2.72 2.72 0 0 0 1.498.457 2.14 2.14 0 0 0-.734-.884z"/><path d="M48.767 89.14c-1.026 0-2.4-.247-2.652-.674-.138-.246-.232-.515-.277-.794a1.78 1.78 0 0 0-.749-1.258c-.74-.513-1.337-1.21-1.73-2.02s-.572-1.7-.517-2.61c-.008-.957.328-1.885.947-2.615s1.48-1.214 2.424-1.363a7.49 7.49 0 0 1 1.88.09 3.29 3.29 0 0 0 1.993-.097c.642-.445 1.407-.678 2.187-.667 1.423.06 2.247 1.064 2.247 2.674a3.64 3.64 0 0 1-2.404 3.213c-.43.17-.877.29-1.333.36-.75.135-1.154.232-1.393.75s.045.847.457 1.28c.17.146.305.328.397.532.082.27.532 2.72-.517 3.11-.313.078-.636.108-.96.1zM46.73 78.42a3.11 3.11 0 0 0-.457 0 3.35 3.35 0 0 0-2.802 3.371c-.048.795.1 1.588.46 2.303s.877 1.328 1.533 1.78c.27.2.497.433.67.713s.286.594.334.92a1.73 1.73 0 0 0 .202.592c.232.217 1.925-.082 2.562-.315.374-.142.57-1.176.404-1.7-.072-.104-.154-.2-.247-.285-.305-.222-.527-.54-.63-.902s-.082-.75.06-1.098c.39-.817 1.1-.944 1.85-1.086a5.86 5.86 0 0 0 1.228-.315c.555-.192 1.04-.543 1.398-1.01s.57-1.027.6-1.612c0-.75-.2-1.97-1.648-2.03a3.07 3.07 0 0 0-1.85.584c-.756.317-1.596.378-2.4.172-.427-.054-.858-.082-1.288-.082z"/></g><g class="F"><path d="M50.228 84.27a.75.75 0 0 0-.52-.348.75.75 0 0 0-.603.169c-.876.57.052 1.663.682 1.738.177.01.355.01.532 0 .195 0 .36-.172.315-.315l-.404-1.243z"/><path d="M50.25 86.18a4.33 4.33 0 0 1-.502 0 1.73 1.73 0 0 1-1.296-1.221 1.01 1.01 0 0 1 .45-1.139c.13-.095.276-.162.432-.196s.318-.037.474-.006a1.08 1.08 0 0 1 .667.487v.067l.404 1.273a.5.5 0 0 1-.082.457c-.062.083-.142.15-.234.2a.7.7 0 0 1-.297.078h-.015zm-.6-1.94a.59.59 0 0 0-.33.12c-.078.037-.14.1-.177.178s-.046.166-.025.25c.052.178.148.34.28.47s.292.227.47.28a4.08 4.08 0 0 0 .472 0l-.36-1.124c-.06-.084-.147-.143-.247-.165l-.082-.007z"/></g><g class="E"><path d="M53.06 92.37s-.54-1.273-1.31-1.61-2.824.494-4.277-.135c-1.094-.48-1.16-1.086-1.124-1.363a.53.53 0 0 0-.247-.509.84.84 0 0 0-.592-.075c-.188.046-.363.135-.51.26s-.266.282-.344.46-.114.37-.106.564.06.383.153.553c.34.52.78.965 1.295 1.313s1.093.588 1.702.7a18.78 18.78 0 0 0 5.363-.165z"/><path d="M49.51 93.006a9.68 9.68 0 0 1-1.85-.157c-.662-.13-1.292-.395-1.85-.774a5.03 5.03 0 0 1-1.401-1.435 1.64 1.64 0 0 1 0-1.498 1.5 1.5 0 0 1 1.049-.816c.274-.066.563-.026.81.112a.83.83 0 0 1 .404.824c-.045.374.292.75.936 1.026.843.26 1.738.298 2.6.112.552-.13 1.126-.13 1.678 0 .676.42 1.2 1.044 1.498 1.783l.157.374-.404.067c-1.196.224-2.41.352-3.626.382zm-3.8-4.03h-.157a.87.87 0 0 0-.584.472c-.07.14-.107.293-.107.45s.037.3.107.45a4.39 4.39 0 0 0 2.801 1.858c1.593.204 3.207.18 4.794-.067-.21-.437-.54-.805-.95-1.064a3.59 3.59 0 0 0-1.348 0 5.78 5.78 0 0 1-2.936-.165c-1.303-.57-1.356-1.378-1.31-1.7.003-.036-.003-.073-.02-.106s-.04-.06-.07-.08c-.068-.032-.142-.048-.217-.045z"/></g><g class="F"><path d="M55.784 123.695a4.6 4.6 0 0 1 0 2.247c-.315 1.057.464 2.045.8 2.472a3.09 3.09 0 0 0 1.095.579 3.1 3.1 0 0 0 1.234.103c.562-.127.75-.592.846-1.25.142-.772.067-1.568-.217-2.3l-.824-2.105-2.936.255z"/><path d="M58.64 129.433c-.826.01-1.626-.287-2.247-.83-.337-.427-1.22-1.543-.862-2.764a4.33 4.33 0 0 0 0-2.053l-.112-.374 3.596-.33.914 2.337c.308.786.39 1.643.232 2.472-.12.637-.307 1.333-1.094 1.498-.14.033-.283.048-.427.045zm-2.434-5.453c.14.674.12 1.37-.052 2.037-.262.907.45 1.798.75 2.18a2.79 2.79 0 0 0 2 .57c.337-.075.48-.308.607-.997a3.88 3.88 0 0 0-.202-2.12l-.75-1.887-2.352.217z"/></g><g fill="#fff"><path d="M58.558 121.14s.577 1.887.3 2.247-2 .697-2.674.622-.6-2.285-.6-2.285l2.974-.584z"/><path d="M56.393 124.347h-.24c-.87-.098-.914-1.865-.89-2.622v-.255l3.506-.75.1.285c.232.75.57 2.105.255 2.554s-1.933.787-2.72.787zm-.487-2.36c-.064.59.048 1.183.322 1.708.818.04 1.633-.13 2.367-.494.013-.583-.076-1.164-.262-1.716l-2.427.502z"/></g><g class="E"><path d="M54.274 94.182c-1.55.202-2.906 2.307-2.06 9.573s1.183 7.8 1.183 10.15c0 1.857 1.423 5.858 1.745 7.753.014.237.115.462.283.63s.393.27.63.284c.41.04.825.04 1.236 0 .89-.075 1.28-.427 1.416-.75a.58.58 0 0 0 .052-.3c-.097-1.26-1.416-9.738-1.326-11.738.1-2.143.225-11.012-.427-13.17s-1.775-2.554-2.734-2.434z"/><path d="M56.393 122.916a1.66 1.66 0 0 1-.36 0c-.3-.028-.584-.162-.797-.377s-.345-.497-.372-.8c-.127-.712-.412-1.753-.75-2.854-.518-1.6-.867-3.27-1.04-4.95a23.73 23.73 0 0 0-.352-3.611l-.854-6.502c-.75-6.292.06-9.633 2.345-9.925 1.01-.135 2.367.217 3.1 2.622.667 2.2.54 11.094.442 13.28-.06 1.34.547 5.82.95 8.78l.375 2.92a.96.96 0 0 1-.082.457c-.135.307-.54.832-1.685.922l-.172-.03c-.262.045-.532.067-.75.067zM54.596 94.49c-.092-.007-.185-.007-.277 0-1.05.135-2.682 1.498-1.783 9.213.374 3.266.66 5.206.846 6.487a23.7 23.7 0 0 1 .359 3.693c.178 1.626.52 3.23 1.02 4.787.307 1.116.592 2.172.75 2.92.067.427.217.57.644.652a4.58 4.58 0 0 0 .936 0h.225c.81-.067 1.064-.375 1.146-.547.008-.05.008-.1 0-.15 0-.382-.18-1.498-.367-2.876a86.41 86.41 0 0 1-.951-8.929c.1-2.083.225-10.967-.412-13.064-.457-1.468-1.154-2.187-2.135-2.187z"/></g><path d="M44.198 149.65a1.87 1.87 0 0 1-1.026-.27l.277-.397-.135.202.135-.202a1.78 1.78 0 0 0 1.678 0l.187.442c-.352.15-.733.227-1.116.225z" class="D"/></svg>