<svg xmlns="http://www.w3.org/2000/svg" width="26" height="26" fill="none"><g clip-path="url(#A)" fill="#9b9b9b"><path d="M25.835 11.47a.57.57 0 0 0-.8 0L13 23.505.965 11.47a.57.57 0 0 0-.8 0 .57.57 0 0 0 0 .8L12.6 24.705a.57.57 0 0 0 .4.165c.145 0 .3-.055.4-.165L25.835 12.27a.57.57 0 0 0 0-.8zm0-10.175a.57.57 0 0 0-.8 0L13 13.33.965 1.296a.57.57 0 0 0-.8 0 .57.57 0 0 0 0 .8L12.6 14.53a.57.57 0 0 0 .4.165.56.56 0 0 0 .399-.166L25.835 2.094a.57.57 0 0 0 0-.8z"/></g><defs><clipPath id="A"><path fill="#fff" d="M0 0h26v26H0z"/></clipPath></defs></svg>