<svg xmlns="http://www.w3.org/2000/svg" width="85" height="85" viewBox="0 0 85 85" fill="none"><rect width="85" height="85" rx="20" fill="#fff"/><path fill-rule="evenodd" d="M50.703 19H12l11.642 5.47v13.91c3.075.58 5.495-.445 8.823-1.856l6.992-2.6c5.733-1.308 11.484.534 11.7 3.15.06.735-.602 1.334-1.34 1.33-.422-.001-.923-.198-1.167-.504-.442 1.1-1.364 2.055-2.51 2.052-.676-.002-1.167-.526-1.165-1.172.001-.276.09-.514.28-.667-.001.4.322.724.72.725s.724-.322.725-.72-.322-.724-.72-.725c-1.014-.003-1.838.817-1.84 1.83s.76 1.838 1.775 1.84c.943.003 2.005-.445 2.563-1.248a4.82 4.82 0 0 0 1.168.146c1.536.004 2.57-.757 3.1-1.9.61.28 2.08.523 3.71.528.3-.338.684-.646 1.134-.893.977-.536 2.034-.643 2.802-.376.246.001.446-.223.447-.5s-.198-.446-.444-.446c-.312-.001-.867.113-1.525.247-1.103.225-2.5.508-3.485.407-1.874-.192-3.586-1.72-4.54-2.573h0c-.2-.188-.384-.343-.514-.444-1.348-1.04-2.696-1.067-4.225-1.07l-2.782-.008c-1.088-.003-2.225-.284-2.5-1.175 1 .392 1.63.617 5.84.628 2.185.006 4.227.93 5.612 2.408 1.107 1.07 2.617 1.62 4.28 1.626 2.347.007 3.758-.674 4.9-1.225.517-.25.98-.473 1.45-.593 0 0 .167-.055.557-.054 1.506.004 2.723 1.228 2.718 2.734-.003 1.202-.005 1.904-1.395 2.388l-.023.008c-.362.126-1.166.405-1.932 1.656-.055-.148-.132-.523.002-.835-1.09-.07-1.607.203-2.208.52-.382.202-.796.42-1.41.58-.308.08-1.018.164-1.95.274h0c-2.264.267-5.837.69-8.127 1.59l8.01.357c.168-.315.748-1.01 1.728-1.275s2.337.118 2.892.342l-.233.016c-.526.035-1.32.09-1.492.2-.867.564-1.94.84-2.896 1.086-.827.213-1.565.402-2.005.736 1.298.134 4.517.124 7.013-.982l1.833 1.007c.312 1.002.09 3.36-3.296 4.775l.016-.044c.23-.622.64-1.744-.01-2.126-.268-.157-1.007.333-2.023 1.007-1.508 1-3.626 2.406-5.72 2.7.576-.462 1.786-1.83 1.733-2.777s-1.888-1.396-4.113-1.403c-3.537-.01-6.86 1.744-9.32 3.044-1.45.765-2.6 1.373-3.322 1.37-.89-.002-1.557-.394-1.44-2.063-4.528 1.443-8.904 3.502-12.846 6.156v9.633h27.06c12.766 0 23.114-10.348 23.114-23.114S63.468 19 50.703 19zm-27.06 28.35c6.433-4.07 12.527-6.128 14.65-6.81-1.553-1.14-3.792-1.554-6.003-1.1-4.642 1.077-7.087 1.937-8.646 2.555v1.64c2.293-.637 4.85-1.57 7.92-3.27 1.58-.875 3.337.288 3.337.566-4.108 1.195-7.865 2.81-11.255 4.788v1.64z" fill="#ff495b"/></svg>