<svg xmlns="http://www.w3.org/2000/svg" width="46" height="46" fill="none"><path d="M9.574 13.852v11.203h-8.8v-8.064a3.14 3.14 0 0 1 3.139-3.139h5.66z" fill="#bed8fb"/><path d="M43.22 17.657V42.31A3.69 3.69 0 0 1 39.531 46H9.2c-1.742 0-3.2-1.207-3.59-2.83l-.1-14.677V3.69A3.69 3.69 0 0 1 9.21 0h16.355c1.47 0 6.23 4.06 10.437 8.333 3.84 3.9 7.22 7.982 7.22 9.324z" fill="#ddeafb"/><g fill="#cbe2ff"><path d="M43.22 17.657v9c-.278-11.08-9.304-11.593-12.255-14.545l5.037-3.778c3.84 3.9 7.22 7.982 7.22 9.324z"/><path d="M25.562 0h-9.03l.032.001c11.08.278 11.593 9.304 14.545 12.255l3.778-5.037C30.985 3.38 26.904 0 25.562 0z"/></g><path d="M43.22 17.657v1.56c0-3.287-2.665-5.952-5.952-5.952h-3.623a3.69 3.69 0 0 1-3.691-3.691V5.952C29.952 2.665 27.287 0 24 0h1.56a10.6 10.6 0 0 1 7.496 3.105l7.057 7.057a10.6 10.6 0 0 1 3.105 7.496z" fill="#bed8fb"/><path d="M30.507 27.933v8.278a4.85 4.85 0 0 1-4.848 4.848H5.606L5.52 28.492v-5.407h20.14a4.85 4.85 0 0 1 4.848 4.848z" fill="#cbe2ff"/><path d="M33.644 24.98v8.278a4.85 4.85 0 0 1-4.848 4.848H3.913a2.76 2.76 0 0 1-.277-.013 3.14 3.14 0 0 1-2.863-3.127V16.99a3.13 3.13 0 0 0 .92 2.22c.506.507 1.186.842 1.943.907a2.76 2.76 0 0 0 .277.013h24.883a4.85 4.85 0 0 1 4.848 4.848z" fill="#dd636e"/><path d="M3.636 20.118v17.974a3.14 3.14 0 0 1-2.863-3.127V16.99a3.13 3.13 0 0 0 .92 2.22c.506.507 1.186.842 1.943.907z" fill="#da4a54"/><path d="M28.035 25.386c.383 0 .694-.3.694-.694s-.3-.694-.694-.694h-3.58c-.384 0-.694.3-.694.694v8.83c0 .383.3.694.694.694s.694-.3.694-.694v-3.805h2.6c.384 0 .694-.3.694-.694s-.3-.694-.694-.694h-2.6v-2.943h2.885zm-10.18-1.388h-2.5a.69.69 0 0 0-.49.204c-.13.13-.203.307-.203.492v8.686a.74.74 0 0 0 .018.157.7.7 0 0 0 .205.48c.128.128.306.202.5.202h.003l2.566-.02a3.91 3.91 0 0 0 3.089-1.571c.7-.914 1.086-2.164 1.086-3.518 0-3.056-1.712-5.1-4.26-5.1zm.06 8.8l-1.852.016-.014-7.44h1.805c1.388 0 2.872.977 2.872 3.72 0 2.15-1.156 3.673-2.8 3.7zm-7.642-8.876H7.796c-.184 0-.36.073-.492.204s-.202.305-.202.5v8.897c0 .383.3.694.694.694s.694-.3.694-.694V30.35l1.783-.007c1.794 0 3.253-1.437 3.253-3.204s-1.46-3.205-3.253-3.205zm0 5.02l-1.77.007-.007-1.823-.004-1.816h1.78c1 0 1.865.832 1.865 1.816s-.854 1.816-1.865 1.816z" fill="#fff"/></svg>