<svg xmlns="http://www.w3.org/2000/svg" width="233" height="395" fill="none"><g filter="url(#A)"><path d="M24 50.677c5.613-4.842 11.616-9.372 18.01-13.6 6.55-4.217 13.565-7.888 21.05-11.012 7.64-3.124 15.826-5.545 24.558-7.263C96.503 16.937 106.014 16 116.15 16c14.033 0 26.74 1.953 38.123 5.858 11.382 3.75 21.127 9.216 29.235 16.4 8.108 7.03 14.345 15.542 18.7 25.54C206.74 73.794 209 84.963 209 97.303c0 11.872-1.715 22.18-5.145 30.927-3.275 8.59-7.485 16.09-12.63 22.493-4.99 6.404-10.525 11.95-16.606 16.636l-17.307 13.12c-5.457 4.062-10.213 8.123-14.266 12.184-3.9 3.905-6.315 8.28-7.25 13.12l-5.847 33.505H85.745L81.3 201.332c-1.09-7.497-.156-13.98 2.807-19.447 2.962-5.623 6.938-10.7 11.928-15.23 5-4.686 10.525-9.138 16.606-13.356 6.237-4.373 12.006-8.98 17.307-13.823 5.457-5 9.98-10.544 13.565-16.636 3.742-6.248 5.613-13.59 5.613-22.024 0-10.31-3.586-18.5-10.758-24.602-7.017-6.092-16.372-9.138-28.066-9.138-8.575 0-15.826.937-21.75 2.812-5.77 1.874-10.758 3.983-14.968 6.326-4.2 2.187-7.796 4.217-10.76 6.092s-5.77 2.812-8.42 2.812c-5.925 0-10.37-2.577-13.33-7.732L24 50.677zm43.736 275.07c0-5.154.936-9.997 2.807-14.527 2.027-4.686 4.756-8.67 8.186-11.95 3.43-3.436 7.406-6.092 11.928-7.966 4.678-2.03 9.745-3.046 15.202-3.046 5.302 0 10.29 1.015 14.97 3.046 4.677 1.874 8.73 4.53 12.162 7.966 3.43 3.28 6.08 7.263 7.952 11.95 2.027 4.53 3.04 9.373 3.04 14.527 0 5.31-1.013 10.23-3.04 14.76-1.87 4.53-4.522 8.513-7.952 11.95-3.43 3.28-7.485 5.858-12.162 7.732S111.16 363 105.858 363c-5.457 0-10.524-.937-15.202-2.812-4.522-1.874-8.498-4.45-11.928-7.732-3.43-3.436-6.16-7.42-8.186-11.95-1.87-4.53-2.806-9.45-2.806-14.76z" fill="#fff"/></g><defs><filter id="A" x="0" y="0" width="233" height="395" filterUnits="userSpaceOnUse" color-interpolation-filters="sRGB"><feFlood flood-opacity="0" result="A"/><feColorMatrix in="SourceAlpha" values="0 0 0 0 0 0 0 0 0 0 0 0 0 0 0 0 0 0 127 0"/><feOffset dy="8"/><feGaussianBlur stdDeviation="12"/><feColorMatrix values="0 0 0 0 0 0 0 0 0 0 0 0 0 0 0 0 0 0 0.08 0"/><feBlend in2="A"/><feBlend in="SourceGraphic"/></filter></defs></svg>