<svg xmlns="http://www.w3.org/2000/svg" width="85" height="85" fill="none"><rect width="85" height="85" rx="20" fill="#fff"/><path d="M61.19 34.4H26.474c-1.245 0-2.255.952-2.255 2.126v32.733c0 1.174 1.01 2.126 2.255 2.126H61.19c1.245 0 2.255-.952 2.255-2.126V36.525c0-1.174-1.01-2.126-2.255-2.126z" fill="#e51a37"/><path d="M37.977 16.91C33.34 8.817 25.525 9.88 20.12 15.41S13.61 28.867 23.09 32.273c6.65 2.36 13.837 3.052 20.856 2.005-.708-6.114-2.74-12.026-5.97-17.37h0zM30.3 31.09c-5.432-1.522-3.433-6.232-.64-8.696 2.383-2.102 4.484-2.923 7.123 1.04a23.72 23.72 0 0 1 3.741 8.382c-3.388.53-6.862.274-10.12-.75l-.102.024z" fill="url(#A)"/><path d="M66.415 20.22c-4.202-4.83-11.71-7.247-16.782-1.015-3.51 4.267-5.555 9.44-5.867 14.832a54.05 54.05 0 0 0 17.935-1.063c8.583-1.957 8.942-7.803 4.714-12.755zm-10.838 9.663c-2.58 1.316-5.47 1.997-8.404 1.98.985-1.86 2.106-3.65 3.357-5.363 2.152-3.068 4.38-4.203 5.996-2.826.542.39.964.91 1.222 1.507s.343 1.246.247 1.883a3.52 3.52 0 0 1-.796 1.742c-.425.504-.984.892-1.62 1.124v-.048z" fill="url(#B)"/><path d="M28.627 41.283l2.306.773c.223.104.468.16.717.16s.494-.054.717-.16L43.77 34.81c.148-.098.27-.228.352-.38s.127-.32.127-.5-.044-.34-.127-.5-.204-.282-.352-.38h0a1.89 1.89 0 0 0-.933-.444 1.95 1.95 0 0 0-1.04.106l-13.784 6.305c-.974.483-.615 1.764.615 2.247z" fill="url(#C)"/><path d="M58.245 41.743l-2.332.628c-.23.075-.473.098-.713.07s-.47-.11-.67-.238l-10.48-7.73c-.564-.41-2.178-1.74-1.486-2.247h1.973c1.41-.145 1.23 0 1.768.266l12.81 7.247c.82.41.36 1.546-.87 2.005z" fill="url(#D)"/><path d="M31.852 42.998h3.715c2.34 0 3.5.862 3.5 2.585v5.363c0 1.723-1.17 2.585-3.5 2.585h-3.715V42.998zm2.357 1.498v7.5h1.332c.803 0 1.204-.338 1.204-1.015v-5.435c0-.676-.4-1.015-1.204-1.015l-1.332-.024zm13.94 9.01h-2.383l-.4-1.908h-2.87l-.4 1.908h-2.152L42.328 43h3.433l2.408 10.508zm-5.355-3.334h2.255l-1.127-5.314-1.127 5.314zm11.35 3.334a3.09 3.09 0 0 1-.205-1.28v-1.643c0-.886-.513-1.33-1.537-1.33h-.82v4.276h-2.357V42.998h3.536c2.323 0 3.484.805 3.484 2.416v.82a1.96 1.96 0 0 1-.372 1.318c-.28.388-.7.67-1.166.808.496.14.924.437 1.2.844a2.04 2.04 0 0 1 .353 1.38v1.62a2.48 2.48 0 0 0 .256 1.28l-2.383.024zm-2.562-9v3.237h.922c.94 0 1.4-.37 1.4-1.1v-1.04c0-.725-.4-1.087-1.204-1.087h-1.127zM34.542 62.47l-2.972-7.03h2.562l1.794 4.83 1.794-4.83h2.255l-2.972 7.03v3.48h-2.46v-3.48zm5.765-4.518c-.016-.37.06-.74.22-1.08a2.42 2.42 0 0 1 .704-.877 4.36 4.36 0 0 1 2.562-.701 4.36 4.36 0 0 1 2.562.701 2.43 2.43 0 0 1 .704.877c.16.34.235.7.22 1.08v5.46c.016.37-.06.74-.22 1.08a2.42 2.42 0 0 1-.704.877 4.36 4.36 0 0 1-2.562.701 4.36 4.36 0 0 1-2.562-.701 2.43 2.43 0 0 1-.704-.877c-.16-.34-.235-.7-.22-1.08v-5.46zm2.357 5.556c0 .693.4 1.04 1.23 1.04s1.22-.346 1.204-1.04v-5.653c0-.693-.4-1.04-1.204-1.04s-1.213.346-1.23 1.04v5.653zm8.61-8.068v8.092c0 .676.4 1.015 1.23 1.015s1.23-.338 1.23-1.015V55.44h2.23v7.996c0 1.755-1.17 2.633-3.5 2.633s-3.5-.878-3.5-2.633V55.44h2.332z" fill="#fff"/><defs><linearGradient id="A" x1="20.964" y1="16.764" x2="42.11" y2="35.992" gradientUnits="userSpaceOnUse"><stop stop-color="#ff776c"/><stop offset=".12" stop-color="#ff8067"/><stop offset=".33" stop-color="#ff9a59"/><stop offset=".57" stop-color="#febf44"/><stop offset=".99" stop-color="#ffba46"/></linearGradient><linearGradient id="B" x1="591.517" y1="106.299" x2="388.136" y2="215.789" gradientUnits="userSpaceOnUse"><stop stop-color="#ff776c"/><stop offset=".12" stop-color="#ff8067"/><stop offset=".33" stop-color="#ff9a59"/><stop offset=".57" stop-color="#febf44"/><stop offset=".99" stop-color="#ffba46"/></linearGradient><linearGradient id="C" x1="29.267" y1="40.897" x2="43.418" y2="33.088" gradientUnits="userSpaceOnUse"><stop stop-color="#ff776c"/><stop offset=".19" stop-color="#ff945c"/><stop offset=".43" stop-color="#feb34b"/><stop offset=".57" stop-color="#febf44"/><stop offset=".99" stop-color="#ffba46"/></linearGradient><linearGradient id="D" x1="353.535" y1="164.427" x2="303.895" y2="105.485" gradientUnits="userSpaceOnUse"><stop stop-color="#ff776c"/><stop offset=".12" stop-color="#ff8067"/><stop offset=".33" stop-color="#ff9a59"/><stop offset=".57" stop-color="#febf44"/><stop offset=".99" stop-color="#ffba46"/></linearGradient></defs></svg>