<svg width="32" height="32" viewBox="0 0 32 32" fill="none" xmlns="http://www.w3.org/2000/svg">
<path d="M31.1744 16.3567C31.1744 24.8478 24.1952 31.7315 15.5872 31.7315C6.97924 31.7315 0 24.8478 0 16.3567C0 7.86565 6.97924 0.981934 15.5872 0.981934C16.6745 0.981934 17.7376 1.09222 18.7632 1.30188C11.6783 2.74873 6.35196 8.93904 6.35196 16.3567C6.35196 21.3885 10.4876 25.4669 15.5894 25.4669C20.6913 25.4669 24.8269 21.3885 24.8269 16.3567C24.8269 11.325 20.6913 7.2454 15.5894 7.2454L15.7347 7.24104C17.3282 5.11282 19.4631 3.40281 21.9392 2.31194C27.3822 4.70989 31.1744 10.0965 31.1744 16.3567Z" fill="#FF9100"/>
</svg>
