<svg xmlns="http://www.w3.org/2000/svg" width="106" height="31" fill="none"><path d="M6.055 9.048c-3.08 0-5.575 2.457-5.575 5.488v.034.068 9.146h2.994v-9.35c.027-1.408 1.196-2.54 2.632-2.54s2.605 1.133 2.632 2.54v9.35h2.89v-9.35c.027-1.408 1.196-2.54 2.632-2.54s2.605 1.133 2.632 2.54v9.35h2.89v-9.248c0-3.03-2.496-5.488-5.574-5.488a5.6 5.6 0 0 0-4.078 1.746 5.6 5.6 0 0 0-4.078-1.746zm18.426 7.497c0-4.14 3.416-7.497 7.63-7.497s7.63 3.357 7.63 7.497a7.43 7.43 0 0 1-.069 1.013H27.385c.493 2.146 2.445 3.75 4.778 3.75a4.91 4.91 0 0 0 4.315-2.533h2.92c-.966 3.052-3.863 5.268-7.288 5.268-4.214 0-7.63-3.357-7.63-7.497zm2.985-1.418h9.395c-.6-1.99-2.476-3.445-4.697-3.445s-4.098 1.453-4.697 3.445zm19.872-2.672c1.494-1.286 3.45-2.218 5.593-2.218.715 0 1.41.087 2.072.25v2.7a5.61 5.61 0 0 0-2.123-.414c-3.043 0-5.514 2.412-5.542 5.397v5.744h-2.9l.004-14.22h2.9l-.004 2.76z" fill="#ff9100"/><path d="M58.266 16.424c0 4.593 3.803 7.75 8.494 7.75a8.68 8.68 0 0 0 2.072-.249v-2.87a5.62 5.62 0 0 1-2.123.412c-3.043 0-5.514-2.068-5.542-5.042v-3.45h3.522v-2.7h-3.522v-2.26h-2.9v8.408zM80.114 9.05c4.214 0 7.63 3.357 7.63 7.497a7.48 7.48 0 0 1-.013.448c-.01.2-.03.38-.056.565H75.388c.493 2.146 2.445 3.75 4.778 3.75a4.91 4.91 0 0 0 4.315-2.533h2.92c-.966 3.052-3.863 5.268-7.288 5.268-4.214 0-7.63-3.357-7.63-7.497S75.9 9.05 80.114 9.05zm.052 2.634c-2.222 0-4.098 1.453-4.697 3.445h9.395c-.6-2-2.476-3.445-4.697-3.445zM106 9.436v2.025l-4.98 5.422 4.98 5.422v2.126h-1.934L98.96 18.9l-5.104 5.542H91.78v-1.987l5.123-5.56-5.123-5.56v-1.89h2.18l5 5.44 5-5.44H106z" fill="#fff"/></svg>