<svg xmlns="http://www.w3.org/2000/svg" width="57" height="62" fill="none"><path d="M28.234.72l.3-.554-.3-.165-.3.165.3.554zM.627 15.86l-.3-.554-.327.18v.374h.627zm0 30.28H0v.374l.327.18.3-.554zm27.606 15.14l-.3.554.3.165.3-.165-.3-.554zM55.84 46.14l.3.554.327-.18v-.374h-.627zm0-30.28h.627v-.374l-.327-.18-.3.554zM27.934.165L.327 15.306l.6 1.108 27.606-15.14-.6-1.108zM0 15.86v30.28h1.255V15.86H0zm.327 30.835l27.607 15.14.6-1.108L.928 45.587l-.6 1.107zm28.207 15.14l27.606-15.14-.6-1.107-27.606 15.14.6 1.108zM56.468 46.14V15.86h-1.255v30.28h1.255zm-.327-30.835L28.534.165l-.6 1.108 27.607 15.14.6-1.108z" fill="#6a797d"/><path d="M28.235 1.98l.603-1.107-.603-.332-.603.332.603 1.107zM1.884 16.49l-.603-1.107-.652.36v.747h1.255zm0 29.02H.63v.748l.652.36.603-1.107zm26.352 14.5l-.603 1.107.603.332.603-.332-.603-1.107zm26.352-14.5l.603 1.107.652-.36v-.748h-1.255zm0-29.02h1.255v-.747l-.652-.36-.603 1.107zM27.633.875L1.28 15.385l1.205 2.213 26.352-14.5L27.633.875zM.63 16.49v29.02h2.5V16.49H.63zm.652 30.126l26.352 14.5 1.205-2.213-26.352-14.5-1.205 2.213zm27.557 14.5l26.352-14.5-1.205-2.213-26.352 14.5 1.205 2.213zM55.842 45.51V16.49h-2.5v29.02h2.5zM55.2 15.385L28.838.875l-1.205 2.213 26.352 14.5 1.205-2.213z" fill="#fff"/><path d="M28.236 4.505l.9-1.656-.9-.506-.9.506.9 1.656zM4.394 17.753l-.9-1.657-.972.54v1.116h1.882zm0 26.496H2.512v1.116l.972.54.9-1.657zm23.842 13.248l-.9 1.657.9.506.9-.506-.9-1.657zM52.078 44.25l.9 1.657.972-.54V44.25h-1.882zm0-26.496h1.882v-1.116l-.972-.54-.9 1.657zM27.326 2.848L3.484 16.096l1.82 3.313L29.146 6.16l-1.82-3.313zM2.512 17.753V44.25h3.765V17.753H2.512zm.972 28.153l23.842 13.248 1.82-3.313L5.304 42.593l-1.82 3.313zm25.663 13.248l23.842-13.248-1.82-3.313L27.326 55.84l1.82 3.313zM53.96 44.25V17.753h-3.764V44.25h3.764zm-.972-28.153L29.146 2.848l-1.82 3.313L51.168 19.4l1.82-3.313z" fill="#6a797d"/><path d="M28.234 5.766l.305-.55-.305-.17-.305.17.305.55zM5.647 18.383l-.305-.55-.323.18v.37h.627zm0 25.235H5.02v.37l.323.18.305-.55zm22.587 12.617l-.305.55.305.17.305-.17-.305-.55zM50.82 43.618l.305.55.323-.18v-.37h-.628zm0-25.235h.628v-.37l-.323-.18-.305.55zM27.93 5.214L5.342 17.832l.61 1.103L28.54 6.317l-.61-1.103zm-22.9 13.17v25.235h1.255V18.383H5.02zm.323 25.786L27.93 56.786l.61-1.103L5.952 43.066l-.61 1.103zM28.54 56.786L51.126 44.17l-.61-1.103L27.93 55.683l.61 1.103zm22.9-13.17V18.383h-1.255v25.235h1.255zm-.323-25.786L28.54 5.214l-.61 1.103 22.587 12.617.61-1.103z" fill="#17313b"/><path d="M5.648 18.384L28.236 5.767l22.587 12.617v25.235L28.236 56.236 5.648 43.618V18.384z" fill="#fff"/><path d="M2.512 23.43h2.5v16.402h-2.5V23.43zm3.136 1.26h45.174v13.88H5.648V24.7zm45.802-1.26h2.5v16.402h-2.5V23.43z" fill="#17313b"/><path d="M21.156 27.28h-1.6v8.432h1.6V27.28zm5.604 5.74c0 1.3-1.288 1.393-1.67 1.393-.957 0-1.13-.755-1.13-1.2v-3.227h-1.6v3.22c0 .8.298 1.46.82 1.9.46.4 1.152.6 1.9.6.53 0 1.282-.14 1.683-.447v.46h1.6v-5.734h-1.6v3.044zm4.8-5.064h-1.6v2.024h-1.2v1.35h1.2v4.385h1.6V31.33h1.2v-1.35h-1.2v-2.024zm6.245 6.042c-.35.264-.8.4-1.314.4-1.114 0-1.93-.7-1.93-1.635s.792-1.606 1.93-1.606c.496 0 .965.14 1.323.403l.243.176 1.08-.9-.27-.206c-.635-.483-1.48-.754-2.376-.754-2 0-3.455 1.217-3.455 2.9 0 1.665 1.488 2.925 3.455 2.925.914 0 1.766-.27 2.393-.762l.26-.205-1.096-.9-.243.183zm7.047-3.52c-.46-.4-1-.6-1.75-.6-.53 0-1.132.14-1.532.447V27.28h-1.6v8.432h1.6v-3.16c0-1.3 1.088-1.393 1.47-1.393.957 0 .93.755.93 1.2V35.7h1.6v-3.335c0-.8-.198-1.46-.72-1.9z" fill="#fff"/><path d="M36.44 31.812c.64 0 1.158.436 1.158.975s-.518.975-1.158.975-1.157-.437-1.157-.975.518-.975 1.157-.975z" fill="#ff3d2e"/><path d="M17.312 33.594c-.61.528-1.436.814-2.306.814-1.784 0-3.08-1.18-3.08-2.8 0-1.628 1.297-2.808 3.08-2.808.862 0 1.68.286 2.298.806l.243.205 1.07-.902-.235-.205c-.887-.77-2.088-1.188-3.376-1.188-2.628 0-4.603 1.76-4.603 4.098 0 2.332 1.984 4.084 4.603 4.084 1.297 0 2.498-.425 3.385-1.195l.235-.205-1.06-.916-.253.212z" fill="#fff"/><path d="M26.547 11.156H25.53v2.5h-.415v-2.5H24.1v-.306h2.445v.306zm2.84 1.194c0 .276-.052.517-.156.723a1.09 1.09 0 0 1-.443.47c-.19.108-.414.162-.67.162-.25 0-.47-.054-.662-.162a1.14 1.14 0 0 1-.45-.466 1.53 1.53 0 0 1-.163-.702v-.203a1.56 1.56 0 0 1 .159-.717c.106-.207.255-.366.447-.476a1.32 1.32 0 0 1 .665-.166c.25 0 .476.055.67.164s.343.266.447.474a1.58 1.58 0 0 1 .156.721v.178zm-.415-.182c0-.334-.075-.6-.226-.768s-.36-.27-.632-.27c-.264 0-.47.1-.623.27s-.228.425-.232.742v.207c0 .324.076.578.228.764a.77.77 0 0 0 .632.276c.268 0 .478-.087.625-.26s.224-.426.228-.752v-.2zm1.46.396v1.102h-.417V10.85h1.166c.346 0 .617.08.812.236a.76.76 0 0 1 .295.624.75.75 0 0 1-.289.632c-.2.147-.466.22-.823.22h-.745zm0-.304h.75c.223 0 .394-.046.513-.14s.178-.23.178-.406a.5.5 0 0 0-.178-.402c-.12-.1-.282-.153-.5-.157h-.773v1.104zm-12.367 7.355c-.358-.1-.618-.204-.782-.336a.61.61 0 0 1-.243-.495c0-.222.1-.405.298-.55s.46-.218.777-.218c.217 0 .4.037.58.112a.92.92 0 0 1 .395.309.72.72 0 0 1 .14.43h-.42a.48.48 0 0 0-.182-.4c-.122-.096-.293-.147-.515-.147-.206 0-.366.04-.482.122a.38.38 0 0 0-.172.334c0 .115.054.212.163.292s.296.15.558.216.47.14.617.218a.88.88 0 0 1 .33.277.65.65 0 0 1 .11.373.64.64 0 0 1-.3.55c-.2.14-.467.205-.8.205-.217 0-.42-.037-.608-.1a.94.94 0 0 1-.437-.306.69.69 0 0 1-.152-.439h.42a.47.47 0 0 0 .211.404c.142.098.33.147.567.147.22 0 .4-.04.506-.12a.38.38 0 0 0 .176-.327c0-.137-.054-.244-.163-.32s-.305-.15-.6-.224zm4.14-.062c0 .276-.052.517-.156.723a1.09 1.09 0 0 1-.443.47c-.19.108-.414.162-.67.162-.25 0-.47-.054-.662-.162a1.14 1.14 0 0 1-.449-.466 1.53 1.53 0 0 1-.163-.702v-.203a1.56 1.56 0 0 1 .159-.717 1.12 1.12 0 0 1 .447-.476 1.32 1.32 0 0 1 .665-.166c.25 0 .476.055.67.164s.343.266.447.474.156.447.156.72v.178zm-.415-.182c0-.334-.075-.6-.226-.768s-.36-.27-.632-.27c-.264 0-.47.1-.623.27s-.228.425-.232.742v.207c0 .324.076.578.228.764a.77.77 0 0 0 .632.276c.268 0 .478-.087.625-.26s.224-.426.228-.752v-.2zm2.784.255H23.25v1.243h-.417v-2.815h1.96v.306H23.25v.963h1.327v.303zm2.944-1.266h-1.016v2.5h-.415v-2.5h-1.014v-.306h2.445v.306zm1.186 1.622l.06.37.1-.334.625-1.964h.352l.6 1.964.087.34.067-.38.5-1.926h.42l-.767 2.815h-.38l-.65-2.05-.05-.215-.05.215-.676 2.05h-.38l-.764-2.815h.417l.5 1.928zm4.917.152h-1.325L32 20.87h-.43l1.207-2.815h.365l1.2 2.815h-.428l-.302-.735zm-1.2-.305H33.5l-.54-1.317-.536 1.317zm3.517-.1h-.743v1.14h-.42v-2.815h1.047c.356 0 .63.072.82.217s.3.355.3.63a.7.7 0 0 1-.161.458c-.106.13-.254.228-.443.292l.743 1.195v.023h-.447l-.686-1.14zm-.743-.303h.64c.207 0 .37-.048.493-.143a.46.46 0 0 0 .185-.383.48.48 0 0 0-.176-.4c-.116-.093-.284-.14-.504-.14h-.64v1.067zm4.1.14h-1.37v.998h1.592v.304h-2v-2.815h1.987v.306h-1.57v.905h1.37v.303zM16.94 46.107V43.65h.8c.25 0 .47.047.662.142a1.04 1.04 0 0 1 .443.403c.103.173.158.375.16.6v.157a1.17 1.17 0 0 1-.157.61 1.02 1.02 0 0 1-.447.401c-.193.093-.418.14-.675.143h-.794zm.378-2.2v1.925h.398c.3 0 .518-.078.68-.233s.244-.376.244-.663v-.143c0-.28-.077-.495-.23-.65s-.37-.234-.65-.236h-.44zm3.892 1.055h-1.243v.87H21.4v.265h-1.8V43.65h1.802v.267h-1.424v.8h1.243v.265zm1.618.705l.82-2.026h.414L23 46.107h-.335l-1.06-2.456h.412l.815 2.026zm3.242-.705h-1.243v.87h1.444v.265h-1.82V43.65h1.802v.267h-1.424v.8h1.243v.265zm1.048.868h1.36v.265h-1.74V43.65h.38v2.2zm3.868-.883a1.33 1.33 0 0 1-.142.63c-.095.18-.228.315-.402.4s-.375.142-.607.142c-.226 0-.426-.047-.6-.142s-.3-.23-.408-.406a1.27 1.27 0 0 1-.148-.612v-.177c0-.236.048-.445.144-.626a.99.99 0 0 1 .406-.415 1.23 1.23 0 0 1 .603-.145c.23 0 .432.048.607.143a.98.98 0 0 1 .406.413 1.35 1.35 0 0 1 .142.63v.155zm-.376-.16c0-.3-.068-.514-.205-.67s-.328-.234-.573-.234-.427.078-.565.234-.207.37-.2.648v.18c0 .282.07.504.207.666s.33.24.573.24.433-.076.567-.228.203-.372.207-.656V44.8zm1.323.35v.96h-.378V43.65h1.057c.314 0 .56.07.737.206a.65.65 0 0 1 .268.545c0 .238-.087.422-.262.552s-.422.192-.746.192h-.675zm0-.265h.68c.202 0 .357-.04.465-.12s.16-.2.16-.354a.43.43 0 0 0-.161-.351c-.108-.088-.255-.133-.443-.137h-.7v.963zm3.785.09h-1.243v.87h1.443v.265h-1.82V43.65H35.9v.267h-1.424v.8h1.243v.265zm1.722.142h-.673v.994h-.38V43.65h.95c.323 0 .57.063.744.2s.262.3.262.55c0 .153-.05.286-.146.4s-.23.198-.402.255l.673 1.042v.02h-.406l-.622-.994zm-.673-.265h.58c.188 0 .337-.042.447-.125a.4.4 0 0 0 .167-.334c0-.152-.053-.268-.16-.35s-.257-.122-.457-.123h-.58v.93zm2.953.16c-.324-.08-.56-.178-.7-.294a.52.52 0 0 1-.22-.432c0-.193.1-.353.27-.48s.416-.2.705-.2a1.34 1.34 0 0 1 .526.098.83.83 0 0 1 .358.27c.084.115.128.24.128.376h-.38c0-.148-.055-.265-.165-.35s-.266-.128-.467-.128c-.186 0-.332.035-.437.106a.33.33 0 0 0-.156.292c0 .1.05.185.148.255s.268.132.506.2.425.12.56.2a.79.79 0 0 1 .299.241c.066.092.1.2.1.325a.55.55 0 0 1-.272.479c-.18.12-.423.18-.727.18-.197 0-.38-.032-.55-.096s-.303-.154-.396-.267a.59.59 0 0 1-.138-.383h.38c0 .148.064.266.2.352s.3.128.514.128c.2 0 .353-.035.46-.105s.16-.165.16-.285-.05-.213-.148-.278-.277-.132-.536-.196z" fill="#000"/></svg>