<svg xmlns="http://www.w3.org/2000/svg" width="22" height="19" fill="none"><path fill-rule="evenodd" d="M19.37 5.604v-.6a8.94 8.94 0 0 0 2.21-2.37 8.43 8.43 0 0 1-2.54.69 4.5 4.5 0 0 0 1.94-2.53 8.43 8.43 0 0 1-2.8 1.07 4.39 4.39 0 0 0-3.22-1.52 4.47 4.47 0 0 0-3.179 1.376 4.47 4.47 0 0 0-1.241 3.234c-.003.356.033.712.1 1.06a12.43 12.43 0 0 1-9.11-5 4.93 4.93 0 0 0 1.37 6.31 4.24 4.24 0 0 1-2-.61v.06a4.7 4.7 0 0 0 3.55 4.65 4 4 0 0 1-2 .06 4.48 4.48 0 0 0 4.08 3.29A8.44 8.44 0 0 1 0 16.704a11.86 11.86 0 0 0 6.77 2.13c8.12 0 12.57-7.07 12.57-13.2l.03-.02z" fill="#bdbdbd"/></svg>