<svg xmlns="http://www.w3.org/2000/svg" xmlns:xlink="http://www.w3.org/1999/xlink" width="72" height="58" fill="none"><ellipse cx="36.133" cy="28.935" rx="28.406" ry="28.513" fill="#0c4773"/><ellipse cx="36.134" cy="28.936" rx="26.282" ry="26.382" fill="#fcaa00"/><ellipse cx="36.13" cy="28.936" rx="25.22" ry="25.316" fill="#fff"/><path d="M33.914 6.283h9.223v3.867H30.164c0-1.025.395-2.01 1.098-2.734s1.657-1.132 2.652-1.132h0z" fill="#fcaa00"/><path d="M39.54 20.495h-4.713v-3.97h8.513v.052c0 .515-.098 1.024-.29 1.5a3.93 3.93 0 0 1-.824 1.271c-.713.735-1.68 1.148-2.687 1.148h0z" fill="#17619a"/><path d="M34.824 15.165h4.763v1.36h3.75v-5.33h-7.72a.78.78 0 0 0-.561.24.83.83 0 0 0-.232.579v3.153z" fill="#0e4d7d"/><g fill="#fc8e00"><path d="M33.914 20.496V10.15h-3.75v10.346h3.75z"/><path d="M33.914 10.15h.66a.64.64 0 0 0-.252.051c-.08.034-.153.084-.214.147a.68.68 0 0 0-.143.22c-.033.082-.05.17-.05.26v-.68z"/></g><path d="M30.164 10.15v5.852c0-2.926 1.634-5.423 4.358-5.852.282-.044-4.358 0-4.358 0z" fill="#ea8000"/><path d="M43.34 16.506v-5.1c0 2.403-2.23 4.912-4.358 5.1-.284.025 4.358 0 4.358 0z" fill="#0b416b"/><path d="M24.04 26.373c.407-.006.8.15 1.092.43s.46.67.468 1.075c0 .413-.164.8-.457 1.102a1.56 1.56 0 0 1-2.206 0c-.293-.292-.457-.688-.457-1.102.007-.406.176-.793.468-1.075s.685-.437 1.092-.43h0zm0-.83a2.37 2.37 0 0 0-.907.17c-.288.116-.55.287-.773.504s-.4.476-.52.76a2.36 2.36 0 0 0-.19.902c0 .634.252 1.24.7 1.7s1.057.7 1.7.7a2.39 2.39 0 0 0 1.69-.7c.447-.448.7-1.056.7-1.7a2.36 2.36 0 0 0-.711-1.663c-.222-.217-.485-.388-.773-.504a2.37 2.37 0 0 0-.907-.17h0zm5.512.83c.407-.006.8.15 1.092.43s.46.67.468 1.075c0 .413-.164.8-.457 1.102a1.56 1.56 0 0 1-2.663-1.102c.007-.406.176-.793.468-1.075s.685-.437 1.092-.43h0zm0-.83a2.37 2.37 0 0 0-.907.17c-.288.116-.55.287-.773.504s-.4.476-.52.76a2.36 2.36 0 0 0-.19.902c0 .634.252 1.24.7 1.7s1.057.7 1.7.7a2.39 2.39 0 0 0 1.69-.7c.447-.448.7-1.056.7-1.7a2.36 2.36 0 0 0-.711-1.663c-.222-.217-.485-.388-.773-.504a2.37 2.37 0 0 0-.907-.17h0zm6.963-1.453v1.938c-.42-.315-.93-.485-1.456-.484a2.37 2.37 0 0 0-.907.17c-.288.116-.55.287-.773.504s-.4.476-.52.76a2.36 2.36 0 0 0-.19.902 2.36 2.36 0 0 0 .19.902 2.38 2.38 0 0 0 .52.76 2.37 2.37 0 0 0 1.68.674c.525.001 1.036-.17 1.456-.484v.38h.832v-6.23l-.832.208zm-1.456 5.297a1.54 1.54 0 0 1-1.09-.43c-.3-.28-.46-.67-.468-1.075.007-.406.176-.793.468-1.075s.685-.437 1.1-.43a1.56 1.56 0 0 1 1.456.97v1.072a1.56 1.56 0 0 1-1.456.97z" fill="#17619a"/><path d="M43.277 30.1h-.832v-4.466l.832-.104v4.57zm-4.057-5.398h2.38l-.104-.83h-3.12v6.23h.832v-2.804H41.1v-.83h-1.88v-1.765zm3.63.334l-.528-.587.53-.6.528.588-.53.6z" fill="#fcb333"/><path d="M20.608 28.68l.006-.698-.006.014V26.58H18.32l-.416.83h1.872v1.558a2.45 2.45 0 0 1-1.37.416c-1.333 0-2.4-1.048-2.4-2.337s1.077-2.337 2.4-2.337c.583-.002 1.146.205 1.6.583l.59-.6c-.602-.533-1.38-.827-2.184-.823-1.79 0-3.242 1.42-3.242 3.168s1.455 3.168 3.245 3.168a3.27 3.27 0 0 0 2.184-.831h.02v-.704z" fill="#17619a"/><path d="M46.5 25.542c-.682 0-1.097.432-1.352.887v-.887l-.832.104v4.466h.832v-2.285c0-.3.104-1.454 1.456-1.454l.312-.83H46.5zm5.407 0c-.7 0-1.1.256-1.324.6-.27-.423-.786-.6-1.172-.6-.66 0-1.034.277-1.248.638v-.638l-.832.104v4.466h.832V27.39c.014-.623.33-1.12 1.04-1.12.086 0 .728 0 .728.727v3.116h.832v-2.7c0-.643.208-1.142.936-1.142.086 0 .728 0 .728.727v3.116h.832V26.8c0-.914-.808-1.246-1.352-1.246zm3.637 4.673c-.896 0-1.33-.4-1.56-.654l-.082-.1.602-.502c.036.036.06.054.104.104a1.08 1.08 0 0 0 .936.415c.03 0 .728-.007.728-.623 0-.434-.58-.6-.7-.623-.608-.06-1.598-.405-1.598-1.35 0-.652.52-1.35 1.56-1.35.257 0 .5.056.744.164a1.78 1.78 0 0 1 .608.46l-.416.52a1.28 1.28 0 0 0-.425-.304c-.16-.07-.335-.1-.5-.1-.728 0-.728.467-.728.623 0 .423.858.52.866.52l.047.006c.476.098 1.375.4 1.375 1.448 0 .955-.785 1.35-1.56 1.35z" fill="#fcb333"/><path d="M71.437 33.996H.82l5.3 7.8-5.3 7.122h70.617l-5.044-7.122 5.044-7.8z" fill="#fcaa00"/><g fill="#fff"><path d="M8.524 36.45h-1.1v3.02h-.74v-3.02H5.602v-.605h2.923v.605zm-.246 1.647a1.61 1.61 0 0 1 .153-.714 1.12 1.12 0 0 1 .44-.485 1.28 1.28 0 0 1 .668-.172c.36 0 .653.1.88.334s.356.524.382.906l.005.184c0 .413-.114.745-.342.995s-.535.373-.92.373-.692-.124-.922-.373-.343-.587-.343-1.015v-.032zM9 38.15c0 .255.048.45.143.587a.47.47 0 0 0 .409.202.47.47 0 0 0 .404-.199c.097-.134.145-.348.145-.642 0-.25-.05-.445-.145-.582a.47.47 0 0 0-.409-.207c-.174 0-.3.07-.404.207S9 37.863 9 38.15zm4.643-.003c0 .415-.094.748-.28.998a.89.89 0 0 1-.754.373c-.27 0-.487-.095-.653-.284v1.27h-.712v-3.728h.66l.025.264a.83.83 0 0 1 .675-.314c.33 0 .584.123.766.368s.274.584.274 1.015v.037zm-.712-.052c0-.25-.044-.444-.133-.58s-.214-.204-.382-.204c-.223 0-.377.086-.46.26v1.102c.087.178.242.266.466.266.34 0 .5-.28.5-.844zm3.856.63c0-.088-.044-.157-.13-.207s-.224-.097-.414-.137c-.634-.134-.95-.406-.95-.816a.74.74 0 0 1 .293-.597c.197-.16.454-.24.77-.24.338 0 .6.08.8.24a.76.76 0 0 1 .306.627h-.712c0-.103-.033-.187-.1-.254s-.168-.102-.308-.102c-.12 0-.213.027-.28.082a.26.26 0 0 0-.099.209c0 .08.037.144.1.194s.202.1.38.127.327.075.448.12c.376.14.564.38.564.724 0 .246-.104.445-.313.597s-.478.227-.808.227a1.42 1.42 0 0 1-.596-.12 1.02 1.02 0 0 1-.407-.33.78.78 0 0 1-.148-.455h.675c.007.128.053.226.14.294s.204.102.35.102c.136 0 .24-.026.308-.077s.106-.122.106-.207z"/><path d="M17.83 38.097a1.61 1.61 0 0 1 .153-.714c.102-.21.248-.37.44-.485a1.28 1.28 0 0 1 .668-.172c.36 0 .653.11.88.334s.356.524.382.906l.005.184c0 .413-.114.745-.343.995s-.535.373-.92.373-.692-.124-.922-.373-.343-.587-.343-1.015v-.032zm.712.052c0 .255.048.45.143.587a.47.47 0 0 0 .409.202.47.47 0 0 0 .404-.199c.097-.134.145-.348.145-.642 0-.25-.05-.445-.145-.582a.47.47 0 0 0-.409-.207c-.174 0-.31.07-.404.207s-.143.348-.143.635z"/><path d="M21 39.47v-2.165h-.397v-.528H21v-.23c0-.302.085-.536.256-.702s.413-.25.722-.25c.1 0 .22.017.362.05l-.007.557a.9.9 0 0 0-.217-.022c-.268 0-.402.127-.402.38v.217h.53v.528h-.53v2.165h-.715zm2.465-3.356v.662h.456v.528h-.456v1.344c0 .1.02.17.057.214s.1.065.217.065c.08 0 .15-.006.2-.017v.545c-.14.043-.283.065-.43.065-.5 0-.754-.255-.764-.764v-1.45h-.4v-.528h.4v-.662h.712zm3.172 2.376l.35-1.715h.688l-.68 2.693h-.596l-.505-1.695-.505 1.695h-.594l-.68-2.693h.688l.348 1.712.488-1.712h.515l.485 1.715zm2.937.98a.81.81 0 0 1-.072-.24c-.172.194-.397.3-.673.3-.26 0-.478-.076-.65-.23a.74.74 0 0 1-.256-.577c0-.285.104-.504.313-.657s.513-.23.9-.23h.328v-.154c0-.125-.032-.224-.096-.3s-.162-.112-.298-.112c-.12 0-.214.03-.283.087s-.1.138-.1.24h-.712a.73.73 0 0 1 .143-.433c.095-.133.23-.236.404-.3s.37-.114.586-.114c.33 0 .6.084.78.25s.3.4.3.702v1.167c.002.256.037.45.106.58v.042h-.72zm-.6-.5c.105 0 .202-.023.3-.07a.47.47 0 0 0 .197-.192v-.463h-.266c-.357 0-.546.124-.57.373l-.003.042a.29.29 0 0 0 .094.221c.062.058.148.087.256.087zm3.25-1.52a1.91 1.91 0 0 0-.256-.02c-.27 0-.446.092-.53.276v1.762h-.712v-2.693h.673l.02.32c.143-.247.34-.37.594-.37a.74.74 0 0 1 .222.032l-.01.692zm1.523 2.07c-.4 0-.7-.12-.956-.363s-.367-.565-.367-.968v-.07c0-.27.052-.512.155-.724a1.14 1.14 0 0 1 .439-.493c.2-.116.407-.174.65-.174.365 0 .65.116.86.348s.316.562.316.988v.294h-1.698c.023.176.092.317.207.423a.63.63 0 0 0 .441.159c.274 0 .5-.1.643-.3l.35.396a1.08 1.08 0 0 1-.434.358c-.182.085-.384.127-.606.127zm-.08-2.2a.45.45 0 0 0-.345.144c-.09.096-.143.234-.168.413h1v-.057a.53.53 0 0 0-.128-.368c-.082-.088-.2-.132-.35-.132zm2.73.782c0-.42.093-.754.278-1.003s.443-.373.766-.373a.81.81 0 0 1 .643.294v-1.374h.715v3.823h-.643l-.035-.286c-.177.224-.406.336-.685.336-.314 0-.566-.124-.757-.373s-.283-.598-.283-1.043zm.712.052c0 .252.044.446.13.58s.214.202.38.202c.22 0 .375-.094.466-.28v-1.063c-.1-.187-.242-.28-.46-.28-.343 0-.515.28-.515.844zm3.47 1.366c-.4 0-.7-.12-.956-.363s-.367-.565-.367-.968v-.07c0-.27.052-.512.155-.724a1.14 1.14 0 0 1 .439-.493c.2-.116.407-.174.65-.174.365 0 .65.116.86.348s.315.562.315.988v.294h-1.698c.023.176.092.317.207.423a.63.63 0 0 0 .441.159c.274 0 .5-.1.643-.3l.35.396a1.08 1.08 0 0 1-.434.358c-.182.085-.384.127-.606.127zm-.08-2.2a.45.45 0 0 0-.345.144c-.09.096-.143.234-.168.413h1v-.057c-.003-.16-.046-.282-.128-.368s-.2-.132-.35-.132zm2.547 1.28l.495-1.814h.744l-.9 2.693h-.68l-.9-2.693h.744l.495 1.814zm2.746.92c-.4 0-.7-.12-.956-.363s-.367-.565-.367-.968v-.07c0-.27.052-.512.155-.724a1.14 1.14 0 0 1 .439-.493c.2-.116.407-.174.65-.174.365 0 .65.116.86.348s.315.562.315.988v.294H45.2c.023.176.092.317.207.423a.63.63 0 0 0 .441.159c.274 0 .5-.1.643-.3l.35.396a1.08 1.08 0 0 1-.434.358c-.182.085-.384.127-.606.127zm-.08-2.2a.45.45 0 0 0-.345.144c-.09.096-.143.234-.168.413h1v-.057c-.003-.16-.046-.282-.128-.368s-.2-.132-.35-.132zm2.336 2.15h-.715v-3.823h.715v3.823zm.478-1.373a1.61 1.61 0 0 1 .153-.714 1.12 1.12 0 0 1 .44-.485 1.28 1.28 0 0 1 .668-.172c.36 0 .653.1.88.334s.356.524.382.906l.005.184c0 .413-.114.745-.343.995s-.535.373-.92.373-.692-.124-.922-.373-.343-.587-.343-1.015v-.032zm.712.052c0 .255.048.45.143.587a.47.47 0 0 0 .409.202.47.47 0 0 0 .404-.199c.097-.134.145-.348.145-.642 0-.25-.048-.445-.145-.582a.47.47 0 0 0-.409-.207c-.174 0-.3.07-.404.207s-.143.348-.143.635zm4.654-.002c0 .415-.094.748-.28.998a.89.89 0 0 1-.754.373c-.27 0-.487-.095-.653-.284v1.27h-.712v-3.728h.66l.025.264a.83.83 0 0 1 .675-.314c.33 0 .584.123.766.368s.273.584.273 1.015v.037zm-.712-.052c0-.25-.044-.444-.133-.58s-.214-.204-.382-.204c-.223 0-.377.086-.46.26v1.102c.087.178.242.266.466.266.34 0 .5-.28.5-.844zM55 36.776l.022.3c.2-.234.444-.35.766-.35.343 0 .58.137.707.4a.91.91 0 0 1 .801-.411c.3 0 .504.085.646.256s.212.425.212.767v1.72h-.715V37.75c0-.153-.03-.264-.1-.334s-.163-.107-.313-.107c-.214 0-.36.103-.444.3l.002 1.85h-.712v-1.715c0-.156-.03-.27-.1-.338s-.164-.105-.3-.105a.46.46 0 0 0-.439.254v1.904h-.712v-2.693H55zm4.93 2.744c-.4 0-.7-.12-.956-.363s-.367-.565-.367-.968v-.07c0-.27.052-.512.155-.724a1.14 1.14 0 0 1 .439-.493c.2-.116.407-.174.65-.174.365 0 .65.116.86.348s.315.562.315.988v.294H59.33c.023.176.092.317.207.423a.63.63 0 0 0 .441.159c.274 0 .5-.1.643-.3l.35.396a1.08 1.08 0 0 1-.434.358c-.182.085-.384.127-.606.127zm-.08-2.2a.45.45 0 0 0-.345.144c-.09.096-.143.234-.168.413h1v-.057a.53.53 0 0 0-.128-.368c-.082-.088-.2-.132-.35-.132zm2.25-.544l.022.3c.2-.24.446-.36.766-.36.283 0 .493.084.63.25s.2.418.212.752v1.74h-.712v-1.722c0-.153-.033-.263-.098-.33s-.175-.105-.328-.105a.49.49 0 0 0-.451.259v1.9h-.712v-2.693h.67z"/><path d="M65.116 36.114v.662h.456v.528h-.456v1.344c0 .1.02.17.057.214s.1.065.217.065c.08 0 .15-.006.2-.017v.545c-.14.043-.283.065-.43.065-.5 0-.754-.255-.764-.764v-1.45h-.4v-.528h.4v-.662h.712zm-51.12 9.054a.46.46 0 0 0 .32-.11c.082-.074.125-.17.128-.3h.668c-.002.182-.05.35-.148.503a.99.99 0 0 1-.399.353 1.24 1.24 0 0 1-.557.124c-.38 0-.682-.122-.902-.366s-.33-.584-.33-1.015v-.047c0-.415.1-.746.328-.993s.518-.37.9-.37c.333 0 .6.096.8.3s.305.446.308.764h-.668c-.003-.14-.046-.252-.128-.338a.43.43 0 0 0-.325-.132.43.43 0 0 0-.377.184c-.084.12-.126.32-.126.592v.075c0 .277.042.476.126.597s.2.182.382.182z"/><path d="M15.407 44.327a1.61 1.61 0 0 1 .153-.714 1.12 1.12 0 0 1 .44-.485 1.28 1.28 0 0 1 .668-.172c.36 0 .653.1.88.334s.356.524.382.906l.005.184c0 .413-.114.745-.343.995s-.535.373-.92.373-.692-.124-.922-.373-.342-.587-.342-1.015v-.032zm.712.052c0 .255.048.45.143.587a.47.47 0 0 0 .409.201.47.47 0 0 0 .404-.199c.097-.134.145-.348.145-.642 0-.25-.05-.445-.145-.582a.47.47 0 0 0-.409-.207c-.174 0-.3.07-.404.207s-.143.348-.143.635zm2.92-1.373l.022.3c.2-.234.444-.35.766-.35.343 0 .58.137.707.4a.91.91 0 0 1 .8-.41c.3 0 .504.086.646.256s.212.425.212.767v1.72h-.715v-1.72c0-.153-.03-.264-.1-.334s-.163-.107-.313-.107c-.214 0-.362.103-.444.3l.002 1.85h-.712v-1.715c0-.156-.03-.27-.1-.34s-.164-.105-.3-.105a.46.46 0 0 0-.439.254v1.904h-.712v-2.693h.668zm6.103 1.37c0 .415-.094.747-.28.998a.89.89 0 0 1-.754.373c-.27 0-.487-.095-.653-.284v1.27h-.712v-3.728h.66l.025.264a.83.83 0 0 1 .675-.314c.33 0 .584.123.766.368s.273.584.273 1.015v.037zm-.712-.052c0-.25-.044-.444-.133-.58s-.214-.204-.382-.204c-.223 0-.377.086-.46.26v1.102c.087.178.242.266.466.266.34 0 .5-.28.5-.844z"/><path d="M27.132 45.698c-.033-.065-.057-.145-.072-.24-.173.194-.397.29-.673.29-.26 0-.478-.076-.65-.23a.74.74 0 0 1-.256-.577c0-.285.104-.504.313-.657s.513-.23.91-.23h.328V43.9c0-.124-.032-.224-.096-.3s-.162-.112-.298-.112c-.12 0-.214.03-.283.087s-.1.138-.1.24h-.712c0-.156.048-.3.143-.433s.23-.236.404-.31.37-.114.587-.114c.33 0 .59.084.78.25s.29.4.29.702v1.167c.002.255.037.45.106.58v.042h-.72zm-.59-.5c.105 0 .202-.023.29-.07a.47.47 0 0 0 .197-.192v-.463h-.266c-.357 0-.546.124-.57.373l-.002.042a.29.29 0 0 0 .094.221c.063.058.148.087.256.087z"/><use xlink:href="#B"/><path d="M32.117 44.68l.493-1.675h.764l-1.072 3.1-.06.142a.81.81 0 0 1-.789.528c-.104 0-.2-.016-.315-.047v-.545l.108.002c.135 0 .235-.02.3-.062a.38.38 0 0 0 .158-.207l.084-.22-.934-2.7h.766l.495 1.675zm3.546 1.018h-.715v-2.693h.715v2.693zm-.757-3.4c0-.108.035-.197.106-.266s.17-.105.293-.105.218.035.3.105.108.158.108.266a.36.36 0 0 1-.11.27c-.073.07-.168.105-.288.105s-.217-.035-.3-.105-.108-.16-.108-.27z"/><use xlink:href="#B" x="7.96"/><path d="M40.385 45.698v-3.624h1.257c.435 0 .765.085 1 .254s.338.414.338.74a.83.83 0 0 1-.136.47c-.1.134-.216.233-.377.296a.75.75 0 0 1 .434.281.83.83 0 0 1 .16.518c0 .348-.1.612-.33.8s-.534.27-.94.274h-1.395zm.74-1.578v.978h.633a.62.62 0 0 0 .407-.124c.107-.084.148-.2.148-.348 0-.332-.17-.5-.5-.505h-.678zm0-.528h.547c.373-.007.56-.157.56-.45 0-.164-.048-.282-.143-.353s-.242-.1-.446-.1h-.517v.913zm3.663 2.156c-.4 0-.7-.12-.956-.363s-.367-.565-.367-.968v-.07c0-.27.052-.512.155-.724a1.14 1.14 0 0 1 .439-.493c.2-.116.407-.174.65-.174.365 0 .65.116.86.35s.316.562.316.988v.294h-1.698c.023.176.092.317.207.423a.63.63 0 0 0 .441.159c.274 0 .5-.1.643-.3l.35.396a1.08 1.08 0 0 1-.434.358c-.182.085-.384.127-.606.127zm-.08-2.2a.45.45 0 0 0-.345.144c-.09.096-.143.234-.168.413h1v-.057a.53.53 0 0 0-.128-.368c-.082-.088-.2-.132-.35-.132zm2.335 2.15h-.715v-3.823h.715v3.823zm2.134 0a.81.81 0 0 1-.072-.24c-.172.194-.397.3-.673.3-.26 0-.478-.076-.65-.23a.74.74 0 0 1-.256-.577c0-.285.104-.504.313-.657s.513-.23.9-.23h.328V43.9a.45.45 0 0 0-.096-.3c-.064-.076-.162-.112-.298-.112-.12 0-.214.03-.283.087s-.1.138-.1.24h-.712a.73.73 0 0 1 .143-.433c.095-.133.23-.236.404-.3s.37-.114.587-.114c.33 0 .6.084.78.25s.3.4.3.702v1.167c.002.255.037.45.106.58v.042h-.72zm-.6-.5c.105 0 .202-.023.3-.07a.47.47 0 0 0 .197-.192v-.463H48.8c-.357 0-.546.124-.57.373l-.002.042a.29.29 0 0 0 .094.221c.062.058.148.087.256.087zm3.25-1.518a1.96 1.96 0 0 0-.256-.02c-.27 0-.446.092-.53.276v1.762h-.712v-2.693h.673l.02.32c.143-.247.34-.37.594-.37a.74.74 0 0 1 .222.032l-.01.692zm1.942 1.745a.89.89 0 0 1-.73.324c-.286 0-.504-.083-.656-.25s-.226-.4-.23-.73v-1.765h.712v1.74c0 .28.127.42.38.42.242 0 .407-.085.498-.254v-1.906h.715v2.693h-.67l-.02-.274zm2.672-.47c0-.088-.044-.157-.13-.207s-.224-.097-.414-.137c-.634-.134-.95-.406-.95-.816a.74.74 0 0 1 .293-.597c.197-.16.454-.242.77-.242.338 0 .6.08.8.242a.76.76 0 0 1 .306.627h-.712c0-.103-.033-.187-.1-.254s-.168-.102-.308-.102c-.12 0-.213.027-.28.082a.26.26 0 0 0-.099.209c0 .08.037.144.1.194s.202.1.38.127.327.075.448.12c.376.14.564.38.564.724 0 .246-.104.445-.313.597s-.478.227-.808.227a1.42 1.42 0 0 1-.596-.119 1.02 1.02 0 0 1-.407-.33.78.78 0 0 1-.148-.456h.675c.007.128.053.226.14.294s.204.102.35.102c.136 0 .24-.026.308-.077s.106-.122.106-.207z"/></g><defs ><path id="B" d="M28.948 43.006l.022.31c.19-.24.446-.36.766-.36.283 0 .493.084.63.25s.21.418.212.752v1.74h-.712v-1.722c0-.153-.033-.263-.1-.33s-.175-.105-.328-.105a.49.49 0 0 0-.451.259v1.9h-.712v-2.693h.67z"/></defs></svg>