<svg xmlns="http://www.w3.org/2000/svg" width="20" height="20" fill="none"><path d="M4.053 13.295c1.98 2.358 4.364 4.215 7.084 5.528 1.036.49 2.42 1.07 3.964 1.17l.283.008c1.036 0 1.868-.356 2.546-1.1.004-.004.013-.012.017-.02.24-.3.516-.55.803-.83l.587-.58c.886-.92.886-2.09-.008-2.98l-2.5-2.49c-.424-.44-.932-.67-1.464-.67s-1.044.232-1.48.667l-1.49 1.484-.412-.216-.458-.25C10.168 12.167 8.937 11.05 7.76 9.6c-.595-.75-.994-1.38-1.273-2.022l1.11-1.082.383-.385c.45-.448.69-.966.69-1.492s-.237-1.044-.69-1.492L6.74 1.902l-.424-.43L5.47.638C5.043.22 4.54 0 4.007 0S2.97.22 2.526.642L.97 2.192a3.18 3.18 0 0 0-.953 2.039c-.08 1 .104 2.043.578 3.315.728 1.97 1.826 3.796 3.457 5.748zm-3.02-8.976c.05-.55.262-1.01.66-1.41l1.547-1.542c.24-.232.508-.352.765-.352s.512.12.75.36l.824.812.433.44 1.24 1.235c.258.257.39.518.39.775s-.133.518-.39.775l-.387.4-1.17 1.13c-.345.344-.29.67-.208.92l.012.033c.32.767.765 1.496 1.46 2.366 1.248 1.533 2.563 2.723 4 3.64.18.116.37.207.55.298l.503.274a.87.87 0 0 0 .403.104c.333 0 .55-.21.62-.282l1.556-1.55c.24-.24.503-.37.76-.37.316 0 .574.195.736.37l2.508 2.495c.5.497.495 1.036-.012 1.562l-.553.55-.87.9c-.478.514-1.048.754-1.785.754a3.72 3.72 0 0 1-.216-.008c-1.364-.087-2.633-.617-3.586-1.07-2.587-1.247-4.86-3.017-6.743-5.263-1.552-1.86-2.596-3.593-3.286-5.45-.428-1.14-.59-2.056-.524-2.89z" fill="#fff"/></svg>