<svg width="32" height="31" viewBox="0 0 32 31" fill="none" xmlns="http://www.w3.org/2000/svg">
<path d="M31.1744 15.382C31.1744 23.8771 24.1952 30.764 15.5872 30.764C6.97924 30.764 0 23.8771 0 15.382C0 6.88694 6.97924 0 15.5872 0C16.6745 0 17.7376 0.11034 18.7632 0.320094C11.6783 1.76762 6.35196 7.96083 6.35196 15.382C6.35196 20.4161 10.4876 24.4965 15.5894 24.4965C20.6913 24.4965 24.8269 20.4161 24.8269 15.382C24.8269 10.3479 20.6913 6.2664 15.5894 6.2664L15.7347 6.26204C17.3282 4.13282 19.4631 2.42201 21.9392 1.33063C27.3822 3.7297 31.1744 9.11884 31.1744 15.382Z" fill="#FF9100"/>
</svg>
