<svg width="106" height="31" viewBox="0 0 106 31" fill="none" xmlns="http://www.w3.org/2000/svg">
<path d="M6.05514 9.04834C2.97641 9.04834 0.480621 11.5052 0.480621 14.5361L0.480469 14.5699L0.480621 14.6377L0.480469 23.784H3.47435V14.4345C3.50184 13.0268 4.67016 11.8939 6.10675 11.8939C7.54335 11.8939 8.71168 13.0268 8.73916 14.4345V23.784H11.6297V14.4345C11.6572 13.0268 12.8255 11.8939 14.2621 11.8939C15.6987 11.8939 16.867 13.0268 16.8945 14.4345V23.784H19.7851L19.785 14.6377L19.7851 14.5695L19.785 14.5361C19.785 11.5052 17.2892 9.04834 14.2105 9.04834C12.6008 9.04834 11.1504 9.72002 10.1328 10.7942C9.11522 9.72002 7.66485 9.04834 6.05514 9.04834ZM24.4809 16.5454C24.4809 12.4051 27.8972 9.04834 32.1115 9.04834C36.3257 9.04834 39.742 12.4051 39.742 16.5454C39.742 16.889 39.7185 17.2273 39.6729 17.5586H27.3851C27.8779 19.7043 29.8299 21.3071 32.163 21.3071C34.0286 21.3071 35.6507 20.2821 36.4777 18.7743H39.3991C38.4331 21.8263 35.5357 24.0426 32.1115 24.0426C27.8972 24.0426 24.4809 20.6858 24.4809 16.5454ZM27.4656 15.127H36.8603C36.2606 13.1357 34.3845 11.6825 32.163 11.6825C29.9415 11.6825 28.0654 13.1357 27.4656 15.127ZM47.338 12.4553C48.8322 11.169 50.7892 10.2377 52.9315 10.2377C53.6461 10.2377 54.34 10.3244 55.0031 10.4879V13.1869C54.3491 12.92 53.6319 12.7728 52.8797 12.7728C49.8364 12.7728 47.3658 15.1844 47.338 18.1696V23.9133H44.4377L44.4416 9.69464H47.3419L47.338 12.4553Z" fill="#FF9100"/>
<path d="M58.2656 16.4235C58.2656 21.017 62.0684 24.1732 66.7593 24.1732C67.474 24.1732 68.168 24.0868 68.831 23.924V21.0529C68.177 21.3188 67.4598 21.4654 66.7076 21.4654C63.6643 21.4654 61.1937 19.397 61.1659 16.4235V12.975H64.6877V10.2738H61.1659V8.01562H58.2656V16.4235ZM80.1138 9.04971C84.328 9.04971 87.7444 12.4065 87.7444 16.5468C87.7444 16.6972 87.7399 16.8464 87.731 16.9948C87.7196 17.1852 87.7009 17.374 87.6753 17.56H75.3875C75.8803 19.7057 77.8323 21.3085 80.1654 21.3085C82.031 21.3085 83.653 20.2835 84.4801 18.7757H87.4015C86.4355 21.8277 83.5381 24.0439 80.1138 24.0439C75.8996 24.0439 72.4832 20.6872 72.4832 16.5468C72.4832 12.4065 75.8996 9.04971 80.1138 9.04971ZM80.1654 11.6838C77.9439 11.6838 76.0678 13.137 75.468 15.1284H84.8627C84.263 13.137 82.3869 11.6838 80.1654 11.6838Z" fill="white"/>
<path d="M105.999 9.43604V11.4606L101.018 16.8825L105.999 22.3043V24.4302H104.065L98.9613 18.8886L93.8574 24.4302H91.7812V22.4433L96.9043 16.8825L91.7812 11.3218V9.43604H93.9616L98.9614 14.8765L103.961 9.43604H105.999Z" fill="white"/>
</svg>
