<svg width="1060" height="940" viewBox="0 0 1060 940" fill="none" xmlns="http://www.w3.org/2000/svg">
<mask id="mask0" mask-type="alpha" maskUnits="userSpaceOnUse" x="0" y="0" width="1060" height="940">
<rect width="1060" height="940" fill="white"/>
</mask>
<g mask="url(#mask0)">
<path d="M1060 490C1060 777.182 822.69 1010 530.001 1010C237.31 1010 0 777.182 0 490C0 202.818 237.31 -30 530.001 -30C566.971 -30 603.117 -26.2699 637.991 -19.179C397.089 29.7558 215.981 239.122 215.981 490C215.981 660.182 356.602 798.122 530.076 798.122C703.55 798.122 844.169 660.182 844.169 490C844.169 319.818 703.55 181.84 530.076 181.84L535.015 181.693C589.197 109.713 661.79 51.8779 745.982 14.983C931.056 96.0853 1060 278.269 1060 490Z" fill="#F1F1F1"/>
</g>
</svg>
