<svg viewBox="0 0 141 31" fill="none" xmlns="http://www.w3.org/2000/svg">
<path d="M31.1744 15.382C31.1744 23.8771 24.1952 30.764 15.5872 30.764C6.97924 30.764 0 23.8771 0 15.382C0 6.88694 6.97924 0 15.5872 0C16.6745 0 17.7376 0.11034 18.7632 0.320094C11.6783 1.76762 6.35196 7.96083 6.35196 15.382C6.35196 20.4161 10.4876 24.4965 15.5894 24.4965C20.6913 24.4965 24.8269 20.4161 24.8269 15.382C24.8269 10.3479 20.6913 6.2664 15.5894 6.2664L15.7347 6.26204C17.3282 4.13282 19.4631 2.42201 21.9392 1.33063C27.3822 3.7297 31.1744 9.11884 31.1744 15.382ZM41.0535 9.04823C37.9748 9.04823 35.479 11.5051 35.479 14.536L35.4788 14.5698L35.479 14.6376L35.4788 23.7839H38.4727V14.4344C38.5002 13.0267 39.6685 11.8937 41.1051 11.8937C42.5417 11.8937 43.71 13.0267 43.7375 14.4344V23.7839H46.628V14.4344C46.6555 13.0267 47.8239 11.8937 49.2605 11.8937C50.6971 11.8937 51.8654 13.0267 51.8929 14.4344V23.7839H54.7835L54.7834 14.6376L54.7835 14.5694L54.7834 14.536C54.7834 11.5051 52.2875 9.04823 49.2089 9.04823C47.5991 9.04823 46.1488 9.71991 45.1312 10.7941C44.1136 9.71991 42.6632 9.04823 41.0535 9.04823ZM59.4792 16.5453C59.4792 12.405 62.8955 9.04823 67.1098 9.04823C71.324 9.04823 74.7403 12.405 74.7403 16.5453C74.7403 16.8889 74.7168 17.2272 74.6713 17.5585H62.3834C62.8763 19.7042 64.8283 21.307 67.1613 21.307C69.027 21.307 70.649 20.282 71.4761 18.7742H74.3974C73.4315 21.8262 70.5341 24.0424 67.1098 24.0424C62.8955 24.0424 59.4792 20.6857 59.4792 16.5453ZM62.464 15.1269H71.8587C71.259 13.1355 69.3829 11.6824 67.1613 11.6824C64.9398 11.6824 63.0638 13.1355 62.464 15.1269ZM82.3364 12.4552C83.8306 11.1689 85.7876 10.2376 87.9299 10.2376C88.6445 10.2376 89.3384 10.3243 90.0015 10.4878V13.1868C89.3475 12.9199 88.6303 12.7727 87.878 12.7727C84.8348 12.7727 82.3642 15.1843 82.3364 18.1695V23.9132H79.4361L79.44 9.69454H82.3403L82.3364 12.4552Z" fill="#FF9100"/>
<path d="M93.2656 16.4235C93.2656 21.017 97.0684 24.1732 101.759 24.1732C102.474 24.1732 103.168 24.0868 103.831 23.924V21.0529C103.177 21.3188 102.46 21.4654 101.708 21.4654C98.6643 21.4654 96.1937 19.397 96.1659 16.4235V12.975H99.6877V10.2738H96.1659V8.01562H93.2656V16.4235ZM115.114 9.04971C119.328 9.04971 122.744 12.4065 122.744 16.5468C122.744 16.6972 122.74 16.8464 122.731 16.9948C122.72 17.1852 122.701 17.374 122.675 17.56H110.387C110.88 19.7057 112.832 21.3085 115.165 21.3085C117.031 21.3085 118.653 20.2835 119.48 18.7757H122.401C121.436 21.8277 118.538 24.0439 115.114 24.0439C110.9 24.0439 107.483 20.6872 107.483 16.5468C107.483 12.4065 110.9 9.04971 115.114 9.04971ZM115.165 11.6838C112.944 11.6838 111.068 13.137 110.468 15.1284H119.863C119.263 13.137 117.387 11.6838 115.165 11.6838Z" fill="black"/>
<path d="M140.999 9.43604V11.4606L136.018 16.8825L140.999 22.3043V24.4302H139.065L133.961 18.8886L128.857 24.4302H126.781V22.4433L131.904 16.8825L126.781 11.3218V9.43604H128.962L133.961 14.8765L138.961 9.43604H140.999Z" fill="black"/>
</svg>
