<svg width="16" height="11" viewBox="0 0 16 11" fill="none" xmlns="http://www.w3.org/2000/svg">
<path d="M15.5 0.999979H0.499948C0.223935 0.999979 -4.20076e-05 0.775961 -4.20076e-05 0.49999C-4.20076e-05 0.223977 0.223977 0 0.499948 0H15.5C15.776 0 16 0.224019 16 0.49999C16 0.775961 15.776 0.999979 15.5 0.999979Z" fill="black"/>
<path d="M0.499948 5H15.5C15.776 5 16 5.22402 16 5.49999C16 5.77596 15.776 5.99998 15.5 5.99998H0.499948C0.223935 5.99998 -4.20076e-05 5.77596 -4.20076e-05 5.49999C-4.20076e-05 5.22402 0.223935 5 0.499948 5Z" fill="black"/>
<path d="M0.49997 10H10.5C10.776 10 11 10.224 11 10.5C11 10.776 10.776 11 10.5 11H0.49997C0.223957 11 -1.96499e-05 10.776 -1.96499e-05 10.5C-6.12118e-05 10.224 0.223957 10 0.49997 10Z" fill="black"/>
</svg>
