<svg width="57" height="62" viewBox="0 0 57 62" fill="none" xmlns="http://www.w3.org/2000/svg">
<path d="M28.2339 0.718608L28.5343 0.164776L28.2339 -2.18467e-08L27.9335 0.164776L28.2339 0.718608ZM0.627421 15.8593L0.326979 15.3055L0 15.4848V15.8593H0.627421ZM0.627421 46.1407H0V46.5152L0.326979 46.6945L0.627421 46.1407ZM28.2339 61.2814L27.9335 61.8352L28.2339 62L28.5343 61.8352L28.2339 61.2814ZM55.8404 46.1407L56.1408 46.6945L56.4678 46.5152V46.1407H55.8404ZM55.8404 15.8593H56.4678V15.4848L56.1408 15.3055L55.8404 15.8593ZM27.9335 0.164776L0.326979 15.3055L0.927862 16.4131L28.5343 1.27244L27.9335 0.164776ZM0 15.8593V46.1407H1.25484V15.8593H0ZM0.326979 46.6945L27.9335 61.8352L28.5343 60.7277L0.927862 45.587L0.326979 46.6945ZM28.5343 61.8352L56.1408 46.6945L55.54 45.587L27.9335 60.7277L28.5343 61.8352ZM56.4678 46.1407V15.8593H55.213V46.1407H56.4678ZM56.1408 15.3055L28.5343 0.164776L27.9335 1.27244L55.54 16.4131L56.1408 15.3055Z" fill="#6A797D"/>
<path d="M28.2354 1.98138L28.8381 0.874723L28.2354 0.542847L27.6327 0.874723L28.2354 1.98138ZM1.88375 16.4912L1.28103 15.3846L0.628906 15.7437V16.4912H1.88375ZM1.88375 45.5109H0.628906V46.2585L1.28103 46.6176L1.88375 45.5109ZM28.2354 60.0208L27.6327 61.1274L28.2354 61.4592L28.8381 61.1274L28.2354 60.0208ZM54.5871 45.5109L55.1898 46.6176L55.8419 46.2585V45.5109H54.5871ZM54.5871 16.4912H55.8419V15.7437L55.1898 15.3846L54.5871 16.4912ZM27.6327 0.874723L1.28103 15.3846L2.48647 17.5979L28.8381 3.08803L27.6327 0.874723ZM0.628906 16.4912V45.5109H3.13859V16.4912H0.628906ZM1.28103 46.6176L27.6327 61.1274L28.8381 58.9141L2.48647 44.4043L1.28103 46.6176ZM28.8381 61.1274L55.1898 46.6176L53.9844 44.4043L27.6327 58.9141L28.8381 61.1274ZM55.8419 45.5109V16.4912H53.3322V45.5109H55.8419ZM55.1898 15.3846L28.8381 0.874723L27.6327 3.08803L53.9844 17.5979L55.1898 15.3846Z" fill="white"/>
<path d="M28.236 4.50489L29.1464 2.84842L28.236 2.34253L27.3256 2.84842L28.236 4.50489ZM4.39398 17.753L3.48356 16.0965L2.51172 16.6365V17.753H4.39398ZM4.39398 44.2492H2.51172V45.3657L3.48356 45.9058L4.39398 44.2492ZM28.236 57.4974L27.3256 59.1539L28.236 59.6597L29.1464 59.1539L28.236 57.4974ZM52.0779 44.2492L52.9883 45.9058L53.9602 45.3657V44.2492H52.0779ZM52.0779 17.753H53.9602V16.6365L52.9883 16.0965L52.0779 17.753ZM27.3256 2.84842L3.48356 16.0965L5.3044 19.4095L29.1464 6.16136L27.3256 2.84842ZM2.51172 17.753V44.2492H6.27624V17.753H2.51172ZM3.48356 45.9058L27.3256 59.1539L29.1464 55.8408L5.3044 42.5927L3.48356 45.9058ZM29.1464 59.1539L52.9883 45.9058L51.1676 42.5927L27.3256 55.8408L29.1464 59.1539ZM53.9602 44.2492V17.753H50.1957V44.2492H53.9602ZM52.9883 16.0965L29.1464 2.84842L27.3256 6.16136L51.1676 19.4095L52.9883 16.0965Z" fill="#6A797D"/>
<path d="M28.2341 5.76587L28.5388 5.2144L28.2341 5.04419L27.9294 5.2144L28.2341 5.76587ZM5.64695 18.3831L5.34225 17.8316L5.01953 18.0119V18.3831H5.64695ZM5.64695 43.6176H5.01953V43.9888L5.34225 44.1691L5.64695 43.6176ZM28.2341 56.2349L27.9294 56.7864L28.2341 56.9566L28.5388 56.7864L28.2341 56.2349ZM50.8212 43.6176L51.1259 44.1691L51.4487 43.9888V43.6176H50.8212ZM50.8212 18.3831H51.4487V18.0119L51.1259 17.8316L50.8212 18.3831ZM27.9294 5.2144L5.34225 17.8316L5.95165 18.9346L28.5388 6.31734L27.9294 5.2144ZM5.01953 18.3831V43.6176H6.27437V18.3831H5.01953ZM5.34225 44.1691L27.9294 56.7864L28.5388 55.6834L5.95165 43.0661L5.34225 44.1691ZM28.5388 56.7864L51.1259 44.1691L50.5166 43.0661L27.9294 55.6834L28.5388 56.7864ZM51.4487 43.6176V18.3831H50.1938V43.6176H51.4487ZM51.1259 17.8316L28.5388 5.2144L27.9294 6.31734L50.5166 18.9346L51.1259 17.8316Z" fill="#17313B"/>
<path d="M5.64844 18.3839L28.2356 5.7666L50.8227 18.3839V43.6184L28.2356 56.2356L5.64844 43.6184V18.3839Z" fill="white"/>
<path d="M2.51172 23.4296H5.0214V39.832H2.51172V23.4296Z" fill="#17313B"/>
<path d="M5.64844 24.6914H50.8227V38.5704H5.64844V24.6914Z" fill="#17313B"/>
<path d="M51.4492 23.4296H53.9589V39.832H51.4492V23.4296Z" fill="#17313B"/>
<path d="M21.1558 27.2797H19.5547V35.7117H21.1558V27.2797Z" fill="white"/>
<path d="M26.7586 33.0211C26.7586 34.3116 25.4709 34.4144 25.0878 34.4144C24.1307 34.4144 23.9566 33.6596 23.9566 33.2043V29.9772H22.3555V33.1975C22.3555 33.9969 22.6533 34.6566 23.1752 35.0964C23.6364 35.4853 24.3273 35.6978 25.0758 35.6978C25.6066 35.6978 26.3583 35.5585 26.7586 35.2505V35.7109H28.3597V29.9772H26.7586V33.0211Z" fill="white"/>
<path d="M31.5598 27.9561H29.9587V29.9797H28.7578V31.3289H29.9587V35.7135H31.5598V31.3289H32.7606V29.9797H31.5598V27.9561Z" fill="white"/>
<path d="M37.8045 33.9975C37.4559 34.2616 36.9955 34.408 36.4904 34.408C35.3768 34.408 34.559 33.7189 34.559 32.7728C34.559 31.8268 35.3508 31.1667 36.4904 31.1667C36.9867 31.1667 37.4559 31.306 37.8133 31.5701L38.0563 31.7462L39.1359 30.8369L38.8657 30.6314C38.2304 30.1481 37.387 29.877 36.49 29.877C34.4886 29.877 33.0352 31.0939 33.0352 32.7658C33.0352 34.4306 34.5234 35.691 36.49 35.691C37.4038 35.691 38.256 35.4198 38.8833 34.9287L39.1443 34.7233L38.0479 33.8147L37.8045 33.9975Z" fill="white"/>
<path d="M44.8522 30.4778C44.3911 30.0892 43.8507 29.8767 43.1022 29.8767C42.5714 29.8767 41.9702 30.016 41.5699 30.3236V27.2797H39.9688V35.7117H41.5699V32.553C41.5699 31.2626 42.6578 31.1601 43.0409 31.1601C43.998 31.1601 43.9716 31.9152 43.9716 32.3699V35.7117H45.5727V32.377C45.5727 31.5776 45.3746 30.9179 44.8522 30.4778Z" fill="white"/>
<path d="M36.4385 31.8124C37.0781 31.8124 37.5965 32.2485 37.5965 32.7878C37.5965 33.3264 37.0781 33.7632 36.4385 33.7632C35.7992 33.7632 35.2812 33.3264 35.2812 32.7878C35.2817 32.2488 35.7996 31.8124 36.4385 31.8124Z" fill="#FF3D2E"/>
<path d="M17.3116 33.5937C16.7028 34.1216 15.8758 34.4076 15.0056 34.4076C13.2219 34.4076 11.925 33.2271 11.925 31.6068C11.925 29.9791 13.2219 28.7986 15.0056 28.7986C15.8674 28.7986 16.6852 29.0843 17.3032 29.6051L17.5466 29.8105L18.6169 28.9086L18.382 28.7032C17.4946 27.9332 16.2937 27.5156 15.0056 27.5156C12.3777 27.5156 10.4023 29.2752 10.4023 31.6139C10.4023 33.9455 12.3865 35.698 15.0056 35.698C16.3025 35.698 17.5034 35.2731 18.3908 34.5031L18.6257 34.2977L17.5642 33.3813L17.3116 33.5937Z" fill="white"/>
<path d="M26.547 11.1563H25.5306V13.666H25.1158V11.1563H24.1016V10.8508H26.547V11.1563Z" fill="black"/>
<path d="M29.387 12.3503C29.387 12.6262 29.3348 12.8672 29.2306 13.0734C29.1264 13.2784 28.9787 13.435 28.7875 13.5433C28.5964 13.6516 28.3735 13.7057 28.1186 13.7057C27.8696 13.7057 27.6488 13.6516 27.4562 13.5433C27.2636 13.4337 27.1138 13.2784 27.0066 13.0773C26.9009 12.875 26.8466 12.641 26.8438 12.3755V12.1725C26.8438 11.9018 26.8966 11.6627 27.0023 11.4551C27.108 11.2476 27.2571 11.0891 27.4497 10.9795C27.6437 10.8687 27.8652 10.8132 28.1143 10.8132C28.3677 10.8132 28.5906 10.868 28.7832 10.9776C28.9772 11.0859 29.1264 11.2438 29.2306 11.4513C29.3348 11.6575 29.387 11.8979 29.387 12.1725V12.3503ZM28.9721 12.1686C28.9721 11.8347 28.8969 11.5789 28.7463 11.401C28.5957 11.2218 28.385 11.1323 28.1143 11.1323C27.8508 11.1323 27.643 11.2218 27.491 11.401C27.3404 11.5789 27.2629 11.8264 27.2586 12.1435V12.3503C27.2586 12.6739 27.3346 12.9284 27.4866 13.1141C27.6401 13.2984 27.8508 13.3905 28.1186 13.3905C28.3879 13.3905 28.5964 13.3035 28.7441 13.1295C28.8918 12.9542 28.9678 12.7035 28.9721 12.3774V12.1686Z" fill="black"/>
<path d="M30.4326 12.5639V13.666H30.0156V10.8508H31.1819C31.528 10.8508 31.7988 10.9295 31.9941 11.0867C32.1911 11.244 32.2895 11.4521 32.2895 11.7112C32.2895 11.9845 32.1933 12.1952 32.0007 12.3435C31.8095 12.4904 31.5352 12.5639 31.1776 12.5639H30.4326ZM30.4326 12.2603H31.1819C31.4049 12.2603 31.5758 12.2139 31.6945 12.1211C31.8132 12.027 31.8725 11.8917 31.8725 11.7151C31.8725 11.5475 31.8132 11.4135 31.6945 11.3129C31.5758 11.2124 31.4129 11.1602 31.2058 11.1563H30.4326V12.2603Z" fill="black"/>
<path d="M18.0664 19.6152C17.7088 19.5237 17.4482 19.4116 17.2846 19.2788C17.1224 19.1447 17.0413 18.9798 17.0413 18.7838C17.0413 18.5621 17.1405 18.3791 17.3389 18.2347C17.5387 18.0891 17.7978 18.0162 18.1164 18.0162C18.3336 18.0162 18.5268 18.0536 18.6963 18.1284C18.8671 18.2031 18.9989 18.3063 19.0915 18.4377C19.1856 18.5692 19.2327 18.7129 19.2327 18.8689H18.8135C18.8135 18.6988 18.7527 18.5653 18.6311 18.4687C18.5095 18.3707 18.3379 18.3217 18.1164 18.3217C17.9108 18.3217 17.7501 18.3623 17.6342 18.4435C17.5198 18.5234 17.4626 18.6349 17.4626 18.778C17.4626 18.8927 17.5169 18.9901 17.6255 19.07C17.7356 19.1486 17.9216 19.2208 18.1837 19.2865C18.4472 19.3523 18.6528 19.4251 18.8005 19.505C18.9496 19.5836 19.0597 19.6758 19.1306 19.7815C19.203 19.8872 19.2392 20.0116 19.2392 20.1546C19.2392 20.3828 19.1393 20.5658 18.9395 20.7038C18.7397 20.8404 18.4726 20.9087 18.1381 20.9087C17.9209 20.9087 17.7182 20.872 17.53 20.7985C17.3417 20.7237 17.1962 20.6219 17.0934 20.493C16.9921 20.3641 16.9414 20.2178 16.9414 20.0541H17.3606C17.3606 20.2243 17.4308 20.359 17.5712 20.4582C17.7131 20.5562 17.9021 20.6051 18.1381 20.6051C18.3582 20.6051 18.5268 20.5652 18.6441 20.4853C18.7614 20.4054 18.8201 20.2964 18.8201 20.1585C18.8201 20.0206 18.7658 19.9143 18.6572 19.8395C18.5486 19.7634 18.3517 19.6887 18.0664 19.6152Z" fill="black"/>
<path d="M22.2073 19.5533C22.2073 19.8292 22.1552 20.0702 22.0509 20.2765C21.9467 20.4814 21.799 20.638 21.6079 20.7463C21.4167 20.8546 21.1938 20.9087 20.9389 20.9087C20.6899 20.9087 20.4691 20.8546 20.2765 20.7463C20.084 20.6367 19.9341 20.4814 19.827 20.2803C19.7213 20.078 19.667 19.844 19.6641 19.5785V19.3755C19.6641 19.1048 19.7169 18.8657 19.8226 18.6582C19.9283 18.4506 20.0774 18.2921 20.27 18.1825C20.464 18.0717 20.6856 18.0162 20.9346 18.0162C21.188 18.0162 21.411 18.071 21.6035 18.1806C21.7975 18.2889 21.9467 18.4467 22.0509 18.6543C22.1552 18.8605 22.2073 19.1009 22.2073 19.3755V19.5533ZM21.7925 19.3716C21.7925 19.0378 21.7172 18.7819 21.5666 18.604C21.416 18.4248 21.2053 18.3353 20.9346 18.3353C20.6711 18.3353 20.4633 18.4248 20.3113 18.604C20.1607 18.7819 20.0832 19.0294 20.0789 19.3465V19.5533C20.0789 19.8769 20.1549 20.1315 20.3069 20.3171C20.4604 20.5014 20.6711 20.5935 20.9389 20.5935C21.2082 20.5935 21.4167 20.5065 21.5644 20.3325C21.7121 20.1572 21.7881 19.9065 21.7925 19.5804V19.3716Z" fill="black"/>
<path d="M24.576 19.6257H23.249V20.869H22.832V18.0538H24.791V18.3593H23.249V19.3222H24.576V19.6257Z" fill="black"/>
<path d="M27.5197 18.3593H26.5033V20.869H26.0885V18.3593H25.0742V18.0538H27.5197V18.3593Z" fill="black"/>
<path d="M28.7056 19.9815L28.7664 20.3527L28.8554 20.0182L29.4809 18.0538H29.8327L30.4431 20.0182L30.5299 20.3585L30.5973 19.9796L31.0881 18.0538H31.5073L30.7406 20.869H30.3605L29.709 18.8176L29.659 18.6029L29.6091 18.8176L28.9336 20.869H28.5535L27.7891 18.0538H28.2061L28.7056 19.9815Z" fill="black"/>
<path d="M33.6226 20.1342H32.2979L32.0003 20.869H31.5703L32.7778 18.0538H33.1426L34.3524 20.869H33.9245L33.6226 20.1342ZM32.4239 19.8288H33.4989L32.9603 18.5121L32.4239 19.8288Z" fill="black"/>
<path d="M35.9392 19.7301H35.1965V20.869H34.7773V18.0538H35.8241C36.1804 18.0538 36.4539 18.126 36.645 18.2704C36.8377 18.4147 36.9339 18.6249 36.9339 18.9007C36.9339 19.076 36.8803 19.2287 36.7733 19.3589C36.6675 19.4891 36.5198 19.5864 36.3302 19.6509L37.0729 20.8458V20.869H36.6256L35.9392 19.7301ZM35.1965 19.4266H35.8372C36.0442 19.4266 36.2086 19.3789 36.3302 19.2835C36.4533 19.1881 36.5148 19.0605 36.5148 18.9007C36.5148 18.7267 36.4562 18.5933 36.3389 18.5005C36.223 18.4077 36.055 18.3606 35.835 18.3593H35.1965V19.4266Z" fill="black"/>
<path d="M39.3071 19.5677H37.9365V20.5654H39.5285V20.869H37.5195V18.0538H39.5068V18.3593H37.9365V19.2642H39.3071V19.5677Z" fill="black"/>
<path d="M16.9414 46.1073V43.6514H17.7508C18.0002 43.6514 18.2208 43.6986 18.4125 43.7931C18.6041 43.8875 18.7518 44.0219 18.8555 44.1962C18.9606 44.3705 19.0137 44.5707 19.015 44.7967V44.9536C19.015 45.1852 18.9625 45.3882 18.8575 45.5625C18.7538 45.7368 18.6048 45.8706 18.4105 45.964C18.2175 46.0573 17.9923 46.1051 17.735 46.1073H16.9414ZM17.3195 43.9179V45.8425H17.7173C18.0088 45.8425 18.2352 45.7649 18.3967 45.6097C18.5595 45.4546 18.6409 45.2336 18.6409 44.9468V44.8035C18.6409 44.5246 18.5641 44.3081 18.4105 44.154C18.2582 43.9988 18.0416 43.9201 17.7606 43.9179H17.3195Z" fill="black"/>
<path d="M21.2106 44.9721H19.968V45.8425H21.4114V46.1073H19.5898V43.6514H21.3917V43.9179H19.968V44.7073H21.2106V44.9721Z" fill="black"/>
<path d="M22.8284 45.6772L23.6476 43.6514H24.0612L22.9978 46.1073H22.663L21.6016 43.6514H22.0131L22.8284 45.6772Z" fill="black"/>
<path d="M26.0699 44.9721H24.8273V45.8425H26.2708V46.1073H24.4492V43.6514H26.2511V43.9179H24.8273V44.7073H26.0699V44.9721Z" fill="black"/>
<path d="M27.1183 45.8408H28.4771V46.1056H26.7383V43.6497H27.1183V45.8408Z" fill="black"/>
<path d="M30.9857 44.9572C30.9857 45.1979 30.9385 45.4082 30.8439 45.5881C30.7494 45.7669 30.6155 45.9035 30.4422 45.998C30.2689 46.0924 30.0667 46.1397 29.8356 46.1397C29.6099 46.1397 29.4096 46.0924 29.235 45.998C29.0604 45.9024 28.9245 45.7669 28.8274 45.5915C28.7315 45.4149 28.6823 45.2108 28.6797 44.9791V44.802C28.6797 44.5659 28.7276 44.3573 28.8234 44.1762C28.9193 43.9952 29.0545 43.8569 29.2291 43.7613C29.405 43.6646 29.6058 43.6162 29.8317 43.6162C30.0615 43.6162 30.2636 43.664 30.4383 43.7596C30.6142 43.8541 30.7494 43.9918 30.8439 44.1729C30.9385 44.3528 30.9857 44.5625 30.9857 44.802V44.9572ZM30.6096 44.7987C30.6096 44.5074 30.5413 44.2842 30.4048 44.129C30.2683 43.9727 30.0772 43.8945 29.8317 43.8945C29.5928 43.8945 29.4044 43.9727 29.2665 44.129C29.13 44.2842 29.0598 44.5001 29.0558 44.7767V44.9572C29.0558 45.2395 29.1247 45.4616 29.2626 45.6235C29.4017 45.7843 29.5928 45.8647 29.8356 45.8647C30.0798 45.8647 30.2689 45.7888 30.4028 45.637C30.5367 45.4841 30.6057 45.2653 30.6096 44.9808V44.7987Z" fill="black"/>
<path d="M31.9328 45.1459V46.1073H31.5547V43.6514H32.6121C32.926 43.6514 33.1714 43.72 33.3487 43.8572C33.5273 43.9943 33.6165 44.176 33.6165 44.402C33.6165 44.6404 33.5292 44.8243 33.3546 44.9536C33.1813 45.0818 32.9325 45.1459 32.6083 45.1459H31.9328ZM31.9328 44.881H32.6121C32.8144 44.881 32.9693 44.8406 33.0769 44.7596C33.1846 44.6775 33.2384 44.5594 33.2384 44.4054C33.2384 44.2592 33.1846 44.1422 33.0769 44.0545C32.9693 43.9668 32.8216 43.9213 32.6339 43.9179H31.9328V44.881Z" fill="black"/>
<path d="M35.7184 44.9721H34.4757V45.8425H35.9192V46.1073H34.0977V43.6514H35.8995V43.9179H34.4757V44.7073H35.7184V44.9721Z" fill="black"/>
<path d="M37.4403 45.1138H36.7668V46.1073H36.3867V43.6514H37.336C37.6589 43.6514 37.9071 43.7143 38.0804 43.8403C38.2549 43.9662 38.3423 44.1495 38.3423 44.3902C38.3423 44.5431 38.2937 44.6764 38.1966 44.79C38.1007 44.9035 37.9668 44.9884 37.7948 45.0447L38.4682 46.0871V46.1073H38.0626L37.4403 45.1138ZM36.7668 44.849H37.3478C37.5355 44.849 37.6845 44.8074 37.7948 44.7242C37.9063 44.641 37.9622 44.5296 37.9622 44.3902C37.9622 44.2384 37.909 44.122 37.8027 44.041C37.6977 43.9601 37.5453 43.919 37.3458 43.9179H36.7668V44.849Z" fill="black"/>
<path d="M39.7194 45.0112C39.395 44.9314 39.1587 44.8335 39.0104 44.7177C38.8634 44.6007 38.7898 44.4568 38.7898 44.2859C38.7898 44.0925 38.8798 43.9328 39.0596 43.8068C39.2408 43.6797 39.4758 43.6162 39.7647 43.6162C39.9616 43.6162 40.1369 43.6488 40.2905 43.714C40.4453 43.7793 40.5648 43.8692 40.6489 43.9839C40.7342 44.0986 40.7769 44.224 40.7769 44.3601H40.3968C40.3968 44.2117 40.3417 44.0953 40.2314 44.0109C40.1211 43.9255 39.9655 43.8827 39.7647 43.8827C39.5782 43.8827 39.4325 43.9181 39.3275 43.989C39.2237 44.0587 39.1719 44.156 39.1719 44.2808C39.1719 44.3809 39.2211 44.4658 39.3196 44.5355C39.4194 44.6041 39.588 44.6671 39.8257 44.7244C40.0646 44.7818 40.2511 44.8453 40.385 44.915C40.5202 44.9836 40.62 45.064 40.6843 45.1563C40.7499 45.2485 40.7828 45.357 40.7828 45.4818C40.7828 45.6808 40.6922 45.8405 40.511 45.9609C40.3299 46.0801 40.0876 46.1397 39.7843 46.1397C39.5874 46.1397 39.4036 46.1076 39.2329 46.0435C39.0622 45.9783 38.9304 45.8894 38.8371 45.777C38.7453 45.6645 38.6992 45.5369 38.6992 45.3941H39.0793C39.0793 45.5425 39.1431 45.6601 39.2703 45.7466C39.399 45.8321 39.5703 45.8748 39.7843 45.8748C39.9839 45.8748 40.1369 45.84 40.2432 45.7703C40.3495 45.7005 40.4027 45.6055 40.4027 45.4852C40.4027 45.3649 40.3535 45.2721 40.255 45.2069C40.1565 45.1405 39.978 45.0753 39.7194 45.0112Z" fill="black"/>
</svg>
