<svg width="72" height="58" viewBox="0 0 72 58" fill="none" xmlns="http://www.w3.org/2000/svg">
<ellipse cx="36.1325" cy="28.9353" rx="28.4059" ry="28.5134" fill="#0C4773"/>
<ellipse cx="36.1337" cy="28.9363" rx="26.2821" ry="26.3816" fill="#FCAA00"/>
<ellipse cx="36.1304" cy="28.9358" rx="25.2202" ry="25.3156" fill="white"/>
<path d="M33.914 6.28345H43.1368V10.15H30.1641C30.1641 9.12455 30.5591 8.14107 31.2624 7.41594C31.9656 6.69082 32.9194 6.28345 33.914 6.28345V6.28345Z" fill="#FCAA00"/>
<path d="M39.5392 20.4951H34.8265V16.524H43.3398V16.5763C43.3398 17.0909 43.2415 17.6005 43.0505 18.076C42.8595 18.5514 42.5796 18.9834 42.2267 19.3473C41.5139 20.0822 40.5472 20.4951 39.5392 20.4951V20.4951Z" fill="#17619A"/>
<path d="M34.8242 15.1652H39.5876V16.5237H43.3376V11.1941H35.6178C35.4073 11.1941 35.2055 11.2803 35.0566 11.4338C34.9078 11.5872 34.8242 11.7953 34.8242 12.0123V15.1652Z" fill="#0E4D7D"/>
<path d="M33.9141 20.4959V10.1501H30.1641V20.4959H33.9141Z" fill="#FC8E00"/>
<path d="M33.9141 10.1501H34.5728C34.4863 10.15 34.4006 10.1675 34.3206 10.2016C34.2406 10.2357 34.1679 10.2857 34.1067 10.3488C34.0455 10.4119 33.997 10.4868 33.9639 10.5693C33.9309 10.6518 33.9139 10.7402 33.9141 10.8294V10.1501Z" fill="#FC8E00"/>
<path d="M30.1641 10.1509V16.003C30.1641 13.0769 31.7978 10.5804 34.5221 10.1509C34.8038 10.107 30.1641 10.1509 30.1641 10.1509Z" fill="#EA8000"/>
<path d="M43.3393 16.5055V11.4048C43.3393 13.8083 41.1096 16.3164 38.9813 16.5055C38.6975 16.5306 43.3393 16.5055 43.3393 16.5055Z" fill="#0B416B"/>
<path d="M24.04 26.3725C24.4466 26.3661 24.8392 26.5211 25.1316 26.8034C25.424 27.0857 25.5924 27.4723 25.5997 27.8784C25.5997 28.2916 25.4354 28.6878 25.1429 28.98C24.8504 29.2721 24.4537 29.4363 24.04 29.4363C23.6264 29.4363 23.2296 29.2721 22.9371 28.98C22.6446 28.6878 22.4803 28.2916 22.4803 27.8784C22.4877 27.4723 22.656 27.0857 22.9484 26.8034C23.2408 26.5211 23.6334 26.3661 24.04 26.3725V26.3725ZM24.04 25.5416C23.7294 25.5382 23.4211 25.5959 23.1327 25.7115C22.8444 25.8271 22.5817 25.9983 22.3596 26.2153C22.1376 26.4323 21.9604 26.6908 21.8384 26.9762C21.7164 27.2616 21.6518 27.5681 21.6484 27.8784C21.6484 28.5119 21.9004 29.1195 22.3489 29.5675C22.7974 30.0155 23.4057 30.2671 24.04 30.2671C24.6743 30.2671 25.2826 30.0155 25.7311 29.5675C26.1796 29.1195 26.4316 28.5119 26.4316 27.8784C26.4282 27.5681 26.3636 27.2616 26.2416 26.9762C26.1196 26.6908 25.9425 26.4323 25.7204 26.2153C25.4983 25.9983 25.2356 25.8271 24.9473 25.7115C24.659 25.5959 24.3507 25.5382 24.04 25.5416V25.5416Z" fill="#17619A"/>
<path d="M29.5517 26.3725C29.9584 26.3661 30.3509 26.5211 30.6433 26.8034C30.9357 27.0857 31.1041 27.4723 31.1115 27.8784C31.1115 28.2916 30.9471 28.6878 30.6546 28.98C30.3621 29.2721 29.9654 29.4363 29.5517 29.4363C29.1381 29.4363 28.7413 29.2721 28.4488 28.98C28.1563 28.6878 27.992 28.2916 27.992 27.8784C27.9994 27.4723 28.1677 27.0857 28.4601 26.8034C28.7525 26.5211 29.1451 26.3661 29.5517 26.3725V26.3725ZM29.5517 25.5416C29.2411 25.5382 28.9328 25.5959 28.6445 25.7115C28.3561 25.8271 28.0934 25.9983 27.8714 26.2153C27.6493 26.4323 27.4722 26.6908 27.3501 26.9762C27.2281 27.2616 27.1636 27.5681 27.1602 27.8784C27.1602 28.5119 27.4121 29.1195 27.8606 29.5675C28.3091 30.0155 28.9174 30.2671 29.5517 30.2671C30.186 30.2671 30.7943 30.0155 31.2428 29.5675C31.6913 29.1195 31.9433 28.5119 31.9433 27.8784C31.9399 27.5681 31.8754 27.2616 31.7533 26.9762C31.6313 26.6908 31.4542 26.4323 31.2321 26.2153C31.01 25.9983 30.7473 25.8271 30.459 25.7115C30.1707 25.5959 29.8624 25.5382 29.5517 25.5416V25.5416Z" fill="#17619A"/>
<path d="M36.5153 24.0888V26.0268C36.0957 25.7116 35.5846 25.5417 35.0595 25.5428C34.7489 25.5394 34.4406 25.5971 34.1523 25.7127C33.864 25.8283 33.6013 25.9994 33.3792 26.2164C33.1571 26.4334 32.98 26.692 32.8579 26.9774C32.7359 27.2627 32.6714 27.5693 32.668 27.8796C32.6714 28.1899 32.7359 28.4964 32.8579 28.7818C32.98 29.0672 33.1571 29.3257 33.3792 29.5427C33.6013 29.7597 33.864 29.9309 34.1523 30.0465C34.4406 30.1621 34.7489 30.2198 35.0595 30.2164C35.5846 30.2175 36.0957 30.0476 36.5153 29.7324V30.1125H37.3471V23.8811L36.5153 24.0888ZM35.0595 29.3855C34.6529 29.3919 34.2604 29.2369 33.968 28.9546C33.6756 28.6723 33.5072 28.2857 33.4998 27.8796C33.5072 27.4735 33.6756 27.0868 33.968 26.8045C34.2604 26.5222 34.6529 26.3673 35.0595 26.3737C35.3715 26.3714 35.6769 26.4626 35.9365 26.6355C36.196 26.8085 36.3976 27.0551 36.5153 27.3437V28.4155C36.3976 28.704 36.196 28.9507 35.9365 29.1236C35.6769 29.2965 35.3715 29.3878 35.0595 29.3855Z" fill="#17619A"/>
<path d="M43.2772 30.1112H42.4453V25.6454L43.2772 25.5415V30.1112Z" fill="#FCB333"/>
<path d="M39.2186 24.712H41.6102L41.5062 23.8811H39.2186H38.9066H38.3867V30.1125H39.2186V27.3084H41.0902V26.4775H39.2186V24.712Z" fill="#FCB333"/>
<path d="M42.8485 25.0461L42.3203 24.4593L42.8506 23.8694L43.3788 24.4572L42.8485 25.0461Z" fill="#FCB333"/>
<path d="M20.6078 28.6799C20.6078 28.3434 20.6078 28.008 20.614 27.982L20.6078 27.9955V26.5799H18.3202L17.9042 27.4108H19.7759V28.9686C19.3708 29.2406 18.8935 29.3853 18.4054 29.3841C17.0724 29.3841 15.9951 28.3361 15.9951 27.0473C15.9951 25.7584 17.0724 24.7105 18.4054 24.7105C18.988 24.709 19.5519 24.9157 19.9953 25.2932L20.5859 24.7032C19.9843 24.1698 19.2068 23.8766 18.4023 23.8797C16.6117 23.8797 15.1602 25.2983 15.1602 27.0473C15.1602 28.7962 16.6149 30.2149 18.4054 30.2149C19.2109 30.216 19.9885 29.9202 20.589 29.3841H20.6078V28.6799Z" fill="#17619A"/>
<path d="M46.5 25.5415C45.8179 25.5415 45.403 25.9735 45.1483 26.4284V25.5415L44.3164 25.6454V30.1112H45.1483V27.8263C45.1483 27.5148 45.2522 26.3724 46.604 26.3724L46.9159 25.5415H46.5Z" fill="#FCB333"/>
<path d="M51.9072 25.5415C51.2168 25.5415 50.8175 25.797 50.5835 26.1324C50.3142 25.7098 49.7974 25.5415 49.4117 25.5415C48.7503 25.5415 48.3781 25.8188 48.1639 26.1792V25.5415L47.332 25.6454V30.1112H48.1639V27.3881C48.1774 26.7649 48.4925 26.2685 49.2037 26.2685C49.29 26.2685 49.9316 26.2685 49.9316 26.9955V30.1112H50.7634V27.4109C50.7634 26.768 50.9714 26.2685 51.6993 26.2685C51.7856 26.2685 52.4271 26.2685 52.4271 26.9955V30.1112H53.259V26.7878C53.259 25.8738 52.451 25.5415 51.9072 25.5415Z" fill="#FCB333"/>
<path d="M55.5442 30.215C54.6479 30.215 54.2143 29.8256 53.9845 29.5608C53.9543 29.5265 53.9273 29.4953 53.9023 29.4704L54.5044 28.9688C54.5408 29.0051 54.5647 29.0228 54.6084 29.0726C54.8049 29.2959 55.0243 29.4881 55.5442 29.4881C55.5744 29.4881 56.2721 29.4808 56.2721 28.8649C56.2721 28.4308 55.6919 28.2646 55.5827 28.2418C54.9744 28.1826 53.9845 27.8367 53.9845 26.8916C53.9845 26.2394 54.5044 25.5415 55.5442 25.5415C55.8012 25.5419 56.055 25.5978 56.2884 25.7053C56.5217 25.8129 56.729 25.9696 56.896 26.1646L56.48 26.6839C56.3605 26.5548 56.2159 26.4514 56.055 26.3799C55.8941 26.3085 55.7203 26.2706 55.5442 26.2685C54.8163 26.2685 54.8163 26.7359 54.8163 26.8916C54.8163 27.3143 55.6742 27.4109 55.6825 27.4109L55.7293 27.4172C56.2055 27.5148 57.1039 27.8263 57.1039 28.8649C57.1039 29.8194 56.3189 30.215 55.5442 30.215Z" fill="#FCB333"/>
<path d="M71.4369 33.9961H0.820312L6.12983 41.7967L0.820312 48.919H71.4369L66.3928 41.7967L71.4369 33.9961Z" fill="#FCAA00"/>
<path d="M8.52418 36.4499H7.42512V39.4687H6.68584V36.4499H5.60156V35.8451H8.52418V36.4499Z" fill="white"/>
<path d="M8.27776 38.0974C8.27776 37.8303 8.32869 37.5922 8.43054 37.3832C8.5324 37.1741 8.67861 37.0123 8.86918 36.8979C9.06139 36.7834 9.284 36.7261 9.537 36.7261C9.89678 36.7261 10.19 36.8373 10.4167 37.0596C10.6451 37.282 10.7724 37.5839 10.7987 37.9655L10.8036 38.1497C10.8036 38.5628 10.6895 38.8947 10.4611 39.1452C10.2327 39.3941 9.92635 39.5185 9.54193 39.5185C9.1575 39.5185 8.85029 39.3941 8.62029 39.1452C8.39194 38.8963 8.27776 38.5579 8.27776 38.1298V38.0974ZM8.98993 38.1497C8.98993 38.4052 9.03757 38.601 9.13286 38.737C9.22814 38.8714 9.3645 38.9386 9.54193 38.9386C9.71443 38.9386 9.84914 38.8723 9.94607 38.7395C10.043 38.6051 10.0915 38.3911 10.0915 38.0974C10.0915 37.8469 10.043 37.6528 9.94607 37.5151C9.84914 37.3774 9.71278 37.3085 9.537 37.3085C9.36286 37.3085 9.22814 37.3774 9.13286 37.5151C9.03757 37.6511 8.98993 37.8627 8.98993 38.1497Z" fill="white"/>
<path d="M13.6425 38.1472C13.6425 38.562 13.5488 38.8947 13.3615 39.1452C13.1759 39.3941 12.9245 39.5185 12.6075 39.5185C12.338 39.5185 12.1204 39.4239 11.9544 39.2348V40.5041H11.2423V36.7759H11.9027L11.9273 37.0397C12.0998 36.8307 12.3249 36.7261 12.6025 36.7261C12.9311 36.7261 13.1866 36.8489 13.3689 37.0945C13.5513 37.34 13.6425 37.6785 13.6425 38.1099V38.1472ZM12.9303 38.0949C12.9303 37.8444 12.8859 37.6511 12.7972 37.5151C12.7102 37.379 12.5828 37.311 12.4153 37.311C12.1918 37.311 12.0382 37.3973 11.9544 37.5698V38.6723C12.0415 38.8499 12.1968 38.9386 12.4202 38.9386C12.7603 38.9386 12.9303 38.6574 12.9303 38.0949Z" fill="white"/>
<path d="M16.7869 38.7246C16.7869 38.6367 16.7433 38.5678 16.6563 38.518C16.5708 38.4666 16.4328 38.421 16.2423 38.3811C15.6081 38.2468 15.2911 37.9747 15.2911 37.5648C15.2911 37.3259 15.3888 37.1268 15.5843 36.9675C15.7815 36.8066 16.0386 36.7261 16.3556 36.7261C16.6941 36.7261 16.9643 36.8066 17.1664 36.9675C17.3701 37.1285 17.4719 37.3375 17.4719 37.5947H16.7598C16.7598 37.4918 16.7269 37.4072 16.6612 37.3409C16.5955 37.2728 16.4928 37.2388 16.3532 37.2388C16.2332 37.2388 16.1404 37.2662 16.0747 37.3209C16.009 37.3757 15.9761 37.4454 15.9761 37.53C15.9761 37.6096 16.0131 37.6743 16.087 37.7241C16.1626 37.7722 16.2891 37.8145 16.4665 37.851C16.6439 37.8859 16.7934 37.9257 16.915 37.9705C17.2912 38.1099 17.4793 38.3513 17.4793 38.6947C17.4793 38.9403 17.375 39.1394 17.1664 39.292C16.9577 39.443 16.6883 39.5185 16.3581 39.5185C16.1347 39.5185 15.9359 39.4787 15.7617 39.399C15.5892 39.3177 15.4537 39.2074 15.3551 39.068C15.2566 38.927 15.2073 38.7752 15.2073 38.6126H15.8825C15.8891 38.7404 15.9359 38.8382 16.023 38.9063C16.11 38.9743 16.2267 39.0083 16.3729 39.0083C16.5092 39.0083 16.6119 38.9826 16.6809 38.9312C16.7516 38.8781 16.7869 38.8092 16.7869 38.7246Z" fill="white"/>
<path d="M17.8293 38.0974C17.8293 37.8303 17.8802 37.5922 17.982 37.3832C18.0839 37.1741 18.2301 37.0123 18.4207 36.8979C18.6129 36.7834 18.8355 36.7261 19.0885 36.7261C19.4483 36.7261 19.7415 36.8373 19.9682 37.0596C20.1966 37.282 20.3239 37.5839 20.3502 37.9655L20.3551 38.1497C20.3551 38.5628 20.241 38.8947 20.0126 39.1452C19.7842 39.3941 19.4779 39.5185 19.0934 39.5185C18.709 39.5185 18.4018 39.3941 18.1718 39.1452C17.9434 38.8963 17.8293 38.5579 17.8293 38.1298V38.0974ZM18.5414 38.1497C18.5414 38.4052 18.5891 38.601 18.6844 38.737C18.7796 38.8714 18.916 38.9386 19.0934 38.9386C19.2659 38.9386 19.4006 38.8723 19.4976 38.7395C19.5945 38.6051 19.643 38.3911 19.643 38.0974C19.643 37.8469 19.5945 37.6528 19.4976 37.5151C19.4006 37.3774 19.2643 37.3085 19.0885 37.3085C18.9144 37.3085 18.7796 37.3774 18.6844 37.5151C18.5891 37.6511 18.5414 37.8627 18.5414 38.1497Z" fill="white"/>
<path d="M20.9885 39.4687V37.3035H20.5917V36.7759H20.9885V36.5469C20.9885 36.245 21.0739 36.011 21.2447 35.8451C21.4172 35.6775 21.6579 35.5938 21.9668 35.5938C22.0653 35.5938 22.1861 35.6103 22.329 35.6435L22.3216 36.201C22.2625 36.1861 22.1902 36.1786 22.1048 36.1786C21.837 36.1786 21.7031 36.3055 21.7031 36.5594V36.7759H22.2329V37.3035H21.7031V39.4687H20.9885Z" fill="white"/>
<path d="M23.4552 36.1139V36.7759H23.9111V37.3035H23.4552V38.6474C23.4552 38.747 23.4741 38.8183 23.5119 38.8615C23.5496 38.9046 23.6219 38.9262 23.7287 38.9262C23.8076 38.9262 23.8774 38.9204 23.9382 38.9088V39.4538C23.7985 39.4969 23.6548 39.5185 23.5069 39.5185C23.0075 39.5185 22.7529 39.2638 22.743 38.7545V37.3035H22.3537V36.7759H22.743V36.1139H23.4552Z" fill="white"/>
<path d="M26.6267 38.4907L26.9766 36.7759H27.6642L26.984 39.4687H26.3877L25.8825 37.7739L25.3773 39.4687H24.7834L24.1033 36.7759H24.7908L25.1383 38.4882L25.6262 36.7759H26.1412L26.6267 38.4907Z" fill="white"/>
<path d="M29.5641 39.4687C29.5312 39.404 29.5074 39.3236 29.4926 39.2273C29.3201 39.4214 29.0959 39.5185 28.8199 39.5185C28.5587 39.5185 28.3418 39.4422 28.1693 39.2895C27.9985 39.1369 27.913 38.9444 27.913 38.7122C27.913 38.4268 28.0174 38.2078 28.226 38.0551C28.4363 37.9025 28.7394 37.8253 29.1353 37.8237H29.4631V37.6694C29.4631 37.5449 29.431 37.4454 29.367 37.3707C29.3045 37.2961 29.2051 37.2587 29.0688 37.2587C28.9489 37.2587 28.8544 37.2878 28.7854 37.3458C28.718 37.4039 28.6844 37.4835 28.6844 37.5847H27.9722C27.9722 37.4288 28.0198 37.2844 28.1151 37.1517C28.2104 37.019 28.3451 36.9153 28.5193 36.8406C28.6934 36.7643 28.8889 36.7261 29.1058 36.7261C29.4343 36.7261 29.6947 36.8099 29.8869 36.9775C30.0808 37.1434 30.1777 37.3774 30.1777 37.6793V38.8465C30.1794 39.1021 30.2147 39.2953 30.2837 39.4264V39.4687H29.5641ZM28.9751 38.9685C29.0803 38.9685 29.1772 38.9453 29.2659 38.8988C29.3546 38.8507 29.4204 38.7868 29.4631 38.7072V38.2443H29.1969C28.8404 38.2443 28.6507 38.3687 28.6277 38.6176L28.6252 38.6599C28.6252 38.7495 28.6564 38.8233 28.7189 38.8814C28.7813 38.9395 28.8667 38.9685 28.9751 38.9685Z" fill="white"/>
<path d="M32.223 37.4504C32.1261 37.4371 32.0407 37.4304 31.9668 37.4304C31.6973 37.4304 31.5207 37.5225 31.4369 37.7067V39.4687H30.7248V36.7759H31.3975L31.4172 37.097C31.5602 36.8497 31.7581 36.7261 32.0111 36.7261C32.09 36.7261 32.1639 36.7369 32.2329 36.7585L32.223 37.4504Z" fill="white"/>
<path d="M33.746 39.5185C33.355 39.5185 33.0363 39.3974 32.7898 39.1552C32.545 38.9129 32.4227 38.5902 32.4227 38.187V38.1173C32.4227 37.8469 32.4744 37.6055 32.5779 37.3931C32.6814 37.1791 32.8276 37.0148 33.0165 36.9003C33.2071 36.7842 33.424 36.7261 33.6671 36.7261C34.0318 36.7261 34.3185 36.8423 34.5271 37.0746C34.7374 37.3068 34.8426 37.6362 34.8426 38.0626V38.3563H33.1447C33.1677 38.5321 33.2367 38.6732 33.3517 38.7793C33.4683 38.8855 33.6154 38.9386 33.7928 38.9386C34.0671 38.9386 34.2815 38.8382 34.436 38.6375L34.7859 39.0332C34.6791 39.1858 34.5345 39.3053 34.3522 39.3916C34.1698 39.4762 33.9678 39.5185 33.746 39.5185ZM33.6646 37.3085C33.5234 37.3085 33.4084 37.3566 33.3196 37.4528C33.2326 37.5491 33.1767 37.6868 33.1521 37.866H34.1427V37.8087C34.1394 37.6495 34.0967 37.5267 34.0146 37.4404C33.9324 37.3525 33.8158 37.3085 33.6646 37.3085Z" fill="white"/>
<path d="M36.3951 38.1024C36.3951 37.6826 36.4879 37.3483 36.6735 37.0994C36.8608 36.8506 37.1163 36.7261 37.4399 36.7261C37.6995 36.7261 37.9139 36.824 38.0831 37.0198V35.646H38.7977V39.4687H38.1545L38.12 39.1825C37.9426 39.4065 37.7143 39.5185 37.435 39.5185C37.1212 39.5185 36.869 39.3941 36.6784 39.1452C36.4895 38.8947 36.3951 38.5471 36.3951 38.1024ZM37.1072 38.1547C37.1072 38.4069 37.1508 38.6002 37.2378 38.7346C37.3249 38.8689 37.4514 38.9361 37.6173 38.9361C37.8375 38.9361 37.9927 38.8424 38.0831 38.6549V37.5922C37.9944 37.4047 37.8408 37.311 37.6223 37.311C37.2789 37.311 37.1072 37.5922 37.1072 38.1547Z" fill="white"/>
<path d="M40.5769 39.5185C40.1859 39.5185 39.8672 39.3974 39.6208 39.1552C39.376 38.9129 39.2536 38.5902 39.2536 38.187V38.1173C39.2536 37.8469 39.3054 37.6055 39.4089 37.3931C39.5124 37.1791 39.6586 37.0148 39.8475 36.9003C40.0381 36.7842 40.2549 36.7261 40.4981 36.7261C40.8628 36.7261 41.1494 36.8423 41.3581 37.0746C41.5684 37.3068 41.6735 37.6362 41.6735 38.0626V38.3563H39.9756C39.9986 38.5321 40.0676 38.6732 40.1826 38.7793C40.2993 38.8855 40.4463 38.9386 40.6237 38.9386C40.8981 38.9386 41.1125 38.8382 41.2669 38.6375L41.6168 39.0332C41.5101 39.1858 41.3655 39.3053 41.1831 39.3916C41.0008 39.4762 40.7987 39.5185 40.5769 39.5185ZM40.4956 37.3085C40.3543 37.3085 40.2393 37.3566 40.1506 37.4528C40.0635 37.5491 40.0077 37.6868 39.983 37.866H40.9737V37.8087C40.9704 37.6495 40.9277 37.5267 40.8455 37.4404C40.7634 37.3525 40.6467 37.3085 40.4956 37.3085Z" fill="white"/>
<path d="M43.0437 38.5902L43.539 36.7759H44.2832L43.3837 39.4687H42.7036L41.8041 36.7759H42.5483L43.0437 38.5902Z" fill="white"/>
<path d="M45.7913 39.5185C45.4003 39.5185 45.0816 39.3974 44.8352 39.1552C44.5904 38.9129 44.468 38.5902 44.468 38.187V38.1173C44.468 37.8469 44.5197 37.6055 44.6232 37.3931C44.7267 37.1791 44.873 37.0148 45.0619 36.9003C45.2525 36.7842 45.4693 36.7261 45.7125 36.7261C46.0772 36.7261 46.3638 36.8423 46.5725 37.0746C46.7828 37.3068 46.8879 37.6362 46.8879 38.0626V38.3563H45.19C45.213 38.5321 45.282 38.6732 45.397 38.7793C45.5137 38.8855 45.6607 38.9386 45.8381 38.9386C46.1125 38.9386 46.3269 38.8382 46.4813 38.6375L46.8312 39.0332C46.7244 39.1858 46.5799 39.3053 46.3975 39.3916C46.2152 39.4762 46.0131 39.5185 45.7913 39.5185ZM45.71 37.3085C45.5687 37.3085 45.4537 37.3566 45.365 37.4528C45.2779 37.5491 45.2221 37.6868 45.1974 37.866H46.1881V37.8087C46.1848 37.6495 46.1421 37.5267 46.0599 37.4404C45.9778 37.3525 45.8611 37.3085 45.71 37.3085Z" fill="white"/>
<path d="M48.0461 39.4687H47.3315V35.646H48.0461V39.4687Z" fill="white"/>
<path d="M48.5242 38.0974C48.5242 37.8303 48.5751 37.5922 48.677 37.3832C48.7788 37.1741 48.925 37.0123 49.1156 36.8979C49.3078 36.7834 49.5304 36.7261 49.7834 36.7261C50.1432 36.7261 50.4365 36.8373 50.6632 37.0596C50.8915 37.282 51.0188 37.5839 51.0451 37.9655L51.0501 38.1497C51.0501 38.5628 50.9359 38.8947 50.7075 39.1452C50.4792 39.3941 50.1728 39.5185 49.7884 39.5185C49.4039 39.5185 49.0967 39.3941 48.8667 39.1452C48.6384 38.8963 48.5242 38.5579 48.5242 38.1298V38.0974ZM49.2364 38.1497C49.2364 38.4052 49.284 38.601 49.3793 38.737C49.4746 38.8714 49.6109 38.9386 49.7884 38.9386C49.9609 38.9386 50.0956 38.8723 50.1925 38.7395C50.2894 38.6051 50.3379 38.3911 50.3379 38.0974C50.3379 37.8469 50.2894 37.6528 50.1925 37.5151C50.0956 37.3774 49.9592 37.3085 49.7834 37.3085C49.6093 37.3085 49.4746 37.3774 49.3793 37.5151C49.284 37.6511 49.2364 37.8627 49.2364 38.1497Z" fill="white"/>
<path d="M53.8889 38.1472C53.8889 38.562 53.7953 38.8947 53.608 39.1452C53.4223 39.3941 53.171 39.5185 52.8539 39.5185C52.5845 39.5185 52.3668 39.4239 52.2009 39.2348V40.5041H51.4887V36.7759H52.1491L52.1738 37.0397C52.3463 36.8307 52.5713 36.7261 52.849 36.7261C53.1775 36.7261 53.433 36.8489 53.6154 37.0945C53.7977 37.34 53.8889 37.6785 53.8889 38.1099V38.1472ZM53.1767 38.0949C53.1767 37.8444 53.1324 37.6511 53.0437 37.5151C52.9566 37.379 52.8293 37.311 52.6617 37.311C52.4383 37.311 52.2847 37.3973 52.2009 37.5698V38.6723C52.2879 38.8499 52.4432 38.9386 52.6666 38.9386C53.0067 38.9386 53.1767 38.6574 53.1767 38.0949Z" fill="white"/>
<path d="M55.0003 36.7759L55.0225 37.077C55.2114 36.8431 55.4668 36.7261 55.7888 36.7261C56.1322 36.7261 56.3679 36.863 56.4961 37.1368C56.6834 36.863 56.9503 36.7261 57.297 36.7261C57.5861 36.7261 57.8013 36.8116 57.9426 36.9825C58.0839 37.1517 58.1545 37.4072 58.1545 37.749V39.4687H57.4399V37.7515C57.4399 37.5989 57.4103 37.4877 57.3512 37.418C57.292 37.3467 57.1877 37.311 57.0382 37.311C56.8247 37.311 56.6768 37.4139 56.5947 37.6196L56.5971 39.4687H55.885V37.754C55.885 37.598 55.8546 37.4852 55.7938 37.4155C55.733 37.3458 55.6295 37.311 55.4833 37.311C55.2812 37.311 55.135 37.3956 55.0446 37.5648V39.4687H54.3325V36.7759H55.0003Z" fill="white"/>
<path d="M59.9313 39.5185C59.5403 39.5185 59.2216 39.3974 58.9751 39.1552C58.7304 38.9129 58.608 38.5902 58.608 38.187V38.1173C58.608 37.8469 58.6597 37.6055 58.7632 37.3931C58.8667 37.1791 59.0129 37.0148 59.2019 36.9003C59.3924 36.7842 59.6093 36.7261 59.8524 36.7261C60.2171 36.7261 60.5038 36.8423 60.7125 37.0746C60.9227 37.3068 61.0279 37.6362 61.0279 38.0626V38.3563H59.33C59.353 38.5321 59.422 38.6732 59.537 38.7793C59.6536 38.8855 59.8007 38.9386 59.9781 38.9386C60.2525 38.9386 60.4668 38.8382 60.6213 38.6375L60.9712 39.0332C60.8644 39.1858 60.7198 39.3053 60.5375 39.3916C60.3551 39.4762 60.1531 39.5185 59.9313 39.5185ZM59.85 37.3085C59.7087 37.3085 59.5937 37.3566 59.505 37.4528C59.4179 37.5491 59.362 37.6868 59.3374 37.866H60.328V37.8087C60.3247 37.6495 60.282 37.5267 60.1999 37.4404C60.1177 37.3525 60.0011 37.3085 59.85 37.3085Z" fill="white"/>
<path d="M62.09 36.7759L62.1122 37.087C62.3027 36.8464 62.5582 36.7261 62.8785 36.7261C63.1611 36.7261 63.3714 36.8099 63.5094 36.9775C63.6474 37.1451 63.718 37.3956 63.7213 37.7291V39.4687H63.0091V37.7465C63.0091 37.5939 62.9763 37.4835 62.9106 37.4155C62.8449 37.3458 62.7356 37.311 62.5828 37.311C62.3824 37.311 62.2321 37.3973 62.1319 37.5698V39.4687H61.4197V36.7759H62.09Z" fill="white"/>
<path d="M65.1161 36.1139V36.7759H65.572V37.3035H65.1161V38.6474C65.1161 38.747 65.135 38.8183 65.1728 38.8615C65.2106 38.9046 65.2828 38.9262 65.3896 38.9262C65.4685 38.9262 65.5383 38.9204 65.5991 38.9088V39.4538C65.4595 39.4969 65.3157 39.5185 65.1678 39.5185C64.6684 39.5185 64.4138 39.2638 64.4039 38.7545V37.3035H64.0146V36.7759H64.4039V36.1139H65.1161Z" fill="white"/>
<path d="M13.9949 45.1682C14.1263 45.1682 14.2331 45.1317 14.3152 45.0587C14.3974 44.9857 14.4401 44.8887 14.4434 44.7676H15.1112C15.1095 44.9501 15.0602 45.1176 14.9633 45.2703C14.8664 45.4213 14.7333 45.5391 14.5641 45.6237C14.3965 45.7066 14.2109 45.7481 14.0072 45.7481C13.626 45.7481 13.3254 45.6262 13.1053 45.3823C12.8851 45.1367 12.775 44.7983 12.775 44.3669V44.3196C12.775 43.9048 12.8843 43.5738 13.1028 43.3266C13.3213 43.0794 13.6211 42.9557 14.0023 42.9557C14.3357 42.9557 14.6027 43.052 14.8031 43.2444C15.0052 43.4352 15.1079 43.6899 15.1112 44.0085H14.4434C14.4401 43.8691 14.3974 43.7563 14.3152 43.67C14.2331 43.5821 14.1246 43.5381 13.9899 43.5381C13.824 43.5381 13.6983 43.5995 13.6129 43.7223C13.5291 43.8434 13.4872 44.0408 13.4872 44.3146V44.3893C13.4872 44.6663 13.5291 44.8654 13.6129 44.9866C13.6967 45.1077 13.824 45.1682 13.9949 45.1682Z" fill="white"/>
<path d="M15.4069 44.327C15.4069 44.0599 15.4578 43.8218 15.5597 43.6128C15.6615 43.4037 15.8077 43.242 15.9983 43.1275C16.1905 43.013 16.4131 42.9557 16.6661 42.9557C17.0259 42.9557 17.3192 43.0669 17.5459 43.2892C17.7742 43.5116 17.9015 43.8135 17.9278 44.1951L17.9328 44.3793C17.9328 44.7924 17.8186 45.1243 17.5902 45.3748C17.3619 45.6237 17.0555 45.7481 16.6711 45.7481C16.2866 45.7481 15.9794 45.6237 15.7494 45.3748C15.5211 45.1259 15.4069 44.7875 15.4069 44.3594V44.327ZM16.1191 44.3793C16.1191 44.6348 16.1667 44.8306 16.262 44.9667C16.3573 45.101 16.4936 45.1682 16.6711 45.1682C16.8436 45.1682 16.9783 45.1019 17.0752 44.9691C17.1721 44.8348 17.2206 44.6207 17.2206 44.327C17.2206 44.0765 17.1721 43.8824 17.0752 43.7447C16.9783 43.607 16.8419 43.5381 16.6661 43.5381C16.492 43.5381 16.3573 43.607 16.262 43.7447C16.1667 43.8807 16.1191 44.0923 16.1191 44.3793Z" fill="white"/>
<path d="M19.0392 43.0055L19.0614 43.3067C19.2503 43.0727 19.5058 42.9557 19.8278 42.9557C20.1711 42.9557 20.4069 43.0926 20.535 43.3664C20.7223 43.0926 20.9893 42.9557 21.3359 42.9557C21.6251 42.9557 21.8403 43.0412 21.9816 43.2121C22.1228 43.3813 22.1935 43.6368 22.1935 43.9786V45.6983H21.4788V43.9811C21.4788 43.8285 21.4493 43.7173 21.3901 43.6476C21.331 43.5763 21.2267 43.5406 21.0772 43.5406C20.8636 43.5406 20.7157 43.6435 20.6336 43.8492L20.6361 45.6983H19.9239V43.9836C19.9239 43.8276 19.8935 43.7148 19.8327 43.6451C19.7719 43.5754 19.6684 43.5406 19.5222 43.5406C19.3201 43.5406 19.1739 43.6252 19.0836 43.7945V45.6983H18.3714V43.0055H19.0392Z" fill="white"/>
<path d="M25.1432 44.3768C25.1432 44.7916 25.0496 45.1243 24.8623 45.3748C24.6766 45.6237 24.4253 45.7481 24.1082 45.7481C23.8388 45.7481 23.6211 45.6536 23.4552 45.4644V46.7337H22.743V43.0055H23.4034L23.4281 43.2693C23.6006 43.0603 23.8256 42.9557 24.1033 42.9557C24.4319 42.9557 24.6873 43.0785 24.8697 43.3241C25.052 43.5696 25.1432 43.9081 25.1432 44.3395V44.3768ZM24.431 44.3246C24.431 44.074 24.3867 43.8807 24.298 43.7447C24.2109 43.6086 24.0836 43.5406 23.916 43.5406C23.6926 43.5406 23.539 43.6269 23.4552 43.7994V44.9019C23.5423 45.0795 23.6975 45.1682 23.9209 45.1682C24.261 45.1682 24.431 44.887 24.431 44.3246Z" fill="white"/>
<path d="M27.1319 45.6983C27.099 45.6336 27.0752 45.5532 27.0604 45.4569C26.8879 45.6511 26.6637 45.7481 26.3877 45.7481C26.1265 45.7481 25.9096 45.6718 25.7371 45.5192C25.5662 45.3665 25.4808 45.1741 25.4808 44.9418C25.4808 44.6564 25.5851 44.4374 25.7938 44.2847C26.0041 44.1321 26.3072 44.0549 26.7031 44.0533H27.0308V43.899C27.0308 43.7745 26.9988 43.675 26.9347 43.6003C26.8723 43.5257 26.7729 43.4883 26.6366 43.4883C26.5166 43.4883 26.4222 43.5174 26.3532 43.5754C26.2858 43.6335 26.2521 43.7132 26.2521 43.8144H25.54C25.54 43.6584 25.5876 43.5141 25.6829 43.3813C25.7782 43.2486 25.9129 43.1449 26.087 43.0702C26.2612 42.9939 26.4567 42.9557 26.6735 42.9557C27.0021 42.9557 27.2625 43.0395 27.4547 43.2071C27.6485 43.373 27.7455 43.607 27.7455 43.9089V45.0762C27.7471 45.3317 27.7824 45.525 27.8514 45.656V45.6983H27.1319ZM26.5429 45.1981C26.6481 45.1981 26.745 45.1749 26.8337 45.1284C26.9224 45.0803 26.9881 45.0164 27.0308 44.9368V44.4739H26.7647C26.4082 44.4739 26.2185 44.5983 26.1955 44.8472L26.193 44.8895C26.193 44.9791 26.2242 45.0529 26.2866 45.111C26.3491 45.1691 26.4345 45.1981 26.5429 45.1981Z" fill="white"/>
<path d="M28.948 43.0055L28.9702 43.3166C29.1608 43.076 29.4162 42.9557 29.7366 42.9557C30.0192 42.9557 30.2295 43.0395 30.3675 43.2071C30.5055 43.3747 30.5761 43.6252 30.5794 43.9587V45.6983H29.8672V43.9761C29.8672 43.8235 29.8344 43.7132 29.7686 43.6451C29.7029 43.5754 29.5937 43.5406 29.4409 43.5406C29.2405 43.5406 29.0901 43.6269 28.9899 43.7994V45.6983H28.2778V43.0055H28.948Z" fill="white"/>
<path d="M32.1171 44.6804L32.6099 43.0055H33.3739L32.3019 46.1165L32.2428 46.2583C32.0834 46.6101 31.8206 46.7859 31.4542 46.7859C31.3507 46.7859 31.2456 46.7702 31.1388 46.7386V46.1936L31.2472 46.1961C31.3819 46.1961 31.4821 46.1754 31.5478 46.1339C31.6152 46.0924 31.6678 46.0235 31.7056 45.9273L31.7893 45.7058L30.8554 43.0055H31.6218L32.1171 44.6804Z" fill="white"/>
<path d="M35.6632 45.6983H34.9485V43.0055H35.6632V45.6983ZM34.9066 42.3087C34.9066 42.2008 34.942 42.1121 35.0126 42.0424C35.0849 41.9727 35.1826 41.9378 35.3058 41.9378C35.4274 41.9378 35.5243 41.9727 35.5966 42.0424C35.6689 42.1121 35.7051 42.2008 35.7051 42.3087C35.7051 42.4182 35.6681 42.5078 35.5942 42.5775C35.5219 42.6471 35.4258 42.682 35.3058 42.682C35.1859 42.682 35.089 42.6471 35.0151 42.5775C34.9428 42.5078 34.9066 42.4182 34.9066 42.3087Z" fill="white"/>
<path d="M36.9076 43.0055L36.9298 43.3166C37.1204 43.076 37.3758 42.9557 37.6962 42.9557C37.9788 42.9557 38.189 43.0395 38.327 43.2071C38.465 43.3747 38.5357 43.6252 38.539 43.9587V45.6983H37.8268V43.9761C37.8268 43.8235 37.7939 43.7132 37.7282 43.6451C37.6625 43.5754 37.5533 43.5406 37.4005 43.5406C37.2 43.5406 37.0497 43.6269 36.9495 43.7994V45.6983H36.2373V43.0055H36.9076Z" fill="white"/>
<path d="M40.3847 45.6983V42.0747H41.6415C42.0768 42.0747 42.407 42.1593 42.6321 42.3286C42.8572 42.4962 42.9697 42.7425 42.9697 43.0677C42.9697 43.2453 42.9245 43.4021 42.8342 43.5381C42.7438 43.6725 42.6182 43.7712 42.4572 43.8343C42.6412 43.8807 42.7857 43.9745 42.8909 44.1155C42.9977 44.2565 43.051 44.4291 43.051 44.6332C43.051 44.9816 42.941 45.2454 42.7208 45.4246C42.5007 45.6038 42.1869 45.695 41.7795 45.6983H40.3847ZM41.124 44.1205V45.0986H41.7573C41.9314 45.0986 42.067 45.0571 42.1639 44.9741C42.2625 44.8895 42.3118 44.7734 42.3118 44.6257C42.3118 44.2939 42.1417 44.1255 41.8017 44.1205H41.124ZM41.124 43.5929H41.6711C42.044 43.5862 42.2304 43.4361 42.2304 43.1424C42.2304 42.9781 42.1828 42.8603 42.0875 42.789C41.9939 42.716 41.8452 42.6795 41.6415 42.6795H41.124V43.5929Z" fill="white"/>
<path d="M44.7884 45.7481C44.3974 45.7481 44.0786 45.627 43.8322 45.3848C43.5874 45.1425 43.465 44.8198 43.465 44.4166V44.347C43.465 44.0765 43.5168 43.8351 43.6203 43.6227C43.7238 43.4087 43.87 43.2444 44.0589 43.13C44.2495 43.0138 44.4664 42.9557 44.7095 42.9557C45.0742 42.9557 45.3609 43.0719 45.5695 43.3042C45.7798 43.5365 45.885 43.8658 45.885 44.2922V44.5859H44.1871C44.2101 44.7617 44.2791 44.9028 44.3941 45.009C44.5107 45.1152 44.6577 45.1682 44.8352 45.1682C45.1095 45.1682 45.3239 45.0679 45.4783 44.8671L45.8283 45.2628C45.7215 45.4155 45.5769 45.5349 45.3946 45.6212C45.2122 45.7058 45.0101 45.7481 44.7884 45.7481ZM44.707 43.5381C44.5657 43.5381 44.4507 43.5862 44.362 43.6825C44.275 43.7787 44.2191 43.9164 44.1945 44.0956H45.1851V44.0384C45.1818 43.8791 45.1391 43.7563 45.057 43.67C44.9748 43.5821 44.8582 43.5381 44.707 43.5381Z" fill="white"/>
<path d="M47.0432 45.6983H46.3285V41.8756H47.0432V45.6983Z" fill="white"/>
<path d="M49.1772 45.6983C49.1444 45.6336 49.1205 45.5532 49.1057 45.4569C48.9333 45.6511 48.709 45.7481 48.433 45.7481C48.1718 45.7481 47.9549 45.6718 47.7824 45.5192C47.6116 45.3665 47.5262 45.1741 47.5262 44.9418C47.5262 44.6564 47.6305 44.4374 47.8391 44.2847C48.0494 44.1321 48.3525 44.0549 48.7484 44.0533H49.0762V43.899C49.0762 43.7745 49.0441 43.675 48.9801 43.6003C48.9176 43.5257 48.8183 43.4883 48.6819 43.4883C48.562 43.4883 48.4675 43.5174 48.3985 43.5754C48.3311 43.6335 48.2975 43.7132 48.2975 43.8144H47.5853C47.5853 43.6584 47.6329 43.5141 47.7282 43.3813C47.8235 43.2486 47.9582 43.1449 48.1324 43.0702C48.3065 42.9939 48.502 42.9557 48.7189 42.9557C49.0474 42.9557 49.3078 43.0395 49.5 43.2071C49.6939 43.373 49.7908 43.607 49.7908 43.9089V45.0762C49.7925 45.3317 49.8278 45.525 49.8968 45.656V45.6983H49.1772ZM48.5883 45.1981C48.6934 45.1981 48.7903 45.1749 48.879 45.1284C48.9678 45.0803 49.0335 45.0164 49.0762 44.9368V44.4739H48.81C48.4535 44.4739 48.2638 44.5983 48.2408 44.8472L48.2383 44.8895C48.2383 44.9791 48.2695 45.0529 48.332 45.111C48.3944 45.1691 48.4798 45.1981 48.5883 45.1981Z" fill="white"/>
<path d="M51.8362 43.68C51.7392 43.6667 51.6538 43.6601 51.5799 43.6601C51.3104 43.6601 51.1338 43.7521 51.0501 43.9363V45.6983H50.3379V43.0055H51.0106L51.0303 43.3266C51.1733 43.0794 51.3712 42.9557 51.6242 42.9557C51.7031 42.9557 51.777 42.9665 51.846 42.9881L51.8362 43.68Z" fill="white"/>
<path d="M53.778 45.4246C53.6022 45.6403 53.3591 45.7481 53.0486 45.7481C52.7627 45.7481 52.5442 45.6652 52.3931 45.4992C52.2436 45.3333 52.1672 45.0903 52.1639 44.77V43.0055H52.8761V44.7452C52.8761 45.0256 53.0026 45.1658 53.2556 45.1658C53.4971 45.1658 53.663 45.0811 53.7534 44.9119V43.0055H54.468V45.6983H53.7977L53.778 45.4246Z" fill="white"/>
<path d="M56.4493 44.9542C56.4493 44.8663 56.4057 44.7974 56.3187 44.7476C56.2332 44.6962 56.0952 44.6506 55.9047 44.6108C55.2705 44.4764 54.9535 44.2043 54.9535 43.7945C54.9535 43.5555 55.0512 43.3564 55.2467 43.1972C55.4438 43.0362 55.701 42.9557 56.018 42.9557C56.3564 42.9557 56.6267 43.0362 56.8288 43.1972C57.0325 43.3581 57.1343 43.5671 57.1343 43.8243H56.4222C56.4222 43.7215 56.3893 43.6368 56.3236 43.5705C56.2579 43.5024 56.1552 43.4684 56.0156 43.4684C55.8956 43.4684 55.8028 43.4958 55.7371 43.5506C55.6714 43.6053 55.6385 43.675 55.6385 43.7596C55.6385 43.8393 55.6755 43.904 55.7494 43.9537C55.825 44.0019 55.9515 44.0442 56.1289 44.0807C56.3063 44.1155 56.4558 44.1553 56.5774 44.2001C56.9536 44.3395 57.1417 44.5809 57.1417 44.9243C57.1417 45.1699 57.0374 45.369 56.8288 45.5216C56.6201 45.6726 56.3507 45.7481 56.0205 45.7481C55.7971 45.7481 55.5983 45.7083 55.4241 45.6287C55.2516 45.5474 55.1161 45.437 55.0175 45.2977C54.919 45.1566 54.8697 45.0048 54.8697 44.8422H55.5449C55.5515 44.97 55.5983 45.0679 55.6853 45.1359C55.7724 45.2039 55.8891 45.2379 56.0353 45.2379C56.1716 45.2379 56.2743 45.2122 56.3433 45.1608C56.4139 45.1077 56.4493 45.0388 56.4493 44.9542Z" fill="white"/>
</svg>
