<svg width="22" height="19" viewBox="0 0 22 19" fill="none" xmlns="http://www.w3.org/2000/svg">
<path fill-rule="evenodd" clip-rule="evenodd" d="M19.37 5.60374C19.37 5.40374 19.37 5.20376 19.37 5.00376C20.2449 4.35498 20.9939 3.55177 21.58 2.63373C20.7747 2.99531 19.9176 3.22815 19.04 3.32374C19.9738 2.74542 20.6638 1.84557 20.98 0.793739C20.1181 1.31481 19.1698 1.67721 18.18 1.86375C17.7792 1.39952 17.2856 1.02441 16.731 0.762611C16.1764 0.500811 15.5731 0.358142 14.96 0.343757C14.3653 0.350118 13.7777 0.475096 13.2319 0.711403C12.6861 0.947709 12.1929 1.29058 11.7812 1.71992C11.3696 2.14925 11.0478 2.65642 10.8346 3.21171C10.6215 3.767 10.5213 4.35924 10.54 4.95374C10.5365 5.31009 10.5734 5.66569 10.65 6.01374C8.86065 5.88703 7.11995 5.37453 5.54742 4.51145C3.97488 3.64837 2.60777 2.45515 1.54 1.01374C0.97119 2.05441 0.796608 3.26525 1.04824 4.42423C1.29987 5.58321 1.96085 6.61263 2.90999 7.32374C2.20286 7.29055 1.51529 7.08086 0.909995 6.71375V6.77375C0.889056 7.83597 1.22862 8.87396 1.87331 9.71842C2.51801 10.5629 3.42983 11.164 4.46001 11.4237C3.8092 11.6129 3.121 11.6335 2.46001 11.4837C2.70854 12.3911 3.23637 13.1971 3.96868 13.7877C4.70099 14.3782 5.60062 14.7232 6.54 14.7737C5.6441 15.5327 4.59971 16.0963 3.47359 16.4286C2.34747 16.761 1.16439 16.8546 -8.54492e-06 16.7037C1.98634 18.0881 4.34883 18.8314 6.77001 18.8337C14.89 18.8337 19.34 11.7638 19.34 5.62375L19.37 5.60374Z" fill="#BDBDBD"/>
</svg>
