<svg width="22" height="21" viewBox="0 0 22 21" fill="none" xmlns="http://www.w3.org/2000/svg">
<path fill-rule="evenodd" clip-rule="evenodd" d="M0.529549 20.8356H4.37952V5.42563H0.529549V20.8356ZM15.9395 5.42563C14.9505 5.46966 13.9817 5.72121 13.0962 6.16397C12.2107 6.60673 11.4282 7.23081 10.7995 7.99563V5.42563H6.94953V20.8356H10.7995V11.8356C10.8832 11.4139 11.0492 11.0128 11.288 10.6553C11.5269 10.2978 11.8339 9.99088 12.1915 9.75216C12.5491 9.51345 12.9503 9.34762 13.3721 9.26413C13.7939 9.18064 14.228 9.18114 14.6495 9.26562C16.2795 9.37562 17.1595 11.5356 17.2195 11.8356V20.8356H21.0595V10.1856C21.0541 9.53124 20.9151 8.88483 20.6513 8.28598C20.3874 7.68713 20.0041 7.14844 19.5248 6.70285C19.0455 6.25726 18.4803 5.91416 17.8638 5.69455C17.2474 5.47494 16.5926 5.38343 15.9395 5.42563ZM2.44953 0.265625C2.06781 0.265625 1.69465 0.37881 1.37727 0.590881C1.05988 0.802952 0.812528 1.10437 0.666451 1.45703C0.520374 1.80969 0.482118 2.19776 0.556588 2.57214C0.631057 2.94653 0.814871 3.29042 1.08479 3.56033C1.3547 3.83025 1.69862 4.01406 2.07301 4.08853C2.44739 4.163 2.83546 4.12478 3.18812 3.9787C3.54078 3.83262 3.8422 3.58527 4.05427 3.26788C4.26634 2.9505 4.37952 2.57734 4.37952 2.19562C4.37952 1.68375 4.17622 1.19285 3.81428 0.830902C3.45233 0.468957 2.9614 0.265625 2.44953 0.265625Z" fill="#BDBDBD"/>
</svg>
