<svg width="24" height="24" viewBox="0 0 24 24" fill="none" xmlns="http://www.w3.org/2000/svg">
<g clip-path="url(#clip0)">
<path d="M11.2395 13.5447C10.2981 14.3899 10.3682 15.886 11.3846 16.6394L12.7922 17.6829L18.3102 21.7239C19.3222 22.2879 20.0352 21.9909 20.3082 20.7929L23.93 3.82161C23.9301 3.82116 23.9304 3.82074 23.9307 3.82042C23.931 3.82009 23.9312 3.81966 23.9313 3.81921C24.2519 2.32373 23.39 1.73897 22.4042 2.10592L1.11418 10.2569C-0.338822 10.8209 -0.316822 11.6309 0.867178 11.9979L5.43355 13.4183C5.99005 13.5913 6.59438 13.5131 7.08844 13.2039L18.9532 5.77992C19.5482 5.38592 20.0892 5.60392 19.6442 5.99792L11.2395 13.5447Z" fill="#172B4D"/>
</g>
<defs>
<clipPath id="clip0">
<rect width="24" height="24" fill="white"/>
</clipPath>
</defs>
</svg>
