<svg width="24" height="24" viewBox="0 0 24 24" fill="none" xmlns="http://www.w3.org/2000/svg">
<path fill-rule="evenodd" clip-rule="evenodd" d="M19.9618 4.00809C17.8569 1.90063 15.0574 0.739517 12.075 0.738281C5.92955 0.738281 0.928024 5.73967 0.925552 11.8868C0.924728 13.8518 1.43806 15.77 2.41379 17.4608L0.832031 23.2383L6.74254 21.6878C8.37112 22.5762 10.2046 23.0444 12.0705 23.0449H12.0752C18.22 23.0449 23.222 18.0431 23.2244 11.8957C23.2256 8.9165 22.067 6.1154 19.9618 4.00809ZM12.075 21.162H12.0712C10.4084 21.1613 8.77762 20.7144 7.35461 19.8703L7.01637 19.6694L3.50899 20.5895L4.44516 17.1698L4.22475 16.8192C3.29709 15.3438 2.80724 13.6384 2.80806 11.8875C2.80998 6.77815 6.96721 2.62134 12.0787 2.62134C14.554 2.62216 16.8807 3.58731 18.6303 5.33894C20.3799 7.09057 21.3428 9.41885 21.342 11.895C21.3398 17.0048 17.1828 21.162 12.075 21.162ZM17.1581 14.2215C16.8796 14.082 15.5099 13.4083 15.2545 13.3152C14.9993 13.2222 14.8134 13.1759 14.6278 13.4547C14.442 13.7335 13.9082 14.3611 13.7456 14.5469C13.583 14.7328 13.4207 14.7561 13.1421 14.6166C12.8634 14.4772 11.9658 14.1829 10.9017 13.2339C10.0736 12.4952 9.51452 11.5829 9.35193 11.3041C9.1896 11.0251 9.35055 10.8888 9.47415 10.7356C9.77572 10.3611 10.0777 9.96844 10.1705 9.78264C10.2635 9.59669 10.217 9.43396 10.1472 9.29457C10.0777 9.15518 9.52057 7.78395 9.28848 7.22598C9.06216 6.68298 8.83269 6.75632 8.66157 6.7478C8.49925 6.7397 8.31344 6.73805 8.12764 6.73805C7.94197 6.73805 7.64012 6.80768 7.38469 7.08673C7.12939 7.36564 6.40979 8.03952 6.40979 9.41075C6.40979 10.782 7.40803 12.1067 7.54729 12.2926C7.68654 12.4785 9.51178 15.2924 12.3063 16.499C12.971 16.7863 13.4898 16.9575 13.8945 17.0859C14.5619 17.298 15.169 17.268 15.6492 17.1963C16.1845 17.1163 17.2972 16.5223 17.5296 15.8717C17.7617 15.2209 17.7617 14.6632 17.6919 14.5469C17.6224 14.4307 17.4366 14.3611 17.1581 14.2215Z" fill="#172B4D"/>
</svg>
